<svg xmlns="http://www.w3.org/2000/svg" xmlns:xlink="http://www.w3.org/1999/xlink" width="135" height="43" viewBox="0 0 135 43">
  <defs>
    <clipPath id="clip-path">
      <path id="Path_24" data-name="Path 24" d="M349.9,13.017a12.492,12.492,0,0,1,4.514,16.992,12.432,12.432,0,0,1-21.506-12.478A12.492,12.492,0,0,1,349.9,13.017Z" transform="translate(-331.25 -11.36)"/>
    </clipPath>
    <clipPath id="clip-Artboard_3">
      <rect width="135" height="43"/>
    </clipPath>
  </defs>
  <g id="Artboard_3" data-name="Artboard – 3" clip-path="url(#clip-Artboard_3)">
    <g id="Group_20752" data-name="Group 20752" transform="translate(0.798 1.109)" style="isolation: isolate">
      <path id="Path_1" data-name="Path 1" d="M112.019,17.736a15.026,15.026,0,0,0,1.837.863,25.757,25.757,0,0,1,3.232,1.545,7.371,7.371,0,0,1,2.325,2.21,6.2,6.2,0,0,1,1.007,3.625,6.8,6.8,0,0,1-4.032,6.4,10.209,10.209,0,0,1-4.419.91,11.832,11.832,0,0,1-4.159-.845A23.368,23.368,0,0,1,103.65,30.4l2.34-5.622a33.4,33.4,0,0,0,3.185,1.722,6.185,6.185,0,0,0,2.34.715,2.474,2.474,0,0,0,1.35-.325,1.023,1.023,0,0,0,.505-.91q0-.421-.567-.762a15.154,15.154,0,0,0-1.835-.863,22.12,22.12,0,0,1-3.185-1.527,7.407,7.407,0,0,1-2.289-2.227,6.255,6.255,0,0,1-.993-3.625,7.248,7.248,0,0,1,1.022-3.849,6.764,6.764,0,0,1,2.91-2.585,9.916,9.916,0,0,1,4.354-.91,11.591,11.591,0,0,1,4,.762,18.382,18.382,0,0,1,3.769,1.87l-2.372,5.394a14.135,14.135,0,0,0-2.535-1.332,6.773,6.773,0,0,0-2.535-.552,2.033,2.033,0,0,0-1.2.325,1.019,1.019,0,0,0-.455.877C111.452,17.255,111.641,17.509,112.019,17.736Z" transform="translate(-73.257 -6.785)" fill="#38bbd1"/>
      <path id="Path_2" data-name="Path 2" d="M182.685,31.494a12.468,12.468,0,0,1-3.264,1.412,13.262,13.262,0,0,1-3.592.505,12.105,12.105,0,0,1-5.979-1.462,10.408,10.408,0,0,1-4.112-4.127,12.431,12.431,0,0,1-1.477-6.142,12.463,12.463,0,0,1,1.477-6.142,10.39,10.39,0,0,1,4.112-4.127,12.105,12.105,0,0,1,5.979-1.462,13.943,13.943,0,0,1,6.532,1.69l-2.372,5.719a5.9,5.9,0,0,0-3.087-.877,5.728,5.728,0,0,0-2.682.65,5.134,5.134,0,0,0-2,1.835,5.313,5.313,0,0,0,.015,5.459,5.119,5.119,0,0,0,2,1.82,5.692,5.692,0,0,0,2.632.635,5.616,5.616,0,0,0,3.444-1.137Z" transform="translate(-116.1 -7.011)" fill="#05d17d"/>
      <g id="Group_2" data-name="Group 2" transform="translate(0 2.136)">
        <circle id="Ellipse_1" data-name="Ellipse 1" cx="12.992" cy="12.992" r="12.992" transform="translate(0.614 0.363)" fill="#fff"/>
        <g id="qu6ZpE.tif_1_">
          <g id="Group_1" data-name="Group 1">
            <path id="Path_3" data-name="Path 3" d="M13.249,7.23H14a.462.462,0,0,0,.2.03,6.56,6.56,0,0,1,1.022.077,14.276,14.276,0,0,1,3.743.963,14.037,14.037,0,0,1,4.275,2.744,11.894,11.894,0,0,1,2.024,2.535A13.213,13.213,0,0,1,27.2,19.944a13.655,13.655,0,0,1-.487,4.467,13.068,13.068,0,0,1-3.681,6.074,13.432,13.432,0,0,1-4.094,2.567,13.826,13.826,0,0,1-4.41,1,14.416,14.416,0,0,1-3.548-.207,13.712,13.712,0,0,1-4.021-1.421,12.9,12.9,0,0,1-3.495-2.671A13.572,13.572,0,0,1,.038,21.64a13.834,13.834,0,0,1,.047-2.594,13.6,13.6,0,0,1,1.51-4.8,12.275,12.275,0,0,1,2.942-3.707,14.03,14.03,0,0,1,7.908-3.25A6.127,6.127,0,0,0,13.249,7.23ZM7.7,19.767v5.09c0,.425,0,.369-.366.375a3.394,3.394,0,0,0-1.17.1c-.225.083-.455.142-.682.213l-.656.2c-.038.012-.086.024-.109-.024s.006-.071.03-.1.062-.071.095-.1c.162-.183.363-.325.529-.5.272-.287.532-.582.792-.877a2.2,2.2,0,0,0,.609-1.489q0-4.01,0-8.017c0-.189-.053-.239-.242-.233a1.359,1.359,0,0,0-.154.018,5.5,5.5,0,0,1-1.146.05,9.169,9.169,0,0,0-1.3-.092,1.573,1.573,0,0,0-1.409,2.34.139.139,0,0,0,.142.1c.086-.006.086-.071.095-.136a.662.662,0,0,1,.688-.638c.363-.027.727-.027,1.09-.021a1.034,1.034,0,0,0,.558-.162c.3-.174.606-.34.91-.508.035-.021.08-.053.112-.009s-.018.065-.038.092c-.287.4-.576.8-.86,1.2a3.418,3.418,0,0,0-.668,1.424,7.244,7.244,0,0,0-.05,1.1c0,.207-.012.219-.222.219-.29,0-.582,0-.871,0a.277.277,0,0,0-.26.133c-.272.39-.552.777-.83,1.164-.044.065-.1.133-.059.213s.13.071.207.071H4.348c.2,0,.219.018.222.225,0,.866.006,1.734,0,2.6a2.869,2.869,0,0,1-.431,1.459,12.984,12.984,0,0,1-.96,1.338c-.047.059-.109.118-.071.207s.133.089.216.089H6.579a.347.347,0,0,0,.18-.035c.461-.269.886-.594,1.341-.874a.38.38,0,0,0,.18-.366c-.006-1.173,0-2.346,0-3.518,0-.331,0-.665,0-1,0-.08.009-.174.115-.168.275.018.549-.041.824-.009a4.106,4.106,0,0,0,.762.006c.387-.027.387-.032.387.349v3.831a.343.343,0,0,0,.083.287c.455.425.907.854,1.362,1.276.21.195.3.189.541.024.3-.207.6-.4.907-.6.225-.148.455-.292.674-.449.124-.089.124-.189.006-.263-.357-.222-.668-.508-1.019-.739a.311.311,0,0,1-.151-.284c0-.925,0-1.846,0-2.771,0-1.063.006-2.127,0-3.19a16.275,16.275,0,0,1,.171-3.1c.05-.266.077-.535.1-.8.018-.183-.062-.23-.225-.151-.13.065-.26.133-.387.2-.6.331-1.193.671-1.8.987a.485.485,0,0,0-.316.517c.03,1.028.012,2.056.012,3.081,0,.195-.03.225-.227.225-.529,0-1.058,0-1.589,0-.251,0-.263-.012-.263-.263V14.618c0-.068,0-.136,0-.2,0-.041-.012-.092-.056-.1a.681.681,0,0,0-.414,0c-.1.038-.059.157-.062.239C7.7,16.3,7.7,18.033,7.7,19.767Zm10.534.916c0,.966,0,1.932,0,2.9a.576.576,0,0,1-.142.4,2.588,2.588,0,0,0-.195.242c-.086.124-.18.121-.287.03a3.78,3.78,0,0,1-.883-1.1,4.447,4.447,0,0,1-.467-2.517,4.941,4.941,0,0,1,.544-1.8,4.252,4.252,0,0,1,.573-.869c.053-.062.095-.133.041-.213s-.112-.032-.168-.009A5.075,5.075,0,0,0,15.1,19.4a4.034,4.034,0,0,0-.694,1.465,4.9,4.9,0,0,0,.47,3.586,3.753,3.753,0,0,0,.547.771,5.474,5.474,0,0,0,.948.821,4.6,4.6,0,0,0,1.427.641,6.215,6.215,0,0,0,1.9.142,5.119,5.119,0,0,0,3.1-1.247A3.759,3.759,0,0,0,24.1,23c.009-.074.012-.151-.08-.18s-.127.041-.162.106a3.521,3.521,0,0,1-.375.532,3.7,3.7,0,0,1-1.4,1.034c-.168.071-.183.059-.183-.127V16.925c0-.417,0-.411.425-.449a1.627,1.627,0,0,0,1.2-.662,4.309,4.309,0,0,0,.709-1.905c.009-.047.012-.1-.041-.121a.112.112,0,0,0-.13.021,2.1,2.1,0,0,0-.157.171,1.315,1.315,0,0,1-.9.505,7.618,7.618,0,0,1-1.445.021c-.936-.059-1.864-.222-2.8-.281a5.636,5.636,0,0,0-2.467.269,2.623,2.623,0,0,0-.78.446,2.258,2.258,0,0,0-.765,1.288,2.937,2.937,0,0,0,.109,1.412.215.215,0,0,0,.127.165c.13.041.216-.015.251-.168A1.653,1.653,0,0,1,16.3,16.408a4.1,4.1,0,0,1,1.53-.233A14.042,14.042,0,0,1,20,16.361c.044.006.106,0,.121.056s-.05.071-.089.092c-.476.257-.936.541-1.43.756a.6.6,0,0,0-.378.665C18.244,18.846,18.236,19.764,18.239,20.683Z" transform="translate(0 -7.23)" fill="#00b1cd"/>
            <path id="Path_4" data-name="Path 4" d="M64.924,42.688V46.6c0,.242,0,.248-.239.3a5.169,5.169,0,0,1-2.4-.027c-.165-.041-.322-.112-.484-.168-.038-.015-.086-.024-.086-.077s.044-.065.08-.086c.375-.2.75-.4,1.123-.6.192-.1.378-.216.576-.31a.312.312,0,0,0,.186-.334c-.006-.585,0-1.173,0-1.758,0-1.385,0-2.771,0-4.156a.418.418,0,0,1,.154-.352,2.829,2.829,0,0,0,.363-.34c.192-.23.434-.145.665-.127.068,0,.071.065.074.118,0,.095,0,.186,0,.281C64.924,40.2,64.924,41.444,64.924,42.688Z" transform="translate(-43.48 -29.282)" fill="#00b1cd"/>
          </g>
        </g>
      </g>
      <g id="Group_3" data-name="Group 3" transform="translate(30.468 32.827)">
        <path id="Path_5" data-name="Path 5" d="M106.737,103.8a1.254,1.254,0,0,1,.81.391,1.273,1.273,0,0,1,.328.913,1.427,1.427,0,0,1-.47,1.13,1.9,1.9,0,0,1-1.292.411H104.16V101.11h1.85a2.011,2.011,0,0,1,1.3.383,1.286,1.286,0,0,1,.474,1.055A1.159,1.159,0,0,1,106.737,103.8Zm-.767-1.889h-.9v1.518h.9a1.013,1.013,0,0,0,.668-.2.774.774,0,0,0,0-1.119A1.032,1.032,0,0,0,105.97,101.908Zm.126,3.937a.894.894,0,0,0,.64-.221.808.808,0,0,0,.229-.617.731.731,0,0,0-.237-.565.884.884,0,0,0-.624-.217h-1.036v1.62Z" transform="translate(-104.16 -101.11)"/>
        <path id="Path_6" data-name="Path 6" d="M118.205,105.79h.862v3.7a1.746,1.746,0,0,1-.482,1.312,1.78,1.78,0,0,1-1.249.427,1.91,1.91,0,0,1-1.265-.379,1.254,1.254,0,0,1-.411-.956h.87a.682.682,0,0,0,.209.47.882.882,0,0,0,.581.154.823.823,0,0,0,.648-.265,1.213,1.213,0,0,0,.237-.826v-.466a1.261,1.261,0,0,1-1.186.609,1.237,1.237,0,0,1-1.008-.423,1.685,1.685,0,0,1-.352-1.111V105.79h.862v2.063c0,.636.265.956.8.956a.768.768,0,0,0,.66-.308,1.334,1.334,0,0,0,.225-.806Z" transform="translate(-111.115 -103.94)"/>
        <path id="Path_7" data-name="Path 7" d="M132.18,106.643V101.11h.909v2.379h2.285V101.11h.909v5.533h-.909V104.3h-2.285v2.34Z" transform="translate(-121.105 -101.11)"/>
        <path id="Path_8" data-name="Path 8" d="M146.039,102.3a.659.659,0,1,1,.182-.455A.62.62,0,0,1,146.039,102.3Zm-.893,4.4V103.02h.862V106.7Z" transform="translate(-128.822 -101.17)"/>
        <path id="Path_9" data-name="Path 9" d="M150.44,109.329v-3.684h.862v.514a1.275,1.275,0,0,1,1.2-.609q1.346,0,1.344,1.462v2.316h-.862v-1.921a1.543,1.543,0,0,0-.182-.862.707.707,0,0,0-.624-.261.807.807,0,0,0-.648.265,1.112,1.112,0,0,0-.229.755v2.024Z" transform="translate(-132.148 -103.795)"/>
        <path id="Path_10" data-name="Path 10" d="M164.048,101.11h.862v5.533h-.862v-.5a1.111,1.111,0,0,1-.494.431,1.577,1.577,0,0,1-.684.162,1.678,1.678,0,0,1-1.336-.545,2.041,2.041,0,0,1-.474-1.391,1.992,1.992,0,0,1,.5-1.387,1.712,1.712,0,0,1,1.336-.549,1.448,1.448,0,0,1,.68.158,1.15,1.15,0,0,1,.474.435ZM163,105.972a1,1,0,0,0,.81-.332,1.391,1.391,0,0,0,0-1.676,1.131,1.131,0,0,0-1.6,0,1.373,1.373,0,0,0,0,1.684A.987.987,0,0,0,163,105.972Z" transform="translate(-138.571 -101.11)"/>
        <path id="Path_11" data-name="Path 11" d="M174.868,109.569a1.345,1.345,0,0,1-1-.372,1.477,1.477,0,0,1-.372-1.091V105.79h.862v2.1a1.19,1.19,0,0,0,.174.7.666.666,0,0,0,.577.237.816.816,0,0,0,.68-.265,1.086,1.086,0,0,0,.213-.7V105.79h.862v3.684h-.862v-.514A1.194,1.194,0,0,1,174.868,109.569Z" transform="translate(-146.094 -103.94)"/>
        <path id="Path_12" data-name="Path 12" d="M185.685,109.423a1.728,1.728,0,0,1-1.13-.356,1.087,1.087,0,0,1-.435-.87h.862a.459.459,0,0,0,.209.387.914.914,0,0,0,.541.15.589.589,0,0,0,.387-.119.393.393,0,0,0,.142-.316.353.353,0,0,0-.277-.387l-.949-.261a.972.972,0,0,1-.8-1.02.948.948,0,0,1,.4-.771,1.593,1.593,0,0,1,1.02-.312,1.634,1.634,0,0,1,1.079.316,1.033,1.033,0,0,1,.375.83h-.846a.423.423,0,0,0-.17-.36.756.756,0,0,0-.47-.13.633.633,0,0,0-.379.107.325.325,0,0,0-.15.273.388.388,0,0,0,.316.4l.877.253a1.292,1.292,0,0,1,.617.375.891.891,0,0,1,.237.613,1.089,1.089,0,0,1-.383.87A1.586,1.586,0,0,1,185.685,109.423Z" transform="translate(-152.516 -103.795)"/>
        <path id="Path_13" data-name="Path 13" d="M194.884,107.041a2.617,2.617,0,0,0,.435-.032v.759a3.717,3.717,0,0,1-.64.047,2.035,2.035,0,0,1-.372-.032,1.375,1.375,0,0,1-.372-.146.757.757,0,0,1-.332-.4,1.886,1.886,0,0,1-.119-.719V104.8h-.624v-.719h.624V102.97h.862v1.115h.846v.719h-.846v1.518a.92.92,0,0,0,.126.581A.522.522,0,0,0,194.884,107.041Z" transform="translate(-157.802 -102.235)"/>
        <path id="Path_14" data-name="Path 14" d="M202.09,109.423a1.678,1.678,0,0,1-1.336-.545,2.041,2.041,0,0,1-.474-1.391,1.992,1.992,0,0,1,.5-1.387,1.712,1.712,0,0,1,1.336-.549,1.448,1.448,0,0,1,.68.158,1.15,1.15,0,0,1,.474.435v-.5h.862v3.684h-.862v-.5a1.111,1.111,0,0,1-.494.431A1.577,1.577,0,0,1,202.09,109.423Zm.126-.767a1,1,0,0,0,.81-.332,1.391,1.391,0,0,0,0-1.676,1.131,1.131,0,0,0-1.6,0,1.373,1.373,0,0,0,0,1.684A.987.987,0,0,0,202.217,108.657Z" transform="translate(-162.289 -103.795)"/>
        <path id="Path_15" data-name="Path 15" d="M212.82,109.329v-3.684h.862v.514a1.275,1.275,0,0,1,1.2-.609q1.346,0,1.344,1.462v2.316h-.862v-1.921a1.544,1.544,0,0,0-.182-.862.708.708,0,0,0-.625-.261.807.807,0,0,0-.648.265,1.112,1.112,0,0,0-.229.755v2.024Z" transform="translate(-169.873 -103.795)"/>
        <path id="Path_16" data-name="Path 16" d="M229.445,106.643v-4.68h-1.6v-.854h4.126v.854h-1.613v4.68Z" transform="translate(-178.956 -101.11)"/>
        <path id="Path_17" data-name="Path 17" d="M240.159,102.3a.659.659,0,1,1,.182-.455A.62.62,0,0,1,240.159,102.3Zm-.893,4.4V103.02h.862V106.7Z" transform="translate(-185.741 -101.17)"/>
        <path id="Path_18" data-name="Path 18" d="M244.56,109.329v-3.684h.862v.514a1.02,1.02,0,0,1,.4-.439,1.157,1.157,0,0,1,.624-.17,1.134,1.134,0,0,1,1.162.656,1.1,1.1,0,0,1,.443-.47,1.319,1.319,0,0,1,.688-.186q1.328,0,1.328,1.447v2.332h-.862v-2.166q0-.877-.688-.877a.707.707,0,0,0-.569.241,1.323,1.323,0,0,0-.206.85v1.953h-.862v-2.174c0-.581-.225-.87-.672-.87a.721.721,0,0,0-.581.241,1.321,1.321,0,0,0-.209.85v1.953h-.862Z" transform="translate(-189.068 -103.795)"/>
        <path id="Path_19" data-name="Path 19" d="M264.113,107.3q0,.142-.024.474h-2.735a.891.891,0,0,0,.285.668,1.1,1.1,0,0,0,.743.233.831.831,0,0,0,.822-.419h.87a1.262,1.262,0,0,1-.557.842,1.939,1.939,0,0,1-1.134.328,1.823,1.823,0,0,1-1.376-.522,2.233,2.233,0,0,1,0-2.826,1.771,1.771,0,0,1,1.348-.526,1.728,1.728,0,0,1,1.277.486A1.71,1.71,0,0,1,264.113,107.3Zm-2.759-.182h1.913a.878.878,0,0,0-.249-.656.948.948,0,0,0-.684-.229,1,1,0,0,0-.711.245A.867.867,0,0,0,261.354,107.115Z" transform="translate(-198.707 -103.795)"/>
        <path id="Path_20" data-name="Path 20" d="M272.605,109.423a1.728,1.728,0,0,1-1.13-.356,1.087,1.087,0,0,1-.435-.87h.862a.459.459,0,0,0,.209.387.915.915,0,0,0,.542.15.589.589,0,0,0,.387-.119.392.392,0,0,0,.142-.316.354.354,0,0,0-.277-.387l-.949-.261a.972.972,0,0,1-.8-1.02.948.948,0,0,1,.4-.771,1.593,1.593,0,0,1,1.02-.312,1.634,1.634,0,0,1,1.079.316,1.033,1.033,0,0,1,.376.83h-.846a.423.423,0,0,0-.17-.36.756.756,0,0,0-.47-.13.634.634,0,0,0-.379.107.325.325,0,0,0-.15.273.388.388,0,0,0,.316.4l.877.253a1.292,1.292,0,0,1,.617.375.891.891,0,0,1,.237.613,1.089,1.089,0,0,1-.383.87A1.586,1.586,0,0,1,272.605,109.423Z" transform="translate(-205.081 -103.795)"/>
      </g>
      <g id="Group_7" data-name="Group 7" transform="translate(96.99 1.137)">
        <path id="Path_21" data-name="Path 21" d="M363.611,97.7h-9.932a1.049,1.049,0,0,1-1.049-1.049h0a1.049,1.049,0,0,1,1.049-1.049h9.932a1.049,1.049,0,0,1,1.049,1.049h0A1.047,1.047,0,0,1,363.611,97.7Z" transform="translate(-346.314 -66.795)" fill="#ff6417"/>
        <path id="Path_22" data-name="Path 22" d="M365.656,107.827h-6.978a1.049,1.049,0,0,1-1.049-1.049h0a1.049,1.049,0,0,1,1.049-1.049h6.978a1.049,1.049,0,0,1,1.049,1.049h0A1.045,1.045,0,0,1,365.656,107.827Z" transform="translate(-349.837 -73.933)" fill="#ff6417"/>
        <g id="Group_5" data-name="Group 5" transform="translate(0 2.219)">
          <g id="Group_4" data-name="Group 4" clip-path="url(#clip-path)">
            <path id="Path_23" data-name="Path 23" d="M354.4,17.531A12.432,12.432,0,0,0,332.9,30.009a12.254,12.254,0,0,0,4.514,4.514c.242.142.487.272.736.4a.917.917,0,0,1,.9-.866.864.864,0,0,1,.514.168,1.572,1.572,0,0,1,1.468-1.244,2.07,2.07,0,0,1,1.492.65l.4-5.787v-.523h1.8l.4,6.275a2.086,2.086,0,0,1,1.465-.614,1.567,1.567,0,0,1,1.459,1.2.88.88,0,0,1,.443-.127.915.915,0,0,1,.883.747c.174-.092.349-.18.52-.281a12.351,12.351,0,0,0,6.171-10.753A12.139,12.139,0,0,0,354.4,17.531Z" transform="translate(-331.243 -11.36)" fill="#ff6417"/>
          </g>
        </g>
        <g id="Group_6" data-name="Group 6" transform="translate(6.13)">
          <path id="Path_25" data-name="Path 25" d="M366.765,6.06l-.062.133L365.69,8.388l.056,12.534h4.3V8.169L367.87,3.85Z" transform="translate(-361.646 -3.85)" fill="#fff"/>
          <rect id="Rectangle_1" data-name="Rectangle 1" width="1.439" height="12.738" transform="translate(5.527 4.363)" fill="#ff6417"/>
          <path id="Path_26" data-name="Path 26" d="M356.16,43.88l.044,5.27-4.2-.024V47.992S356.1,43.88,356.16,43.88Z" transform="translate(-352 -32.055)" fill="#fff"/>
          <path id="Path_27" data-name="Path 27" d="M369.33,6.06h2.18l-1.075-2.21Z" transform="translate(-364.211 -3.85)" fill="#ff6417"/>
          <path id="Path_28" data-name="Path 28" d="M380.374,43.8l-.044,5.294,4.192-.027V47.936S380.433,43.8,380.374,43.8Z" transform="translate(-371.961 -31.998)" fill="#fff"/>
          <path id="Path_29" data-name="Path 29" d="M368.607,62.371H363.96a.489.489,0,0,1-.49-.49v-.21a.489.489,0,0,1,.49-.49h4.647a.489.489,0,0,1,.49.49v.21A.491.491,0,0,1,368.607,62.371Z" transform="translate(-360.082 -44.244)" fill="#fff"/>
        </g>
      </g>
      <g id="Group_8" data-name="Group 8" transform="translate(67.87 3.749)">
        <path id="Path_30" data-name="Path 30" d="M287.652,22.977a8.941,8.941,0,0,0,1.471,1.9V12.7h-.632a9.082,9.082,0,0,0-.836,1.2,9.153,9.153,0,0,0,0,9.075Z" transform="translate(-270.214 -12.697)" fill="#0087ff"/>
        <path id="Path_31" data-name="Path 31" d="M247.909,23.561a10.328,10.328,0,0,1,0-10.263c.121-.21.248-.411.384-.609h-5.43v7.6h-3.8v-7.6H231.49V35.44h7.571v-7.6h3.8v7.6H250.4v-9A10,10,0,0,1,247.909,23.561Z" transform="translate(-231.49 -12.69)" fill="#0087ff"/>
      </g>
      <path id="Path_32" data-name="Path 32" d="M412.626,24.045V8.87H405.12v3.563a13.277,13.277,0,0,1,0,19.166v.018h14.07V24.045Z" transform="translate(-286.308 -6.25)" fill="#a463ff"/>
      <path id="Path_33" data-name="Path 33" d="M298.205,15.766a13.178,13.178,0,0,1,5.326-10.65c-.074-.142-.145-.281-.225-.419A9.444,9.444,0,0,0,285.68,9.444a9.4,9.4,0,0,0,9.444,9.444,9.458,9.458,0,0,0,3.317-.588A13.807,13.807,0,0,1,298.205,15.766Zm-1.312-3.329a3.469,3.469,0,0,1-3.486,0,3.507,3.507,0,0,1-1.276-1.261,3.331,3.331,0,0,1-.467-1.731,3.432,3.432,0,0,1,.467-1.743,3.556,3.556,0,0,1,1.276-1.288,3.4,3.4,0,0,1,3.486,0A3.547,3.547,0,0,1,298.167,7.7a3.405,3.405,0,0,1,.47,1.743,3.34,3.34,0,0,1-.47,1.731A3.476,3.476,0,0,1,296.894,12.437Z" transform="translate(-201.917 0)" fill="#ffc522"/>
    </g>
  </g>
</svg>
