<svg xmlns="http://www.w3.org/2000/svg" xmlns:xlink="http://www.w3.org/1999/xlink" width="179" height="54" viewBox="0 0 179 54">
  <defs>
    <clipPath id="clip-path">
      <path id="Path_24" data-name="Path 24" d="M356.354,13.591a16.626,16.626,0,0,1,8.307,14.475,16.706,16.706,0,1,1-31.18-8.4,16.815,16.815,0,0,1,22.873-6.076Z" transform="translate(-331.25 -11.36)"/>
    </clipPath>
    <clipPath id="clip-Artboard_1">
      <rect width="179" height="54"/>
    </clipPath>
  </defs>
  <g id="Artboard_1" data-name="Artboard – 1" clip-path="url(#clip-Artboard_1)">
    <g id="Group_18784" data-name="Group 18784">
      <path id="Path_1" data-name="Path 1" d="M114.916,20.542a20.227,20.227,0,0,0,2.473,1.161,34.672,34.672,0,0,1,4.35,2.08,9.922,9.922,0,0,1,3.13,2.974,8.339,8.339,0,0,1,1.356,4.879,9.157,9.157,0,0,1-5.428,8.617,13.743,13.743,0,0,1-5.949,1.225,15.926,15.926,0,0,1-5.6-1.137,31.455,31.455,0,0,1-5.6-2.756l3.149-7.567a44.963,44.963,0,0,0,4.287,2.318,8.325,8.325,0,0,0,3.149.962,3.331,3.331,0,0,0,1.817-.437,1.378,1.378,0,0,0,.68-1.225q0-.567-.764-1.026a20.4,20.4,0,0,0-2.469-1.161,29.776,29.776,0,0,1-4.287-2.056,9.971,9.971,0,0,1-3.082-3,8.42,8.42,0,0,1-1.336-4.879,9.757,9.757,0,0,1,1.376-5.181,9.1,9.1,0,0,1,3.917-3.479A13.348,13.348,0,0,1,115.95,9.63a15.6,15.6,0,0,1,5.38,1.026,24.744,24.744,0,0,1,5.074,2.517l-3.193,7.261a19.028,19.028,0,0,0-3.412-1.793,9.117,9.117,0,0,0-3.412-.744,2.736,2.736,0,0,0-1.618.437,1.372,1.372,0,0,0-.612,1.181C114.152,19.894,114.407,20.235,114.916,20.542Z" transform="translate(-62.705 -5.801)" fill="#38bbd1"/>
      <path id="Path_2" data-name="Path 2" d="M189.062,38.951a16.784,16.784,0,0,1-4.394,1.9,17.852,17.852,0,0,1-4.835.68,16.3,16.3,0,0,1-8.049-1.968,14.01,14.01,0,0,1-5.535-5.555,16.733,16.733,0,0,1-1.988-8.267,16.776,16.776,0,0,1,1.988-8.267,13.985,13.985,0,0,1,5.535-5.555,16.3,16.3,0,0,1,8.049-1.968,18.769,18.769,0,0,1,8.792,2.275l-3.193,7.7a7.948,7.948,0,0,0-4.156-1.181,7.711,7.711,0,0,0-3.611.875,6.911,6.911,0,0,0-2.692,2.469,6.7,6.7,0,0,0-1.006,3.654,6.673,6.673,0,0,0,1.026,3.694,6.891,6.891,0,0,0,2.688,2.45,7.662,7.662,0,0,0,3.543.855,7.56,7.56,0,0,0,4.637-1.531Z" transform="translate(-99.378 -5.993)" fill="#05d17d"/>
      <g id="Group_2" data-name="Group 2" transform="translate(0 2.875)">
        <circle id="Ellipse_1" data-name="Ellipse 1" cx="17.489" cy="17.489" r="17.489" transform="translate(0.827 0.489)" fill="#fff"/>
        <g id="qu6ZpE.tif_1_">
          <g id="Group_1" data-name="Group 1">
            <path id="Path_3" data-name="Path 3" d="M17.835,7.23h1.006a.622.622,0,0,0,.266.04,8.831,8.831,0,0,1,1.376.1,19.218,19.218,0,0,1,5.038,1.3,18.9,18.9,0,0,1,5.754,3.694A16.01,16.01,0,0,1,34,15.776a17.786,17.786,0,0,1,2.609,8.569,18.381,18.381,0,0,1-.656,6.013A17.591,17.591,0,0,1,31,38.533a18.082,18.082,0,0,1-5.512,3.456,18.611,18.611,0,0,1-5.937,1.352,19.405,19.405,0,0,1-4.776-.278A18.458,18.458,0,0,1,9.361,41.15a17.369,17.369,0,0,1-4.7-3.595,18.27,18.27,0,0,1-4.6-10.928,18.623,18.623,0,0,1,.064-3.491,18.31,18.31,0,0,1,2.032-6.462,16.524,16.524,0,0,1,3.961-4.991A18.885,18.885,0,0,1,16.753,7.31,8.247,8.247,0,0,0,17.835,7.23ZM10.371,24.107v6.852c0,.573,0,.5-.493.505A4.569,4.569,0,0,0,8.3,31.6c-.3.111-.612.191-.919.286s-.589.179-.883.266c-.052.016-.115.032-.147-.032s.008-.1.04-.131.084-.1.127-.139c.219-.247.489-.437.712-.676.366-.386.716-.783,1.066-1.181a2.958,2.958,0,0,0,.819-2q-.006-5.4,0-10.792c0-.254-.072-.322-.326-.314a1.829,1.829,0,0,0-.207.024,7.408,7.408,0,0,1-1.543.068,12.341,12.341,0,0,0-1.754-.123A2.117,2.117,0,0,0,3.392,20a.187.187,0,0,0,.191.131c.115-.008.115-.1.127-.183a.891.891,0,0,1,.927-.859c.489-.036.978-.036,1.467-.028a1.392,1.392,0,0,0,.752-.219c.406-.235.815-.457,1.225-.684.048-.028.107-.072.151-.012s-.024.087-.052.123c-.386.537-.775,1.074-1.157,1.614a4.6,4.6,0,0,0-.9,1.917,9.751,9.751,0,0,0-.068,1.483c0,.278-.016.294-.3.294-.39,0-.783,0-1.173,0a.373.373,0,0,0-.35.179c-.366.525-.744,1.046-1.117,1.567-.06.087-.131.179-.08.286.056.123.175.1.278.1H5.853c.274,0,.294.024.3.3,0,1.165.008,2.334,0,3.5a3.863,3.863,0,0,1-.581,1.964,17.477,17.477,0,0,1-1.292,1.8c-.064.08-.147.159-.1.278s.179.119.29.119H8.856a.467.467,0,0,0,.243-.048c.62-.362,1.193-.8,1.805-1.177a.512.512,0,0,0,.243-.493c-.008-1.579,0-3.157,0-4.736,0-.445,0-.895,0-1.34,0-.107.012-.235.155-.227.37.024.74-.056,1.109-.012a5.527,5.527,0,0,0,1.026.008c.521-.036.521-.044.521.469v5.158a.462.462,0,0,0,.111.386c.612.573,1.221,1.149,1.833,1.718.282.262.4.254.728.032.4-.278.811-.541,1.221-.811.3-.2.612-.394.907-.6.167-.119.167-.254.008-.354-.481-.3-.9-.684-1.372-.994a.419.419,0,0,1-.2-.382c0-1.245,0-2.485,0-3.73,0-1.432.008-2.863,0-4.295a21.907,21.907,0,0,1,.231-4.175c.068-.358.1-.72.139-1.082.024-.247-.084-.31-.3-.2-.175.087-.35.179-.521.27-.807.445-1.607.9-2.422,1.328a.654.654,0,0,0-.425.7c.04,1.384.016,2.768.016,4.148,0,.262-.04.3-.306.3-.712,0-1.424,0-2.139,0-.338,0-.354-.016-.354-.354V17.175c0-.091,0-.183,0-.27,0-.056-.016-.123-.076-.139a.917.917,0,0,0-.557,0c-.131.052-.08.211-.084.322C10.367,19.442,10.371,21.772,10.371,24.107Zm14.18,1.233c0,1.3,0,2.6,0,3.9a.775.775,0,0,1-.191.537,3.483,3.483,0,0,0-.262.326c-.115.167-.243.163-.386.04a5.089,5.089,0,0,1-1.189-1.475,5.986,5.986,0,0,1-.628-3.388,6.651,6.651,0,0,1,.732-2.43,5.723,5.723,0,0,1,.771-1.169c.072-.084.127-.179.056-.286s-.151-.044-.227-.012a6.832,6.832,0,0,0-2.9,2.227,5.43,5.43,0,0,0-.934,1.972,6.59,6.59,0,0,0,.632,4.828,5.051,5.051,0,0,0,.736,1.038,7.369,7.369,0,0,0,1.276,1.105,6.187,6.187,0,0,0,1.921.863,8.366,8.366,0,0,0,2.557.191,6.89,6.89,0,0,0,4.175-1.678,5.059,5.059,0,0,0,1.75-3.464c.012-.1.016-.2-.107-.243s-.171.056-.219.143a4.74,4.74,0,0,1-.505.716,4.976,4.976,0,0,1-1.885,1.392c-.227.1-.247.08-.247-.171V20.281c0-.561,0-.553.573-.6a2.19,2.19,0,0,0,1.618-.891,5.8,5.8,0,0,0,.954-2.565c.012-.064.016-.131-.056-.163a.15.15,0,0,0-.175.028,2.833,2.833,0,0,0-.211.231,1.77,1.77,0,0,1-1.209.68,10.255,10.255,0,0,1-1.945.028c-1.261-.08-2.509-.3-3.774-.378a7.587,7.587,0,0,0-3.32.362,3.531,3.531,0,0,0-1.05.6,3.04,3.04,0,0,0-1.03,1.734,3.953,3.953,0,0,0,.147,1.9.289.289,0,0,0,.171.223c.175.056.29-.02.338-.227a2.226,2.226,0,0,1,1.428-1.654A5.514,5.514,0,0,1,24,19.271a18.9,18.9,0,0,1,2.919.251c.06.008.143,0,.163.076s-.068.1-.119.123c-.64.346-1.261.728-1.925,1.018a.81.81,0,0,0-.509.895C24.559,22.866,24.547,24.1,24.551,25.339Z" transform="translate(0 -7.23)" fill="#00b1cd"/>
            <path id="Path_4" data-name="Path 4" d="M66.037,44.128v5.261c0,.326,0,.334-.322.4a6.958,6.958,0,0,1-3.237-.036c-.223-.056-.433-.151-.652-.227-.052-.02-.115-.032-.115-.1s.06-.087.107-.115c.505-.27,1.01-.541,1.511-.811.258-.139.509-.29.775-.418a.42.42,0,0,0,.251-.449c-.008-.787,0-1.579,0-2.366,0-1.865,0-3.73,0-5.6a.563.563,0,0,1,.207-.473,3.807,3.807,0,0,0,.489-.457c.258-.31.585-.195.895-.171.091,0,.1.087.1.159,0,.127,0,.251,0,.378C66.037,40.775,66.037,42.453,66.037,44.128Z" transform="translate(-37.171 -26.082)" fill="#00b1cd"/>
          </g>
        </g>
      </g>
      <g id="Group_3" data-name="Group 3" transform="translate(41.073 44.189)">
        <path id="Path_5" data-name="Path 5" d="M107.629,104.728a1.688,1.688,0,0,1,1.091.527,1.714,1.714,0,0,1,.442,1.229,1.921,1.921,0,0,1-.633,1.522,2.557,2.557,0,0,1-1.74.553H104.16V101.11h2.49a2.707,2.707,0,0,1,1.756.516,1.732,1.732,0,0,1,.638,1.421A1.56,1.56,0,0,1,107.629,104.728Zm-1.032-2.543h-1.213v2.043H106.6a1.364,1.364,0,0,0,.9-.271,1.041,1.041,0,0,0,.005-1.506A1.389,1.389,0,0,0,106.6,102.185Zm.17,5.3a1.2,1.2,0,0,0,.862-.3,1.088,1.088,0,0,0,.309-.83.984.984,0,0,0-.319-.761,1.19,1.19,0,0,0-.841-.293h-1.394v2.181Z" transform="translate(-104.16 -101.11)" fill="#fff"/>
        <path id="Path_6" data-name="Path 6" d="M119.086,105.79h1.16v4.98a2.35,2.35,0,0,1-.649,1.766,2.4,2.4,0,0,1-1.681.575,2.571,2.571,0,0,1-1.7-.511,1.689,1.689,0,0,1-.553-1.288h1.171a.918.918,0,0,0,.282.633,1.187,1.187,0,0,0,.782.208,1.109,1.109,0,0,0,.873-.356,1.633,1.633,0,0,0,.319-1.112v-.628a1.7,1.7,0,0,1-1.6.819,1.666,1.666,0,0,1-1.357-.569,2.268,2.268,0,0,1-.474-1.5V105.79h1.16v2.777c0,.857.356,1.288,1.075,1.288a1.033,1.033,0,0,0,.889-.415,1.8,1.8,0,0,0,.3-1.085Z" transform="translate(-109.541 -103.3)" fill="#fff"/>
        <path id="Path_7" data-name="Path 7" d="M132.18,108.559V101.11H133.4v3.2h3.075v-3.2H137.7v7.449h-1.224v-3.15H133.4v3.15Z" transform="translate(-117.272 -101.11)" fill="#fff"/>
        <path id="Path_8" data-name="Path 8" d="M146.419,102.684a.887.887,0,1,1,.245-.612A.834.834,0,0,1,146.419,102.684Zm-1.2,5.922v-4.959h1.16v4.959Z" transform="translate(-123.243 -101.157)" fill="#fff"/>
        <path id="Path_9" data-name="Path 9" d="M150.44,110.636v-4.959h1.16v.692a1.716,1.716,0,0,1,1.617-.819q1.812,0,1.809,1.969v3.118h-1.16v-2.586a2.077,2.077,0,0,0-.245-1.16.952.952,0,0,0-.841-.351,1.087,1.087,0,0,0-.873.356,1.5,1.5,0,0,0-.309,1.016v2.724Z" transform="translate(-125.817 -103.188)" fill="#fff"/>
        <path id="Path_10" data-name="Path 10" d="M165.082,101.11h1.16v7.449h-1.16v-.67a1.5,1.5,0,0,1-.665.58,2.123,2.123,0,0,1-.92.218,2.258,2.258,0,0,1-1.8-.734,2.748,2.748,0,0,1-.638-1.873,2.681,2.681,0,0,1,.67-1.867,2.3,2.3,0,0,1,1.8-.74,1.949,1.949,0,0,1,.915.213,1.548,1.548,0,0,1,.638.585Zm-1.415,6.544a1.348,1.348,0,0,0,1.091-.447,1.873,1.873,0,0,0,0-2.256,1.522,1.522,0,0,0-2.149-.005,1.847,1.847,0,0,0,0,2.266A1.329,1.329,0,0,0,163.667,107.654Z" transform="translate(-130.787 -101.11)" fill="#fff"/>
        <path id="Path_11" data-name="Path 11" d="M175.341,110.876a1.811,1.811,0,0,1-1.341-.5,1.989,1.989,0,0,1-.5-1.468V105.79h1.16v2.83a1.6,1.6,0,0,0,.234.947.9.9,0,0,0,.777.319,1.1,1.1,0,0,0,.915-.356,1.462,1.462,0,0,0,.287-.942v-2.8h1.16v4.959h-1.16v-.692A1.607,1.607,0,0,1,175.341,110.876Z" transform="translate(-136.608 -103.3)" fill="#fff"/>
        <path id="Path_12" data-name="Path 12" d="M186.227,110.764a2.326,2.326,0,0,1-1.522-.479,1.463,1.463,0,0,1-.585-1.171h1.16a.618.618,0,0,0,.282.521,1.231,1.231,0,0,0,.729.2.793.793,0,0,0,.521-.16.528.528,0,0,0,.192-.426.476.476,0,0,0-.372-.521l-1.277-.351a1.308,1.308,0,0,1-1.075-1.373,1.276,1.276,0,0,1,.532-1.037,2.144,2.144,0,0,1,1.373-.42,2.2,2.2,0,0,1,1.452.426,1.39,1.39,0,0,1,.505,1.117H187a.57.57,0,0,0-.229-.484,1.017,1.017,0,0,0-.633-.176.853.853,0,0,0-.511.144.438.438,0,0,0-.2.367.523.523,0,0,0,.426.532l1.181.341a1.739,1.739,0,0,1,.83.505,1.2,1.2,0,0,1,.319.825,1.466,1.466,0,0,1-.516,1.17A2.136,2.136,0,0,1,186.227,110.764Z" transform="translate(-141.578 -103.188)" fill="#fff"/>
        <path id="Path_13" data-name="Path 13" d="M195.584,108.45a3.522,3.522,0,0,0,.585-.043v1.022a5,5,0,0,1-.862.064,2.74,2.74,0,0,1-.5-.043,1.851,1.851,0,0,1-.5-.2,1.018,1.018,0,0,1-.447-.537,2.539,2.539,0,0,1-.16-.968v-2.309h-.841v-.968h.841v-1.5h1.16v1.5H196v.968h-1.139v2.043a1.238,1.238,0,0,0,.17.782A.7.7,0,0,0,195.584,108.45Z" transform="translate(-145.668 -101.98)" fill="#fff"/>
        <path id="Path_14" data-name="Path 14" d="M202.717,110.764a2.258,2.258,0,0,1-1.8-.734,2.748,2.748,0,0,1-.638-1.873,2.681,2.681,0,0,1,.67-1.867,2.3,2.3,0,0,1,1.8-.74,1.949,1.949,0,0,1,.915.213,1.548,1.548,0,0,1,.638.585v-.67h1.16v4.959H204.3v-.67a1.5,1.5,0,0,1-.665.58A2.123,2.123,0,0,1,202.717,110.764Zm.17-1.032a1.348,1.348,0,0,0,1.091-.447,1.873,1.873,0,0,0,0-2.256,1.522,1.522,0,0,0-2.149-.005,1.848,1.848,0,0,0,0,2.267A1.329,1.329,0,0,0,202.887,109.732Z" transform="translate(-149.14 -103.188)" fill="#fff"/>
        <path id="Path_15" data-name="Path 15" d="M212.82,110.636v-4.959h1.16v.692a1.716,1.716,0,0,1,1.617-.819q1.812,0,1.809,1.969v3.118h-1.16v-2.586a2.078,2.078,0,0,0-.245-1.16.952.952,0,0,0-.841-.351,1.086,1.086,0,0,0-.873.356,1.5,1.5,0,0,0-.309,1.016v2.724Z" transform="translate(-155.008 -103.188)" fill="#fff"/>
        <path id="Path_16" data-name="Path 16" d="M230,108.559v-6.3h-2.16V101.11h5.555v1.149h-2.171v6.3Z" transform="translate(-162.037 -101.11)" fill="#fff"/>
        <path id="Path_17" data-name="Path 17" d="M240.539,102.684a.887.887,0,1,1,.245-.612A.834.834,0,0,1,240.539,102.684Zm-1.2,5.922v-4.959h1.16v4.959Z" transform="translate(-167.287 -101.157)" fill="#fff"/>
        <path id="Path_18" data-name="Path 18" d="M244.56,110.636v-4.959h1.16v.692a1.373,1.373,0,0,1,.543-.591,1.558,1.558,0,0,1,.841-.229,1.526,1.526,0,0,1,1.564.883,1.476,1.476,0,0,1,.6-.633,1.775,1.775,0,0,1,.926-.25q1.788,0,1.788,1.947v3.139h-1.16v-2.916q0-1.181-.926-1.181a.952.952,0,0,0-.766.325,1.781,1.781,0,0,0-.277,1.144v2.628h-1.16V107.71c0-.782-.3-1.17-.9-1.17a.971.971,0,0,0-.782.325,1.778,1.778,0,0,0-.282,1.144v2.628h-1.16Z" transform="translate(-169.861 -103.188)" fill="#fff"/>
        <path id="Path_19" data-name="Path 19" d="M265.363,107.9q0,.192-.032.638h-3.682a1.2,1.2,0,0,0,.383.9,1.482,1.482,0,0,0,1,.314,1.119,1.119,0,0,0,1.107-.564h1.171a1.7,1.7,0,0,1-.75,1.133,2.611,2.611,0,0,1-1.527.442,2.454,2.454,0,0,1-1.852-.7,3.006,3.006,0,0,1-.005-3.8,2.384,2.384,0,0,1,1.814-.708,2.326,2.326,0,0,1,1.719.654A2.3,2.3,0,0,1,265.363,107.9Zm-3.714-.245h2.575a1.183,1.183,0,0,0-.335-.883,1.276,1.276,0,0,0-.921-.309,1.351,1.351,0,0,0-.958.33A1.167,1.167,0,0,0,261.649,107.657Z" transform="translate(-177.32 -103.188)" fill="#fff"/>
        <path id="Path_20" data-name="Path 20" d="M273.147,110.764a2.326,2.326,0,0,1-1.522-.479,1.463,1.463,0,0,1-.585-1.171h1.16a.618.618,0,0,0,.282.521,1.231,1.231,0,0,0,.729.2.792.792,0,0,0,.521-.16.528.528,0,0,0,.192-.426.476.476,0,0,0-.372-.521l-1.277-.351a1.308,1.308,0,0,1-1.075-1.373,1.276,1.276,0,0,1,.532-1.037,2.144,2.144,0,0,1,1.373-.42,2.2,2.2,0,0,1,1.452.426,1.39,1.39,0,0,1,.505,1.117h-1.139a.57.57,0,0,0-.229-.484,1.018,1.018,0,0,0-.633-.176.853.853,0,0,0-.511.144.438.438,0,0,0-.2.367.523.523,0,0,0,.426.532l1.181.341a1.739,1.739,0,0,1,.83.505,1.2,1.2,0,0,1,.319.825,1.466,1.466,0,0,1-.516,1.17A2.136,2.136,0,0,1,273.147,110.764Z" transform="translate(-182.252 -103.188)" fill="#fff"/>
      </g>
      <g id="Group_7" data-name="Group 7" transform="translate(130.685 1.531)">
        <path id="Path_21" data-name="Path 21" d="M367.411,98.423H354.042a1.412,1.412,0,0,1-1.412-1.412h0a1.412,1.412,0,0,1,1.412-1.412h13.369a1.412,1.412,0,0,1,1.412,1.412h0A1.409,1.409,0,0,1,367.411,98.423Z" transform="translate(-344.128 -56.826)" fill="#ff6417"/>
        <path id="Path_22" data-name="Path 22" d="M368.434,108.553h-9.393a1.412,1.412,0,0,1-1.412-1.412h0a1.412,1.412,0,0,1,1.412-1.412h9.393a1.412,1.412,0,0,1,1.412,1.412h0A1.407,1.407,0,0,1,368.434,108.553Z" transform="translate(-347.14 -62.927)" fill="#ff6417"/>
        <g id="Group_5" data-name="Group 5" transform="translate(0 2.986)">
          <g id="Group_4" data-name="Group 4" clip-path="url(#clip-path)">
            <path id="Path_23" data-name="Path 23" d="M362.42,19.667a16.706,16.706,0,0,0-31.18,8.4,16.626,16.626,0,0,0,8.307,14.475c.326.191.656.366.99.533a1.234,1.234,0,0,1,1.2-1.165,1.163,1.163,0,0,1,.692.227,2.116,2.116,0,0,1,1.976-1.674,2.786,2.786,0,0,1,2.008.875l.537-7.79v-.7h2.426l.537,8.446a2.808,2.808,0,0,1,1.972-.827,2.109,2.109,0,0,1,1.964,1.614,1.184,1.184,0,0,1,.6-.171,1.231,1.231,0,0,1,1.189,1.006c.235-.123.469-.243.7-.378a16.626,16.626,0,0,0,8.307-14.475A16.34,16.34,0,0,0,362.42,19.667Z" transform="translate(-331.244 -11.36)" fill="#ff6417"/>
          </g>
        </g>
        <g id="Group_6" data-name="Group 6" transform="translate(8.251)">
          <path id="Path_25" data-name="Path 25" d="M367.137,6.824,367.054,7,365.69,9.958l.076,16.873h5.794V9.664L368.625,3.85Z" transform="translate(-360.246 -3.85)" fill="#fff"/>
          <rect id="Rectangle_1" data-name="Rectangle 1" width="1.937" height="17.147" transform="translate(7.44 5.873)" fill="#ff6417"/>
          <path id="Path_26" data-name="Path 26" d="M357.6,43.88l.06,7.094L352,50.942V49.415S357.52,43.88,357.6,43.88Z" transform="translate(-352 -27.962)" fill="#fff"/>
          <path id="Path_27" data-name="Path 27" d="M369.33,6.824h2.935L370.817,3.85Z" transform="translate(-362.439 -3.85)" fill="#ff6417"/>
          <path id="Path_28" data-name="Path 28" d="M380.39,43.8l-.06,7.126,5.643-.036V49.367S380.469,43.8,380.39,43.8Z" transform="translate(-369.064 -27.914)" fill="#fff"/>
          <path id="Path_29" data-name="Path 29" d="M370.385,62.783H364.13a.658.658,0,0,1-.66-.66V61.84a.658.658,0,0,1,.66-.66h6.255a.659.659,0,0,1,.66.66v.282A.661.661,0,0,1,370.385,62.783Z" transform="translate(-358.909 -38.382)" fill="#fff"/>
        </g>
      </g>
      <g id="Group_8" data-name="Group 8" transform="translate(91.435 5.046)">
        <path id="Path_30" data-name="Path 30" d="M288.069,26.534a12.037,12.037,0,0,0,1.98,2.557V12.7H289.2a12.227,12.227,0,0,0-1.125,1.618,12.322,12.322,0,0,0,0,12.216Z" transform="translate(-264.595 -12.696)" fill="#0087ff"/>
        <path id="Path_31" data-name="Path 31" d="M253.592,27.324a13.9,13.9,0,0,1,0-13.815c.163-.282.334-.553.517-.819H246.8V22.926h-5.118V12.694H231.49v30.62h10.192V33.078H246.8V43.313h10.148V31.2A13.463,13.463,0,0,1,253.592,27.324Z" transform="translate(-231.49 -12.69)" fill="#0087ff"/>
      </g>
      <path id="Path_32" data-name="Path 32" d="M415.224,29.3V8.87h-10.1v4.8a17.872,17.872,0,0,1,0,25.8v.024h18.94V29.3Z" transform="translate(-245.06 -5.343)" fill="#a463ff"/>
      <path id="Path_33" data-name="Path 33" d="M302.541,21.223a17.738,17.738,0,0,1,7.17-14.335c-.1-.191-.195-.378-.3-.565a12.713,12.713,0,0,0-23.728,6.39,12.655,12.655,0,0,0,12.713,12.713,12.732,12.732,0,0,0,4.466-.791A18.586,18.586,0,0,1,302.541,21.223Zm-1.766-4.482a4.669,4.669,0,0,1-4.692,0,4.721,4.721,0,0,1-1.718-1.7,4.484,4.484,0,0,1-.628-2.33,4.621,4.621,0,0,1,.628-2.346,4.787,4.787,0,0,1,1.718-1.734,4.57,4.57,0,0,1,4.692,0,4.775,4.775,0,0,1,1.714,1.734,4.585,4.585,0,0,1,.632,2.346,4.5,4.5,0,0,1-.632,2.33A4.679,4.679,0,0,1,300.775,16.741Z" transform="translate(-172.834)" fill="#ffc522"/>
    </g>
  </g>
</svg>
