<svg xmlns="http://www.w3.org/2000/svg" xmlns:xlink="http://www.w3.org/1999/xlink" viewBox="0 0 246 172">
  <defs>
    <clipPath id="clip-Artboard_7">
      <rect width="246" height="172"/>
    </clipPath>
  </defs>
  <g id="Artboard_7" data-name="Artboard – 7" clip-path="url(#clip-Artboard_7)">
    <path id="Subtraction_1" data-name="Subtraction 1" d="M246,172H0V0H246V172Zm-13.6-2.143h0a29.2,29.2,0,0,1,7.64.819l.15.041a8.316,8.316,0,0,0,2.053.388c1.319,0,1.966-.9,2.1-2.911a28.848,28.848,0,0,0-.064-5.948,47.09,47.09,0,0,1-.286-4.936c-.226-17.457-.19-35.21-.155-52.379.013-6.32.026-12.85.026-19.311,0-6.534-.009-13.179-.019-19.6v-.093c-.026-18.294-.053-37.211.133-55.826.024-2.453-.161-4.308-1.143-5.387-.824-.905-2.173-1.291-4.511-1.291l-.258,0c-11.142.13-23.324.191-38.336.191-8,0-16.125-.017-23.987-.033-5.809-.012-11.811-.024-17.738-.03-1.606,0-3.24-.154-4.821-.3-.395-.037-.788-.074-1.179-.108C136.6,1.783,120.477,1.1,104.09,1.1c-8.141,0-16.341.173-24.373.515-6.117.26-12.19.589-18.062.907-12.939.7-25.161,1.362-37.925,1.362-5.67,0-10.959-.131-16.171-.4-.324-.017-.63-.025-.909-.025-1.755,0-2.844.335-3.532,1.086-.781.852-1.11,2.305-1.1,4.859.186,50.107.187,101.3.005,152.142-.01,2.667.323,4.121,1.147,5.021s2.134,1.257,4.542,1.257h.078c29.307-.088,59.1-.1,87.922-.1h.009c28.1-.007,57.164-.014,85.744-.1,2.268-.006,4.555-.106,6.767-.2,2.25-.1,4.572-.2,6.835-.2a38.471,38.471,0,0,1,14.123,2.25,10.258,10.258,0,0,0,3.818.606c.509,0,1.015-.017,1.55-.035h.025c.5-.016,1.063-.035,1.629-.035.653,0,1.238.025,1.787.076.967.09,2.035.133,3.265.133,1.735,0,3.514-.084,5.4-.174l.1,0C228.607,169.948,230.514,169.858,232.4,169.858Z" transform="translate(0 0)" fill="#fff"/>
  </g>
</svg>
