<svg xmlns="http://www.w3.org/2000/svg" xmlns:xlink="http://www.w3.org/1999/xlink" width="179" height="54" viewBox="0 0 179 54">
  <defs>
    <clipPath id="clip-path">
      <path id="Path_24" data-name="Path 24" d="M356.5,13.6a16.724,16.724,0,0,1,8.356,14.559,16.8,16.8,0,1,1-31.363-8.448A16.913,16.913,0,0,1,356.5,13.6Z" transform="translate(-331.25 -11.36)"/>
    </clipPath>
    <clipPath id="clip-Artboard_1">
      <rect width="179" height="54"/>
    </clipPath>
  </defs>
  <g id="Artboard_1" data-name="Artboard – 1" clip-path="url(#clip-Artboard_1)">
    <g id="Group_18642" data-name="Group 18642" transform="translate(0)">
      <path id="Path_1" data-name="Path 1" d="M114.982,20.606a20.344,20.344,0,0,0,2.488,1.168,34.875,34.875,0,0,1,4.376,2.092,9.98,9.98,0,0,1,3.148,2.992,8.387,8.387,0,0,1,1.364,4.908,9.21,9.21,0,0,1-5.46,8.668,13.823,13.823,0,0,1-5.984,1.232,16.02,16.02,0,0,1-5.632-1.144,31.639,31.639,0,0,1-5.632-2.772l3.168-7.612a45.224,45.224,0,0,0,4.312,2.332,8.374,8.374,0,0,0,3.168.968,3.35,3.35,0,0,0,1.828-.44,1.386,1.386,0,0,0,.684-1.232q0-.57-.768-1.032a20.519,20.519,0,0,0-2.484-1.168,29.951,29.951,0,0,1-4.312-2.068,10.029,10.029,0,0,1-3.1-3.016,8.47,8.47,0,0,1-1.344-4.908,9.814,9.814,0,0,1,1.384-5.212,9.158,9.158,0,0,1,3.94-3.5,13.426,13.426,0,0,1,5.9-1.232,15.694,15.694,0,0,1,5.412,1.032,24.888,24.888,0,0,1,5.1,2.532l-3.212,7.3a19.139,19.139,0,0,0-3.432-1.8,9.171,9.171,0,0,0-3.432-.748,2.752,2.752,0,0,0-1.628.44,1.38,1.38,0,0,0-.616,1.188C114.214,19.954,114.47,20.3,114.982,20.606Z" transform="translate(-62.74 -5.778)"/>
      <path id="Path_2" data-name="Path 2" d="M189.207,39.121a16.883,16.883,0,0,1-4.42,1.912,17.957,17.957,0,0,1-4.864.684,16.39,16.39,0,0,1-8.1-1.98,14.093,14.093,0,0,1-5.568-5.588,16.832,16.832,0,0,1-2-8.316,16.875,16.875,0,0,1,2-8.316,14.067,14.067,0,0,1,5.568-5.588,16.39,16.39,0,0,1,8.1-1.98,18.879,18.879,0,0,1,8.844,2.288l-3.212,7.744a8,8,0,0,0-4.18-1.188,7.756,7.756,0,0,0-3.632.88,6.951,6.951,0,0,0-2.708,2.484,6.74,6.74,0,0,0-1.012,3.676,6.713,6.713,0,0,0,1.032,3.716,6.932,6.932,0,0,0,2.7,2.464,7.707,7.707,0,0,0,3.564.86,7.6,7.6,0,0,0,4.664-1.54Z" transform="translate(-99.439 -5.97)"/>
      <g id="Group_2" data-name="Group 2" transform="translate(0 2.892)">
        <circle id="Ellipse_1" data-name="Ellipse 1" cx="17.591" cy="17.591" r="17.591" transform="translate(0.832 0.492)" fill="#fff"/>
        <g id="qu6ZpE.tif_1_">
          <g id="Group_1" data-name="Group 1">
            <path id="Path_3" data-name="Path 3" d="M17.939,7.23h1.012a.626.626,0,0,0,.268.04,8.882,8.882,0,0,1,1.384.1,19.33,19.33,0,0,1,5.068,1.3,19.006,19.006,0,0,1,5.788,3.716,16.1,16.1,0,0,1,2.74,3.432,17.89,17.89,0,0,1,2.624,8.62,18.489,18.489,0,0,1-.66,6.048,17.694,17.694,0,0,1-4.984,8.224,18.187,18.187,0,0,1-5.544,3.476,18.72,18.72,0,0,1-5.972,1.36,19.519,19.519,0,0,1-4.8-.28,18.567,18.567,0,0,1-5.444-1.924,17.471,17.471,0,0,1-4.732-3.616A18.377,18.377,0,0,1,.052,26.741a18.732,18.732,0,0,1,.064-3.512,18.417,18.417,0,0,1,2.044-6.5,16.621,16.621,0,0,1,3.984-5.02,19,19,0,0,1,10.708-4.4A8.3,8.3,0,0,0,17.939,7.23ZM10.432,24.205V31.1c0,.576,0,.5-.5.508a4.6,4.6,0,0,0-1.584.136c-.3.112-.616.192-.924.288s-.592.18-.888.268c-.052.016-.116.032-.148-.032s.008-.1.04-.132.084-.1.128-.14c.22-.248.492-.44.716-.68.368-.388.72-.788,1.072-1.188a2.975,2.975,0,0,0,.824-2.016q-.006-5.43,0-10.856c0-.256-.072-.324-.328-.316a1.84,1.84,0,0,0-.208.024,7.451,7.451,0,0,1-1.552.068,12.413,12.413,0,0,0-1.764-.124,2.129,2.129,0,0,0-1.908,3.168.188.188,0,0,0,.192.132c.116-.008.116-.1.128-.184a.9.9,0,0,1,.932-.864c.492-.036.984-.036,1.476-.028a1.4,1.4,0,0,0,.756-.22c.408-.236.82-.46,1.232-.688.048-.028.108-.072.152-.012s-.024.088-.052.124c-.388.54-.78,1.08-1.164,1.624a4.627,4.627,0,0,0-.9,1.928,9.808,9.808,0,0,0-.068,1.492c0,.28-.016.3-.3.3-.392,0-.788,0-1.18,0a.375.375,0,0,0-.352.18c-.368.528-.748,1.052-1.124,1.576-.06.088-.132.18-.08.288.056.124.176.1.28.1H5.888c.276,0,.3.024.3.3,0,1.172.008,2.348,0,3.52A3.885,3.885,0,0,1,5.6,31.613a17.579,17.579,0,0,1-1.3,1.812c-.064.08-.148.16-.1.28s.18.12.292.12H8.908a.469.469,0,0,0,.244-.048c.624-.364,1.2-.8,1.816-1.184a.515.515,0,0,0,.244-.5c-.008-1.588,0-3.176,0-4.764,0-.448,0-.9,0-1.348,0-.108.012-.236.156-.228.372.024.744-.056,1.116-.012a5.56,5.56,0,0,0,1.032.008c.524-.036.524-.044.524.472v5.188a.465.465,0,0,0,.112.388c.616.576,1.228,1.156,1.844,1.728.284.264.4.256.732.032.4-.28.816-.544,1.228-.816.3-.2.616-.4.912-.608.168-.12.168-.256.008-.356-.484-.3-.9-.688-1.38-1a.422.422,0,0,1-.2-.384c0-1.252,0-2.5,0-3.752,0-1.44.008-2.88,0-4.32a22.036,22.036,0,0,1,.232-4.2c.068-.36.1-.724.14-1.088.024-.248-.084-.312-.3-.2-.176.088-.352.18-.524.272-.812.448-1.616.908-2.436,1.336a.657.657,0,0,0-.428.7c.04,1.392.016,2.784.016,4.172,0,.264-.04.3-.308.3-.716,0-1.432,0-2.152,0-.34,0-.356-.016-.356-.356V17.234c0-.092,0-.184,0-.272,0-.056-.016-.124-.076-.14a.922.922,0,0,0-.56,0c-.132.052-.08.212-.084.324C10.427,19.514,10.432,21.857,10.432,24.205Zm14.263,1.24c0,1.308,0,2.616,0,3.92a.779.779,0,0,1-.192.54,3.5,3.5,0,0,0-.264.328c-.116.168-.244.164-.388.04a5.119,5.119,0,0,1-1.2-1.484,6.021,6.021,0,0,1-.632-3.408,6.69,6.69,0,0,1,.736-2.444,5.756,5.756,0,0,1,.776-1.176c.072-.084.128-.18.056-.288s-.152-.044-.228-.012a6.872,6.872,0,0,0-2.916,2.24,5.462,5.462,0,0,0-.94,1.984,6.629,6.629,0,0,0,.636,4.856,5.081,5.081,0,0,0,.74,1.044A7.412,7.412,0,0,0,22.171,32.7a6.224,6.224,0,0,0,1.932.868,8.415,8.415,0,0,0,2.572.192,6.931,6.931,0,0,0,4.2-1.688,5.089,5.089,0,0,0,1.76-3.484c.012-.1.016-.2-.108-.244s-.172.056-.22.144a4.768,4.768,0,0,1-.508.72,5,5,0,0,1-1.9,1.4c-.228.1-.248.08-.248-.172V20.357c0-.564,0-.556.576-.608a2.2,2.2,0,0,0,1.628-.9,5.834,5.834,0,0,0,.96-2.58c.012-.064.016-.132-.056-.164a.151.151,0,0,0-.176.028,2.849,2.849,0,0,0-.212.232,1.781,1.781,0,0,1-1.216.684,10.316,10.316,0,0,1-1.956.028c-1.268-.08-2.524-.3-3.8-.38a7.631,7.631,0,0,0-3.34.364,3.552,3.552,0,0,0-1.056.6,3.058,3.058,0,0,0-1.036,1.744,3.976,3.976,0,0,0,.148,1.912.291.291,0,0,0,.172.224c.176.056.292-.02.34-.228a2.239,2.239,0,0,1,1.436-1.664,5.546,5.546,0,0,1,2.072-.316,19.012,19.012,0,0,1,2.936.252c.06.008.144,0,.164.076s-.068.1-.12.124c-.644.348-1.268.732-1.936,1.024a.815.815,0,0,0-.512.9C24.7,22.957,24.691,24.2,24.695,25.445Z" transform="translate(0 -7.23)" fill="#00b1cd"/>
            <path id="Path_4" data-name="Path 4" d="M66.062,44.16v5.292c0,.328,0,.336-.324.4a7,7,0,0,1-3.256-.036c-.224-.056-.436-.152-.656-.228-.052-.02-.116-.032-.116-.1s.06-.088.108-.116c.508-.272,1.016-.544,1.52-.816.26-.14.512-.292.78-.42a.422.422,0,0,0,.252-.452c-.008-.792,0-1.588,0-2.38,0-1.876,0-3.752,0-5.628a.567.567,0,0,1,.208-.476,3.828,3.828,0,0,0,.492-.46c.26-.312.588-.2.9-.172.092,0,.1.088.1.16,0,.128,0,.252,0,.38C66.062,40.789,66.062,42.476,66.062,44.16Z" transform="translate(-37.027 -26.009)" fill="#00b1cd"/>
          </g>
        </g>
      </g>
      <g id="Group_3" data-name="Group 3" transform="translate(40.814 44.132)">
        <path id="Path_5" data-name="Path 5" d="M107.649,104.749a1.7,1.7,0,0,1,1.1.53,1.724,1.724,0,0,1,.444,1.236,1.932,1.932,0,0,1-.637,1.531,2.572,2.572,0,0,1-1.75.557H104.16V101.11h2.5a2.723,2.723,0,0,1,1.766.519,1.742,1.742,0,0,1,.642,1.429A1.569,1.569,0,0,1,107.649,104.749Zm-1.038-2.558h-1.22v2.055h1.22a1.372,1.372,0,0,0,.9-.273,1.047,1.047,0,0,0,.005-1.514A1.4,1.4,0,0,0,106.611,102.191Zm.171,5.33a1.21,1.21,0,0,0,.867-.3,1.094,1.094,0,0,0,.31-.835.99.99,0,0,0-.321-.765,1.2,1.2,0,0,0-.846-.294h-1.4v2.194Z" transform="translate(-104.16 -101.11)"/>
        <path id="Path_6" data-name="Path 6" d="M119.106,105.79h1.167V110.8a2.364,2.364,0,0,1-.653,1.777,2.411,2.411,0,0,1-1.691.578,2.586,2.586,0,0,1-1.712-.514,1.7,1.7,0,0,1-.557-1.3h1.177a.923.923,0,0,0,.284.637,1.194,1.194,0,0,0,.787.209,1.115,1.115,0,0,0,.878-.359,1.642,1.642,0,0,0,.321-1.118v-.631a1.707,1.707,0,0,1-1.605.824,1.675,1.675,0,0,1-1.365-.573,2.281,2.281,0,0,1-.476-1.5v-3.04h1.167v2.794c0,.862.359,1.3,1.081,1.3a1.039,1.039,0,0,0,.894-.417,1.807,1.807,0,0,0,.305-1.092Z" transform="translate(-109.506 -103.285)"/>
        <path id="Path_7" data-name="Path 7" d="M132.18,108.6V101.11h1.231v3.222H136.5V101.11h1.231V108.6H136.5v-3.168h-3.093V108.6Z" transform="translate(-117.185 -101.11)"/>
        <path id="Path_8" data-name="Path 8" d="M146.428,102.692a.892.892,0,1,1,.246-.615A.839.839,0,0,1,146.428,102.692Zm-1.209,5.956v-4.988h1.167v4.988Z" transform="translate(-123.116 -101.156)"/>
        <path id="Path_9" data-name="Path 9" d="M150.44,110.666v-4.988h1.167v.7a1.726,1.726,0,0,1,1.627-.824q1.822,0,1.82,1.98v3.136h-1.167v-2.6a2.09,2.09,0,0,0-.246-1.167.958.958,0,0,0-.845-.353,1.093,1.093,0,0,0-.878.359,1.506,1.506,0,0,0-.31,1.022v2.74Z" transform="translate(-125.673 -103.174)"/>
        <path id="Path_10" data-name="Path 10" d="M165.106,101.11h1.167V108.6h-1.167v-.674a1.5,1.5,0,0,1-.669.583,2.135,2.135,0,0,1-.926.219,2.271,2.271,0,0,1-1.809-.739,2.764,2.764,0,0,1-.642-1.884,2.7,2.7,0,0,1,.674-1.878,2.318,2.318,0,0,1,1.809-.744,1.96,1.96,0,0,1,.92.214,1.557,1.557,0,0,1,.642.589Zm-1.423,6.582a1.356,1.356,0,0,0,1.1-.45,1.884,1.884,0,0,0,0-2.269,1.531,1.531,0,0,0-2.162-.005,1.858,1.858,0,0,0,0,2.28A1.337,1.337,0,0,0,163.682,107.692Z" transform="translate(-130.609 -101.11)"/>
        <path id="Path_11" data-name="Path 11" d="M175.352,110.906a1.821,1.821,0,0,1-1.349-.5,2,2,0,0,1-.5-1.477V105.79h1.167v2.847a1.612,1.612,0,0,0,.235.953.9.9,0,0,0,.781.321,1.105,1.105,0,0,0,.92-.359,1.471,1.471,0,0,0,.289-.947V105.79h1.167v4.988h-1.167v-.7A1.616,1.616,0,0,1,175.352,110.906Z" transform="translate(-136.392 -103.285)"/>
        <path id="Path_12" data-name="Path 12" d="M186.239,110.795a2.34,2.34,0,0,1-1.531-.482,1.472,1.472,0,0,1-.589-1.177h1.167a.622.622,0,0,0,.284.524,1.238,1.238,0,0,0,.733.2.8.8,0,0,0,.524-.161.531.531,0,0,0,.193-.428.479.479,0,0,0-.375-.524l-1.284-.353a1.316,1.316,0,0,1-1.081-1.381,1.284,1.284,0,0,1,.535-1.044,2.157,2.157,0,0,1,1.381-.423,2.213,2.213,0,0,1,1.461.428,1.4,1.4,0,0,1,.508,1.124h-1.145a.573.573,0,0,0-.23-.487,1.023,1.023,0,0,0-.637-.177.858.858,0,0,0-.514.145.441.441,0,0,0-.2.369.526.526,0,0,0,.428.535l1.188.343a1.749,1.749,0,0,1,.835.508,1.206,1.206,0,0,1,.321.83,1.475,1.475,0,0,1-.519,1.177A2.148,2.148,0,0,1,186.239,110.795Z" transform="translate(-141.329 -103.174)"/>
        <path id="Path_13" data-name="Path 13" d="M195.6,108.482a3.542,3.542,0,0,0,.589-.043v1.027a5.032,5.032,0,0,1-.867.064,2.756,2.756,0,0,1-.5-.043,1.861,1.861,0,0,1-.5-.2,1.024,1.024,0,0,1-.45-.541,2.555,2.555,0,0,1-.161-.974v-2.323h-.846v-.974h.846V102.97h1.167v1.509h1.145v.974h-1.145v2.055a1.245,1.245,0,0,0,.171.787A.707.707,0,0,0,195.6,108.482Z" transform="translate(-145.391 -101.975)"/>
        <path id="Path_14" data-name="Path 14" d="M202.731,110.795a2.271,2.271,0,0,1-1.809-.739,2.764,2.764,0,0,1-.642-1.884,2.7,2.7,0,0,1,.674-1.878,2.318,2.318,0,0,1,1.809-.744,1.961,1.961,0,0,1,.92.214,1.557,1.557,0,0,1,.642.589v-.674h1.167v4.988h-1.167v-.674a1.5,1.5,0,0,1-.669.583A2.135,2.135,0,0,1,202.731,110.795Zm.171-1.038a1.356,1.356,0,0,0,1.1-.45,1.884,1.884,0,0,0,0-2.269,1.531,1.531,0,0,0-2.162-.005,1.858,1.858,0,0,0,0,2.28A1.337,1.337,0,0,0,202.9,109.756Z" transform="translate(-148.841 -103.174)"/>
        <path id="Path_15" data-name="Path 15" d="M212.82,110.666v-4.988h1.167v.7a1.726,1.726,0,0,1,1.627-.824q1.822,0,1.82,1.98v3.136h-1.167v-2.6a2.09,2.09,0,0,0-.246-1.167.958.958,0,0,0-.846-.353,1.093,1.093,0,0,0-.878.359,1.506,1.506,0,0,0-.31,1.022v2.74Z" transform="translate(-154.67 -103.174)"/>
        <path id="Path_16" data-name="Path 16" d="M230.013,108.6v-6.336H227.84V101.11h5.587v1.156h-2.183V108.6Z" transform="translate(-161.652 -101.11)"/>
        <path id="Path_17" data-name="Path 17" d="M240.548,102.692a.893.893,0,1,1,.246-.615A.839.839,0,0,1,240.548,102.692Zm-1.21,5.956v-4.988H240.5v4.988Z" transform="translate(-166.867 -101.156)"/>
        <path id="Path_18" data-name="Path 18" d="M244.56,110.666v-4.988h1.167v.7a1.382,1.382,0,0,1,.546-.594,1.567,1.567,0,0,1,.846-.23,1.535,1.535,0,0,1,1.573.888,1.485,1.485,0,0,1,.6-.637,1.785,1.785,0,0,1,.931-.252q1.8,0,1.8,1.959v3.157h-1.167v-2.933q0-1.188-.931-1.188a.958.958,0,0,0-.771.326,1.792,1.792,0,0,0-.278,1.151v2.644h-1.167v-2.943c0-.787-.305-1.177-.91-1.177a.977.977,0,0,0-.787.326,1.788,1.788,0,0,0-.284,1.151v2.644H244.56Z" transform="translate(-169.424 -103.174)"/>
        <path id="Path_19" data-name="Path 19" d="M265.391,107.915q0,.193-.032.642h-3.7a1.207,1.207,0,0,0,.385.9,1.491,1.491,0,0,0,1.006.316,1.125,1.125,0,0,0,1.113-.567h1.177a1.709,1.709,0,0,1-.755,1.14,2.626,2.626,0,0,1-1.536.444,2.468,2.468,0,0,1-1.862-.706,3.024,3.024,0,0,1-.005-3.826A2.4,2.4,0,0,1,263,105.55a2.34,2.34,0,0,1,1.729.658A2.315,2.315,0,0,1,265.391,107.915Zm-3.735-.246h2.59a1.19,1.19,0,0,0-.337-.888,1.284,1.284,0,0,0-.926-.31,1.358,1.358,0,0,0-.963.332A1.174,1.174,0,0,0,261.656,107.669Z" transform="translate(-176.833 -103.174)"/>
        <path id="Path_20" data-name="Path 20" d="M273.159,110.795a2.339,2.339,0,0,1-1.531-.482,1.472,1.472,0,0,1-.589-1.177h1.167a.622.622,0,0,0,.284.524,1.238,1.238,0,0,0,.733.2.8.8,0,0,0,.524-.161.531.531,0,0,0,.193-.428.479.479,0,0,0-.375-.524l-1.284-.353a1.316,1.316,0,0,1-1.081-1.381,1.284,1.284,0,0,1,.535-1.044,2.157,2.157,0,0,1,1.381-.423,2.213,2.213,0,0,1,1.461.428,1.4,1.4,0,0,1,.508,1.124h-1.145a.573.573,0,0,0-.23-.487,1.024,1.024,0,0,0-.637-.177.858.858,0,0,0-.514.145.441.441,0,0,0-.2.369.526.526,0,0,0,.428.535l1.188.343a1.749,1.749,0,0,1,.835.508,1.206,1.206,0,0,1,.321.83,1.474,1.474,0,0,1-.519,1.177A2.148,2.148,0,0,1,273.159,110.795Z" transform="translate(-181.733 -103.174)"/>
      </g>
      <g id="Group_7" data-name="Group 7" transform="translate(130.402 1.54)">
        <path id="Path_21" data-name="Path 21" d="M367.5,98.44H354.05a1.42,1.42,0,0,1-1.42-1.42h0a1.42,1.42,0,0,1,1.42-1.42H367.5a1.42,1.42,0,0,1,1.42,1.42h0A1.418,1.418,0,0,1,367.5,98.44Z" transform="translate(-344.078 -56.915)" fill="#ff6417"/>
        <path id="Path_22" data-name="Path 22" d="M368.5,108.57H359.05a1.42,1.42,0,0,1-1.42-1.42h0a1.42,1.42,0,0,1,1.42-1.42H368.5a1.42,1.42,0,0,1,1.42,1.42h0A1.415,1.415,0,0,1,368.5,108.57Z" transform="translate(-347.079 -62.993)" fill="#ff6417"/>
        <g id="Group_5" data-name="Group 5" transform="translate(0 3.004)">
          <g id="Group_4" data-name="Group 4" clip-path="url(#clip-path)">
            <path id="Path_23" data-name="Path 23" d="M362.6,19.716a16.8,16.8,0,0,0-31.363,8.448A16.724,16.724,0,0,0,339.6,42.723c.328.192.66.368,1,.536a1.241,1.241,0,0,1,1.212-1.172,1.169,1.169,0,0,1,.7.228,2.128,2.128,0,0,1,1.988-1.684,2.8,2.8,0,0,1,2.02.88l.54-7.836v-.708h2.44l.54,8.5a2.825,2.825,0,0,1,1.984-.832,2.121,2.121,0,0,1,1.976,1.624,1.191,1.191,0,0,1,.6-.172,1.238,1.238,0,0,1,1.2,1.012c.236-.124.472-.244.7-.38a16.724,16.724,0,0,0,8.356-14.559A16.435,16.435,0,0,0,362.6,19.716Z" transform="translate(-331.244 -11.36)" fill="#ff6417"/>
          </g>
        </g>
        <g id="Group_6" data-name="Group 6" transform="translate(8.3)">
          <path id="Path_25" data-name="Path 25" d="M367.146,6.842l-.084.18L365.69,9.994l.076,16.971h5.828V9.7L368.642,3.85Z" transform="translate(-360.214 -3.85)" fill="#fff"/>
          <rect id="Rectangle_1" data-name="Rectangle 1" width="1.948" height="17.247" transform="translate(7.484 5.908)" fill="#ff6417"/>
          <path id="Path_26" data-name="Path 26" d="M357.632,43.88l.06,7.136L352,50.984V49.448S357.552,43.88,357.632,43.88Z" transform="translate(-352 -27.869)" fill="#fff"/>
          <path id="Path_27" data-name="Path 27" d="M369.33,6.842h2.952L370.826,3.85Z" transform="translate(-362.398 -3.85)"/>
          <path id="Path_28" data-name="Path 28" d="M380.39,43.8l-.06,7.168,5.676-.036V49.4S380.47,43.8,380.39,43.8Z" transform="translate(-368.998 -27.821)" fill="#fff"/>
          <path id="Path_29" data-name="Path 29" d="M370.426,62.792h-6.292a.662.662,0,0,1-.664-.664v-.284a.662.662,0,0,1,.664-.664h6.292a.662.662,0,0,1,.664.664v.284A.665.665,0,0,1,370.426,62.792Z" transform="translate(-358.882 -38.249)" fill="#fff"/>
        </g>
      </g>
      <g id="Group_8" data-name="Group 8" transform="translate(91.346 5.076)">
        <path id="Path_30" data-name="Path 30" d="M288.078,26.615a12.11,12.11,0,0,0,1.992,2.572V12.7h-.856a12.294,12.294,0,0,0-1.132,1.628,12.394,12.394,0,0,0,0,12.288Z" transform="translate(-264.467 -12.696)"/>
        <path id="Path_31" data-name="Path 31" d="M253.721,27.409a13.985,13.985,0,0,1,0-13.9c.164-.284.336-.556.52-.824h-7.352v10.3h-5.148V12.694H231.49v30.8h10.252V33.2h5.148v10.3H257.1V31.309A13.542,13.542,0,0,1,253.721,27.409Z" transform="translate(-231.49 -12.69)"/>
      </g>
      <path id="Path_32" data-name="Path 32" d="M415.284,29.417V8.87H405.12v4.824a17.976,17.976,0,0,1,0,25.951v.024h19.051V29.417Z" transform="translate(-245.171 -5.322)"/>
      <path id="Path_33" data-name="Path 33" d="M302.639,21.347a17.842,17.842,0,0,1,7.212-14.419c-.1-.192-.2-.38-.3-.568a12.788,12.788,0,0,0-23.867,6.428,12.729,12.729,0,0,0,12.788,12.787,12.806,12.806,0,0,0,4.492-.8A18.7,18.7,0,0,1,302.639,21.347Zm-1.776-4.508a4.7,4.7,0,0,1-4.72,0,4.748,4.748,0,0,1-1.728-1.708,4.51,4.51,0,0,1-.632-2.344,4.648,4.648,0,0,1,.632-2.36,4.814,4.814,0,0,1,1.728-1.744,4.6,4.6,0,0,1,4.72,0,4.8,4.8,0,0,1,1.724,1.744,4.612,4.612,0,0,1,.636,2.36,4.524,4.524,0,0,1-.636,2.344A4.707,4.707,0,0,1,300.863,16.839Z" transform="translate(-172.937)"/>
    </g>
  </g>
</svg>
