<svg id="Group_18648" data-name="Group 18648" xmlns="http://www.w3.org/2000/svg" xmlns:xlink="http://www.w3.org/1999/xlink" width="157" height="49" viewBox="0 0 157 49">
  <defs>
    <clipPath id="clip-path">
      <path id="Path_24" data-name="Path 24" d="M353.139,13.305a14.661,14.661,0,0,1,5.3,19.944,14.566,14.566,0,0,1-27.187-7.323,14.606,14.606,0,0,1,21.889-12.621Z" transform="translate(-331.25 -11.36)"/>
    </clipPath>
  </defs>
  <path id="Path_1" data-name="Path 1" d="M113.473,19.144a17.637,17.637,0,0,0,2.157,1.012,30.232,30.232,0,0,1,3.793,1.813,8.651,8.651,0,0,1,2.729,2.594,7.271,7.271,0,0,1,1.182,4.254,7.984,7.984,0,0,1-4.733,7.514,11.983,11.983,0,0,1-5.187,1.068,13.887,13.887,0,0,1-4.882-.992A27.427,27.427,0,0,1,103.65,34l2.746-6.6a39.205,39.205,0,0,0,3.738,2.021,7.259,7.259,0,0,0,2.746.839,2.9,2.9,0,0,0,1.585-.381,1.2,1.2,0,0,0,.593-1.068q0-.494-.666-.895a17.785,17.785,0,0,0-2.153-1.012,25.963,25.963,0,0,1-3.738-1.793,8.694,8.694,0,0,1-2.687-2.614,7.342,7.342,0,0,1-1.165-4.254,8.508,8.508,0,0,1,1.2-4.518,7.939,7.939,0,0,1,3.415-3.034,11.638,11.638,0,0,1,5.111-1.068,13.6,13.6,0,0,1,4.691.895,21.575,21.575,0,0,1,4.424,2.195l-2.784,6.331a16.591,16.591,0,0,0-2.975-1.564,7.95,7.95,0,0,0-2.975-.648,2.386,2.386,0,0,0-1.411.381,1.2,1.2,0,0,0-.534,1.03C112.807,18.579,113.029,18.877,113.473,19.144Z" transform="translate(-67.707 -6.291)"/>
  <path id="Path_2" data-name="Path 2" d="M185.885,35.237a14.634,14.634,0,0,1-3.831,1.657,15.566,15.566,0,0,1-4.216.593,14.208,14.208,0,0,1-7.018-1.716,12.216,12.216,0,0,1-4.826-4.844,14.59,14.59,0,0,1-1.734-7.208,14.628,14.628,0,0,1,1.734-7.208,12.194,12.194,0,0,1,4.826-4.844,14.208,14.208,0,0,1,7.018-1.716,16.365,16.365,0,0,1,7.666,1.983l-2.784,6.713a6.93,6.93,0,0,0-3.623-1.03,6.723,6.723,0,0,0-3.148.763,6.025,6.025,0,0,0-2.347,2.153,6.236,6.236,0,0,0,.017,6.408,6.009,6.009,0,0,0,2.344,2.136,6.681,6.681,0,0,0,3.089.745,6.592,6.592,0,0,0,4.043-1.335Z" transform="translate(-107.298 -6.5)"/>
  <g id="Group_2" data-name="Group 2" transform="translate(0 2.507)">
    <circle id="Ellipse_1" data-name="Ellipse 1" cx="15.249" cy="15.249" r="15.249" transform="translate(0.721 0.426)" fill="#fff"/>
    <g id="qu6ZpE.tif_1_">
      <g id="Group_1" data-name="Group 1">
        <path id="Path_3" data-name="Path 3" d="M15.551,7.23h.877a.543.543,0,0,0,.232.035,7.7,7.7,0,0,1,1.2.09,16.756,16.756,0,0,1,4.393,1.13,16.475,16.475,0,0,1,5.017,3.221,13.96,13.96,0,0,1,2.375,2.975,15.508,15.508,0,0,1,2.275,7.472,16.027,16.027,0,0,1-.572,5.243,15.338,15.338,0,0,1-4.32,7.129,15.766,15.766,0,0,1-4.806,3.013,16.228,16.228,0,0,1-5.177,1.179,16.92,16.92,0,0,1-4.164-.243,16.094,16.094,0,0,1-4.719-1.668,15.145,15.145,0,0,1-4.1-3.134A15.93,15.93,0,0,1,.045,24.143,16.238,16.238,0,0,1,.1,21.1a15.965,15.965,0,0,1,1.772-5.634,14.408,14.408,0,0,1,3.453-4.351A16.467,16.467,0,0,1,14.608,7.3,7.191,7.191,0,0,0,15.551,7.23ZM9.043,21.945v5.974c0,.5,0,.433-.43.44a3.984,3.984,0,0,0-1.373.118c-.264.1-.534.166-.8.25s-.513.156-.77.232c-.045.014-.1.028-.128-.028s.007-.083.035-.114.073-.083.111-.121c.191-.215.426-.381.621-.589.319-.336.624-.683.929-1.03a2.579,2.579,0,0,0,.714-1.748q-.005-4.707,0-9.41c0-.222-.062-.281-.284-.274a1.6,1.6,0,0,0-.18.021,6.459,6.459,0,0,1-1.345.059,10.761,10.761,0,0,0-1.529-.107,1.846,1.846,0,0,0-1.654,2.746.163.163,0,0,0,.166.114c.1-.007.1-.083.111-.159a.777.777,0,0,1,.808-.749c.426-.031.853-.031,1.279-.024a1.214,1.214,0,0,0,.655-.191c.354-.2.711-.4,1.068-.6.042-.024.094-.062.132-.01s-.021.076-.045.107c-.336.468-.676.936-1.009,1.408a4.011,4.011,0,0,0-.784,1.671,8.5,8.5,0,0,0-.059,1.293c0,.243-.014.257-.26.257-.34,0-.683,0-1.023,0a.325.325,0,0,0-.305.156c-.319.458-.648.912-.974,1.366-.052.076-.114.156-.069.25s.153.083.243.083H5.1c.239,0,.257.021.26.264,0,1.016.007,2.035,0,3.051a3.368,3.368,0,0,1-.506,1.713,15.239,15.239,0,0,1-1.127,1.571c-.055.069-.128.139-.083.243s.156.1.253.1H7.722a.407.407,0,0,0,.212-.042c.541-.316,1.04-.7,1.574-1.026a.446.446,0,0,0,.212-.43c-.007-1.377,0-2.753,0-4.13,0-.388,0-.78,0-1.168,0-.094.01-.2.135-.2.322.021.645-.049.967-.01a4.819,4.819,0,0,0,.895.007c.454-.031.454-.038.454.409v4.5a.4.4,0,0,0,.1.336c.534.5,1.064,1,1.6,1.5.246.229.347.222.635.028.35-.243.707-.472,1.064-.707.264-.173.534-.343.791-.527.146-.1.146-.222.007-.309-.42-.26-.784-.6-1.2-.867a.366.366,0,0,1-.177-.333c0-1.085,0-2.167,0-3.252,0-1.248.007-2.5,0-3.745a19.1,19.1,0,0,1,.2-3.641c.059-.312.09-.628.121-.943.021-.215-.073-.27-.264-.177-.153.076-.305.156-.454.236-.7.388-1.4.787-2.112,1.158a.57.57,0,0,0-.371.607c.035,1.207.014,2.413.014,3.616,0,.229-.035.264-.267.264-.621,0-1.241,0-1.865,0-.295,0-.309-.014-.309-.309V15.9c0-.08,0-.159,0-.236,0-.049-.014-.107-.066-.121a.8.8,0,0,0-.485,0c-.114.045-.069.184-.073.281C9.039,17.878,9.043,19.91,9.043,21.945ZM21.407,23.02c0,1.134,0,2.268,0,3.4a.676.676,0,0,1-.166.468,3.037,3.037,0,0,0-.229.284c-.1.146-.212.142-.336.035a4.437,4.437,0,0,1-1.037-1.286,5.22,5.22,0,0,1-.548-2.954,5.8,5.8,0,0,1,.638-2.119,4.99,4.99,0,0,1,.673-1.019c.062-.073.111-.156.049-.25s-.132-.038-.2-.01a5.957,5.957,0,0,0-2.528,1.942,4.734,4.734,0,0,0-.815,1.72,5.746,5.746,0,0,0,.551,4.209,4.4,4.4,0,0,0,.641.9,6.425,6.425,0,0,0,1.113.964,5.4,5.4,0,0,0,1.675.752,7.3,7.3,0,0,0,2.229.166,6.008,6.008,0,0,0,3.641-1.463,4.412,4.412,0,0,0,1.526-3.02c.01-.087.014-.177-.094-.212s-.149.049-.191.125a4.133,4.133,0,0,1-.44.624,4.338,4.338,0,0,1-1.643,1.214c-.2.083-.215.069-.215-.149V18.61c0-.489,0-.482.5-.527a1.909,1.909,0,0,0,1.411-.777,5.057,5.057,0,0,0,.832-2.236c.01-.055.014-.114-.049-.142a.131.131,0,0,0-.153.024,2.47,2.47,0,0,0-.184.2,1.543,1.543,0,0,1-1.054.593,8.942,8.942,0,0,1-1.7.024c-1.1-.069-2.188-.26-3.29-.329a6.615,6.615,0,0,0-2.9.316,3.079,3.079,0,0,0-.915.524,2.65,2.65,0,0,0-.9,1.512,3.447,3.447,0,0,0,.128,1.657.252.252,0,0,0,.149.194c.153.049.253-.017.295-.2A1.941,1.941,0,0,1,19.132,18a4.808,4.808,0,0,1,1.8-.274,16.481,16.481,0,0,1,2.545.218c.052.007.125,0,.142.066s-.059.083-.1.107c-.558.3-1.1.635-1.678.888a.706.706,0,0,0-.444.78C21.414,20.863,21.4,21.942,21.407,23.02Z" transform="translate(0 -7.23)" fill="#00b1cd"/>
        <path id="Path_4" data-name="Path 4" d="M65.482,43.41V48c0,.284,0,.291-.281.35a6.067,6.067,0,0,1-2.822-.031c-.194-.049-.378-.132-.569-.2-.045-.017-.1-.028-.1-.09s.052-.076.094-.1c.44-.236.881-.472,1.318-.707.225-.121.444-.253.676-.364a.366.366,0,0,0,.218-.392c-.007-.687,0-1.377,0-2.063,0-1.626,0-3.252,0-4.878a.491.491,0,0,1,.18-.413,3.319,3.319,0,0,0,.426-.4c.225-.27.51-.17.78-.149.08,0,.083.076.087.139,0,.111,0,.218,0,.329C65.482,40.488,65.482,41.951,65.482,43.41Z" transform="translate(-40.313 -27.676)" fill="#00b1cd"/>
      </g>
    </g>
  </g>
  <g id="Group_3" data-name="Group 3" transform="translate(36.254 40.446)">
    <path id="Path_5" data-name="Path 5" d="M107.185,104.265a1.472,1.472,0,0,1,.951.459,1.5,1.5,0,0,1,.385,1.072,1.675,1.675,0,0,1-.552,1.327,2.229,2.229,0,0,1-1.517.482H104.16V101.11h2.171a2.361,2.361,0,0,1,1.531.45,1.51,1.51,0,0,1,.557,1.239A1.36,1.36,0,0,1,107.185,104.265Zm-.9-2.217h-1.058v1.781h1.058a1.189,1.189,0,0,0,.784-.237.908.908,0,0,0,0-1.313A1.211,1.211,0,0,0,106.285,102.047Zm.148,4.62a1.049,1.049,0,0,0,.752-.26.949.949,0,0,0,.269-.724.858.858,0,0,0-.278-.663,1.038,1.038,0,0,0-.733-.255h-1.215v1.9Z" transform="translate(-104.16 -101.11)"/>
    <path id="Path_6" data-name="Path 6" d="M118.648,105.79h1.011v4.342a2.049,2.049,0,0,1-.566,1.54,2.09,2.09,0,0,1-1.466.5,2.241,2.241,0,0,1-1.484-.445,1.472,1.472,0,0,1-.482-1.123h1.021a.8.8,0,0,0,.246.552,1.035,1.035,0,0,0,.682.181.967.967,0,0,0,.761-.311,1.423,1.423,0,0,0,.278-.97v-.547a1.48,1.48,0,0,1-1.392.714,1.452,1.452,0,0,1-1.183-.5,1.977,1.977,0,0,1-.413-1.3V105.79h1.011v2.422c0,.747.311,1.123.937,1.123a.9.9,0,0,0,.775-.362,1.566,1.566,0,0,0,.264-.946Z" transform="translate(-110.325 -103.619)"/>
    <path id="Path_7" data-name="Path 7" d="M132.18,107.6V101.11h1.067V103.9h2.681V101.11H137V107.6h-1.067v-2.746h-2.681V107.6Z" transform="translate(-119.181 -101.11)"/>
    <path id="Path_8" data-name="Path 8" d="M146.23,102.5a.774.774,0,1,1,.213-.533A.727.727,0,0,1,146.23,102.5Zm-1.048,5.163v-4.324h1.011v4.324Z" transform="translate(-126.022 -101.164)"/>
    <path id="Path_9" data-name="Path 9" d="M150.44,109.985v-4.324h1.011v.6a1.5,1.5,0,0,1,1.41-.714q1.58,0,1.577,1.716v2.718h-1.011V107.73a1.811,1.811,0,0,0-.213-1.011.83.83,0,0,0-.733-.306.947.947,0,0,0-.761.311,1.306,1.306,0,0,0-.269.886v2.375Z" transform="translate(-128.971 -103.49)"/>
    <path id="Path_10" data-name="Path 10" d="M164.567,101.11h1.011V107.6h-1.011v-.585a1.3,1.3,0,0,1-.58.506,1.851,1.851,0,0,1-.8.19,1.969,1.969,0,0,1-1.568-.64,2.4,2.4,0,0,1-.557-1.633,2.338,2.338,0,0,1,.585-1.628,2.009,2.009,0,0,1,1.568-.645,1.7,1.7,0,0,1,.8.186,1.35,1.35,0,0,1,.557.51Zm-1.234,5.706a1.176,1.176,0,0,0,.951-.39,1.633,1.633,0,0,0,0-1.967,1.327,1.327,0,0,0-1.874,0,1.611,1.611,0,0,0,0,1.976A1.159,1.159,0,0,0,163.333,106.816Z" transform="translate(-134.664 -101.11)"/>
    <path id="Path_11" data-name="Path 11" d="M175.105,110.225a1.579,1.579,0,0,1-1.169-.436,1.734,1.734,0,0,1-.436-1.28V105.79h1.011v2.468a1.4,1.4,0,0,0,.2.826.782.782,0,0,0,.677.278.958.958,0,0,0,.8-.311,1.275,1.275,0,0,0,.251-.821v-2.44h1.011v4.324h-1.011v-.6A1.4,1.4,0,0,1,175.105,110.225Z" transform="translate(-141.333 -103.619)"/>
    <path id="Path_12" data-name="Path 12" d="M185.957,110.1a2.028,2.028,0,0,1-1.327-.418,1.276,1.276,0,0,1-.51-1.021h1.011a.539.539,0,0,0,.246.455,1.073,1.073,0,0,0,.636.176.691.691,0,0,0,.455-.139.461.461,0,0,0,.167-.371.415.415,0,0,0-.325-.455l-1.113-.306a1.141,1.141,0,0,1-.937-1.2,1.113,1.113,0,0,1,.464-.9,1.87,1.87,0,0,1,1.2-.366,1.918,1.918,0,0,1,1.266.371,1.212,1.212,0,0,1,.441.974h-.993a.5.5,0,0,0-.2-.422.887.887,0,0,0-.552-.153.744.744,0,0,0-.445.125.382.382,0,0,0-.176.32.456.456,0,0,0,.371.464l1.03.3a1.516,1.516,0,0,1,.724.441,1.045,1.045,0,0,1,.278.719,1.278,1.278,0,0,1-.45,1.021A1.862,1.862,0,0,1,185.957,110.1Z" transform="translate(-147.026 -103.49)"/>
    <path id="Path_13" data-name="Path 13" d="M195.235,107.748a3.07,3.07,0,0,0,.51-.037v.891a4.365,4.365,0,0,1-.752.056,2.389,2.389,0,0,1-.436-.037,1.614,1.614,0,0,1-.436-.172.888.888,0,0,1-.39-.469,2.214,2.214,0,0,1-.139-.844v-2.013h-.733v-.844h.733V102.97H194.6v1.308h.993v.844H194.6V106.9a1.079,1.079,0,0,0,.148.682A.613.613,0,0,0,195.235,107.748Z" transform="translate(-151.712 -102.107)"/>
    <path id="Path_14" data-name="Path 14" d="M202.4,110.1a1.969,1.969,0,0,1-1.568-.64,2.4,2.4,0,0,1-.557-1.633,2.338,2.338,0,0,1,.585-1.628,2.009,2.009,0,0,1,1.568-.645,1.7,1.7,0,0,1,.8.186,1.35,1.35,0,0,1,.557.51v-.585H204.8v4.324h-1.011V109.4a1.3,1.3,0,0,1-.58.506A1.851,1.851,0,0,1,202.4,110.1Zm.148-.9a1.176,1.176,0,0,0,.951-.39,1.633,1.633,0,0,0,0-1.967,1.327,1.327,0,0,0-1.874,0,1.611,1.611,0,0,0,0,1.976A1.159,1.159,0,0,0,202.553,109.2Z" transform="translate(-155.689 -103.49)"/>
    <path id="Path_15" data-name="Path 15" d="M212.82,109.985v-4.324h1.011v.6a1.5,1.5,0,0,1,1.41-.714q1.58,0,1.577,1.716v2.718h-1.011V107.73a1.812,1.812,0,0,0-.213-1.011.831.831,0,0,0-.733-.306.947.947,0,0,0-.761.311,1.306,1.306,0,0,0-.269.886v2.375Z" transform="translate(-162.412 -103.49)"/>
    <path id="Path_16" data-name="Path 16" d="M229.723,107.6v-5.493H227.84v-1h4.843v1H230.79V107.6Z" transform="translate(-170.464 -101.11)"/>
    <path id="Path_17" data-name="Path 17" d="M240.35,102.5a.774.774,0,1,1,.213-.533A.727.727,0,0,1,240.35,102.5Zm-1.048,5.163v-4.324h1.011v4.324Z" transform="translate(-176.479 -101.164)"/>
    <path id="Path_18" data-name="Path 18" d="M244.56,109.985v-4.324h1.011v.6a1.2,1.2,0,0,1,.473-.515,1.358,1.358,0,0,1,.733-.2,1.33,1.33,0,0,1,1.364.77,1.287,1.287,0,0,1,.52-.552,1.548,1.548,0,0,1,.807-.218q1.559,0,1.559,1.7v2.737h-1.011v-2.542q0-1.03-.807-1.03a.83.83,0,0,0-.668.283,1.553,1.553,0,0,0-.241,1v2.292h-1.011v-2.551c0-.682-.264-1.021-.789-1.021a.846.846,0,0,0-.682.283,1.55,1.55,0,0,0-.246,1v2.292H244.56Z" transform="translate(-179.428 -103.49)"/>
    <path id="Path_19" data-name="Path 19" d="M264.74,107.6q0,.167-.028.557H261.5a1.046,1.046,0,0,0,.334.784,1.292,1.292,0,0,0,.872.274.975.975,0,0,0,.965-.492h1.021a1.481,1.481,0,0,1-.654.988,2.276,2.276,0,0,1-1.331.385,2.14,2.14,0,0,1-1.614-.612,2.621,2.621,0,0,1,0-3.317,2.079,2.079,0,0,1,1.582-.617,2.028,2.028,0,0,1,1.5.571A2.007,2.007,0,0,1,264.74,107.6Zm-3.238-.213h2.245a1.031,1.031,0,0,0-.292-.77,1.113,1.113,0,0,0-.8-.269,1.178,1.178,0,0,0-.835.288A1.018,1.018,0,0,0,261.5,107.387Z" transform="translate(-187.973 -103.49)"/>
    <path id="Path_20" data-name="Path 20" d="M272.877,110.1a2.028,2.028,0,0,1-1.327-.418,1.276,1.276,0,0,1-.51-1.021h1.011a.539.539,0,0,0,.246.455,1.073,1.073,0,0,0,.636.176.691.691,0,0,0,.455-.139.46.46,0,0,0,.167-.371.415.415,0,0,0-.325-.455l-1.113-.306a1.141,1.141,0,0,1-.937-1.2,1.113,1.113,0,0,1,.464-.9,1.87,1.87,0,0,1,1.2-.366,1.918,1.918,0,0,1,1.266.371,1.212,1.212,0,0,1,.441.974h-.993a.5.5,0,0,0-.2-.422.887.887,0,0,0-.552-.153.744.744,0,0,0-.445.125.382.382,0,0,0-.176.32.456.456,0,0,0,.371.464l1.03.3a1.516,1.516,0,0,1,.724.441,1.045,1.045,0,0,1,.278.719,1.278,1.278,0,0,1-.45,1.021A1.862,1.862,0,0,1,272.877,110.1Z" transform="translate(-193.624 -103.49)"/>
  </g>
  <g id="Group_7" data-name="Group 7" transform="translate(114.873 1.335)">
    <path id="Path_21" data-name="Path 21" d="M365.518,98.062H353.861a1.231,1.231,0,0,1-1.231-1.231h0a1.231,1.231,0,0,1,1.231-1.231h11.657a1.231,1.231,0,0,1,1.231,1.231h0A1.229,1.229,0,0,1,365.518,98.062Z" transform="translate(-345.217 -59.876)" fill="#ff6417"/>
    <path id="Path_22" data-name="Path 22" d="M367.051,108.192h-8.19a1.231,1.231,0,0,1-1.231-1.231h0a1.231,1.231,0,0,1,1.231-1.231h8.19a1.231,1.231,0,0,1,1.231,1.231h0A1.227,1.227,0,0,1,367.051,108.192Z" transform="translate(-348.483 -66.493)" fill="#ff6417"/>
    <g id="Group_5" data-name="Group 5" transform="translate(0 2.604)">
      <g id="Group_4" data-name="Group 4" clip-path="url(#clip-path)">
        <path id="Path_23" data-name="Path 23" d="M358.427,18.6a14.566,14.566,0,0,0-27.187,7.323,14.5,14.5,0,0,0,7.243,12.621c.284.166.572.319.863.465A1.076,1.076,0,0,1,340.4,38a1.014,1.014,0,0,1,.6.2,1.845,1.845,0,0,1,1.723-1.46,2.429,2.429,0,0,1,1.751.763l.468-6.792V30.09h2.115l.468,7.364a2.449,2.449,0,0,1,1.72-.721,1.839,1.839,0,0,1,1.713,1.408,1.032,1.032,0,0,1,.52-.149,1.073,1.073,0,0,1,1.037.877c.2-.107.409-.211.61-.329a14.5,14.5,0,0,0,7.243-12.621A14.247,14.247,0,0,0,358.427,18.6Z" transform="translate(-331.243 -11.36)" fill="#ff6417"/>
      </g>
    </g>
    <g id="Group_6" data-name="Group 6" transform="translate(7.195)">
      <path id="Path_25" data-name="Path 25" d="M366.952,6.444l-.073.156L365.69,9.176l.066,14.712h5.052V8.919L368.249,3.85Z" transform="translate(-360.943 -3.85)" fill="#fff"/>
      <rect id="Rectangle_1" data-name="Rectangle 1" width="1.689" height="14.951" transform="translate(6.487 5.121)" fill="#ff6417"/>
      <path id="Path_26" data-name="Path 26" d="M356.882,43.88l.052,6.186L352,50.038V48.706S356.813,43.88,356.882,43.88Z" transform="translate(-352 -30.001)" fill="#fff"/>
      <path id="Path_27" data-name="Path 27" d="M369.33,6.444h2.559L370.627,3.85Z" transform="translate(-363.321 -3.85)" fill="#ff6417"/>
      <path id="Path_28" data-name="Path 28" d="M380.382,43.8l-.052,6.213,4.92-.031V48.654S380.451,43.8,380.382,43.8Z" transform="translate(-370.507 -29.948)" fill="#fff"/>
      <path id="Path_29" data-name="Path 29" d="M369.5,62.577h-5.454A.574.574,0,0,1,363.47,62v-.246a.574.574,0,0,1,.575-.576H369.5a.574.574,0,0,1,.576.576V62A.576.576,0,0,1,369.5,62.577Z" transform="translate(-359.493 -41.302)" fill="#fff"/>
    </g>
  </g>
  <g id="Group_8" data-name="Group 8" transform="translate(80.275 4.4)">
    <path id="Path_30" data-name="Path 30" d="M287.861,24.763a10.5,10.5,0,0,0,1.727,2.229V12.7h-.742a10.66,10.66,0,0,0-.981,1.411,10.744,10.744,0,0,0,0,10.651Z" transform="translate(-267.394 -12.697)"/>
    <path id="Path_31" data-name="Path 31" d="M250.761,25.45a12.123,12.123,0,0,1,0-12.045c.142-.246.291-.482.451-.714h-6.373v8.925h-4.462V12.693H231.49v26.7h8.887V30.467h4.462v8.925h8.848V28.83A11.739,11.739,0,0,1,250.761,25.45Z" transform="translate(-231.49 -12.69)"/>
  </g>
  <path id="Path_32" data-name="Path 32" d="M413.93,26.681V8.87h-8.81v4.182a15.583,15.583,0,0,1,0,22.5v.021h16.515V26.681Z" transform="translate(-264.635 -5.795)"/>
  <path id="Path_33" data-name="Path 33" d="M300.381,18.5a15.466,15.466,0,0,1,6.252-12.5c-.087-.166-.17-.329-.264-.492a11.085,11.085,0,0,0-20.689,5.572A11.034,11.034,0,0,0,296.765,22.17a11.1,11.1,0,0,0,3.894-.69A16.2,16.2,0,0,1,300.381,18.5ZM298.842,14.6a4.071,4.071,0,0,1-4.091,0,4.116,4.116,0,0,1-1.5-1.481,3.909,3.909,0,0,1-.548-2.032,4.029,4.029,0,0,1,.548-2.046,4.174,4.174,0,0,1,1.5-1.512,3.985,3.985,0,0,1,4.091,0,4.164,4.164,0,0,1,1.494,1.512,4,4,0,0,1,.551,2.046,3.921,3.921,0,0,1-.551,2.032A4.08,4.08,0,0,1,298.842,14.6Z" transform="translate(-186.613)"/>
</svg>
