<svg xmlns="http://www.w3.org/2000/svg" xmlns:xlink="http://www.w3.org/1999/xlink" width="115.251" height="34.372" viewBox="0 0 115.251 34.372">
  <defs>
    <clipPath id="clip-path">
      <path id="Path_24" data-name="Path 24" d="M347.451,12.8a10.8,10.8,0,0,1,0,18.682,10.77,10.77,0,0,1-16.2-9.341,10.811,10.811,0,0,1,16.2-9.341Z" transform="translate(-331.25 -11.36)"/>
    </clipPath>
  </defs>
  <g id="Group_18870" data-name="Group 18870" transform="translate(0)">
    <path id="Path_1" data-name="Path 1" d="M110.92,16.672a13.053,13.053,0,0,0,1.6.749,22.375,22.375,0,0,1,2.808,1.342,6.4,6.4,0,0,1,2.02,1.92,5.381,5.381,0,0,1,.875,3.149,5.909,5.909,0,0,1-3.5,5.561,8.869,8.869,0,0,1-3.839.79,10.278,10.278,0,0,1-3.613-.734,20.3,20.3,0,0,1-3.613-1.778l2.032-4.884a29.017,29.017,0,0,0,2.766,1.5,5.372,5.372,0,0,0,2.032.621,2.149,2.149,0,0,0,1.173-.282.889.889,0,0,0,.439-.79q0-.366-.493-.662a13.165,13.165,0,0,0-1.594-.749,19.217,19.217,0,0,1-2.766-1.327,6.435,6.435,0,0,1-1.989-1.935,5.434,5.434,0,0,1-.862-3.149,6.3,6.3,0,0,1,.888-3.344A5.876,5.876,0,0,1,107.8,10.42a8.614,8.614,0,0,1,3.783-.79,10.069,10.069,0,0,1,3.472.662,15.969,15.969,0,0,1,3.275,1.624L116.273,16.6a12.279,12.279,0,0,0-2.2-1.157,5.884,5.884,0,0,0-2.2-.48,1.766,1.766,0,0,0-1.044.282.885.885,0,0,0-.4.762C110.428,16.254,110.592,16.474,110.92,16.672Z" transform="translate(-77.296 -7.159)"/>
    <path id="Path_2" data-name="Path 2" d="M180.266,28.666a10.831,10.831,0,0,1-2.836,1.227,11.521,11.521,0,0,1-3.121.439,10.516,10.516,0,0,1-5.194-1.27,9.042,9.042,0,0,1-3.572-3.585,10.8,10.8,0,0,1-1.283-5.335,10.826,10.826,0,0,1,1.283-5.335,9.025,9.025,0,0,1,3.572-3.585,10.516,10.516,0,0,1,5.194-1.27,12.112,12.112,0,0,1,5.674,1.468l-2.061,4.968a5.129,5.129,0,0,0-2.682-.762,4.976,4.976,0,0,0-2.33.565,4.46,4.46,0,0,0-1.737,1.594,4.616,4.616,0,0,0,.013,4.742,4.447,4.447,0,0,0,1.735,1.581,4.945,4.945,0,0,0,2.287.552,4.879,4.879,0,0,0,2.992-.988Z" transform="translate(-122.501 -7.397)"/>
    <g id="Group_2" data-name="Group 2" transform="translate(0 1.855)">
      <circle id="Ellipse_1" data-name="Ellipse 1" cx="11.286" cy="11.286" r="11.286" transform="translate(0.534 0.316)" fill="#fff"/>
      <g id="qu6ZpE.tif_1_">
        <g id="Group_1" data-name="Group 1">
          <path id="Path_3" data-name="Path 3" d="M11.51,7.23h.649a.4.4,0,0,0,.172.026,5.7,5.7,0,0,1,.888.067,12.4,12.4,0,0,1,3.251.837,12.194,12.194,0,0,1,3.713,2.384,10.332,10.332,0,0,1,1.758,2.2,11.478,11.478,0,0,1,1.683,5.53,11.862,11.862,0,0,1-.423,3.88A11.353,11.353,0,0,1,20,27.432a11.669,11.669,0,0,1-3.557,2.23,12.011,12.011,0,0,1-3.831.873,12.523,12.523,0,0,1-3.082-.18A11.912,11.912,0,0,1,6.041,29.12,11.209,11.209,0,0,1,3,26.8,11.791,11.791,0,0,1,.033,19.748,12.018,12.018,0,0,1,.074,17.5a11.816,11.816,0,0,1,1.311-4.17A10.664,10.664,0,0,1,3.942,10.1a12.188,12.188,0,0,1,6.87-2.823A5.323,5.323,0,0,0,11.51,7.23ZM6.693,18.121v4.422c0,.37,0,.321-.318.326a2.949,2.949,0,0,0-1.016.087c-.2.072-.4.123-.593.185l-.57.172c-.033.01-.074.021-.095-.021s.005-.062.026-.085.054-.062.082-.09c.141-.159.316-.282.459-.436.236-.249.462-.506.688-.762a1.909,1.909,0,0,0,.529-1.293q0-3.484,0-6.965c0-.164-.046-.208-.21-.2a1.181,1.181,0,0,0-.133.015,4.781,4.781,0,0,1-1,.044,7.964,7.964,0,0,0-1.132-.08A1.366,1.366,0,0,0,2.189,15.47a.121.121,0,0,0,.123.085c.074-.005.074-.062.082-.118a.575.575,0,0,1,.6-.554c.316-.023.631-.023.947-.018a.9.9,0,0,0,.485-.141c.262-.151.526-.3.79-.441.031-.018.069-.046.1-.008s-.015.056-.033.08c-.249.346-.5.693-.747,1.042a2.969,2.969,0,0,0-.58,1.237,6.293,6.293,0,0,0-.044.957c0,.18-.01.19-.192.19-.251,0-.506,0-.757,0a.241.241,0,0,0-.226.115c-.236.339-.48.675-.721,1.011-.038.056-.085.115-.051.185s.113.062.18.062H3.777c.177,0,.19.015.192.2,0,.752.005,1.506,0,2.258A2.493,2.493,0,0,1,3.6,22.874a11.279,11.279,0,0,1-.834,1.163c-.041.051-.095.1-.062.18s.115.077.187.077H5.715a.3.3,0,0,0,.157-.031c.4-.234.77-.516,1.165-.76a.33.33,0,0,0,.157-.318c-.005-1.019,0-2.038,0-3.056,0-.287,0-.577,0-.865,0-.069.008-.151.1-.146.239.015.477-.036.716-.008a3.567,3.567,0,0,0,.662.005c.336-.023.336-.028.336.3v3.328a.3.3,0,0,0,.072.249c.4.37.788.742,1.183,1.109.182.169.257.164.47.021.259-.18.524-.349.788-.524.2-.128.4-.254.585-.39.108-.077.108-.164.005-.228-.311-.192-.58-.441-.885-.642a.271.271,0,0,1-.131-.246c0-.8,0-1.6,0-2.407,0-.924.005-1.848,0-2.772a14.138,14.138,0,0,1,.149-2.695c.044-.231.067-.464.09-.7.015-.159-.054-.2-.2-.131-.113.056-.226.115-.336.175-.521.287-1.037.583-1.563.857a.422.422,0,0,0-.275.449c.026.893.01,1.786.01,2.677,0,.169-.026.2-.2.2-.459,0-.919,0-1.381,0-.218,0-.228-.01-.228-.228V13.648c0-.059,0-.118,0-.175,0-.036-.01-.08-.049-.09a.592.592,0,0,0-.359,0c-.085.033-.051.136-.054.208C6.69,15.111,6.693,16.615,6.693,18.121Zm9.151.8c0,.839,0,1.678,0,2.515a.5.5,0,0,1-.123.346,2.248,2.248,0,0,0-.169.21c-.074.108-.157.105-.249.026a3.284,3.284,0,0,1-.767-.952,3.863,3.863,0,0,1-.405-2.186,4.292,4.292,0,0,1,.472-1.568,3.693,3.693,0,0,1,.5-.754c.046-.054.082-.115.036-.185s-.1-.028-.146-.008A4.409,4.409,0,0,0,13.121,17.8a3.5,3.5,0,0,0-.6,1.273,4.253,4.253,0,0,0,.408,3.115,3.26,3.26,0,0,0,.475.67,4.755,4.755,0,0,0,.824.713,3.993,3.993,0,0,0,1.24.557,5.4,5.4,0,0,0,1.65.123,4.447,4.447,0,0,0,2.695-1.083,3.265,3.265,0,0,0,1.129-2.235c.008-.064.01-.131-.069-.157s-.11.036-.141.092a3.059,3.059,0,0,1-.326.462,3.211,3.211,0,0,1-1.216.9c-.146.062-.159.051-.159-.11V15.653c0-.362,0-.357.37-.39a1.413,1.413,0,0,0,1.044-.575,3.743,3.743,0,0,0,.616-1.655c.008-.041.01-.085-.036-.105a.1.1,0,0,0-.113.018,1.828,1.828,0,0,0-.136.149,1.142,1.142,0,0,1-.78.439,6.619,6.619,0,0,1-1.255.018c-.814-.051-1.619-.192-2.435-.244a4.9,4.9,0,0,0-2.143.234,2.279,2.279,0,0,0-.677.388,1.962,1.962,0,0,0-.665,1.119,2.551,2.551,0,0,0,.095,1.227.187.187,0,0,0,.11.144c.113.036.187-.013.218-.146a1.436,1.436,0,0,1,.921-1.068A3.558,3.558,0,0,1,15.49,15a12.2,12.2,0,0,1,1.884.162c.038.005.092,0,.105.049s-.044.062-.077.08c-.413.223-.814.47-1.242.657a.523.523,0,0,0-.328.577C15.849,17.321,15.841,18.119,15.844,18.917Z" transform="translate(0 -7.23)" fill="#00b1cd"/>
          <path id="Path_4" data-name="Path 4" d="M64.5,42.142v3.4c0,.21,0,.216-.208.259a4.49,4.49,0,0,1-2.089-.023c-.144-.036-.28-.1-.421-.146-.033-.013-.074-.021-.074-.067s.038-.056.069-.074l.975-.524c.167-.09.328-.187.5-.269a.271.271,0,0,0,.162-.29c-.005-.508,0-1.019,0-1.527,0-1.2,0-2.407,0-3.611a.363.363,0,0,1,.133-.305,2.457,2.457,0,0,0,.316-.3c.167-.2.377-.126.577-.11.059,0,.062.056.064.1,0,.082,0,.162,0,.244C64.5,39.978,64.5,41.061,64.5,42.142Z" transform="translate(-45.873 -30.496)" fill="#00b1cd"/>
        </g>
      </g>
    </g>
    <g id="Group_3" data-name="Group 3" transform="translate(26.38 28.041)">
      <path id="Path_5" data-name="Path 5" d="M106.4,103.445a1.089,1.089,0,0,1,.7.34,1.106,1.106,0,0,1,.285.793,1.24,1.24,0,0,1-.409.982,1.65,1.65,0,0,1-1.123.357h-1.7V101.11h1.607a1.747,1.747,0,0,1,1.133.333,1.117,1.117,0,0,1,.412.917A1.007,1.007,0,0,1,106.4,103.445Zm-.666-1.641h-.783v1.318h.783a.88.88,0,0,0,.58-.175.672.672,0,0,0,0-.972A.9.9,0,0,0,105.733,101.8Zm.11,3.42a.776.776,0,0,0,.556-.192.7.7,0,0,0,.2-.536.635.635,0,0,0-.206-.491.768.768,0,0,0-.542-.189h-.9v1.408Z" transform="translate(-104.16 -101.11)"/>
      <path id="Path_6" data-name="Path 6" d="M117.871,105.79h.749V109a1.517,1.517,0,0,1-.419,1.14,1.547,1.547,0,0,1-1.085.371,1.659,1.659,0,0,1-1.1-.33,1.09,1.09,0,0,1-.357-.831h.755a.592.592,0,0,0,.182.409.766.766,0,0,0,.5.134.715.715,0,0,0,.563-.23,1.054,1.054,0,0,0,.206-.718v-.405a1.1,1.1,0,0,1-1.03.529,1.075,1.075,0,0,1-.876-.367,1.463,1.463,0,0,1-.306-.965v-1.95h.749v1.792c0,.553.23.831.694.831a.667.667,0,0,0,.573-.268,1.159,1.159,0,0,0,.2-.7Z" transform="translate(-111.711 -104.183)"/>
      <path id="Path_7" data-name="Path 7" d="M132.18,105.917V101.11h.79v2.067h1.985V101.11h.79v4.807h-.79v-2.033H132.97v2.033Z" transform="translate(-122.559 -101.11)"/>
      <path id="Path_8" data-name="Path 8" d="M145.895,102.161a.573.573,0,1,1,.158-.395A.538.538,0,0,1,145.895,102.161Zm-.776,3.822v-3.2h.749v3.2Z" transform="translate(-130.938 -101.176)"/>
      <path id="Path_9" data-name="Path 9" d="M150.44,108.832v-3.2h.749v.446a1.107,1.107,0,0,1,1.044-.529q1.169,0,1.167,1.27v2.012h-.748v-1.669a1.341,1.341,0,0,0-.158-.749.615.615,0,0,0-.542-.227.7.7,0,0,0-.563.23.966.966,0,0,0-.2.656v1.758Z" transform="translate(-134.55 -104.026)"/>
      <path id="Path_10" data-name="Path 10" d="M163.656,101.11h.749v4.807h-.749v-.433a.965.965,0,0,1-.429.374,1.37,1.37,0,0,1-.594.141,1.457,1.457,0,0,1-1.161-.474,1.773,1.773,0,0,1-.412-1.209,1.73,1.73,0,0,1,.433-1.205,1.487,1.487,0,0,1,1.161-.477,1.258,1.258,0,0,1,.591.137,1,1,0,0,1,.412.378Zm-.913,4.223a.87.87,0,0,0,.7-.288,1.209,1.209,0,0,0,0-1.456.982.982,0,0,0-1.387,0,1.192,1.192,0,0,0,0,1.463A.857.857,0,0,0,162.742,105.333Z" transform="translate(-141.523 -101.11)"/>
      <path id="Path_11" data-name="Path 11" d="M174.688,109.072a1.168,1.168,0,0,1-.865-.323,1.284,1.284,0,0,1-.323-.948V105.79h.749v1.827a1.034,1.034,0,0,0,.151.611.579.579,0,0,0,.5.206.709.709,0,0,0,.591-.23.944.944,0,0,0,.185-.608V105.79h.749v3.2h-.749v-.446A1.037,1.037,0,0,1,174.688,109.072Z" transform="translate(-149.692 -104.183)"/>
      <path id="Path_12" data-name="Path 12" d="M185.48,108.915a1.5,1.5,0,0,1-.982-.309.944.944,0,0,1-.378-.755h.749a.4.4,0,0,0,.182.337.794.794,0,0,0,.47.13.512.512,0,0,0,.337-.1.341.341,0,0,0,.124-.275.307.307,0,0,0-.24-.336l-.824-.227a.844.844,0,0,1-.694-.886.824.824,0,0,1,.343-.67,1.384,1.384,0,0,1,.886-.271,1.42,1.42,0,0,1,.937.275.9.9,0,0,1,.326.721h-.735a.368.368,0,0,0-.148-.312.657.657,0,0,0-.409-.113.55.55,0,0,0-.33.093.283.283,0,0,0-.13.237.337.337,0,0,0,.275.343l.762.22a1.122,1.122,0,0,1,.536.326.774.774,0,0,1,.206.532.946.946,0,0,1-.333.755A1.378,1.378,0,0,1,185.48,108.915Z" transform="translate(-156.665 -104.026)"/>
      <path id="Path_13" data-name="Path 13" d="M194.618,106.507a2.273,2.273,0,0,0,.378-.027v.659a3.23,3.23,0,0,1-.556.041,1.768,1.768,0,0,1-.323-.027,1.194,1.194,0,0,1-.323-.127.657.657,0,0,1-.288-.347,1.639,1.639,0,0,1-.1-.625v-1.49h-.543v-.625h.543v-.968h.749v.968h.735v.625h-.735v1.318a.8.8,0,0,0,.11.5A.454.454,0,0,0,194.618,106.507Z" transform="translate(-162.404 -102.331)"/>
      <path id="Path_14" data-name="Path 14" d="M201.853,108.915a1.457,1.457,0,0,1-1.161-.474,1.773,1.773,0,0,1-.412-1.209,1.73,1.73,0,0,1,.433-1.205,1.487,1.487,0,0,1,1.161-.477,1.258,1.258,0,0,1,.591.137,1,1,0,0,1,.412.378v-.433h.749v3.2h-.749V108.4a.965.965,0,0,1-.429.374A1.37,1.37,0,0,1,201.853,108.915Zm.11-.666a.87.87,0,0,0,.7-.288,1.209,1.209,0,0,0,0-1.456.982.982,0,0,0-1.387,0,1.192,1.192,0,0,0,0,1.463A.858.858,0,0,0,201.962,108.249Z" transform="translate(-167.277 -104.026)"/>
      <path id="Path_15" data-name="Path 15" d="M212.82,108.832v-3.2h.749v.446a1.107,1.107,0,0,1,1.044-.529q1.169,0,1.167,1.27v2.012h-.749v-1.669a1.341,1.341,0,0,0-.158-.749.615.615,0,0,0-.543-.227.7.7,0,0,0-.563.23.967.967,0,0,0-.2.656v1.758Z" transform="translate(-175.511 -104.026)"/>
      <path id="Path_16" data-name="Path 16" d="M229.234,105.917v-4.065H227.84v-.742h3.585v.742h-1.4v4.065Z" transform="translate(-185.374 -101.11)"/>
      <path id="Path_17" data-name="Path 17" d="M240.015,102.161a.573.573,0,1,1,.158-.395A.538.538,0,0,1,240.015,102.161Zm-.776,3.822v-3.2h.749v3.2Z" transform="translate(-192.741 -101.176)"/>
      <path id="Path_18" data-name="Path 18" d="M244.56,108.832v-3.2h.749v.446a.887.887,0,0,1,.35-.381,1,1,0,0,1,.542-.148.985.985,0,0,1,1.009.57.953.953,0,0,1,.385-.409,1.145,1.145,0,0,1,.6-.161q1.154,0,1.154,1.257v2.026H248.6v-1.882q0-.762-.6-.762a.614.614,0,0,0-.494.209,1.15,1.15,0,0,0-.179.738v1.7h-.749v-1.888c0-.5-.2-.755-.584-.755a.627.627,0,0,0-.5.209,1.147,1.147,0,0,0-.182.738v1.7h-.749Z" transform="translate(-196.353 -104.026)"/>
      <path id="Path_19" data-name="Path 19" d="M263.638,107.068q0,.124-.021.412h-2.376a.774.774,0,0,0,.247.58.957.957,0,0,0,.646.2.722.722,0,0,0,.714-.364h.755a1.1,1.1,0,0,1-.484.731,1.685,1.685,0,0,1-.985.285,1.584,1.584,0,0,1-1.195-.453,1.94,1.94,0,0,1,0-2.455,1.539,1.539,0,0,1,1.171-.457,1.5,1.5,0,0,1,1.109.422A1.486,1.486,0,0,1,263.638,107.068Zm-2.4-.158H262.9a.763.763,0,0,0-.216-.57.823.823,0,0,0-.594-.2.871.871,0,0,0-.618.213A.753.753,0,0,0,261.242,106.91Z" transform="translate(-206.82 -104.026)"/>
      <path id="Path_20" data-name="Path 20" d="M272.4,108.915a1.5,1.5,0,0,1-.982-.309.944.944,0,0,1-.378-.755h.749a.4.4,0,0,0,.182.337.794.794,0,0,0,.47.13.512.512,0,0,0,.337-.1.341.341,0,0,0,.124-.275.307.307,0,0,0-.24-.336l-.824-.227a.844.844,0,0,1-.694-.886.824.824,0,0,1,.343-.67,1.384,1.384,0,0,1,.886-.271,1.42,1.42,0,0,1,.937.275.9.9,0,0,1,.326.721H272.9a.368.368,0,0,0-.148-.312.657.657,0,0,0-.409-.113.55.55,0,0,0-.33.093.283.283,0,0,0-.13.237.337.337,0,0,0,.275.343l.762.22a1.122,1.122,0,0,1,.536.326.774.774,0,0,1,.206.532.946.946,0,0,1-.333.755A1.378,1.378,0,0,1,272.4,108.915Z" transform="translate(-213.741 -104.026)"/>
    </g>
    <g id="Group_7" data-name="Group 7" transform="translate(84.071 0.988)">
      <path id="Path_21" data-name="Path 21" d="M362.169,97.422h-8.628a.911.911,0,0,1-.911-.911h0a.911.911,0,0,1,.911-.911h8.628a.911.911,0,0,1,.911.911h0A.91.91,0,0,1,362.169,97.422Z" transform="translate(-347.143 -71.054)" fill="#ff6417"/>
      <path id="Path_22" data-name="Path 22" d="M364.6,107.552h-6.062a.911.911,0,0,1-.911-.911h0a.911.911,0,0,1,.911-.911H364.6a.911.911,0,0,1,.911.911h0A.908.908,0,0,1,364.6,107.552Z" transform="translate(-350.86 -78.584)" fill="#ff6417"/>
      <g id="Group_5" data-name="Group 5" transform="translate(0 1.927)">
        <g id="Group_4" data-name="Group 4" clip-path="url(#clip-path)">
          <path id="Path_23" data-name="Path 23" d="M351.362,16.721a10.8,10.8,0,0,0-18.683,10.84,10.645,10.645,0,0,0,3.921,3.921c.21.123.423.236.639.344a.8.8,0,0,1,.778-.752.75.75,0,0,1,.447.146,1.366,1.366,0,0,1,1.276-1.08,1.8,1.8,0,0,1,1.3.565l.346-5.027v-.454h1.565l.346,5.451a1.812,1.812,0,0,1,1.273-.534,1.361,1.361,0,0,1,1.268,1.042.764.764,0,0,1,.385-.11.8.8,0,0,1,.767.649c.151-.08.3-.157.452-.244a10.851,10.851,0,0,0,3.924-14.756Z" transform="translate(-331.243 -11.36)" fill="#ff6417"/>
        </g>
      </g>
      <g id="Group_6" data-name="Group 6" transform="translate(5.325)">
        <path id="Path_25" data-name="Path 25" d="M366.624,5.77l-.054.115-.88,1.907.049,10.889h3.739V7.6L367.584,3.85Z" transform="translate(-362.177 -3.85)" fill="#fff"/>
        <rect id="Rectangle_1" data-name="Rectangle 1" width="1.25" height="11.066" transform="translate(4.801 3.79)" fill="#ff6417"/>
        <path id="Path_26" data-name="Path 26" d="M355.613,43.88l.038,4.578L352,48.438v-.985S355.562,43.88,355.613,43.88Z" transform="translate(-352 -33.607)" fill="#fff"/>
        <path id="Path_27" data-name="Path 27" d="M369.33,5.77h1.894l-.934-1.92Z" transform="translate(-364.883 -3.85)"/>
        <path id="Path_28" data-name="Path 28" d="M380.369,43.8l-.038,4.6,3.642-.023v-.983S380.42,43.8,380.369,43.8Z" transform="translate(-373.06 -33.548)" fill="#fff"/>
        <path id="Path_29" data-name="Path 29" d="M367.933,62.214H363.9a.425.425,0,0,1-.426-.426v-.182a.425.425,0,0,1,.426-.426h4.037a.425.425,0,0,1,.426.426v.182A.427.427,0,0,1,367.933,62.214Z" transform="translate(-360.527 -46.468)" fill="#fff"/>
      </g>
    </g>
    <g id="Group_8" data-name="Group 8" transform="translate(58.849 3.257)">
      <path id="Path_30" data-name="Path 30" d="M287.495,21.628a7.769,7.769,0,0,0,1.278,1.65V12.7h-.549a7.886,7.886,0,0,0-.726,1.044,7.952,7.952,0,0,0,0,7.884Z" transform="translate(-272.346 -12.697)"/>
      <path id="Path_31" data-name="Path 31" d="M245.753,22.134a8.972,8.972,0,0,1,0-8.915c.105-.182.216-.357.334-.529H241.37V19.3h-3.3v-6.6H231.49v19.76h6.577V25.847h3.3v6.606h6.549V24.636A8.689,8.689,0,0,1,245.753,22.134Z" transform="translate(-231.49 -12.69)"/>
    </g>
    <path id="Path_32" data-name="Path 32" d="M411.641,22.053V8.87H405.12v3.095a11.534,11.534,0,0,1,0,16.65v.015h12.223V22.053Z" transform="translate(-302.092 -6.594)"/>
    <path id="Path_33" data-name="Path 33" d="M296.561,13.7a11.448,11.448,0,0,1,4.627-9.251c-.064-.123-.126-.244-.2-.364A8.2,8.2,0,0,0,285.68,8.2a8.167,8.167,0,0,0,8.2,8.2,8.217,8.217,0,0,0,2.882-.511A12,12,0,0,1,296.561,13.7ZM295.422,10.8a3.013,3.013,0,0,1-3.028,0,3.047,3.047,0,0,1-1.109-1.1,2.894,2.894,0,0,1-.406-1.5,2.982,2.982,0,0,1,.406-1.514,3.089,3.089,0,0,1,1.109-1.119,2.949,2.949,0,0,1,3.028,0,3.082,3.082,0,0,1,1.106,1.119,2.959,2.959,0,0,1,.408,1.514,2.9,2.9,0,0,1-.408,1.5A3.02,3.02,0,0,1,295.422,10.8Z" transform="translate(-213.049)"/>
  </g>
</svg>
