<svg xmlns="http://www.w3.org/2000/svg" width="35" height="34" viewBox="0 0 35 34">
  <g id="Group_15787" data-name="Group 15787" transform="translate(0.5 -0.333)">
    <ellipse id="Ellipse_439" data-name="Ellipse 439" cx="17.5" cy="17" rx="17.5" ry="17" transform="translate(-0.5 0.333)" fill="#db534b"/>
    <path id="path3864" d="M95.412,122.44H111.75a2.042,2.042,0,0,1,2.042,2.042h0v12.253a2.042,2.042,0,0,1-2.042,2.042H95.412a2.042,2.042,0,0,1-2.042-2.042V124.482a2.035,2.035,0,0,1,2.042-2.042m8.169,7.148,8.169-5.106H95.412l8.169,5.106m-8.169,7.148H111.75V126.9l-8.169,5.1-8.169-5.1Z" transform="translate(-86.87 -113.107)" fill="#fff"/>
  </g>
</svg>
