<svg xmlns="http://www.w3.org/2000/svg" xmlns:xlink="http://www.w3.org/1999/xlink" width="211" height="62.928" viewBox="0 0 211 62.928">
  <defs>
    <clipPath id="clip-path">
      <path id="Path_24" data-name="Path 24" d="M360.91,14a19.644,19.644,0,0,1,9.815,17.1,19.738,19.738,0,1,1-39.475,0A19.792,19.792,0,0,1,360.91,14Z" transform="translate(-331.25 -11.36)"/>
    </clipPath>
  </defs>
  <g id="Group_15963" data-name="Group 15963" transform="translate(0)">
    <path id="Path_1" data-name="Path 1" d="M116.96,22.522a23.9,23.9,0,0,0,2.922,1.372,40.965,40.965,0,0,1,5.14,2.457,11.723,11.723,0,0,1,3.7,3.514,9.852,9.852,0,0,1,1.6,5.765,10.818,10.818,0,0,1-6.413,10.181,16.237,16.237,0,0,1-7.029,1.447,18.817,18.817,0,0,1-6.615-1.344,37.164,37.164,0,0,1-6.615-3.256l3.721-8.941a53.123,53.123,0,0,0,5.065,2.739,9.836,9.836,0,0,0,3.721,1.137,3.935,3.935,0,0,0,2.147-.517,1.628,1.628,0,0,0,.8-1.447q0-.67-.9-1.212a24.1,24.1,0,0,0-2.918-1.372,35.18,35.18,0,0,1-5.065-2.429,11.781,11.781,0,0,1-3.641-3.543A9.949,9.949,0,0,1,105,21.31a11.528,11.528,0,0,1,1.626-6.122,10.757,10.757,0,0,1,4.628-4.111,15.77,15.77,0,0,1,6.925-1.447,18.435,18.435,0,0,1,6.357,1.212,29.235,29.235,0,0,1,6,2.974L126.761,22.4a22.48,22.48,0,0,0-4.031-2.119A10.772,10.772,0,0,0,118.7,19.4a3.233,3.233,0,0,0-1.912.517,1.621,1.621,0,0,0-.724,1.4C116.058,21.756,116.359,22.16,116.96,22.522Z" transform="translate(-55.402 -5.106)" fill="#38bbd1"/>
    <path id="Path_2" data-name="Path 2" d="M193.563,44.215a19.83,19.83,0,0,1-5.192,2.246,21.092,21.092,0,0,1-5.713.8,19.252,19.252,0,0,1-9.509-2.326,16.553,16.553,0,0,1-6.54-6.564,19.771,19.771,0,0,1-2.349-9.768,19.821,19.821,0,0,1,2.349-9.768,16.523,16.523,0,0,1,6.54-6.564,19.252,19.252,0,0,1,9.509-2.326,22.175,22.175,0,0,1,10.388,2.687l-3.773,9.1a9.391,9.391,0,0,0-4.91-1.4,9.111,9.111,0,0,0-4.266,1.034,8.165,8.165,0,0,0-3.181,2.918,7.917,7.917,0,0,0-1.189,4.318,7.885,7.885,0,0,0,1.212,4.365,8.142,8.142,0,0,0,3.176,2.894,9.053,9.053,0,0,0,4.186,1.01,8.932,8.932,0,0,0,5.478-1.809Z" transform="translate(-87.808 -5.275)" fill="#05d17d"/>
    <g id="Group_2" data-name="Group 2" transform="translate(0 3.397)">
      <circle id="Ellipse_1" data-name="Ellipse 1" cx="20.663" cy="20.663" r="20.663" transform="translate(0.977 0.578)" fill="#fff"/>
      <g id="qu6ZpE.tif_1_">
        <g id="Group_1" data-name="Group 1">
          <path id="Path_3" data-name="Path 3" d="M21.072,7.23H22.26a.735.735,0,0,0,.315.047A10.433,10.433,0,0,1,24.2,7.4a22.706,22.706,0,0,1,5.953,1.532,22.325,22.325,0,0,1,6.8,4.365,18.916,18.916,0,0,1,3.218,4.031,21.014,21.014,0,0,1,3.082,10.125,21.718,21.718,0,0,1-.775,7.1,20.784,20.784,0,0,1-5.854,9.66A21.363,21.363,0,0,1,30.111,48.3,21.989,21.989,0,0,1,23.1,49.9a22.928,22.928,0,0,1-5.643-.329,21.809,21.809,0,0,1-6.394-2.26A20.522,20.522,0,0,1,5.5,43.059,21.586,21.586,0,0,1,.061,30.148a22,22,0,0,1,.075-4.125,21.633,21.633,0,0,1,2.4-7.635,19.523,19.523,0,0,1,4.679-5.9A22.313,22.313,0,0,1,19.794,7.324,9.745,9.745,0,0,0,21.072,7.23ZM12.253,27.17v8.1c0,.677,0,.587-.583.6a5.4,5.4,0,0,0-1.861.16c-.357.132-.724.226-1.085.338s-.7.211-1.043.315c-.061.019-.136.038-.174-.038s.009-.113.047-.155.1-.113.15-.164c.258-.291.578-.517.841-.8.432-.456.846-.926,1.259-1.4a3.5,3.5,0,0,0,.968-2.368q-.007-6.378,0-12.751c0-.3-.085-.381-.385-.371a2.162,2.162,0,0,0-.244.028,8.753,8.753,0,0,1-1.823.08A14.581,14.581,0,0,0,6.249,18.6a2.5,2.5,0,0,0-2.241,3.721.221.221,0,0,0,.226.155c.136-.009.136-.113.15-.216A1.052,1.052,0,0,1,5.478,21.24c.578-.042,1.156-.042,1.734-.033a1.645,1.645,0,0,0,.888-.258c.479-.277.963-.54,1.447-.808.056-.033.127-.085.179-.014s-.028.1-.061.146c-.456.634-.916,1.269-1.367,1.908a5.436,5.436,0,0,0-1.062,2.265,11.52,11.52,0,0,0-.08,1.752c0,.329-.019.348-.352.348-.46,0-.926,0-1.386,0A.44.44,0,0,0,5,26.756c-.432.62-.879,1.236-1.32,1.851-.07.1-.155.211-.094.338.066.146.207.113.329.113h3c.324,0,.348.028.352.357,0,1.377.009,2.758,0,4.134a4.564,4.564,0,0,1-.686,2.321A20.649,20.649,0,0,1,5.055,38c-.075.094-.174.188-.113.329s.211.141.343.141h5.178a.551.551,0,0,0,.287-.056c.733-.428,1.409-.944,2.133-1.391a.6.6,0,0,0,.287-.583c-.009-1.865,0-3.73,0-5.6,0-.526,0-1.057,0-1.583,0-.127.014-.277.183-.268.437.028.874-.066,1.311-.014a6.53,6.53,0,0,0,1.212.009c.615-.042.615-.052.615.554v6.094a.546.546,0,0,0,.132.456c.724.677,1.442,1.358,2.166,2.03.334.31.47.3.86.038.475-.329.958-.639,1.442-.958.357-.235.724-.465,1.071-.714.2-.141.2-.3.009-.418-.568-.352-1.062-.808-1.621-1.175a.5.5,0,0,1-.24-.451c0-1.471,0-2.936,0-4.407,0-1.691.009-3.383,0-5.074a25.884,25.884,0,0,1,.273-4.933c.08-.423.122-.85.164-1.278.028-.291-.1-.366-.357-.24-.207.1-.413.211-.615.319-.954.526-1.9,1.067-2.861,1.569a.772.772,0,0,0-.5.822c.047,1.635.019,3.27.019,4.9,0,.31-.047.357-.362.357-.841,0-1.682,0-2.528,0-.4,0-.418-.019-.418-.418V18.98c0-.108,0-.216,0-.319,0-.066-.019-.146-.089-.164a1.083,1.083,0,0,0-.658,0c-.155.061-.094.249-.1.381C12.248,21.658,12.253,24.412,12.253,27.17Zm16.754,1.456c0,1.536,0,3.073,0,4.6a.916.916,0,0,1-.226.634,4.117,4.117,0,0,0-.31.385c-.136.2-.287.193-.456.047a6.012,6.012,0,0,1-1.4-1.743,7.073,7.073,0,0,1-.742-4,7.859,7.859,0,0,1,.864-2.871,6.762,6.762,0,0,1,.911-1.381c.085-.1.15-.211.066-.338s-.179-.052-.268-.014a8.072,8.072,0,0,0-3.425,2.631,6.415,6.415,0,0,0-1.1,2.33,7.786,7.786,0,0,0,.747,5.7,5.968,5.968,0,0,0,.869,1.226,8.706,8.706,0,0,0,1.508,1.306,7.31,7.31,0,0,0,2.269,1.02,9.885,9.885,0,0,0,3.021.226,8.141,8.141,0,0,0,4.933-1.983,5.978,5.978,0,0,0,2.067-4.092c.014-.117.019-.24-.127-.287s-.2.066-.258.169a5.6,5.6,0,0,1-.6.846,5.879,5.879,0,0,1-2.227,1.644c-.268.113-.291.094-.291-.2V22.65c0-.662,0-.653.677-.714a2.587,2.587,0,0,0,1.912-1.052,6.853,6.853,0,0,0,1.128-3.03c.014-.075.019-.155-.066-.193a.177.177,0,0,0-.207.033,3.348,3.348,0,0,0-.249.273,2.091,2.091,0,0,1-1.428.8,12.117,12.117,0,0,1-2.3.033c-1.489-.094-2.965-.352-4.459-.446a8.964,8.964,0,0,0-3.923.428,4.172,4.172,0,0,0-1.24.709,3.591,3.591,0,0,0-1.217,2.048,4.67,4.67,0,0,0,.174,2.246.342.342,0,0,0,.2.263c.207.066.343-.023.4-.268a2.63,2.63,0,0,1,1.687-1.954,6.515,6.515,0,0,1,2.434-.371,22.332,22.332,0,0,1,3.449.3c.07.009.169,0,.193.089s-.08.113-.141.146c-.756.409-1.489.86-2.274,1.2a.957.957,0,0,0-.6,1.057C29.017,25.7,29,27.165,29.007,28.626Z" transform="translate(0 -7.23)" fill="#00b1cd"/>
          <path id="Path_4" data-name="Path 4" d="M66.822,45.144V51.36c0,.385,0,.395-.381.475a8.22,8.22,0,0,1-3.824-.042c-.263-.066-.512-.179-.771-.268-.061-.023-.136-.038-.136-.122s.07-.1.127-.136c.6-.319,1.193-.639,1.785-.958.305-.164.6-.343.916-.493a.5.5,0,0,0,.3-.531c-.009-.93,0-1.865,0-2.8,0-2.2,0-4.407,0-6.61a.665.665,0,0,1,.244-.559,4.5,4.5,0,0,0,.578-.54c.305-.366.691-.23,1.057-.2.108,0,.113.1.117.188,0,.15,0,.3,0,.446C66.822,41.183,66.822,43.166,66.822,45.144Z" transform="translate(-32.717 -23.823)" fill="#00b1cd"/>
        </g>
      </g>
    </g>
    <g id="Group_3" data-name="Group 3" transform="translate(48.295 51.336)">
      <path id="Path_5" data-name="Path 5" d="M108.259,105.385a1.994,1.994,0,0,1,1.289.622,2.025,2.025,0,0,1,.522,1.452,2.27,2.27,0,0,1-.748,1.8,3.021,3.021,0,0,1-2.056.654H104.16v-8.8H107.1a3.2,3.2,0,0,1,2.074.61,2.046,2.046,0,0,1,.754,1.678A1.843,1.843,0,0,1,108.259,105.385Zm-1.22-3h-1.433v2.414h1.433a1.611,1.611,0,0,0,1.062-.321,1.23,1.23,0,0,0,.006-1.779A1.641,1.641,0,0,0,107.039,102.38Zm.2,6.261a1.421,1.421,0,0,0,1.018-.352,1.285,1.285,0,0,0,.365-.981,1.163,1.163,0,0,0-.377-.9,1.406,1.406,0,0,0-.993-.346h-1.647v2.577Z" transform="translate(-104.16 -101.11)"/>
      <path id="Path_6" data-name="Path 6" d="M119.708,105.79h1.37v5.884a2.777,2.777,0,0,1-.767,2.087,2.832,2.832,0,0,1-1.986.679,3.037,3.037,0,0,1-2.012-.6,2,2,0,0,1-.654-1.521h1.383a1.084,1.084,0,0,0,.333.748,1.4,1.4,0,0,0,.924.245,1.31,1.31,0,0,0,1.031-.421,1.929,1.929,0,0,0,.377-1.314v-.742a2.006,2.006,0,0,1-1.886.968,1.968,1.968,0,0,1-1.6-.673,2.679,2.679,0,0,1-.559-1.766v-3.57h1.37v3.281c0,1.012.421,1.521,1.27,1.521a1.221,1.221,0,0,0,1.05-.49,2.122,2.122,0,0,0,.358-1.282Z" transform="translate(-108.431 -102.848)"/>
      <path id="Path_7" data-name="Path 7" d="M132.18,109.91v-8.8h1.446v3.784h3.633V101.11H138.7v8.8h-1.446v-3.721h-3.633v3.721Z" transform="translate(-114.566 -101.11)"/>
      <path id="Path_8" data-name="Path 8" d="M146.688,102.951a1.048,1.048,0,1,1,.289-.723A.986.986,0,0,1,146.688,102.951Zm-1.421,7v-5.859h1.37v5.859Z" transform="translate(-119.305 -101.147)"/>
      <path id="Path_9" data-name="Path 9" d="M150.44,111.559V105.7h1.37v.817a2.027,2.027,0,0,1,1.911-.968q2.14,0,2.137,2.326v3.684h-1.37V108.5a2.454,2.454,0,0,0-.289-1.37,1.125,1.125,0,0,0-.993-.415,1.284,1.284,0,0,0-1.031.421,1.769,1.769,0,0,0-.365,1.2v3.218Z" transform="translate(-121.348 -102.759)"/>
      <path id="Path_10" data-name="Path 10" d="M165.812,101.11h1.37v8.8h-1.37v-.792a1.767,1.767,0,0,1-.786.685,2.508,2.508,0,0,1-1.087.258,2.668,2.668,0,0,1-2.125-.867,3.247,3.247,0,0,1-.754-2.213,3.167,3.167,0,0,1,.792-2.206,2.723,2.723,0,0,1,2.125-.874,2.3,2.3,0,0,1,1.081.251,1.829,1.829,0,0,1,.754.691Zm-1.672,7.732a1.593,1.593,0,0,0,1.289-.528,2.213,2.213,0,0,0,0-2.665,1.8,1.8,0,0,0-2.54-.006,2.183,2.183,0,0,0,0,2.678A1.57,1.57,0,0,0,164.14,108.842Z" transform="translate(-125.292 -101.11)"/>
      <path id="Path_11" data-name="Path 11" d="M175.675,111.8a2.139,2.139,0,0,1-1.584-.591,2.35,2.35,0,0,1-.591-1.735V105.79h1.37v3.344a1.894,1.894,0,0,0,.277,1.119,1.06,1.06,0,0,0,.918.377,1.3,1.3,0,0,0,1.081-.421,1.728,1.728,0,0,0,.339-1.113V105.79h1.37v5.859h-1.37v-.817A1.9,1.9,0,0,1,175.675,111.8Z" transform="translate(-129.912 -102.848)"/>
      <path id="Path_12" data-name="Path 12" d="M186.609,111.71a2.748,2.748,0,0,1-1.8-.566,1.729,1.729,0,0,1-.691-1.383h1.37a.73.73,0,0,0,.333.616,1.454,1.454,0,0,0,.861.239.937.937,0,0,0,.616-.189.624.624,0,0,0,.226-.5.562.562,0,0,0-.44-.616l-1.509-.415a1.546,1.546,0,0,1-1.27-1.622,1.508,1.508,0,0,1,.629-1.226,2.533,2.533,0,0,1,1.622-.5,2.6,2.6,0,0,1,1.716.5,1.643,1.643,0,0,1,.6,1.32h-1.345a.673.673,0,0,0-.27-.572,1.2,1.2,0,0,0-.748-.207,1.008,1.008,0,0,0-.6.17.518.518,0,0,0-.239.434.617.617,0,0,0,.5.629l1.4.4a2.054,2.054,0,0,1,.981.6,1.416,1.416,0,0,1,.377.974,1.732,1.732,0,0,1-.61,1.383A2.523,2.523,0,0,1,186.609,111.71Z" transform="translate(-133.857 -102.759)"/>
      <path id="Path_13" data-name="Path 13" d="M196.079,109.445a4.162,4.162,0,0,0,.691-.05V110.6a5.913,5.913,0,0,1-1.018.075,3.236,3.236,0,0,1-.591-.05,2.187,2.187,0,0,1-.591-.233,1.2,1.2,0,0,1-.528-.635,3,3,0,0,1-.189-1.144v-2.728h-.993v-1.144h.993V102.97h1.37v1.773h1.345v1.144h-1.345V108.3a1.463,1.463,0,0,0,.2.924A.83.83,0,0,0,196.079,109.445Z" transform="translate(-137.103 -101.801)"/>
      <path id="Path_14" data-name="Path 14" d="M203.159,111.71a2.668,2.668,0,0,1-2.125-.867,3.246,3.246,0,0,1-.754-2.213,3.168,3.168,0,0,1,.792-2.206,2.723,2.723,0,0,1,2.125-.874,2.3,2.3,0,0,1,1.081.251,1.829,1.829,0,0,1,.754.691V105.7h1.37v5.859h-1.37v-.792a1.767,1.767,0,0,1-.786.685A2.508,2.508,0,0,1,203.159,111.71Zm.2-1.219a1.593,1.593,0,0,0,1.289-.528,2.213,2.213,0,0,0,0-2.665,1.8,1.8,0,0,0-2.54-.006,2.183,2.183,0,0,0,0,2.678A1.57,1.57,0,0,0,203.36,110.491Z" transform="translate(-139.858 -102.759)"/>
      <path id="Path_15" data-name="Path 15" d="M212.82,111.559V105.7h1.37v.817a2.027,2.027,0,0,1,1.911-.968q2.14,0,2.137,2.326v3.684h-1.37V108.5a2.455,2.455,0,0,0-.289-1.37,1.125,1.125,0,0,0-.993-.415,1.284,1.284,0,0,0-1.031.421,1.769,1.769,0,0,0-.365,1.2v3.218Z" transform="translate(-144.516 -102.759)"/>
      <path id="Path_16" data-name="Path 16" d="M230.392,109.91v-7.443H227.84V101.11H234.4v1.358h-2.565v7.443Z" transform="translate(-150.094 -101.11)"/>
      <path id="Path_17" data-name="Path 17" d="M240.808,102.951a1.048,1.048,0,1,1,.289-.723A.986.986,0,0,1,240.808,102.951Zm-1.421,7v-5.859h1.37v5.859Z" transform="translate(-154.261 -101.147)"/>
      <path id="Path_18" data-name="Path 18" d="M244.56,111.559V105.7h1.37v.817a1.623,1.623,0,0,1,.641-.7,1.841,1.841,0,0,1,.993-.27,1.8,1.8,0,0,1,1.848,1.043,1.744,1.744,0,0,1,.7-.748,2.1,2.1,0,0,1,1.094-.3q2.112,0,2.112,2.3v3.709h-1.37v-3.445q0-1.4-1.094-1.4a1.125,1.125,0,0,0-.905.383,2.1,2.1,0,0,0-.327,1.352v3.105h-1.37V108.1c0-.924-.358-1.383-1.069-1.383a1.147,1.147,0,0,0-.924.383,2.1,2.1,0,0,0-.333,1.352v3.105h-1.37Z" transform="translate(-156.304 -102.759)"/>
      <path id="Path_19" data-name="Path 19" d="M266.246,108.328q0,.226-.038.754h-4.35a1.418,1.418,0,0,0,.453,1.062,1.751,1.751,0,0,0,1.182.371,1.322,1.322,0,0,0,1.308-.666h1.383a2.007,2.007,0,0,1-.886,1.339,3.085,3.085,0,0,1-1.8.522,2.9,2.9,0,0,1-2.188-.83,3.552,3.552,0,0,1-.006-4.495,2.817,2.817,0,0,1,2.144-.836,2.749,2.749,0,0,1,2.03.773A2.72,2.72,0,0,1,266.246,108.328Zm-4.388-.289H264.9a1.4,1.4,0,0,0-.4-1.044,1.507,1.507,0,0,0-1.088-.365,1.6,1.6,0,0,0-1.132.39A1.378,1.378,0,0,0,261.858,108.039Z" transform="translate(-162.224 -102.759)"/>
      <path id="Path_20" data-name="Path 20" d="M273.529,111.71a2.748,2.748,0,0,1-1.8-.566,1.729,1.729,0,0,1-.692-1.383h1.37a.73.73,0,0,0,.333.616,1.454,1.454,0,0,0,.861.239.936.936,0,0,0,.616-.189.624.624,0,0,0,.226-.5.562.562,0,0,0-.44-.616l-1.509-.415a1.546,1.546,0,0,1-1.27-1.622,1.508,1.508,0,0,1,.629-1.226,2.533,2.533,0,0,1,1.622-.5,2.6,2.6,0,0,1,1.716.5,1.642,1.642,0,0,1,.6,1.32h-1.345a.673.673,0,0,0-.27-.572,1.2,1.2,0,0,0-.748-.207,1.008,1.008,0,0,0-.6.17.518.518,0,0,0-.239.434.617.617,0,0,0,.5.629l1.4.4a2.054,2.054,0,0,1,.981.6,1.416,1.416,0,0,1,.377.974,1.732,1.732,0,0,1-.61,1.383A2.523,2.523,0,0,1,273.529,111.71Z" transform="translate(-166.138 -102.759)"/>
    </g>
    <g id="Group_7" data-name="Group 7" transform="translate(153.916 1.809)">
      <path id="Path_21" data-name="Path 21" d="M370.094,98.936H354.3a1.668,1.668,0,0,1-1.668-1.668h0A1.668,1.668,0,0,1,354.3,95.6h15.8a1.668,1.668,0,0,1,1.668,1.668h0A1.665,1.665,0,0,1,370.094,98.936Z" transform="translate(-342.585 -50.661)" fill="#ff6417"/>
      <path id="Path_22" data-name="Path 22" d="M370.4,109.066H359.3a1.668,1.668,0,0,1-1.668-1.668h0a1.668,1.668,0,0,1,1.668-1.668h11.1a1.668,1.668,0,0,1,1.668,1.668h0A1.662,1.662,0,0,1,370.4,109.066Z" transform="translate(-345.236 -56.032)" fill="#ff6417"/>
      <g id="Group_5" data-name="Group 5" transform="translate(0 3.528)">
        <g id="Group_4" data-name="Group 4" clip-path="url(#clip-path)">
          <path id="Path_23" data-name="Path 23" d="M368.079,21.175A19.738,19.738,0,0,0,331.24,31.1a19.644,19.644,0,0,0,9.815,17.1c.385.226.775.432,1.17.63a1.458,1.458,0,0,1,1.424-1.377,1.373,1.373,0,0,1,.817.268,2.5,2.5,0,0,1,2.335-1.978,3.291,3.291,0,0,1,2.373,1.034l.634-9.2V36.74h2.866l.634,9.979a3.318,3.318,0,0,1,2.33-.977,2.492,2.492,0,0,1,2.321,1.908,1.4,1.4,0,0,1,.7-.2,1.455,1.455,0,0,1,1.4,1.189c.277-.146.554-.287.827-.446a19.644,19.644,0,0,0,9.815-17.1A19.305,19.305,0,0,0,368.079,21.175Z" transform="translate(-331.245 -11.36)" fill="#ff6417"/>
        </g>
      </g>
      <g id="Group_6" data-name="Group 6" transform="translate(9.749)">
        <path id="Path_25" data-name="Path 25" d="M367.4,7.364l-.1.211-1.611,3.491L365.779,31h6.845V10.719L369.157,3.85Z" transform="translate(-359.258 -3.85)" fill="#fff"/>
        <rect id="Rectangle_1" data-name="Rectangle 1" width="2.288" height="20.259" transform="translate(8.79 6.939)" fill="#ff6417"/>
        <path id="Path_26" data-name="Path 26" d="M358.615,43.88l.07,8.382L352,52.224v-1.8S358.521,43.88,358.615,43.88Z" transform="translate(-352 -25.073)" fill="#fff"/>
        <path id="Path_27" data-name="Path 27" d="M369.33,7.364H372.8l-1.71-3.514Z" transform="translate(-361.188 -3.85)"/>
        <path id="Path_28" data-name="Path 28" d="M380.4,43.8l-.07,8.419L387,52.177v-1.8S380.494,43.8,380.4,43.8Z" transform="translate(-367.02 -25.03)" fill="#fff"/>
        <path id="Path_29" data-name="Path 29" d="M371.64,63.073h-7.39a.778.778,0,0,1-.78-.78V61.96a.778.778,0,0,1,.78-.78h7.39a.778.778,0,0,1,.78.78v.334A.781.781,0,0,1,371.64,63.073Z" transform="translate(-358.081 -34.245)" fill="#fff"/>
      </g>
    </g>
    <g id="Group_8" data-name="Group 8" transform="translate(107.739 5.962)">
      <path id="Path_30" data-name="Path 30" d="M288.362,29.045a14.225,14.225,0,0,0,2.34,3.021V12.7H289.7a14.442,14.442,0,0,0-1.33,1.912,14.558,14.558,0,0,0,0,14.433Z" transform="translate(-260.628 -12.695)" fill="#0087ff"/>
      <path id="Path_31" data-name="Path 31" d="M257.6,29.98a16,16,0,0,1-2.171-8.161,16,16,0,0,1,2.171-8.161c.193-.334.395-.653.611-.968h-8.635V24.783h-6.047V12.695H231.49V48.871h12.042V36.778h6.047V48.871h11.99V34.561A15.906,15.906,0,0,1,257.6,29.98Z" transform="translate(-231.49 -12.69)" fill="#0087ff"/>
    </g>
    <path id="Path_32" data-name="Path 32" d="M417.058,33.005V8.87H405.12v5.666a21.115,21.115,0,0,1,0,30.482v.028H427.5V33.005Z" transform="translate(-216.498 -4.703)" fill="#a463ff"/>
    <path id="Path_33" data-name="Path 33" d="M305.6,25.075a20.958,20.958,0,0,1,8.471-16.937c-.118-.226-.23-.446-.357-.667a15.02,15.02,0,0,0-28.035,7.55,14.952,14.952,0,0,0,15.02,15.02,15.042,15.042,0,0,0,5.276-.935A21.961,21.961,0,0,1,305.6,25.075Zm-2.086-5.295a5.517,5.517,0,0,1-5.544,0,5.577,5.577,0,0,1-2.03-2.006,5.3,5.3,0,0,1-.742-2.753,5.459,5.459,0,0,1,.742-2.772,5.655,5.655,0,0,1,2.03-2.048,5.4,5.4,0,0,1,5.544,0,5.642,5.642,0,0,1,2.025,2.048,5.417,5.417,0,0,1,.747,2.772,5.313,5.313,0,0,1-.747,2.753A5.529,5.529,0,0,1,303.515,19.78Z" transform="translate(-152.708)" fill="#ffc522"/>
  </g>
</svg>