<svg xmlns="http://www.w3.org/2000/svg" xmlns:xlink="http://www.w3.org/1999/xlink" width="118" height="42" viewBox="0 0 118 42">
  <defs>
    <clipPath id="clip-Artboard_9">
      <rect width="118" height="42"/>
    </clipPath>
  </defs>
  <g id="Artboard_9" data-name="Artboard – 9" clip-path="url(#clip-Artboard_9)">
    <path id="Path_1808" data-name="Path 1808" d="M4537.861,2898.572c-.517-5.781.288-12.1,0-17.884l-.048-.959a1.593,1.593,0,0,0-1.548-1.646c-1.769.115-3.527.244-5.242.3-5.438.17-13.1.3-18.549.283-10.8-.031-21.583-.211-32.374-.477-10.892-.27-21.729.229-32.636.265-8.125.026-16.233.042-24.316-.35a1.625,1.625,0,0,0-1.518,1.888q.2,2.45.255,4.9c.277,11.014-.55,21.144-.619,32.162a1.63,1.63,0,0,0,1.473,1.756H4536.4a1.627,1.627,0,0,0,1.459-1.765C4537.829,2910.635,4538.426,2904.893,4537.861,2898.572Z" transform="translate(-4420.685 -2877.444)" fill="#fff"/>
  </g>
</svg>
