<svg xmlns="http://www.w3.org/2000/svg" viewBox="0 0 21 21" width="21" height="21">
	<defs>
		<clipPath clipPathUnits="userSpaceOnUse" id="cp1">
			<path d="M-284 -18L36 -18L36 38L-284 38L-284 -18Z" />
		</clipPath>
	</defs>
	<style>
		tspan { white-space:pre }
		.shp0 { fill: #000000 } 
		.shp1 { fill: #e6e6e6 } 
	</style>
	<g id="Clip-Path: Mask_Group_71" clip-path="url(#cp1)">
		<g id="Mask_Group_71">
			<g id="Group_15454">
				<path id="Path_29733" class="shp0" d="M10.53 0C14.77 0 18.58 2.55 20.2 6.46C21.82 10.37 20.93 14.87 17.93 17.87C14.94 20.86 10.44 21.76 6.53 20.14C2.62 18.52 0.07 14.7 0.07 10.47C0.07 9.09 0.34 7.73 0.86 6.46C1.39 5.19 2.16 4.04 3.13 3.07C4.1 2.09 5.26 1.32 6.53 0.8C7.8 0.27 9.16 0 10.53 0L10.53 0Z" />
				<path id="Path_29734" class="shp1" d="M7.63 16.5L4.67 18.13C4.63 18.16 4.59 18.18 4.55 18.21C4.51 18.24 4.47 18.27 4.43 18.3C4.4 18.32 4.36 18.35 4.32 18.39C4.28 18.42 4.25 18.45 4.21 18.48C4.65 18.85 5.13 19.19 5.63 19.48C6.13 19.77 6.65 20.02 7.19 20.21C7.74 20.41 8.3 20.56 8.87 20.66C9.44 20.77 10.01 20.82 10.59 20.82C11.16 20.81 11.73 20.76 12.29 20.66C12.86 20.56 13.41 20.41 13.95 20.22C14.48 20.02 15 19.79 15.5 19.5C16 19.22 16.47 18.9 16.91 18.54L16.39 18.19L13.26 16.61C13.16 16.56 13.07 16.49 12.99 16.41C12.91 16.33 12.84 16.24 12.79 16.15C12.73 16.05 12.69 15.95 12.66 15.84C12.63 15.73 12.62 15.62 12.62 15.5L12.62 14.28C12.65 14.25 12.68 14.22 12.7 14.18C12.73 14.15 12.75 14.12 12.78 14.08C12.8 14.05 12.82 14.01 12.85 13.98C12.87 13.94 12.89 13.91 12.91 13.87C13.02 13.72 13.12 13.56 13.21 13.4C13.3 13.24 13.39 13.08 13.47 12.91C13.56 12.75 13.63 12.58 13.7 12.41C13.78 12.24 13.84 12.06 13.9 11.89C14 11.86 14.09 11.81 14.18 11.75C14.26 11.69 14.34 11.62 14.4 11.53C14.46 11.45 14.51 11.36 14.54 11.26C14.58 11.16 14.6 11.06 14.6 10.95L14.6 9.61C14.6 9.54 14.59 9.47 14.58 9.4C14.57 9.33 14.54 9.26 14.51 9.19C14.48 9.13 14.45 9.06 14.4 9.01C14.36 8.95 14.31 8.9 14.25 8.85L14.25 6.93C14.25 6.93 14.65 3.95 10.59 3.95C6.59 3.95 6.94 6.93 6.94 6.93L6.94 8.85C6.88 8.9 6.84 8.96 6.8 9.01C6.76 9.07 6.72 9.13 6.69 9.2C6.66 9.26 6.64 9.33 6.62 9.4C6.6 9.47 6.59 9.54 6.59 9.61L6.59 10.95C6.59 11.03 6.6 11.12 6.62 11.19C6.64 11.27 6.67 11.35 6.71 11.42C6.75 11.49 6.8 11.56 6.86 11.62C6.92 11.68 6.98 11.73 7.05 11.77C7.11 12 7.18 12.22 7.26 12.44C7.34 12.66 7.43 12.87 7.53 13.09C7.63 13.3 7.75 13.5 7.87 13.7C7.99 13.9 8.13 14.09 8.27 14.28L8.27 15.5C8.25 15.6 8.22 15.7 8.19 15.79C8.15 15.89 8.1 15.98 8.05 16.06C7.99 16.15 7.93 16.22 7.86 16.3C7.79 16.37 7.71 16.44 7.63 16.49L7.63 16.5Z" />
			</g>
			<g id="Group_15480">
			</g>
		</g>
	</g>
</svg>