<svg id="Group_18715" data-name="Group 18715" xmlns="http://www.w3.org/2000/svg" xmlns:xlink="http://www.w3.org/1999/xlink" width="108" height="33" viewBox="0 0 108 33">
  <defs>
    <clipPath id="clip-path">
      <path id="Path_24" data-name="Path 24" d="M346.443,12.71a10.128,10.128,0,0,1,0,17.521,10.1,10.1,0,0,1-15.193-8.76,10.138,10.138,0,0,1,15.193-8.76Z" transform="translate(-331.25 -11.36)"/>
    </clipPath>
  </defs>
  <path id="Path_1" data-name="Path 1" d="M110.468,16.234a12.242,12.242,0,0,0,1.5.7A20.983,20.983,0,0,1,114.6,18.2a6.005,6.005,0,0,1,1.894,1.8,5.047,5.047,0,0,1,.821,2.953,5.542,5.542,0,0,1-3.285,5.215,8.317,8.317,0,0,1-3.6.741,9.639,9.639,0,0,1-3.389-.688,19.037,19.037,0,0,1-3.389-1.668l1.906-4.58a27.21,27.21,0,0,0,2.594,1.4,5.038,5.038,0,0,0,1.906.582,2.016,2.016,0,0,0,1.1-.265.834.834,0,0,0,.412-.741q0-.343-.462-.621a12.345,12.345,0,0,0-1.495-.7,18.021,18.021,0,0,1-2.594-1.244,6.035,6.035,0,0,1-1.865-1.815,5.1,5.1,0,0,1-.809-2.953,5.905,5.905,0,0,1,.833-3.136,5.51,5.51,0,0,1,2.371-2.106,8.078,8.078,0,0,1,3.547-.741,9.443,9.443,0,0,1,3.256.621,14.976,14.976,0,0,1,3.071,1.523l-1.933,4.395a11.516,11.516,0,0,0-2.065-1.085,5.518,5.518,0,0,0-2.065-.45,1.656,1.656,0,0,0-.98.265.83.83,0,0,0-.371.715C110.006,15.842,110.16,16.049,110.468,16.234Z" transform="translate(-78.957 -7.312)"/>
  <path id="Path_2" data-name="Path 2" d="M179.27,27.5a10.158,10.158,0,0,1-2.659,1.15,10.8,10.8,0,0,1-2.926.412,9.862,9.862,0,0,1-4.871-1.191,8.479,8.479,0,0,1-3.35-3.362,10.127,10.127,0,0,1-1.2-5,10.153,10.153,0,0,1,1.2-5,8.464,8.464,0,0,1,3.35-3.362,9.862,9.862,0,0,1,4.871-1.191,11.359,11.359,0,0,1,5.321,1.377l-1.933,4.659a4.81,4.81,0,0,0-2.515-.715,4.667,4.667,0,0,0-2.185.529,4.182,4.182,0,0,0-1.629,1.495,4.329,4.329,0,0,0,.012,4.448,4.171,4.171,0,0,0,1.627,1.483,4.637,4.637,0,0,0,2.144.517,4.576,4.576,0,0,0,2.806-.927Z" transform="translate(-125.133 -7.555)"/>
  <g id="Group_2" data-name="Group 2" transform="translate(0 1.74)">
    <circle id="Ellipse_1" data-name="Ellipse 1" cx="10.585" cy="10.585" r="10.585" transform="translate(0.501 0.296)" fill="#fff"/>
    <g id="qu6ZpE.tif_1_">
      <g id="Group_1" data-name="Group 1">
        <path id="Path_3" data-name="Path 3" d="M10.794,7.23H11.4a.377.377,0,0,0,.161.024,5.344,5.344,0,0,1,.833.063,11.631,11.631,0,0,1,3.049.785,11.436,11.436,0,0,1,3.482,2.236A9.689,9.689,0,0,1,20.577,12.4a10.764,10.764,0,0,1,1.579,5.186,11.125,11.125,0,0,1-.4,3.639,10.647,10.647,0,0,1-3,4.948,10.943,10.943,0,0,1-3.336,2.091,11.264,11.264,0,0,1-3.593.818,11.744,11.744,0,0,1-2.89-.168,11.171,11.171,0,0,1-3.275-1.158,10.512,10.512,0,0,1-2.847-2.176A11.057,11.057,0,0,1,.031,18.97,11.271,11.271,0,0,1,.07,16.857,11.081,11.081,0,0,1,1.3,12.946a10,10,0,0,1,2.4-3.02,11.43,11.43,0,0,1,6.443-2.647A4.991,4.991,0,0,0,10.794,7.23ZM6.276,17.444v4.147c0,.347,0,.3-.3.306a2.765,2.765,0,0,0-.953.082c-.183.067-.371.116-.556.173l-.534.161c-.031.01-.07.019-.089-.019s0-.058.024-.079.051-.058.077-.084c.132-.149.3-.265.431-.409.221-.233.433-.474.645-.715a1.79,1.79,0,0,0,.5-1.213q0-3.267,0-6.532c0-.154-.043-.195-.2-.19a1.107,1.107,0,0,0-.125.014,4.483,4.483,0,0,1-.934.041A7.469,7.469,0,0,0,3.2,13.052a1.281,1.281,0,0,0-1.148,1.906.113.113,0,0,0,.116.079c.07,0,.07-.058.077-.111a.539.539,0,0,1,.561-.52c.3-.022.592-.022.888-.017a.843.843,0,0,0,.455-.132c.245-.142.493-.277.741-.414.029-.017.065-.043.091-.007s-.014.053-.031.075c-.233.325-.469.65-.7.977a2.784,2.784,0,0,0-.544,1.16,5.9,5.9,0,0,0-.041.9c0,.168-.01.178-.18.178-.236,0-.474,0-.71,0a.226.226,0,0,0-.212.108c-.221.318-.45.633-.676.948-.036.053-.079.108-.048.173s.106.058.168.058H3.542c.166,0,.178.014.181.183,0,.705,0,1.413,0,2.118A2.338,2.338,0,0,1,3.372,21.9a10.577,10.577,0,0,1-.782,1.09c-.039.048-.089.1-.058.168s.108.072.176.072H5.36a.282.282,0,0,0,.147-.029c.375-.219.722-.484,1.093-.712a.31.31,0,0,0,.147-.3c0-.955,0-1.911,0-2.866,0-.27,0-.542,0-.811,0-.065.007-.142.094-.137.224.014.448-.034.671-.007a3.345,3.345,0,0,0,.621,0c.315-.022.315-.026.315.284v3.121a.28.28,0,0,0,.067.233c.371.347.739.7,1.109,1.04.171.159.241.154.44.019.243-.168.491-.327.739-.491.183-.12.371-.238.549-.366.1-.072.1-.154,0-.214-.291-.181-.544-.414-.83-.6a.254.254,0,0,1-.123-.231c0-.753,0-1.5,0-2.257,0-.866,0-1.733,0-2.6a13.259,13.259,0,0,1,.14-2.527c.041-.217.063-.436.084-.655.014-.149-.051-.188-.183-.123-.106.053-.212.108-.315.164-.489.27-.972.546-1.466.8a.4.4,0,0,0-.258.421c.024.838.01,1.675.01,2.51,0,.159-.024.183-.185.183-.431,0-.862,0-1.295,0-.2,0-.214-.01-.214-.214V13.249c0-.055,0-.111,0-.164,0-.034-.01-.075-.046-.084a.555.555,0,0,0-.337,0c-.079.031-.048.128-.051.195C6.274,14.621,6.276,16.031,6.276,17.444Zm8.582.746c0,.787,0,1.574,0,2.359a.469.469,0,0,1-.116.325,2.108,2.108,0,0,0-.159.2c-.07.1-.147.1-.233.024a3.08,3.08,0,0,1-.72-.893,3.623,3.623,0,0,1-.38-2.05,4.026,4.026,0,0,1,.443-1.47,3.464,3.464,0,0,1,.467-.708c.043-.051.077-.108.034-.173s-.091-.026-.137-.007a4.135,4.135,0,0,0-1.754,1.348,3.286,3.286,0,0,0-.566,1.194,3.988,3.988,0,0,0,.383,2.922,3.057,3.057,0,0,0,.445.628,4.46,4.46,0,0,0,.773.669,3.745,3.745,0,0,0,1.162.522,5.063,5.063,0,0,0,1.547.116,4.17,4.17,0,0,0,2.527-1.016,3.062,3.062,0,0,0,1.059-2.1c.007-.06.01-.123-.065-.147s-.1.034-.132.087a2.869,2.869,0,0,1-.306.433,3.011,3.011,0,0,1-1.141.842c-.137.058-.149.048-.149-.1V15.129c0-.339,0-.335.347-.366a1.325,1.325,0,0,0,.98-.539,3.51,3.51,0,0,0,.578-1.552c.007-.039.01-.079-.034-.1a.091.091,0,0,0-.106.017,1.714,1.714,0,0,0-.128.14,1.071,1.071,0,0,1-.732.412,6.207,6.207,0,0,1-1.177.017c-.763-.048-1.519-.181-2.284-.229a4.592,4.592,0,0,0-2.01.219,2.137,2.137,0,0,0-.635.363,1.84,1.84,0,0,0-.623,1.049,2.392,2.392,0,0,0,.089,1.15.175.175,0,0,0,.1.135c.106.034.176-.012.2-.137a1.347,1.347,0,0,1,.864-1,3.337,3.337,0,0,1,1.247-.19,11.439,11.439,0,0,1,1.766.152c.036,0,.087,0,.1.046s-.041.058-.072.075c-.387.209-.763.44-1.165.616a.49.49,0,0,0-.308.541C14.863,16.693,14.856,17.441,14.859,18.19Z" transform="translate(0 -7.23)" fill="#00b1cd"/>
        <path id="Path_4" data-name="Path 4" d="M64.328,41.917V45.1c0,.2,0,.2-.195.243a4.211,4.211,0,0,1-1.959-.022c-.135-.034-.262-.091-.395-.137-.031-.012-.07-.019-.07-.063s.036-.053.065-.07l.915-.491c.156-.084.308-.176.469-.253a.254.254,0,0,0,.152-.272c0-.477,0-.955,0-1.432,0-1.129,0-2.257,0-3.386a.341.341,0,0,1,.125-.286,2.3,2.3,0,0,0,.3-.277c.156-.188.354-.118.542-.1.055,0,.058.053.06.1,0,.077,0,.152,0,.229C64.328,39.888,64.328,40.9,64.328,41.917Z" transform="translate(-46.858 -30.995)" fill="#00b1cd"/>
      </g>
    </g>
  </g>
  <g id="Group_3" data-name="Group 3" transform="translate(24.699 27.062)">
    <path id="Path_5" data-name="Path 5" d="M106.259,103.3a1.022,1.022,0,0,1,.66.319,1.037,1.037,0,0,1,.267.744,1.163,1.163,0,0,1-.383.921,1.547,1.547,0,0,1-1.053.335H104.16V101.11h1.507a1.638,1.638,0,0,1,1.063.312,1.048,1.048,0,0,1,.386.86A.944.944,0,0,1,106.259,103.3Zm-.625-1.539H104.9V103h.734a.825.825,0,0,0,.544-.164.63.63,0,0,0,0-.911A.84.84,0,0,0,105.635,101.76Zm.1,3.207a.728.728,0,0,0,.522-.18.658.658,0,0,0,.187-.5.6.6,0,0,0-.193-.46.72.72,0,0,0-.509-.177H104.9v1.32Z" transform="translate(-104.16 -101.11)"/>
    <path id="Path_6" data-name="Path 6" d="M117.734,105.79h.7V108.8a1.422,1.422,0,0,1-.393,1.069,1.45,1.45,0,0,1-1.018.348,1.556,1.556,0,0,1-1.03-.309,1.022,1.022,0,0,1-.335-.779h.708a.556.556,0,0,0,.171.383.718.718,0,0,0,.473.126.671.671,0,0,0,.528-.216.988.988,0,0,0,.193-.673v-.38a1.027,1.027,0,0,1-.966.5,1.008,1.008,0,0,1-.821-.345,1.372,1.372,0,0,1-.287-.9V105.79h.7v1.681c0,.518.216.779.65.779a.625.625,0,0,0,.538-.251,1.087,1.087,0,0,0,.184-.657Z" transform="translate(-111.957 -104.283)"/>
    <path id="Path_7" data-name="Path 7" d="M132.18,105.618V101.11h.741v1.938h1.861V101.11h.741v4.508h-.741v-1.906h-1.861v1.906Z" transform="translate(-123.158 -101.11)"/>
    <path id="Path_8" data-name="Path 8" d="M145.835,102.1a.537.537,0,1,1,.148-.37A.5.5,0,0,1,145.835,102.1Zm-.728,3.584v-3h.7v3Z" transform="translate(-131.809 -101.178)"/>
    <path id="Path_9" data-name="Path 9" d="M150.44,108.628v-3h.7v.419a1.038,1.038,0,0,1,.979-.5q1.1,0,1.095,1.191v1.887h-.7v-1.565a1.257,1.257,0,0,0-.148-.7.576.576,0,0,0-.509-.213.658.658,0,0,0-.528.216.906.906,0,0,0-.187.615v1.649Z" transform="translate(-135.538 -104.12)"/>
    <path id="Path_10" data-name="Path 10" d="M163.494,101.11h.7v4.508h-.7v-.406a.905.905,0,0,1-.4.351,1.285,1.285,0,0,1-.557.132,1.367,1.367,0,0,1-1.088-.444,1.663,1.663,0,0,1-.386-1.133,1.622,1.622,0,0,1,.406-1.13,1.4,1.4,0,0,1,1.088-.448,1.18,1.18,0,0,1,.554.129.937.937,0,0,1,.386.354Zm-.857,3.961a.816.816,0,0,0,.66-.27,1.133,1.133,0,0,0,0-1.365.921.921,0,0,0-1.3,0,1.118,1.118,0,0,0,0,1.372A.8.8,0,0,0,162.638,105.071Z" transform="translate(-142.738 -101.11)"/>
    <path id="Path_11" data-name="Path 11" d="M174.614,108.868a1.1,1.1,0,0,1-.811-.3,1.2,1.2,0,0,1-.3-.889V105.79h.7V107.5a.97.97,0,0,0,.142.573.543.543,0,0,0,.47.193.665.665,0,0,0,.554-.216.885.885,0,0,0,.174-.57V105.79h.7v3h-.7v-.419A.973.973,0,0,1,174.614,108.868Z" transform="translate(-151.173 -104.283)"/>
    <path id="Path_12" data-name="Path 12" d="M185.4,108.706a1.408,1.408,0,0,1-.921-.29.886.886,0,0,1-.354-.708h.7a.374.374,0,0,0,.171.316.745.745,0,0,0,.441.122.48.48,0,0,0,.316-.1.32.32,0,0,0,.116-.258.288.288,0,0,0-.225-.316l-.773-.213a.792.792,0,0,1-.65-.831.772.772,0,0,1,.322-.628,1.3,1.3,0,0,1,.831-.254,1.331,1.331,0,0,1,.879.258.841.841,0,0,1,.306.676h-.689a.345.345,0,0,0-.138-.293.616.616,0,0,0-.383-.106.516.516,0,0,0-.309.087.265.265,0,0,0-.122.222.316.316,0,0,0,.258.322l.715.206a1.052,1.052,0,0,1,.5.306.726.726,0,0,1,.193.5.887.887,0,0,1-.312.708A1.293,1.293,0,0,1,185.4,108.706Z" transform="translate(-158.373 -104.12)"/>
    <path id="Path_13" data-name="Path 13" d="M194.509,106.287a2.131,2.131,0,0,0,.354-.026v.618a3.028,3.028,0,0,1-.522.039,1.659,1.659,0,0,1-.3-.026,1.12,1.12,0,0,1-.3-.119.616.616,0,0,1-.27-.325,1.537,1.537,0,0,1-.1-.586v-1.4h-.509v-.586h.509v-.908h.7v.908h.689v.586h-.689V105.7a.749.749,0,0,0,.1.473A.425.425,0,0,0,194.509,106.287Z" transform="translate(-164.299 -102.371)"/>
    <path id="Path_14" data-name="Path 14" d="M201.755,108.706a1.367,1.367,0,0,1-1.088-.444,1.663,1.663,0,0,1-.386-1.133,1.623,1.623,0,0,1,.406-1.13,1.4,1.4,0,0,1,1.088-.448,1.18,1.18,0,0,1,.554.129.937.937,0,0,1,.386.354v-.406h.7v3h-.7v-.406a.9.9,0,0,1-.4.351A1.284,1.284,0,0,1,201.755,108.706Zm.1-.625a.816.816,0,0,0,.66-.27,1.133,1.133,0,0,0,0-1.365.921.921,0,0,0-1.3,0,1.118,1.118,0,0,0,0,1.372A.8.8,0,0,0,201.858,108.081Z" transform="translate(-169.329 -104.12)"/>
    <path id="Path_15" data-name="Path 15" d="M212.82,108.628v-3h.7v.419a1.038,1.038,0,0,1,.979-.5q1.1,0,1.095,1.191v1.887h-.7v-1.565a1.258,1.258,0,0,0-.148-.7.576.576,0,0,0-.509-.213.657.657,0,0,0-.528.216.906.906,0,0,0-.187.615v1.649Z" transform="translate(-177.832 -104.12)"/>
    <path id="Path_16" data-name="Path 16" d="M229.147,105.618v-3.812H227.84v-.7H231.2v.7h-1.314v3.812Z" transform="translate(-188.015 -101.11)"/>
    <path id="Path_17" data-name="Path 17" d="M239.955,102.1a.537.537,0,1,1,.148-.37A.5.5,0,0,1,239.955,102.1Zm-.728,3.584v-3h.7v3Z" transform="translate(-195.622 -101.178)"/>
    <path id="Path_18" data-name="Path 18" d="M244.56,108.628v-3h.7v.419a.831.831,0,0,1,.328-.357.943.943,0,0,1,.509-.138.923.923,0,0,1,.947.535.894.894,0,0,1,.361-.383,1.074,1.074,0,0,1,.56-.151q1.082,0,1.082,1.179v1.9h-.7v-1.765q0-.715-.56-.715a.576.576,0,0,0-.464.2,1.078,1.078,0,0,0-.167.692v1.591h-.7v-1.771c0-.473-.184-.708-.547-.708a.588.588,0,0,0-.473.2,1.076,1.076,0,0,0-.171.692v1.591h-.7Z" transform="translate(-199.351 -104.12)"/>
    <path id="Path_19" data-name="Path 19" d="M263.443,106.973q0,.116-.019.386H261.2a.726.726,0,0,0,.232.544.9.9,0,0,0,.605.19.677.677,0,0,0,.67-.341h.708a1.028,1.028,0,0,1-.454.686,1.58,1.58,0,0,1-.924.267,1.485,1.485,0,0,1-1.121-.425,1.819,1.819,0,0,1,0-2.3,1.443,1.443,0,0,1,1.1-.428,1.408,1.408,0,0,1,1.04.4A1.393,1.393,0,0,1,263.443,106.973Zm-2.248-.148h1.559a.716.716,0,0,0-.2-.535.772.772,0,0,0-.557-.187.817.817,0,0,0-.58.2A.707.707,0,0,0,261.2,106.825Z" transform="translate(-210.159 -104.12)"/>
    <path id="Path_20" data-name="Path 20" d="M272.315,108.706a1.408,1.408,0,0,1-.921-.29.886.886,0,0,1-.354-.708h.7a.374.374,0,0,0,.171.316.745.745,0,0,0,.441.122.48.48,0,0,0,.316-.1.32.32,0,0,0,.116-.258.288.288,0,0,0-.225-.316l-.773-.213a.792.792,0,0,1-.65-.831.772.772,0,0,1,.322-.628,1.3,1.3,0,0,1,.831-.254,1.331,1.331,0,0,1,.879.258.841.841,0,0,1,.306.676h-.689a.345.345,0,0,0-.138-.293.616.616,0,0,0-.383-.106.516.516,0,0,0-.309.087.265.265,0,0,0-.122.222.316.316,0,0,0,.258.322l.715.206a1.053,1.053,0,0,1,.5.306.726.726,0,0,1,.193.5.887.887,0,0,1-.312.708A1.293,1.293,0,0,1,272.315,108.706Z" transform="translate(-217.305 -104.12)"/>
  </g>
  <g id="Group_7" data-name="Group 7" transform="translate(78.759 0.927)">
    <path id="Path_21" data-name="Path 21" d="M361.576,97.309h-8.091a.855.855,0,0,1-.854-.854h0a.855.855,0,0,1,.854-.854h8.091a.855.855,0,0,1,.854.854h0A.853.853,0,0,1,361.576,97.309Z" transform="translate(-347.485 -71.815)" fill="#ff6417"/>
    <path id="Path_22" data-name="Path 22" d="M364.169,107.439h-5.685a.855.855,0,0,1-.854-.854h0a.855.855,0,0,1,.854-.854h5.685a.855.855,0,0,1,.854.854h0A.851.851,0,0,1,364.169,107.439Z" transform="translate(-351.281 -79.507)" fill="#ff6417"/>
    <g id="Group_5" data-name="Group 5" transform="translate(0 1.807)">
      <g id="Group_4" data-name="Group 4" clip-path="url(#clip-path)">
        <path id="Path_23" data-name="Path 23" d="M350.111,16.388a10.128,10.128,0,1,0-13.843,13.843c.2.116.4.221.6.322a.747.747,0,0,1,.729-.705.7.7,0,0,1,.419.137,1.281,1.281,0,0,1,1.2-1.013,1.686,1.686,0,0,1,1.215.529l.325-4.715v-.426h1.468l.325,5.112a1.7,1.7,0,0,1,1.194-.5,1.276,1.276,0,0,1,1.189.977.716.716,0,0,1,.361-.1.745.745,0,0,1,.72.609c.142-.075.284-.147.424-.229a10.176,10.176,0,0,0,3.68-13.838Z" transform="translate(-331.242 -11.36)" fill="#ff6417"/>
      </g>
    </g>
    <g id="Group_6" data-name="Group 6" transform="translate(4.994)">
      <path id="Path_25" data-name="Path 25" d="M366.566,5.65l-.051.108-.825,1.788.046,10.211h3.507V7.369L367.466,3.85Z" transform="translate(-362.395 -3.85)" fill="#fff"/>
      <rect id="Rectangle_1" data-name="Rectangle 1" width="1.172" height="10.378" transform="translate(4.503 3.555)" fill="#ff6417"/>
      <path id="Path_26" data-name="Path 26" d="M355.389,43.88l.036,4.293L352,48.154V47.23S355.341,43.88,355.389,43.88Z" transform="translate(-352 -34.246)" fill="#fff"/>
      <path id="Path_27" data-name="Path 27" d="M369.33,5.65h1.776l-.876-1.8Z" transform="translate(-365.159 -3.85)" fill="#ff6417"/>
      <path id="Path_28" data-name="Path 28" d="M380.366,43.8l-.036,4.313,3.415-.022v-.922S380.414,43.8,380.366,43.8Z" transform="translate(-373.512 -34.185)" fill="#fff"/>
      <path id="Path_29" data-name="Path 29" d="M367.655,62.15H363.87a.4.4,0,0,1-.4-.4V61.58a.4.4,0,0,1,.4-.4h3.786a.4.4,0,0,1,.4.4v.171A.4.4,0,0,1,367.655,62.15Z" transform="translate(-360.71 -47.383)" fill="#fff"/>
    </g>
  </g>
  <g id="Group_8" data-name="Group 8" transform="translate(55.139 3.054)">
    <path id="Path_30" data-name="Path 30" d="M287.43,21.073a7.285,7.285,0,0,0,1.2,1.547V12.7h-.515a7.4,7.4,0,0,0-.681.98,7.457,7.457,0,0,0,0,7.393Z" transform="translate(-273.223 -12.698)"/>
    <path id="Path_31" data-name="Path 31" d="M244.866,21.547a8.414,8.414,0,0,1,0-8.361c.1-.171.2-.335.313-.5h-4.423v6.195h-3.1V12.692H231.49V31.224h6.168V25.029h3.1v6.195H246.9V23.893A8.148,8.148,0,0,1,244.866,21.547Z" transform="translate(-231.49 -12.69)"/>
  </g>
  <path id="Path_32" data-name="Path 32" d="M411.235,21.233V8.87H405.12v2.9a10.816,10.816,0,0,1,0,15.614V27.4h11.463V21.233Z" transform="translate(-308.583 -6.735)"/>
  <path id="Path_33" data-name="Path 33" d="M295.884,12.844a10.735,10.735,0,0,1,4.339-8.676c-.06-.116-.118-.229-.183-.342A7.694,7.694,0,0,0,285.68,7.694a7.659,7.659,0,0,0,7.694,7.694,7.705,7.705,0,0,0,2.7-.479A11.249,11.249,0,0,1,295.884,12.844Zm-1.069-2.712a2.826,2.826,0,0,1-2.84,0,2.857,2.857,0,0,1-1.04-1.028,2.714,2.714,0,0,1-.38-1.41,2.8,2.8,0,0,1,.38-1.42,2.9,2.9,0,0,1,1.04-1.049,2.766,2.766,0,0,1,2.84,0,2.89,2.89,0,0,1,1.037,1.049,2.775,2.775,0,0,1,.383,1.42,2.722,2.722,0,0,1-.383,1.41A2.832,2.832,0,0,1,294.816,10.132Z" transform="translate(-217.627 0)"/>
</svg>
