<svg id="Group_15304" data-name="Group 15304" xmlns="http://www.w3.org/2000/svg" width="17" height="18" viewBox="0 0 17 18">
  <path id="Path_719" data-name="Path 719" d="M29.58,20.356a8.329,8.329,0,0,1-8.5,8.144,8.328,8.328,0,0,1-8.5-8.147,8.154,8.154,0,0,1,5.3-7.546.668.668,0,0,1,.869.312.618.618,0,0,1-.326.833l-.053.021a6.792,6.792,0,0,0-3.954,8.973,7.3,7.3,0,0,0,9.364,3.788,6.792,6.792,0,0,0,3.954-8.972,7.044,7.044,0,0,0-3.954-3.789.623.623,0,0,1-.4-.8.664.664,0,0,1,.837-.384l.053.021A8.108,8.108,0,0,1,29.58,20.356Zm-8.5-.755a.644.644,0,0,0,.657-.629V11.129a.657.657,0,0,0-1.313,0v7.843A.644.644,0,0,0,21.08,19.6Z" transform="translate(-12.58 -10.5)" fill="#0c0c0c"/>
</svg>
