<svg xmlns="http://www.w3.org/2000/svg" width="21.006" height="17" viewBox="0 0 21.006 17">
  <g id="Group_15587" data-name="Group 15587" transform="translate(11004.5 -9268.5)">
    <g id="Group_15706" data-name="Group 15706" transform="translate(-11004 9269)">
      <g id="Group_15707" data-name="Group 15707" transform="translate(0 0)">
        <path id="Path_30187" data-name="Path 30187" d="M3935.1,1627.766h16.41v13.726s.128,1.757-2.436,2.244c0,.065-15.736,0-15.736,0s-1.827.2-1.827-2.472v-10.278h3.558Z" transform="translate(-3931.512 -1627.766)" fill="none" stroke="#000" stroke-miterlimit="10" stroke-width="1"/>
        <path id="Path_30188" data-name="Path 30188" d="M3937.012,1634.4v10.842a1.94,1.94,0,0,1-1.863,2.068" transform="translate(-3933.45 -1631.341)" fill="none" stroke="#000" stroke-miterlimit="10" stroke-width="1"/>
        <rect id="Rectangle_3906" data-name="Rectangle 3906" width="5.008" height="4.74" transform="translate(6.246 7.61)" fill="none" stroke="#000" stroke-miterlimit="10" stroke-width="1"/>
      </g>
    </g>
    <path id="Path_30189" data-name="Path 30189" d="M-10991.857,9274.571h10.876" transform="translate(-5.074 -1.713)" fill="none" stroke="#000" stroke-width="1"/>
    <path id="Path_30190" data-name="Path 30190" d="M-10978.285,9282.571h3.537" transform="translate(-11.474 -6.145)" fill="none" stroke="#000" stroke-width="1"/>
    <path id="Path_30191" data-name="Path 30191" d="M-10978.285,9282.571h3.537" transform="translate(-11.474 -3.38)" fill="none" stroke="#000" stroke-width="1"/>
    <path id="Path_30192" data-name="Path 30192" d="M-10978.285,9282.571h2.667" transform="translate(-11.703 -1.076)" fill="none" stroke="#000" stroke-width="1"/>
  </g>
</svg>
