<svg xmlns="http://www.w3.org/2000/svg" xmlns:xlink="http://www.w3.org/1999/xlink" width="1367" height="691" viewBox="0 0 1367 691">
  <defs>
    <clipPath id="clip-Artboard_1">
      <rect width="1367" height="691"/>
    </clipPath>
  </defs>
  <g id="Artboard_1" data-name="Artboard – 1" clip-path="url(#clip-Artboard_1)">
    <rect width="1367" height="691" fill="#fff"/>
    <g id="Group_145" data-name="Group 145" transform="translate(2.089 -9)">
      <path id="Path_1738" data-name="Path 1738" d="M765.126-718.952l.091,690.945c-.432,3.852-4.749,1.986-6.415,1.991-94.158.261-187.822-5.51-281.979-5.142-42.8.167-85.589.751-128.386.942-72.828.324-145.655.966-218.451-2.416-44.9-2.086-89.827-3.914-134.762-5.129-36.549-.988-73.137-1.578-109.691-1.1-43.762.576-87.513,2.322-131.257,3.857-30.5,1.07-60.977,2.8-91.475,3.931q-39.482,1.458-78.993,2.182c-26.674.487-53.278-1.57-79.937-2.182-38.56-.886-133.748,21.148-115.733-1.619V-717.595c1.331.114-8.347-2.483-7.016-2.472,84.264.673,179.537,4.03,263.8,4.863,20.461.2,40.912,1.286,61.367,2.017,35.044,1.252,70.077,3.185,105.131,3.667,48.332.664,96.68.51,145.018.187,27.178-.182,54.35-1.387,81.524-2.176,9.557-.278,19.11-.686,28.664-1.043,31.849-1.191,63.689-2.7,95.547-3.49,31.211-.772,62.443-1.193,93.663-1.076,44.646.168,89.291.856,133.933,1.529,35.071.529,70.141,1.294,105.208,2.1,41.438.948,82.869,2.668,124.31,2.922C667.62-710.274,716.788-718.556,765.126-718.952Z" transform="translate(603.072 727.595)" fill="#004ba6"/>
    </g>
    <path id="Path_1737" data-name="Path 1737" d="M6172.2,1308.527c-56.233-105.222-101.9-231.537-68.663-354.731,32.571-120.7,115.1-224.149,215.383-278.436,63.391-34.319,130.732-46.585,198.519-44.011,44.841,1.7,89.868,9.881,134.086,22.518C6752.309,682.66,6855.714,721.06,6924.95,813.3q6.274,8.361,12.1,17.049c.255.214.519.408.771.647,31.614,29.2,50.276,74.237,64.587,116.34,16.333,48.029,27,98.65,32.536,149.673,5.3,48.863,1.689,94.708-17.751,139.466-21.919,50.464-57.577,92.862-94.7,129.573-37.048,36.641-77.3,70.062-118.566,100.395-39.624,29.115-82.439,54.13-129.036,65.191a260.772,260.772,0,0,1-46.073,6.516c-35.7,1.958-71.265-2.624-107.151-8.758-46.2-7.89-92.875-14.532-138.072-28.311-41.719-12.712-81.487-32.461-115.785-62.4C6227.661,1403.611,6198.2,1357.19,6172.2,1308.527Zm233.3,61.72c43,18.606,89.09,23.094,134.961,20a516.772,516.772,0,0,0,67.427-9.366c75.588-15.292,157.8-47.47,209.918-109.887,53.405-63.948,55.892-154.142,44.733-234.707-10.454-75.449-41.545-150.119-100.032-195.7-41.061-48-110.014-74.062-165.352-88.669a405.266,405.266,0,0,0-68.608-12.348c-49.431-4.237-98.061,2.906-144.443,28.788C6174.438,885.315,6182.692,1273.838,6405.5,1370.247Z" transform="translate(-5881.289 -695.08)" fill="#fff" opacity="0.1"/>
  </g>
</svg>
