<svg xmlns="http://www.w3.org/2000/svg" xmlns:xlink="http://www.w3.org/1999/xlink" width="1366" height="15" viewBox="0 0 1366 15">
  <defs>
    <clipPath id="clip-Artboard_1">
      <rect width="1366" height="15"/>
    </clipPath>
  </defs>
  <g id="Artboard_1" data-name="Artboard – 1" clip-path="url(#clip-Artboard_1)">
    <rect width="1366" height="15" fill="#fff"/>
    <path id="Union_15" data-name="Union 15" d="M57.412,689.49C38.269,688.6,19.137,686.6,0,685.076V0A13.247,13.247,0,0,0,1.982.328C43.818,1,85.655,1.558,127.491,2.391c10.159.2,20.312,1.287,30.468,2.019,17.4,1.252,34.793,3.185,52.2,3.667,24,.665,48,.511,72,.187,13.494-.182,26.985-1.387,40.476-2.176,4.744-.277,9.488-.686,14.232-1.042,15.812-1.192,31.62-2.7,47.438-3.491C399.8.78,415.3.36,430.8.476c22.167.168,44.333.857,66.5,1.53,17.412.528,34.824,1.295,52.235,2.1,20.574.949,41.143,2.669,61.719,2.924,23.83.295,47.664-.617,71.5-1.017V6l.268,0,.232,0v.006C714.166,6.331,1322.435,1,1364.019.328A13.247,13.247,0,0,0,1366,0V685.075c-19.137,1.526-38.269,3.528-57.412,4.415-13.236.612-26.493-.125-39.736-.611q-19.613-.721-39.22-2.183c-15.141-1.128-30.273-2.862-45.416-3.933-12.069-.853-24.139-.227-36.209.4-9.652.5-19.305,1-28.959.746-18.149-.482-36.315.108-54.461,1.1-10.147.551-20.294.2-30.438-.159-12.158-.426-24.315-.851-36.47.287-36.142,3.383-72.3,2.741-108.459,2.418-21.247-.192-42.495-.776-63.742-.942q-70.123-.553-140.245-.846a11.809,11.809,0,0,0-1.984.238v.076c-.084-.011-.167-.023-.251-.036-.083.013-.166.025-.249.036V686a11.86,11.86,0,0,0-1.984-.238q-70.123.39-140.245.846c-21.247.167-42.495.75-63.742.942-36.158.323-72.316.967-108.459-2.416-11.981-1.121-23.964-.435-35.949.251-10.318.59-20.638,1.181-30.959.619-18.146-.988-36.312-1.578-54.461-1.1-21.728.577-43.45,1.323-65.168,2.858-7.521.53-15.038-.008-22.556-.546-7.619-.546-15.239-1.092-22.859-.523q-19.6,1.458-39.22,2.183c-9.664.356-19.335.844-29,.844C64.568,689.722,60.99,689.656,57.412,689.49Z" transform="translate(0 2.071)" fill="#004ba6" stroke="rgba(0,0,0,0)" stroke-miterlimit="10" stroke-width="1"/>
  </g>
</svg>
