<svg xmlns="http://www.w3.org/2000/svg" xmlns:xlink="http://www.w3.org/1999/xlink" width="1368" height="527" viewBox="0 0 1368 527">
  <defs>
    <clipPath id="clip-Artboard_6">
      <rect width="1368" height="527"/>
    </clipPath>
  </defs>
  <g id="Artboard_6" data-name="Artboard – 6" clip-path="url(#clip-Artboard_6)">
    <rect width="1368" height="527" fill="#fff"/>
    <path id="Path_1807" data-name="Path 1807" d="M-410.731,196.251q-88.389,1.332-176.778,2.72c-89.887,1.358-179.772,2.915-269.664,3.962q-116.078,1.35-232.16.4-116.082.933-232.161-.4c-89.891-1.047-179.777-2.6-269.664-3.962q-88.389-1.389-176.778-2.72c-1.8-.027-3.616.284-5.425.438V714.861q47.94-.861,95.874-1.729,89.9-1.539,179.79-3.26,168.059-2.982,336.131-5,36.117-.434,72.233-.8,36.116.36,72.232.8,168.074,2.019,336.131,5,89.893,1.72,179.79,3.26,47.936.868,95.874,1.729V196.689C-407.114,196.535-408.925,196.224-410.731,196.251Z" transform="translate(1773.361 -192.25)" fill="#06ea8c"/>
  </g>
</svg>
