<svg xmlns="http://www.w3.org/2000/svg" xmlns:xlink="http://www.w3.org/1999/xlink" width="38" height="37" viewBox="0 0 38 37">
  <defs>
    <clipPath id="clip-Artboard_13">
      <rect width="38" height="37"/>
    </clipPath>
  </defs>
  <g id="Artboard_13" data-name="Artboard – 13" clip-path="url(#clip-Artboard_13)">
    <g id="Group_36" data-name="Group 36" transform="translate(-5350.824 -2667.644)">
      <path id="Path_1519" data-name="Path 1519" d="M5370.357,2703.488h-1.87c-.025-.027-.049-.074-.077-.078-.932-.114-1.866-.216-2.8-.339a7.315,7.315,0,0,1-1.377-.257c-.927-.313-1.836-.679-2.745-1.04a13.066,13.066,0,0,1-3.683-2.322,16.261,16.261,0,0,1-3.695-4.553,14.254,14.254,0,0,1-1.4-3.255c-.082-.321-.208-.63-.3-.95a12.654,12.654,0,0,1-.328-1.31c-.113-.687-.181-1.382-.268-2.073v-2.032a20.187,20.187,0,0,1,.295-2.152,22.356,22.356,0,0,1,.824-2.606,15.135,15.135,0,0,1,.982-2.173,19.311,19.311,0,0,1,3.222-4.247,18.175,18.175,0,0,1,3.8-2.95,12.527,12.527,0,0,1,2.882-1.283c.746-.2,1.484-.444,2.241-.582a11.772,11.772,0,0,1,1.622-.065.577.577,0,0,0,.341-.076,2.116,2.116,0,0,1,1.9-.458,21.523,21.523,0,0,1,4.3.764,24.578,24.578,0,0,1,2.744.963,26.2,26.2,0,0,1,3.485,2.011,16.742,16.742,0,0,1,4.407,4.473,22.2,22.2,0,0,1,1.553,2.741,13.127,13.127,0,0,1,.725,2.193c.185.677.314,1.37.439,2.061.1.566.163,1.14.242,1.711v1.707a.667.667,0,0,0-.043.155,13.354,13.354,0,0,1-.635,3.658c-.273.828-.541,1.66-.877,2.463a14.753,14.753,0,0,1-2.7,4.182,15.041,15.041,0,0,1-4.2,3.247,22.1,22.1,0,0,1-2.908,1.194,21.318,21.318,0,0,1-2.8.827c-.852.177-1.737.188-2.606.287A6.164,6.164,0,0,0,5370.357,2703.488Zm15.3-16.981.124-.011c-.1-.73-.221-1.458-.294-2.19a11.518,11.518,0,0,0-.86-3.147,13.593,13.593,0,0,0-2.261-3.725,14.955,14.955,0,0,0-3.7-3.228,19.017,19.017,0,0,0-2.041-1.1,22.41,22.41,0,0,0-2.421-.909,15.237,15.237,0,0,0-2.321-.571c-.878-.13-1.774-.128-2.661-.2a2.416,2.416,0,0,1-.818-.179,1.081,1.081,0,0,1-.54-1.05c-.009-.236-.109-.371-.35-.319a3.828,3.828,0,0,0-.6.2,29.189,29.189,0,0,0-2.715,1.112,33.559,33.559,0,0,0-3.58,2.11,16.8,16.8,0,0,0-4.693,5.136,14.937,14.937,0,0,0-1.767,4.124,10.778,10.778,0,0,0-.425,2.528c-.006.416-.138.835-.1,1.245.071.868.2,1.732.332,2.594a8.25,8.25,0,0,0,.291,1.37c.235.705.518,1.4.8,2.082a13.981,13.981,0,0,0,2.157,3.516,13.634,13.634,0,0,0,3.038,2.841,17.1,17.1,0,0,0,2.328,1.309,13.065,13.065,0,0,0,2.276.725c.79.191,1.6.292,2.406.426a4.358,4.358,0,0,0,.486.033,16.3,16.3,0,0,0,2.369.1,16.672,16.672,0,0,0,3.809-.576c.616-.208,1.281-.279,1.888-.508.777-.293,1.511-.7,2.276-1.026a12.009,12.009,0,0,0,2.965-1.954,11.428,11.428,0,0,0,2.625-3.232,21.512,21.512,0,0,0,1.148-2.584,12.163,12.163,0,0,0,.473-1.634,15.734,15.734,0,0,0,.352-1.8A13.042,13.042,0,0,0,5385.659,2686.507Z" fill="#fff"/>
      <path id="Path_1520" data-name="Path 1520" d="M5503.958,2781.023c0-1.557.022-3.115-.005-4.672-.035-2.027-.108-4.052-.168-6.078a1.289,1.289,0,0,1,.682-1.155,1.2,1.2,0,0,1,1.39.076,13.157,13.157,0,0,0,2.791,1.552,2.043,2.043,0,0,1,.492.278c.762.518,1.527,1.032,2.277,1.568,1.453,1.038,2.9,2.088,4.343,3.135a2.134,2.134,0,0,1,.288.222,1.834,1.834,0,0,0,1.862.642c.91-.2,1.482.748,1.546,1.4a1.682,1.682,0,0,1-.978,1.536c-1.423.945-2.842,1.9-4.269,2.834-.925.607-1.868,1.185-2.79,1.795-1.268.838-2.526,1.689-3.784,2.542-.619.419-1.251.823-1.831,1.292a1.142,1.142,0,0,1-1.6-.51,4.2,4.2,0,0,1-.194-1.012c-.019-1.814-.009-3.629-.009-5.444Z" transform="translate(-139.606 -92.133)" fill="#fff"/>
    </g>
  </g>
</svg>
