<svg xmlns="http://www.w3.org/2000/svg" width="23" height="21.083" viewBox="0 0 23 21.083">
  <g id="Group_18582" data-name="Group 18582" transform="translate(-0.192 -0.2)">
    <g id="Group_18582-2" data-name="Group 18582" transform="translate(1.192 1.2)">
      <path id="Path_35223" data-name="Path 35223" d="M6.615,1.2A5.253,5.253,0,0,0,2.77,2.88a5.984,5.984,0,0,0,0,8.1l8.551,9.077a.508.508,0,0,0,.709,0l8.578-9.068a5.98,5.98,0,0,0,0-8.108,5.269,5.269,0,0,0-7.5-.2q-.1.1-.2.2l-1.22,1.3-1.216-1.3A5.335,5.335,0,0,0,6.615,1.2Z" transform="translate(-1.192 -1.2)" fill="none" stroke="#000" stroke-miterlimit="10" stroke-width="2"/>
    </g>
  </g>
</svg>
