<svg id="Group_15623" data-name="Group 15623" xmlns="http://www.w3.org/2000/svg" width="19" height="19" viewBox="0 0 19 19">
  <path id="path14" d="M213.883,3.144a1.383,1.383,0,0,1,1.4-1.361h16.192a1.383,1.383,0,0,1,1.4,1.361V19.422a1.383,1.383,0,0,1-1.4,1.361H215.287a1.383,1.383,0,0,1-1.4-1.361Z" transform="translate(-213.883 -1.783)" fill="#efefef"/>
  <path id="path28" d="M227.77,27.3V18.719H224.9V27.3Zm-1.435-9.751a1.6,1.6,0,1,0-.019,0h.019Z" transform="translate(-222.01 -11.393)" fill-rule="evenodd"/>
  <path id="path30" d="M243.183,39.154h2.87V34.363a1.946,1.946,0,0,1,.094-.7,1.57,1.57,0,0,1,1.473-1.043c1.038,0,1.454.787,1.454,1.94v4.59h2.869V34.234c0-2.635-1.416-3.861-3.3-3.861a2.861,2.861,0,0,0-2.605,1.446h.019V30.574h-2.87c.038.8,0,8.579,0,8.579Z" transform="translate(-235.836 -23.249)" fill-rule="evenodd"/>
</svg>
