<svg xmlns="http://www.w3.org/2000/svg" xmlns:xlink="http://www.w3.org/1999/xlink" viewBox="0 0 533 309">
  <defs>
    <clipPath id="clip-Artboard_4">
      <rect width="100%" height="100%"/>
    </clipPath>
  </defs>
  <g id="Artboard_4" data-name="Artboard – 4" clip-path="url(#clip-Artboard_4)">
    <path id="Union_16" data-name="Union 16" d="M-2825.664,294.5l-.219-6.6q-.225-6.812-.272-13.755a19.758,19.758,0,0,1-.844-5.913c.132-31.808.869-62.538,1.588-93.094q-.18-5.2-.479-10.326c-2.567-43.509.146-83.03.02-127.14a19.44,19.44,0,0,1,1.274-7.2q-.292-8.664-.748-17.326c-.382-7.209,2.88-13.294,6.9-13,36.737,2.693,73.584,2.587,110.511,2.408,49.566-.249,98.817-3.684,148.319-1.829,49.042,1.831,98.048,3.063,147.127,3.283,24.759.111,59.585-.78,84.3-1.95C-2320.4,1.7-2312.4.813-2304.368.019c3.673-.364,6.816,4.715,7.033,11.328l.219,6.6q.225,6.812.272,13.755a19.749,19.749,0,0,1,.844,5.913c-.131,31.808-.869,62.539-1.588,93.095q.181,5.2.48,10.326c2.567,43.509-.146,83.03-.02,127.14a19.44,19.44,0,0,1-1.274,7.2q.292,8.664.748,17.326c.382,7.209-2.88,13.294-6.9,13-36.736-2.693-73.584-2.587-110.511-2.407-49.566.249-98.817,3.683-148.319,1.829-49.042-1.831-98.048-3.064-147.128-3.283-24.758-.112-59.584.779-84.3,1.949-7.792.369-15.785,1.256-23.821,2.05-.124.012-.247.018-.37.018C-2822.513,305.852-2825.455,300.9-2825.664,294.5Z" transform="translate(2828 2)" fill="#06EA8C" stroke="rgba(0,0,0,0)" stroke-miterlimit="10" stroke-width="1"/>
  </g>
</svg>
