<svg xmlns="http://www.w3.org/2000/svg" xmlns:xlink="http://www.w3.org/1999/xlink" width="139" height="37" viewBox="0 0 139 37">
  <defs>
    <clipPath id="clip-Artboard_2">
      <rect width="139" height="37"/>
    </clipPath>
  </defs>
  <g id="Artboard_2" data-name="Artboard – 2" clip-path="url(#clip-Artboard_2)">
    <g id="Group_20349" data-name="Group 20349" transform="translate(0.284 0.105)">
      <path id="Path_37981" data-name="Path 37981" d="M486.407,393.121h2.671l6.168,8.1v-8.1H498.1v13.165h-2.464l-6.375-8.369v8.369h-2.859Z" transform="translate(-359.304 -381.105)" fill="#494a4a"/>
      <path id="Path_37982" data-name="Path 37982" d="M282.955,410.1h5.73v1.646h-5.73Z" transform="translate(-225.493 -392.272)" fill="#494a4a"/>
      <path id="Path_37983" data-name="Path 37983" d="M342.2,410.1h5.73v1.646H342.2Z" transform="translate(-264.46 -392.272)" fill="#494a4a"/>
      <path id="Path_37984" data-name="Path 37984" d="M115.081,399.307v-.037a6.69,6.69,0,0,1,6.864-6.807,6.8,6.8,0,0,1,5.19,2.029l-1.843,2.126a4.862,4.862,0,0,0-3.367-1.486,3.9,3.9,0,0,0-3.817,4.1v.037a3.91,3.91,0,0,0,3.817,4.137,4.75,4.75,0,0,0,3.461-1.542l1.843,1.862a6.733,6.733,0,0,1-5.4,2.351A6.646,6.646,0,0,1,115.081,399.307Z" transform="translate(-115.081 -380.672)" fill="#494a4a"/>
      <path id="Path_37985" data-name="Path 37985" d="M245.944,393.121h9.928V395.7h-7.051v2.67h6.206v2.577h-6.206v2.763h7.146v2.578H245.944Z" transform="translate(-201.15 -381.105)" fill="#494a4a"/>
      <path id="Path_37986" data-name="Path 37986" d="M362.948,395.792h-4v-2.671H369.85v2.671h-4.006v10.494h-2.9Z" transform="translate(-275.47 -381.105)" fill="#494a4a"/>
      <path id="Path_37987" data-name="Path 37987" d="M397.3,393.121h2.9v5.209h5.34v-5.209h2.9v13.165h-2.9V401H400.2v5.286h-2.9Z" transform="translate(-300.7 -381.105)" fill="#494a4a"/>
      <path id="Path_37988" data-name="Path 37988" d="M308.007,392.843h-2.671L299.7,406.1h2.953l1.2-2.953h0l1.04-2.552-.006-.006,1.75-4.269,2.782,6.827h0l1.2,2.953h3.027Z" transform="translate(-236.503 -380.923)" fill="#494a4a"/>
      <g id="Group_20344" data-name="Group 20344" transform="translate(68.68 19.651)">
        <g id="Group_20343" data-name="Group 20343" transform="translate(0)">
          <path id="Path_37989" data-name="Path 37989" d="M317.226,415.428h-.013l-1.487,3.629H318.7Z" transform="translate(-315.726 -415.428)" fill="#494a4a"/>
        </g>
      </g>
      <g id="Group_20345" data-name="Group 20345" transform="translate(30.083 12.016)">
        <path id="Path_37990" data-name="Path 37990" d="M202.966,393.121H208.1c4.138,0,7,2.839,7,6.545v.037c0,3.7-2.859,6.583-7,6.583h-5.132Zm2.9,2.615v7.936H208.1a3.752,3.752,0,0,0,3.969-3.932V399.7a3.78,3.78,0,0,0-3.969-3.967Z" transform="translate(-202.966 -393.121)" fill="#494a4a"/>
      </g>
      <g id="Group_20346" data-name="Group 20346" transform="translate(13.852 11.92)">
        <path id="Path_37991" data-name="Path 37991" d="M160.942,406.625h-1.557a2.226,2.226,0,0,1-2.412-2.441V401.4c0-.517-.076-.939-.74-1.017a.729.729,0,0,1,0-1.455c.664-.078.74-.5.74-1.017v-2.628a2.213,2.213,0,0,1,2.412-2.44h1.557a.726.726,0,0,1,.722.7.885.885,0,0,1-.684.844c-.626.125-.74.078-.74.595v2.628c0,1-.133,1.674-1.348,1.971-.152.047-.133.093.019.14,1.178.251,1.329.97,1.329,1.94v2.816c0,.516.114.47.74.595a.885.885,0,0,1,.684.845A.727.727,0,0,1,160.942,406.625Z" transform="translate(-155.549 -392.843)" fill="#1b8d77"/>
        <path id="Path_37992" data-name="Path 37992" d="M183.241,400.556c-.665.078-.74.5-.74,1.017v2.612a2.232,2.232,0,0,1-2.431,2.441h-1.557a.74.74,0,0,1-.722-.72.886.886,0,0,1,.7-.829c.608-.125.741-.078.741-.595v-2.628c0-.939.133-1.705,1.329-1.956.057-.015.1-.047.1-.062,0-.031-.038-.063-.114-.078-1.178-.3-1.31-.985-1.31-1.956v-2.816c0-.516-.133-.469-.741-.595a.921.921,0,0,1-.7-.86.724.724,0,0,1,.722-.688h1.557a2.219,2.219,0,0,1,2.431,2.44v2.785c0,.517.076.954.74,1.033a.7.7,0,0,1,.664.72A.713.713,0,0,1,183.241,400.556Z" transform="translate(-170.178 -392.843)" fill="#1b8d77"/>
      </g>
      <g id="Group_20347" data-name="Group 20347" transform="translate(110.45 11.92)">
        <path id="Path_37993" data-name="Path 37993" d="M443.15,406.625h-1.557a2.226,2.226,0,0,1-2.412-2.441V401.4c0-.517-.076-.939-.741-1.017a.729.729,0,0,1,0-1.455c.665-.078.741-.5.741-1.017v-2.628a2.213,2.213,0,0,1,2.412-2.44h1.557a.726.726,0,0,1,.722.7.885.885,0,0,1-.684.844c-.627.125-.74.078-.74.595v2.628c0,1-.133,1.674-1.348,1.971-.152.047-.133.093.019.14,1.178.251,1.329.97,1.329,1.94v2.816c0,.516.114.47.74.595a.885.885,0,0,1,.684.845A.727.727,0,0,1,443.15,406.625Z" transform="translate(-437.757 -392.843)" fill="#1b8d77"/>
        <path id="Path_37994" data-name="Path 37994" d="M465.449,400.556c-.664.078-.74.5-.74,1.017v2.612a2.232,2.232,0,0,1-2.431,2.441h-1.557a.74.74,0,0,1-.722-.72.885.885,0,0,1,.7-.829c.608-.125.74-.078.74-.595v-2.628c0-.939.133-1.705,1.329-1.956.057-.015.1-.047.1-.062,0-.031-.038-.063-.114-.078-1.177-.3-1.311-.985-1.311-1.956v-2.816c0-.516-.133-.469-.74-.595a.92.92,0,0,1-.7-.86.724.724,0,0,1,.722-.688h1.557a2.219,2.219,0,0,1,2.431,2.44v2.785c0,.517.076.954.74,1.033a.7.7,0,0,1,.665.72A.713.713,0,0,1,465.449,400.556Z" transform="translate(-452.386 -392.843)" fill="#1b8d77"/>
      </g>
      <text id="Learn._Participate._Win." data-name="Learn. Participate. Win." transform="translate(14.621 34.83)" fill="#1b8d77" font-size="8" font-family="Helvetica" letter-spacing="0.12em"><tspan x="0" y="0">Learn. Participate. Win.</tspan></text>
      <g id="Group_20348" data-name="Group 20348" transform="translate(26.092 0)">
        <path id="Path_37995" data-name="Path 37995" d="M199.766,366.558l-1.405.932h-.108l-1.027-.959v-3.338h-1.554v3.527l-1.324.77H191.9l-.081-.108c.838-1.095,1.054-1.46,1.054-2.419v-1.77h-1.527l-.04-.081.595-1.081h.973v-.419c0-.973.041-1.189,1.243-2.473l-.054-.054-.919.432h-.73a.812.812,0,0,0-.662.2.7.7,0,0,0-.176.392h-.108a1.83,1.83,0,0,1-.095-.527,1.109,1.109,0,0,1,.3-.824,1.272,1.272,0,0,1,1.041-.338l.973.081.838-.081.081.04v5.8c0,.878-.068,1.041-1.473,2.27l.068.095.878-.23h1.2v-7.972h.392v3.608h1.554v-2.378l1.932-1.284.108.067-.23,1.608v5.892l.73.513Zm2.256.932h-.108l-1.351-1.041v-.108l.405-.311v-3.648l-.662-.608v-.122l1.284-.811h.108l.973,1.041v4.311l.622.338v.108Zm-1.581-8.175v-.108l1.392-.905.108.013.716.959v.108l-1.378.892-.108-.013Zm6.162,7.351-1.284.825h-.108l-1.257-.973v-.108l.405-.311v-3.716l-.662-.608v-.122l1.284-.811h.108l.959,1.027,1.689-1.027h.108L209,361.923V366.1l.676.419v.108l-1.257.865h-.108l-1.013-.892V362.41l-.622-.513-.608.324v4.027l.54.311Zm3.919-3.135-.054-1.23,1.784-1.027-1.676-1.013V358.4l.135-.014,4.459,3.067-.054,1.338V366.1l.675.419v.108l-1.257.865h-.108l-1.027-.959V366.5l-1.621.987h-.108l-1.148-1.081Zm1.7,2.392.622.513.568-.3v-4.176l-.946-.567-.243.649Zm3.824-4.216,1.257-.865h.108l1.014.892v4.189l.608.5.622-.324v-4.013l-.54-.311v-.108l1.284-.824h.108l1.257.973v.108l-.405.311v3.716l.662.608v.122l-1.284.811h-.108l-.959-1.027-1.689,1.027h-.108l-1.148-1.081v-4.176l-.676-.419Zm8.459,5.81H224.4a2.183,2.183,0,0,0-1.2-.378,1.315,1.315,0,0,0-.635.176l-.094-.081a5.732,5.732,0,0,1,.905-1.433,2.76,2.76,0,0,1,2.067.784v-1.919l-.486-.324-.824.716h-.122l-1.2-.8v-1.487l-.067-.905,2.608-1.068h.108a1.956,1.956,0,0,0,1.027.379,1.056,1.056,0,0,0,.581-.149l.095.054a5.387,5.387,0,0,1-.892,1.392,2.533,2.533,0,0,1-1.851-.662v1.743l.459.3.73-.635h.121l1.324.878v1.608l.067.743Zm6.743-.878-1.351.919h-.108l-1.743-1.216v-.108l.406-.3v-3.811h-.527l-.068-.081.649-.973-.081-.851,1.757-1.351.094.068-.122,2.027h1.77l.067.068-.892,1.094h-.946v3.824l1.095.581Zm.73-1.27-.067-1.027,1.567-.635a2.722,2.722,0,0,1-1.419-1l.013-.135,2.3-1.77h.189l1.959.906-.04,1.243v3.013l.649.595v.122l-1.284.811h-.108l-.905-.987-1.621.987H233.1l-1.122-1.041Zm2.8-1.7v-1.176l-1.311-.54-.932.73A3.889,3.889,0,0,0,234.778,363.667Zm-1.122,2.256.608.5.513-.257V364a4.725,4.725,0,0,1-1.041-.216l-.081.527Zm6.784.743-1.284.825h-.108l-1.257-.973v-.108l.406-.311v-3.716l-.662-.608v-.122l1.284-.811h.108l.959,1.027,1.689-1.027h.108l1.148,1.081V366.1l.676.419v.108l-1.257.865h-.108l-1.014-.892V362.41l-.622-.513-.608.324v4.027l.54.311Zm10.081-8.229c.77,0,1.973.2,3.027.2a1.42,1.42,0,0,0,1.419-.622l.149.027c-.257,1.649-.932,2.054-1.811,2.054h-.067v5.77a3.225,3.225,0,0,0,1.608-1.459l.148.013a3.146,3.146,0,0,1-.919,2.108,3.776,3.776,0,0,1-2.784,1.027,3.943,3.943,0,0,1-2.878-1.108,3.32,3.32,0,0,1-.986-2.419,2.974,2.974,0,0,1,.851-2.094,3.754,3.754,0,0,1,1.541-.946l.081.108a3.134,3.134,0,0,0-1,2.23,2.961,2.961,0,0,0,.852,2.122,2.12,2.12,0,0,0,.432.324l.162-.23v-4.757l1.635-.756c-.608-.054-1.175-.122-1.662-.122a2.731,2.731,0,0,0-1.919.486,1.538,1.538,0,0,0-.392.865h-.122a2.494,2.494,0,0,1-.176-.892,1.7,1.7,0,0,1,.487-1.216A3.272,3.272,0,0,1,250.52,358.437Zm1.446,6.662-1.554.8a3.82,3.82,0,0,0,2.432.108v-5.919c-.2,0-.405-.013-.595-.027l-.284.311Zm5.094,2.392h-.108L255.6,366.45v-.108l.405-.311v-3.648l-.662-.608v-.122l1.284-.811h.108l.973,1.041v4.311l.621.338v.108Zm-1.445-8.175v-.108l1.392-.905.108.013.716.959v.108l-1.378.892-.108-.013Zm6.026,7.351-1.284.825h-.108l-1.257-.973v-.108l.405-.311v-3.716l-.662-.608v-.122l1.284-.811h.108l.959,1.027,1.689-1.027h.108l1.108,1.041,1.716-1.041h.108l1.148,1.081V366.1l.676.419v.108l-1.257.865h-.108l-1.014-.892V362.41l-.622-.513-.608.324V366.1l.676.419v.108l-1.257.865h-.108l-1.014-.892V362.41l-.622-.513-.608.324v4.027l.54.311Zm8.513.825h-.027a10.634,10.634,0,0,1-1.838-1.743v-2.959l-.081-.959,2.878-1.014h.067c.527.892,1.081,1.77,1.676,2.608v.041l-2.865,1.459A7.653,7.653,0,0,0,271.4,366.3l1.2-.649.216.311Zm-.189-3.068,1.2-.595c-.419-.662-.8-1.351-1.189-2.067l-.094.04.081,1.635Zm5.311,3.095h-.108a2.459,2.459,0,0,0-1.338-.378,1.315,1.315,0,0,0-.635.176l-.095-.081a5.732,5.732,0,0,1,.905-1.433,3.01,3.01,0,0,1,2.2.784v-1.919l-.486-.324-.825.716h-.121l-1.2-.8v-1.487l-.068-.905,2.608-1.068h.108a1.956,1.956,0,0,0,1.027.379,1.057,1.057,0,0,0,.581-.149l.094.054a5.388,5.388,0,0,1-.892,1.392,2.534,2.534,0,0,1-1.852-.662v1.743l.46.3.729-.635h.122l1.324.878v1.608l.068.743Z" transform="translate(-191.307 -358.018)" fill="#1a1818"/>
      </g>
    </g>
  </g>
</svg>
