<svg xmlns="http://www.w3.org/2000/svg" xmlns:xlink="http://www.w3.org/1999/xlink" width="338" height="1348" viewBox="0 0 338 1348">
  <defs>
    <clipPath id="clip-path">
      <rect id="Rectangle_13" data-name="Rectangle 13" width="88.869" height="29.965" fill="none"/>
    </clipPath>
    <clipPath id="clip-Artboard_2">
      <rect width="338" height="1348"/>
    </clipPath>
  </defs>
  <g id="Artboard_2" data-name="Artboard – 2" clip-path="url(#clip-Artboard_2)">
    <g id="Group_152" data-name="Group 152" transform="translate(-14.831 -3873)">
      <g id="Group_101" data-name="Group 101" transform="translate(0 -0.27)">
        <text id="_01._Register" data-name="01. Register" transform="translate(145.863 3894.27)" fill="#fff000" font-size="18" font-family="Poppins-Bold, Poppins" font-weight="700"><tspan x="0" y="0">01. </tspan><tspan y="0" fill="#fff">Register</tspan></text>
        <text id="Sign_up_as_a_parent_and_register_your_child_for_the_Codeathon_championship._Fill_up_all_the_details_and_" data-name="Sign up as a parent and register your child for the Codeathon championship. Fill up all the details and " transform="translate(140.332 3908.666)" fill="#fff" font-size="16" font-family="Roboto-Light, Roboto" font-weight="300" letter-spacing="0.025em" opacity="0.6"><tspan x="0" y="17">Sign up as a parent and </tspan><tspan x="0" y="37">register your child for the </tspan><tspan x="0" y="57">Codeathon championship. </tspan><tspan x="0" y="77">Fill up all the details and </tspan></text>
        <text id="make_the_payment_to_make_your_child_the_Codeathon_Champion." data-name="make the payment to make your child the Codeathon Champion." transform="translate(52.351 3992.666)" fill="#fff" font-size="16" font-family="Roboto-Light, Roboto" font-weight="300" letter-spacing="0.025em" opacity="0.6"><tspan x="0" y="17">make the payment to make your child </tspan><tspan x="0" y="37">the Codeathon Champion.</tspan></text>
        <g id="Group_100" data-name="Group 100">
          <path id="Path_1577" data-name="Path 1577" d="M4876.818,849.481a3.605,3.605,0,0,0-.571-2.15c-1.338-2.178-4.148-2.683-6.458-3.141-5.78-1.147-11.906-2.275-17.8-1.359-1.014.158-2.006.473-3.012.683-1.828.116-3.657.18-5.5.121-6.889-.22-13.825-.983-20.684.069a59.133,59.133,0,0,0-9.837,2.439c-2.976,1-5.836,2.266-8.73,3.475a10.539,10.539,0,0,0-2.922,1.643,6.049,6.049,0,0,0-1.735,2.66c-.02.057-.039.114-.057.171-.3.941-.8,2.091-.3,3.045a4.567,4.567,0,0,0,2.707,1.975,6.888,6.888,0,0,0,3.723.15c1.307-.338,2.188-1.364,3.287-2.068,1.34-.859,3.018-.685,4.537-.809,1.728-.141,3.448-.444,5.176-.606,1.681-.158,3.393-.243,5.055-.551a25.834,25.834,0,0,0,4.581-1.422,26.128,26.128,0,0,1,4.6-1.481,41.727,41.727,0,0,1,4.817-.494c1.578-.106,3.155-.342,4.736-.358a26.365,26.365,0,0,1,4.634.423,87.172,87.172,0,0,0,8.816,1.436c3.444.221,6.851-.491,10.275-.739,2.754-.2,5.852.831,8.466-.377a3.622,3.622,0,0,0,2.109-2.239A2.82,2.82,0,0,0,4876.818,849.481Z" transform="translate(-4751.998 3116.531)" fill="#ff4313"/>
          <g id="Group_66" data-name="Group 66" transform="translate(52.351 3875.855)">
            <path id="Path_1557" data-name="Path 1557" d="M4344.708-1632.447h-8.964a5.391,5.391,0,0,0-5.341,5.439v60.524a5.391,5.391,0,0,0,5.341,5.439h48.792a5.391,5.391,0,0,0,5.341-5.439v-8.25" transform="translate(-4330.403 1650.369)" fill="none" stroke="#fff" stroke-linecap="round" stroke-miterlimit="10" stroke-width="4"/>
            <path id="Path_1558" data-name="Path 1558" d="M4392.191-1632.447h8.524a5.454,5.454,0,0,1,5.4,5.5v21.429" transform="translate(-4346.645 1650.369)" fill="none" stroke="#fff" stroke-linecap="round" stroke-miterlimit="10" stroke-width="4"/>
            <line id="Line_11" data-name="Line 11" x2="38.112" transform="translate(10.634 33.927)" fill="none" stroke="#fff" stroke-linecap="round" stroke-miterlimit="10" stroke-width="4"/>
            <line id="Line_12" data-name="Line 12" x2="38.112" transform="translate(10.634 44.853)" fill="none" stroke="#fff" stroke-linecap="round" stroke-miterlimit="10" stroke-width="4"/>
            <line id="Line_13" data-name="Line 13" x1="38.112" transform="translate(10.634 55.971)" fill="none" stroke="#fff" stroke-linecap="round" stroke-miterlimit="10" stroke-width="4"/>
            <line id="Line_14" data-name="Line 14" x2="19.291" transform="translate(10.634 66.705)" fill="none" stroke="#fff" stroke-linecap="round" stroke-miterlimit="10" stroke-width="4"/>
            <line id="Line_15" data-name="Line 15" x1="14.492" transform="translate(10.634 76.672)" fill="none" stroke="#fff" stroke-linecap="round" stroke-miterlimit="10" stroke-width="4"/>
            <path id="Path_1559" data-name="Path 1559" d="M4420.579-1602.2l-29.719,37.273-12.329-13.95,13.287,4.405Z" transform="translate(-4343.054 1642.831)" fill="#fff"/>
            <path id="Path_1560" data-name="Path 1560" d="M4350.535-1644.435l-.471,9.967h30.866l-1.035-9.967h-6.117s2.729-11.884-7.622-11.884-7.623,12.076-7.623,12.076Z" transform="translate(-4335.572 1656.319)" fill="none" stroke="#fff" stroke-linecap="round" stroke-miterlimit="10" stroke-width="3"/>
            <rect id="Rectangle_10" data-name="Rectangle 10" width="2.447" height="2.492" rx="1.223" transform="translate(28.702 6.709)" fill="none" stroke="#fff" stroke-linecap="round" stroke-miterlimit="10" stroke-width="6"/>
          </g>
        </g>
      </g>
      <g id="Group_99" data-name="Group 99" transform="translate(0 7.255)">
        <g id="Group_90" data-name="Group 90" transform="translate(16 32.956)">
          <path id="Path_1578" data-name="Path 1578" d="M5251.811,210.9c2.065.686,4.505.433,6.646.428a66.878,66.878,0,0,0,7.369-.355,26.972,26.972,0,0,0,12.575-4.4,46.446,46.446,0,0,0,9.712-9.652,7.163,7.163,0,0,0,1.887-5.3,10.849,10.849,0,0,0-2.99-5.454c-2.944-3.286-6.577-4.66-10.645-6.027-2.712-.911-4.818-2.611-7.255-4.029a12.019,12.019,0,0,0-1.093-.556,9.214,9.214,0,0,0-1.374-.294,17.521,17.521,0,0,0-8.114.75,26.217,26.217,0,0,0-7.668,4.763,20.152,20.152,0,0,0-2.413,2.318,24.322,24.322,0,0,0-2.728,18.691C5246.575,205.043,5248.292,209.733,5251.811,210.9Z" transform="translate(-5007.91 3909.424)" fill="#ff9eb3"/>
          <g id="Group_67" data-name="Group 67" transform="translate(207 4032.788)">
            <ellipse id="Ellipse_2" data-name="Ellipse 2" cx="16.021" cy="18.134" rx="16.021" ry="18.134" transform="translate(35.081)" fill="none" stroke="#fff" stroke-linecap="round" stroke-miterlimit="10" stroke-width="4"/>
            <path id="Path_1561" data-name="Path 1561" d="M4502.921-1590.783s24.734-4.267,35.133,7.466,7.449,35.484,7.449,35.484.281,4.667-4.357,5.067-54.106,0-54.106,0-5.2.2-5.48-7.1-.126-11.117-.126-11.117" transform="translate(-4462.675 1632.968)" fill="none" stroke="#fff" stroke-linecap="round" stroke-miterlimit="10" stroke-width="4"/>
            <line id="Line_16" data-name="Line 16" y2="23.373" transform="translate(33.36 66.296)" fill="none" stroke="#fff" stroke-linecap="round" stroke-miterlimit="10" stroke-width="4"/>
            <line id="Line_17" data-name="Line 17" y2="24.995" transform="translate(69.056 65.385)" fill="none" stroke="#fff" stroke-linecap="round" stroke-miterlimit="10" stroke-width="4"/>
            <path id="Path_1562" data-name="Path 1562" d="M4458.723-1594.418l16.448-15.278-.647,9.093s15.671-.4,18.65,10.982-9.843,17.157-20.722,16.789c0,0,12.433-1.6,12.174-7.742s-9.065-7.741-9.972-7.619l-.13,8.725Z" transform="translate(-4458.723 1636.901)" fill="#fff"/>
            <path id="Path_1563" data-name="Path 1563" d="M4525.028-1568.4H4513.8s5.409,0,7.252,1.718c2.344,2.186,2.68,8.719-6.844,9.385l8.209,10.548" transform="translate(-4468.327 1627.956)" fill="none" stroke="#fff" stroke-linecap="round" stroke-linejoin="round" stroke-width="2.5"/>
            <line id="Line_18" data-name="Line 18" x2="11.225" transform="translate(45.477 65.158)" fill="none" stroke="#fff" stroke-linecap="round" stroke-miterlimit="10" stroke-width="2.5"/>
          </g>
        </g>
        <text id="_02._Refer_and_earn_points_" data-name="02. Refer andearn points
" transform="translate(43.863 4107.326)" fill="#fff000" font-size="18" font-family="Poppins-Bold, Poppins" font-weight="700"><tspan x="0" y="0">02. </tspan><tspan y="0" fill="#fff">Refer and</tspan><tspan fill="#fff"><tspan x="0" y="23">earn points</tspan></tspan><tspan fill="#fff" font-family="Poppins-Bold"><tspan x="0" y="46"></tspan></tspan></text>
        <text id="Share_you_referral_code_and_referral_link_with_your" data-name="Share you referral code and referral link with your" transform="translate(43.663 4141.722)" fill="#fff" font-size="16" font-family="Roboto-Light, Roboto" font-weight="300" letter-spacing="0.025em" opacity="0.6"><tspan x="0" y="17">Share you referral code </tspan><tspan x="0" y="37">and referral link with your</tspan></text>
        <text id="friends_and_family_members_once_they_join_the_program_you_earn_points_and_get_closer_to_the_Codeathon_Finale." data-name="friends and family members, once they join the program you earn points and get closer to the Codeathon Finale." transform="translate(43.663 4182.722)" fill="#fff" font-size="16" font-family="Roboto-Light, Roboto" font-weight="300" letter-spacing="0.025em" opacity="0.6"><tspan x="0" y="17">friends and family members, once </tspan><tspan x="0" y="37">they join the program you earn </tspan><tspan x="0" y="57">points and get closer to the </tspan><tspan x="0" y="77">Codeathon Finale.</tspan></text>
      </g>
      <g id="Group_98" data-name="Group 98" transform="translate(0 10.127)">
        <g id="Group_91" data-name="Group 91" transform="translate(10.143 41.53)">
          <path id="Path_1579" data-name="Path 1579" d="M5127.4,582.909c5.849,3.086,11.477,4.907,18.13,3.854a64.99,64.99,0,0,0,17.462-5.259c9.655-4.563,22.55-15.745,18.328-27.3a19.453,19.453,0,0,0-4.793-8.135c-4.637-4.642-10.892-3.326-16.173-.628-2.54,1.3-5.043,2.783-7.9,3.239-3.172.505-6.411.029-9.6.037a25.887,25.887,0,0,0-16.036,5.578c-4.563,3.616-8.376,8.9-8.583,14.9C5118.008,575.678,5121.94,580.029,5127.4,582.909Z" transform="translate(-5074.366 3794.176)" fill="#ff4313"/>
          <g id="Group_70" data-name="Group 70" transform="translate(31.338 4272.873)">
            <path id="Path_1564" data-name="Path 1564" d="M4609.238-1633.466l6.859-5.173-6.859-5.173Z" transform="translate(-4565.33 1654.266)" fill="#fff" stroke="#fff" stroke-linecap="round" stroke-linejoin="round" stroke-width="2.1"/>
            <circle id="Ellipse_3" data-name="Ellipse 3" cx="6.789" cy="6.789" r="6.789" transform="translate(24.801 48.197)" fill="none" stroke="#fff" stroke-linecap="round" stroke-linejoin="round" stroke-width="2.1"/>
            <circle id="Ellipse_4" data-name="Ellipse 4" cx="6.789" cy="6.789" r="6.789" transform="translate(53.013 48.197)" fill="none" stroke="#fff" stroke-linecap="round" stroke-linejoin="round" stroke-width="2.1"/>
            <path id="Path_1565" data-name="Path 1565" d="M4582.268-1577a13.057,13.057,0,0,1,10.913-5.876,13.057,13.057,0,0,1,10.874,5.816" transform="translate(-4561.453 1648.674)" fill="none" stroke="#fff" stroke-linecap="round" stroke-linejoin="round" stroke-width="2.1"/>
            <path id="Path_1566" data-name="Path 1566" d="M4616.029-1577a13.057,13.057,0,0,1,10.913-5.876,13.06,13.06,0,0,1,10.874,5.816" transform="translate(-4567.285 1648.674)" fill="none" stroke="#fff" stroke-linecap="round" stroke-linejoin="round" stroke-width="2.1"/>
            <g id="Rectangle_11" data-name="Rectangle 11" transform="translate(20.085 0)" fill="none" stroke="#fff" stroke-linecap="round" stroke-miterlimit="10" stroke-width="5">
              <rect width="52.439" height="31.253" rx="4.851" stroke="none"/>
              <rect x="-2.5" y="-2.5" width="57.439" height="36.253" rx="7.351" fill="none"/>
            </g>
            <g id="Group_69" data-name="Group 69" transform="translate(0 75.712)">
              <g id="Group_68" data-name="Group 68" clip-path="url(#clip-path)">
                <g id="Rectangle_12" data-name="Rectangle 12" transform="translate(13.128 5.716)" fill="none" stroke="#fff" stroke-linecap="round" stroke-miterlimit="10" stroke-width="5">
                  <rect width="65.787" height="31.253" rx="4.851" stroke="none"/>
                  <rect x="-2.5" y="-2.5" width="70.787" height="36.253" rx="7.351" fill="none"/>
                </g>
              </g>
            </g>
          </g>
        </g>
        <text id="_03._Watch_Videos_" data-name="03. Watch Videos
" transform="translate(144.912 4323.873)" fill="#fff000" font-size="18" font-family="Poppins-Bold, Poppins" font-weight="700"><tspan x="0" y="0">03. </tspan><tspan y="0" fill="#fff">Watch Videos</tspan><tspan fill="#fff" font-family="Poppins-Bold"><tspan x="0" y="23"></tspan></tspan></text>
        <text id="Watch_videos_to_learn_Website_designing_using_HTML_CSS_JS_Classes_VI-VII_and_Game_Development_with_Python" data-name="Watch videos to learn Website designing using HTML CSS &amp; JS (Classes VI-VII) and Game Development with Python" transform="translate(144.712 4337.269)" fill="#fff" font-size="16" font-family="Roboto-Light, Roboto" font-weight="300" letter-spacing="0.025em" opacity="0.6"><tspan x="0" y="17">Watch videos to learn </tspan><tspan x="0" y="37">Website designing using </tspan><tspan x="0" y="57">HTML CSS &amp; JS (Classes </tspan><tspan x="0" y="77">VI-VII) and Game </tspan><tspan x="0" y="97">Development with Python</tspan></text>
        <text id="_Classes_VIII-IX_._Enhance_you_knowledge_and_sharpen_your_skill_to_become_a_Codeathon_Champion." data-name="(Classes VIII-IX). Enhance you knowledge and sharpen your skill to become a Codeathon Champion." transform="translate(41.48 4445.376)" fill="#fff" font-size="16" font-family="Roboto-Light, Roboto" font-weight="300" letter-spacing="0.025em" opacity="0.6"><tspan x="0" y="17">(Classes VIII-IX). Enhance you </tspan><tspan x="0" y="37">knowledge and sharpen your skill to </tspan><tspan x="0" y="57">become a Codeathon Champion.</tspan></text>
      </g>
      <g id="Group_97" data-name="Group 97" transform="translate(0 -10.364)">
        <g id="Group_92" data-name="Group 92" transform="translate(-5585.486 126.633)">
          <path id="Path_1580" data-name="Path 1580" d="M6108.5,547.84c3.886-7.271,7.042-16,4.745-24.511a31.5,31.5,0,0,0-14.883-19.24,26.238,26.238,0,0,0-13.717-3.041,39.261,39.261,0,0,0-9.265,1.555c-6.964,1.99-14.11,4.643-18.895,11.017-.289.385-.566.779-.836,1.178-.018.015-.036.029-.053.045-2.184,2.018-3.474,5.13-4.463,8.039a48.474,48.474,0,0,0-2.248,10.343,18.5,18.5,0,0,0,1.226,9.637,29.345,29.345,0,0,0,6.544,8.953,73.844,73.844,0,0,0,8.192,6.937,25.237,25.237,0,0,0,8.917,4.5,17.976,17.976,0,0,0,3.183.451,33.228,33.228,0,0,0,7.4-.605,76.694,76.694,0,0,0,9.54-1.956,21.564,21.564,0,0,0,8-4.312A31.125,31.125,0,0,0,6108.5,547.84Zm-19.247-1.31a12.835,12.835,0,0,1-6.41,1.017,22.961,22.961,0,0,1-3.2-.476c-3.589-.777-7.493-2.414-9.969-5.587-2.536-3.252-2.653-7.838-2.124-11.934.5-3.836,1.973-7.634,4.751-9.951,1.95-2.44,5.224-3.766,7.852-4.509a18.1,18.1,0,0,1,3.258-.628,11.016,11.016,0,0,1,6.859,1.464C6100.223,521.872,6099.832,541.627,6089.25,546.53Z" transform="translate(-216.891 4000.477)" fill="#ff9eb3"/>
          <g id="Group_71" data-name="Group 71" transform="translate(5808.182 4443.73)">
            <path id="Path_1567" data-name="Path 1567" d="M978.139,5649.071a8.853,8.853,0,0,0-8.854,8.853v20.205a8.853,8.853,0,0,0,8.854,8.852h1.823a.868.868,0,0,1,.868.869v6.5a.867.867,0,0,0,1.481.613l9.131-7.732a.867.867,0,0,1,.613-.254h12.792a8.853,8.853,0,0,0,8.854-8.852v-20.205a8.853,8.853,0,0,0-8.854-8.853Z" transform="translate(-915.491 -5648.037)" fill="none" stroke="#fff" stroke-linecap="round" stroke-linejoin="round" stroke-width="4"/>
            <line id="Line_19" data-name="Line 19" x2="1.465" y2="1.465" transform="translate(29.165)" fill="none" stroke="#fff" stroke-linecap="round" stroke-linejoin="round" stroke-width="4"/>
            <line id="Line_20" data-name="Line 20" x2="1.465" y2="1.465" transform="translate(37.034 7.904)" fill="none" stroke="#fff" stroke-linecap="round" stroke-linejoin="round" stroke-width="4"/>
            <line id="Line_21" data-name="Line 21" y1="1.465" x2="1.465" transform="translate(29.165 7.904)" fill="none" stroke="#fff" stroke-linecap="round" stroke-linejoin="round" stroke-width="4"/>
            <line id="Line_22" data-name="Line 22" y1="1.465" x2="1.465" transform="translate(37.034)" fill="none" stroke="#fff" stroke-linecap="round" stroke-linejoin="round" stroke-width="4"/>
            <line id="Line_23" data-name="Line 23" y1="0.402" x2="0.402" transform="translate(15.47 13.096)" fill="none" stroke="#fff" stroke-linecap="round" stroke-linejoin="round" stroke-width="4"/>
            <line id="Line_24" data-name="Line 24" y1="0.402" x2="0.402" transform="translate(9.716 18.849)" fill="none" stroke="#fff" stroke-linecap="round" stroke-linejoin="round" stroke-width="4"/>
            <line id="Line_25" data-name="Line 25" x1="0.402" y1="0.402" transform="translate(9.716 13.096)" fill="none" stroke="#fff" stroke-linecap="round" stroke-linejoin="round" stroke-width="4"/>
            <line id="Line_26" data-name="Line 26" x1="0.402" y1="0.402" transform="translate(15.47 18.849)" fill="none" stroke="#fff" stroke-linecap="round" stroke-linejoin="round" stroke-width="4"/>
            <path id="Path_1568" data-name="Path 1568" d="M974.4,5748.385a15.146,15.146,0,0,1-14.124,9.675H936.235a1.309,1.309,0,0,0-.924.382l-13.293,13.293a2.8,2.8,0,0,1-4.786-1.982v-10.387a1.306,1.306,0,0,0-1.306-1.306h-2.408a15.143,15.143,0,0,1-15.142-15.143v-40.554a15.141,15.141,0,0,1,15.142-15.141h30.095" transform="translate(-898.377 -5657.02)" fill="none" stroke="#fff" stroke-linecap="round" stroke-linejoin="round" stroke-width="4"/>
            <path id="Path_1569" data-name="Path 1569" d="M945.117,5739.678v-2.188a6.2,6.2,0,0,1,4.07-5.74,10.7,10.7,0,0,0,6.937-10.243,10.974,10.974,0,0,0-10.694-10.386,11.144,11.144,0,0,0-8.408,3.441,10.622,10.622,0,0,0-2.388,3.97" transform="translate(-907.064 -5662.646)" fill="none" stroke="#fff" stroke-linecap="round" stroke-linejoin="round" stroke-width="4"/>
            <line id="Line_27" data-name="Line 27" y1="0.37" transform="translate(38.042 84.752)" fill="none" stroke="#fff" stroke-linecap="round" stroke-linejoin="round" stroke-width="4"/>
            <path id="Path_1570" data-name="Path 1570" d="M996.5,5674.853v-.376a3.145,3.145,0,0,1,2.064-2.912,5.423,5.423,0,0,0,3.518-5.194,5.566,5.566,0,0,0-5.424-5.268,5.652,5.652,0,0,0-4.265,1.746,5.381,5.381,0,0,0-1.21,2.013" transform="translate(-920.567 -5650.87)" fill="none" stroke="#fff" stroke-linecap="round" stroke-linejoin="round" stroke-width="4"/>
            <line id="Line_28" data-name="Line 28" y1="0.188" transform="translate(75.949 29.376)" fill="none" stroke="#fff" stroke-linecap="round" stroke-linejoin="round" stroke-width="4"/>
          </g>
        </g>
        <text id="_04._Take_Quizzes_" data-name="04. Take Quizzes
" transform="translate(42.581 4596.729)" fill="#fff000" font-size="18" font-family="Poppins-Bold, Poppins" font-weight="700"><tspan x="0" y="0">04. </tspan><tspan y="0" fill="#fff">Take Quizzes</tspan><tspan fill="#fff" font-family="Poppins-Bold"><tspan x="0" y="23"></tspan></tspan></text>
        <text id="Prepare_for_the_largest_coding_championship_in_India_test_your_coding_skills_and_earn_points_just_by_answering_questions._The_more_you_practice_higher_is_the_chance_to_become_a_champion." data-name="Prepare for the largest coding championship in India, test your coding skills and earn points just by answering questions. The more you practice higher is the chance to become a champion." transform="translate(42.381 4607.124)" fill="#fff" font-size="16" font-family="Roboto-Light, Roboto" font-weight="300" letter-spacing="0.025em" opacity="0.6"><tspan x="0" y="17">Prepare for the </tspan><tspan x="0" y="37">largest coding </tspan><tspan x="0" y="57">championship in </tspan><tspan x="0" y="77">India, test your coding </tspan><tspan x="0" y="97">skills and earn points </tspan></text>
        <text id="just_by_answering_questions._The_more_you_practice_higher_is_the_chance_to_become_a_champion." data-name="just by answering questions. The more you practice higher is the chance to become a champion." transform="translate(42.381 4710.124)" fill="#fff" font-size="16" font-family="Roboto-Light, Roboto" font-weight="300" letter-spacing="0.025em" opacity="0.6"><tspan x="0" y="17">just by answering questions. The </tspan><tspan x="0" y="37">more you practice higher is the </tspan><tspan x="0" y="57">chance to become a champion.</tspan></text>
      </g>
      <g id="Group_96" data-name="Group 96" transform="translate(0 -9.729)">
        <g id="Group_93" data-name="Group 93" transform="translate(-5896 240.814)">
          <path id="Path_1581" data-name="Path 1581" d="M4455.143,644.642a21.448,21.448,0,0,0,.023-5.568c-.231-1.563-.685-3.953-2.541-4.337-1.917-.4-3.424,1.632-4.415,2.959a18.964,18.964,0,0,0-2.567,4.843,24.843,24.843,0,0,0-1.067,11.86,45.9,45.9,0,0,0,3.736,12.372c1.617,3.642,3.839,7.132,7.25,9.329,3.624,2.334,7.716,2.184,11.78,1.272a35.3,35.3,0,0,0,10.043-4.005c13.716-8.023,21.608-23.865,21.413-39.553-.036-2.948-.091-9.046-4.531-8.67-1.887.16-3.587,1.917-4.935,3.105a37.406,37.406,0,0,0-4.394,4.595c-2.664,3.31-4.753,4.56-6.779,8.281-1.022,1.878-2.012,3.782-3.119,5.612-.412.681-.983,1.625-1.79,1.878-1.1.344-1.558-1.164-1.719-1.982-.414-2.091.24-4.293.513-6.363a15.783,15.783,0,0,0,.292-4.38c-.084-1.721.031-4.266-1.274-5.6a3.773,3.773,0,0,0-4.2-.5c-3.366,1.408-4.743,5.493-5.409,8.774-.815,4.015-1.309,5.653-1.948,9.7-.1.367-.2.73-.326,1.087-.361.527-.825-.238-1.439-.126-1.27.231-2.1,1.142-2.568-.01A24.947,24.947,0,0,1,4455.143,644.642Z" transform="translate(1521.977 3991.998)" fill="#ff4313"/>
          <g id="Group_72" data-name="Group 72" transform="translate(5946.493 4591.686)">
            <path id="Path_1571" data-name="Path 1571" d="M960.445,361.111h31.628a.942.942,0,1,1,0,1.885h-2.21V403.42a.948.948,0,0,1-.953.942H900.656a.948.948,0,0,1-.952-.942V355.758h-2.21a.943.943,0,1,1,0-1.885h31.627V327.945h-2.209a.942.942,0,1,1,0-1.885h35.741a.942.942,0,1,1,0,1.885h-2.21v33.166Zm-1.9,41.367V327.945H931.027v74.533Zm-29.418-46.72H901.609v46.72h27.513v-46.72ZM987.958,363H960.445v39.483h27.514Z" transform="translate(-896.542 -326.06)" fill="#fff" stroke="#fff" stroke-miterlimit="10" stroke-width="4" fill-rule="evenodd"/>
            <path id="Path_1572" data-name="Path 1572" d="M1085.107,448.6h6.444v3.229h-5.329a.974.974,0,1,0,0,1.949h5.329v3.229h-6.444a.974.974,0,1,0,0,1.949h6.444a1.943,1.943,0,0,0,1.373-.571l0,0a1.943,1.943,0,0,0,.571-1.373V448.6a1.939,1.939,0,0,0-.5-1.3.959.959,0,0,0-.069-.077,1.944,1.944,0,0,0-1.377-.571h-6.444a.974.974,0,1,0,0,1.948Z" transform="translate(-1011.589 -400.45)" fill="#fff" fill-rule="evenodd"/>
            <rect id="Rectangle_14" data-name="Rectangle 14" width="0.001" height="0.001" transform="translate(79.965 56.503) rotate(-40.914)" fill="#fff"/>
            <path id="Path_1573" data-name="Path 1573" d="M1102.75,472.64h0v0h0l0,0Z" transform="translate(-1022.785 -416.137)" fill="#fff" fill-rule="evenodd"/>
            <path id="Path_1574" data-name="Path 1574" d="M930.356,428.335H936.8v3.228h-5.469a1.951,1.951,0,0,0-1.949,1.949v3.229a1.944,1.944,0,0,0,.571,1.377,1.013,1.013,0,0,0,.077.069,1.939,1.939,0,0,0,1.3.5h6.444a.974.974,0,0,0,0-1.949h-6.444v-3.229H936.8a1.944,1.944,0,0,0,1.373-.571l0,0a1.943,1.943,0,0,0,.571-1.373v-3.229a1.939,1.939,0,0,0-.5-1.3.966.966,0,0,0-.069-.077,1.944,1.944,0,0,0-1.377-.571h-6.444a.974.974,0,1,0,0,1.949Z" transform="translate(-916.295 -387.947)" fill="#fff" fill-rule="evenodd"/>
            <rect id="Rectangle_15" data-name="Rectangle 15" width="0.001" height="0.001" transform="translate(20.048 43.682) rotate(-42.709)" fill="#fff"/>
            <path id="Path_1575" data-name="Path 1575" d="M948,439.379h0v0h0l0,0Z" transform="translate(-927.951 -395.698)" fill="#fff" fill-rule="evenodd"/>
            <path id="Path_1576" data-name="Path 1576" d="M1019.876,380.149V366.207a.974.974,0,1,0-1.948,0v13.942a.974.974,0,1,0,1.948,0Z" transform="translate(-970.661 -350.257)" fill="#fff" stroke="#fff" stroke-miterlimit="10" stroke-width="4" fill-rule="evenodd"/>
          </g>
        </g>
        <text id="_05._Qualifier_Stage" data-name="05. Qualifier Stage" transform="translate(167.531 4832.729)" fill="#fff000" font-size="18" font-family="Poppins-Bold, Poppins" font-weight="700"><tspan x="0" y="0">05. </tspan><tspan y="0" fill="#fff">Qualifier Stage</tspan></text>
        <text id="Cross_this_hurdle_to_compete_with_the_best_in_the_country._All_participants_at_this_" data-name="Cross this hurdle to compete with the best in the country.
All participants at this " transform="translate(167.331 4846.125)" fill="#fff" font-size="16" font-family="Roboto-Light, Roboto" font-weight="300" letter-spacing="0.025em" opacity="0.6"><tspan x="0" y="17">Cross this hurdle to </tspan><tspan x="0" y="37">compete with the best </tspan><tspan x="0" y="57">in the country.</tspan><tspan x="0" y="77">All participants at this </tspan></text>
        <text id="stage_will_get_certificate_of_achievement_and_a_chance_to_appear_in_the_Finale_and_become_Codeathon_Champion." data-name="stage will get certificate of achievement and a chance to appear in the Finale and become Codeathon Champion." transform="translate(50.493 4926.125)" fill="#fff" font-size="16" font-family="Roboto-Light, Roboto" font-weight="300" letter-spacing="0.025em" opacity="0.6"><tspan x="0" y="17">stage will get certificate of </tspan><tspan x="0" y="37">achievement and a chance to appear </tspan><tspan x="0" y="57">in the Finale and become Codeathon </tspan><tspan x="0" y="77">Champion.</tspan></text>
      </g>
      <g id="Group_95" data-name="Group 95" transform="translate(0 -0.04)">
        <g id="Group_94" data-name="Group 94">
          <g id="Group_65" data-name="Group 65" transform="translate(215 5041.382)">
            <g id="Group_64" data-name="Group 64">
              <rect id="Rectangle_6" data-name="Rectangle 6" width="76.643" height="12.807" transform="translate(6.252)" fill="none" stroke="#fff" stroke-linecap="round" stroke-linejoin="round" stroke-miterlimit="10" stroke-width="3.3"/>
              <path id="Path_1552" data-name="Path 1552" d="M481.439,279.561h-8.71c-3.853,0-6.954,3.727-6.912,8.3.106,12.4,2.729,34.838,19.631,40.039a39.1,39.1,0,0,1-4.01-17.387Z" transform="translate(-465.817 -259.197)" fill="none" stroke="#fff" stroke-linecap="round" stroke-linejoin="round" stroke-miterlimit="10" stroke-width="3.3"/>
              <path id="Path_1553" data-name="Path 1553" d="M507.07,287.863c.042-4.575-3.059-8.3-6.912-8.3h-8.7v30.954a39.116,39.116,0,0,1-4.007,17.384C504.345,322.691,506.961,300.258,507.07,287.863Z" transform="translate(-417.996 -259.197)" fill="none" stroke="#fff" stroke-linecap="round" stroke-linejoin="round" stroke-miterlimit="10" stroke-width="3.3"/>
              <rect id="Rectangle_7" data-name="Rectangle 7" width="24.795" height="7.141" transform="translate(32.145 95.136)" fill="none" stroke="#fff" stroke-linecap="round" stroke-linejoin="round" stroke-miterlimit="10" stroke-width="3.3"/>
              <rect id="Rectangle_8" data-name="Rectangle 8" width="33.099" height="7.016" transform="translate(27.993 102.277)" fill="none" stroke="#fff" stroke-linecap="round" stroke-linejoin="round" stroke-miterlimit="10" stroke-width="3.3"/>
              <rect id="Rectangle_9" data-name="Rectangle 9" width="43.355" height="7.301" transform="translate(22.865 109.293)" fill="none" stroke="#fff" stroke-linecap="round" stroke-linejoin="round" stroke-miterlimit="10" stroke-width="3.3"/>
              <path id="Path_1554" data-name="Path 1554" d="M477.894,299.7v10.112h11.541V299.7a31.887,31.887,0,0,1-11.541,0Z" transform="translate(-439.123 -214.679)" fill="none" stroke="#fff" stroke-linecap="round" stroke-linejoin="round" stroke-miterlimit="10" stroke-width="3.3"/>
              <path id="Path_1555" data-name="Path 1555" d="M470.683,277.207v38.511a39.1,39.1,0,0,0,4.01,17.387c4.087,8.244,11,14.225,19.14,16.2a22.218,22.218,0,0,0,11.541,0c8.145-1.974,15.053-7.955,19.143-16.2a39.116,39.116,0,0,0,4.007-17.384V277.207Z" transform="translate(-455.061 -264.4)" fill="none" stroke="#fff" stroke-linecap="round" stroke-linejoin="round" stroke-miterlimit="10" stroke-width="3.3"/>
            </g>
          </g>
          <path id="Path_1582" data-name="Path 1582" d="M8.883,21.724a17.617,17.617,0,0,0-5.49,2.189C1.082,25.608-1.02,28.892.535,31.337c1.876,2.949,5.732,4.2,8.925,5.048a211.34,211.34,0,0,0,22.69,4.35,9.182,9.182,0,0,0,4.591-.155c.942-1.895,1.125-4.928,1.256-6.286a97.687,97.687,0,0,0,.185-13.119q-.055-1.369-.134-2.747c-.009-.065-.02-.128-.028-.193-.244-1.836-.342-3.685-.437-5.534A68.262,68.262,0,0,0,36.42,5.44c-.184-.836-.379-1.833-.687-2.779a7.959,7.959,0,0,0-1.06-1.212A6.1,6.1,0,0,0,32.459.121c-.025,0-.046-.012-.072-.016a7.09,7.09,0,0,0-4.27.576A5.267,5.267,0,0,0,26.611,2.3a9.257,9.257,0,0,0-1.03,5.42,21.232,21.232,0,0,1,.093,4.856,13.526,13.526,0,0,0-5.138-3.251c-2.413-.787-5.825-.875-7.438,1.449-1.524,2.194-.65,5.161,1.034,6.973,1.323,1.423,3.2,2.363,4.714,3.619A27.731,27.731,0,0,0,8.883,21.724Z" transform="matrix(0.819, 0.574, -0.574, 0.819, 253.163, 5058.392)" fill="#ff9eb3"/>
          <path id="Path_1556" data-name="Path 1556" d="M491.751,289.192l-3.737-7.5-3.736,7.5-8.355,1.2,6.046,5.839-1.427,8.245,7.473-3.893,7.473,3.893-1.427-8.245,6.046-5.839Z" transform="translate(-228.478 4786.894)" fill="#fff"/>
        </g>
        <text id="_06._Become_a_Codeathon_Champion" data-name="06. Become a
Codeathon Champion" transform="translate(45.863 5037.04)" fill="#fff000" font-size="18" font-family="Poppins-Bold, Poppins" font-weight="700"><tspan x="0" y="19">06. </tspan><tspan y="19" fill="#fff">Become a</tspan><tspan fill="#fff"><tspan x="0" y="42">Codeathon </tspan><tspan x="0" y="65">Champion</tspan></tspan></text>
        <text id="Be_among_the_top_100_points_earner_to_appear_in_the_Finale_beat_the_rest_in_the_Finale_and_become_a_Codeathon_Champion._" data-name="Be among the top 100 points earner to appear in the Finale, beat the rest in the Finale and become a Codeathon Champion.&quot;" transform="translate(45.663 5118.224)" fill="#fff" font-size="16" font-family="Roboto-Light, Roboto" font-weight="300" letter-spacing="0.025em" opacity="0.6"><tspan x="0" y="17">Be among the top 100 </tspan><tspan x="0" y="37">points earner to appear </tspan><tspan x="0" y="57">in the Finale, beat the </tspan></text>
        <text id="_rest_in_the_Finale_and_become_a_Codeathon_Champion._" data-name=" rest in the Finale and become a Codeathon Champion.&quot;" transform="translate(45.663 5177.598)" fill="#fff" font-size="16" font-family="Roboto-Light, Roboto" font-weight="300" letter-spacing="0.025em" opacity="0.6"><tspan x="0" y="17" xml:space="preserve"> rest in the Finale and become a </tspan><tspan x="0" y="37">Codeathon Champion.&quot;</tspan></text>
      </g>
      <g id="Group_132" data-name="Group 132" transform="translate(3300.277 3266.203) rotate(93)" opacity="0.5">
        <path id="Path_1592" data-name="Path 1592" d="M0,0,8.3,6.748,0,13.5" transform="translate(988.69 3182.661) rotate(42)" fill="none" stroke="#fff" stroke-linecap="round" stroke-linejoin="round" stroke-width="1"/>
        <path id="Path_1728" data-name="Path 1728" d="M779.1,3001.609s-9-77.769,46.454-89.3S930.8,2933.9,940.071,2993.173s12.638,170.605,51.143,200.007" fill="none" stroke="#fff" stroke-linecap="round" stroke-width="1" stroke-dasharray="6"/>
      </g>
      <g id="Group_136" data-name="Group 136" opacity="0.5">
        <path id="Path_1726" data-name="Path 1726" d="M5473.153,4137.391s-39.99,77.84,0,127.673,118.047-17.841,165.419,33.222" transform="translate(-5440.549 6.598)" fill="none" stroke="#fff" stroke-linecap="round" stroke-width="1" stroke-dasharray="6"/>
        <path id="Path_1727" data-name="Path 1727" d="M0,13.5,8.3,6.749,0,0" transform="translate(195.976 4292.847) rotate(43)" fill="none" stroke="#fff" stroke-linecap="round" stroke-linejoin="round" stroke-width="1"/>
      </g>
      <g id="Group_135" data-name="Group 135" opacity="0.5">
        <path id="Path_1729" data-name="Path 1729" d="M5681.331,4485.608s34.728,74.442-63.093,59.062-161.189-13.535-177.185,23.994" transform="translate(-5355 -6)" fill="none" stroke="#fff" stroke-linecap="round" stroke-width="1" stroke-dasharray="6"/>
        <path id="Path_1730" data-name="Path 1730" d="M0,13.5,8.3,6.749,0,0" transform="translate(95.675 4560.195) rotate(123)" fill="none" stroke="#fff" stroke-linecap="round" stroke-linejoin="round" stroke-width="1"/>
      </g>
      <g id="Group_134" data-name="Group 134" opacity="0.5">
        <path id="Path_1731" data-name="Path 1731" d="M5379.569,4722.667s-4.055,60.824,51.363,59.473,81.1,12.165,90.561,24.33" transform="translate(-5355 -6)" fill="none" stroke="#fff" stroke-linecap="round" stroke-width="1" stroke-dasharray="6"/>
        <path id="Path_1732" data-name="Path 1732" d="M0,13.5,8.3,6.749,0,0" transform="translate(166.321 4790.234) rotate(43)" fill="none" stroke="#fff" stroke-linecap="round" stroke-linejoin="round" stroke-width="1"/>
      </g>
      <g id="Group_133" data-name="Group 133" opacity="0.5">
        <path id="Path_1733" data-name="Path 1733" d="M5411.4,5038.7s56.785-44.788,118.369-23.194,186.352,35.191,171.956-107.172" transform="translate(-5355 -6)" fill="none" stroke="#fff" stroke-linecap="round" stroke-width="1" stroke-dasharray="6"/>
        <path id="Path_1734" data-name="Path 1734" d="M0,0,8.3,6.749,0,13.5" transform="translate(66.392 5033.105) rotate(137)" fill="none" stroke="#fff" stroke-linecap="round" stroke-linejoin="round" stroke-width="1"/>
      </g>
    </g>
  </g>
</svg>
