<svg xmlns="http://www.w3.org/2000/svg" xmlns:xlink="http://www.w3.org/1999/xlink" width="1074" height="535" viewBox="0 0 1074 535">
  <defs>
    <clipPath id="clip-path">
      <rect id="Rectangle_13" data-name="Rectangle 13" width="96.923" height="32.681" fill="none"/>
    </clipPath>
    <clipPath id="clip-Artboard_1">
      <rect width="1074" height="535"/>
    </clipPath>
  </defs>
  <g id="Artboard_1" data-name="Artboard – 1" clip-path="url(#clip-Artboard_1)">
    <g id="Group_150" data-name="Group 150" transform="translate(-161 -2900.72)">
      <g id="Group_8" data-name="Group 8" transform="translate(-17 3)">
        <path id="Path_1577" data-name="Path 1577" d="M4900.8,851.634a4.719,4.719,0,0,0-.747-2.813c-1.75-2.849-5.426-3.509-8.448-4.109-7.561-1.5-15.575-2.977-23.283-1.778-1.326.206-2.624.618-3.939.894-2.391.152-4.784.236-7.2.159-9.011-.288-18.086-1.286-27.058.091a77.341,77.341,0,0,0-12.869,3.19c-3.893,1.307-7.635,2.964-11.42,4.545a13.784,13.784,0,0,0-3.822,2.15,7.908,7.908,0,0,0-2.27,3.48q-.039.111-.075.223c-.392,1.23-1.048,2.735-.392,3.983a5.975,5.975,0,0,0,3.542,2.583,9.009,9.009,0,0,0,4.87.2c1.709-.442,2.861-1.784,4.3-2.705,1.753-1.123,3.948-.9,5.935-1.058,2.26-.184,4.51-.58,6.771-.793,2.2-.207,4.438-.318,6.612-.721a33.8,33.8,0,0,0,5.993-1.86,34.179,34.179,0,0,1,6.019-1.937,54.61,54.61,0,0,1,6.3-.646c2.063-.139,4.127-.447,6.2-.469a34.485,34.485,0,0,1,6.062.554c3.843.646,7.631,1.628,11.533,1.879,4.506.29,8.962-.643,13.441-.966,3.6-.26,7.655,1.087,11.076-.493a4.737,4.737,0,0,0,2.759-2.929A3.648,3.648,0,0,0,4900.8,851.634Z" transform="translate(-4617.998 2214.306)" fill="#ff4313"/>
        <text id="_01._Register" data-name="01. Register" transform="translate(296.863 2972.873)" fill="#fff000" font-size="18" font-family="Poppins-Bold, Poppins" font-weight="700"><tspan x="0" y="0">01. </tspan><tspan y="0" fill="#fff">Register</tspan></text>
        <text id="Sign_up_as_a_parent_and_register_your_child_for_the_Codeathon_championship._Fill_up_all_the_details_and_make_the_payment_to_make_your_child_the_Codeathon_Champion." data-name="Sign up as a parent and register your child for the Codeathon championship. Fill up all the details and make the payment to make your child the Codeathon Champion." transform="translate(296.663 2987.269)" fill="#fff" font-size="16" font-family="Roboto-Light, Roboto" font-weight="300" letter-spacing="0.025em" opacity="0.6"><tspan x="0" y="17">Sign up as a parent and </tspan><tspan x="0" y="37">register your child for the </tspan><tspan x="0" y="57">Codeathon championship. </tspan><tspan x="0" y="77">Fill up all the details and </tspan><tspan x="0" y="97">make the payment to make </tspan><tspan x="0" y="117">your child the Codeathon </tspan><tspan x="0" y="137">Champion.</tspan></text>
        <g id="Group_66" data-name="Group 66" transform="translate(-4142.404 4604.319)">
          <path id="Path_1557" data-name="Path 1557" d="M4349.116-1632.447H4337.39a7.052,7.052,0,0,0-6.987,7.115v79.174a7.052,7.052,0,0,0,6.987,7.115h63.828a7.052,7.052,0,0,0,6.986-7.115v-10.792" transform="translate(0 -0.427)" fill="none" stroke="#fff" stroke-linecap="round" stroke-miterlimit="10" stroke-width="4"/>
          <path id="Path_1558" data-name="Path 1558" d="M4392.191-1632.447h11.151a7.135,7.135,0,0,1,7.068,7.2v28.032" transform="translate(-2.206 -0.427)" fill="none" stroke="#fff" stroke-linecap="round" stroke-miterlimit="10" stroke-width="4"/>
          <line id="Line_11" data-name="Line 11" x2="49.856" transform="translate(4344.314 -1611.937)" fill="none" stroke="#fff" stroke-linecap="round" stroke-miterlimit="10" stroke-width="4"/>
          <line id="Line_12" data-name="Line 12" x2="49.856" transform="translate(4344.314 -1597.644)" fill="none" stroke="#fff" stroke-linecap="round" stroke-miterlimit="10" stroke-width="4"/>
          <line id="Line_13" data-name="Line 13" x1="49.856" transform="translate(4344.314 -1583.1)" fill="none" stroke="#fff" stroke-linecap="round" stroke-miterlimit="10" stroke-width="4"/>
          <line id="Line_14" data-name="Line 14" x2="25.236" transform="translate(4344.314 -1569.058)" fill="none" stroke="#fff" stroke-linecap="round" stroke-miterlimit="10" stroke-width="4"/>
          <line id="Line_15" data-name="Line 15" x1="18.958" transform="translate(4344.314 -1556.019)" fill="none" stroke="#fff" stroke-linecap="round" stroke-miterlimit="10" stroke-width="4"/>
          <path id="Path_1559" data-name="Path 1559" d="M4433.536-1602.2l-38.876,48.759-16.128-18.248,17.38,5.762Z" transform="translate(-1.718 -0.969)" fill="#fff"/>
          <path id="Path_1560" data-name="Path 1560" d="M4350.679-1640.772l-.615,13.038h40.377l-1.354-13.038h-8s3.57-15.547-9.971-15.547-9.972,15.8-9.972,15.8Z" transform="translate(-0.702)" fill="none" stroke="#fff" stroke-linecap="round" stroke-miterlimit="10" stroke-width="3"/>
          <rect id="Rectangle_10" data-name="Rectangle 10" width="3.201" height="3.26" rx="1.6" transform="translate(4367.95 -1647.543)" fill="none" stroke="#fff" stroke-linecap="round" stroke-miterlimit="10" stroke-width="6"/>
        </g>
      </g>
      <g id="Group_8-2" data-name="Group 8" transform="translate(329 3)">
        <text id="_02._Refer_and_earn_points_" data-name="02. Refer andearn points
" transform="translate(296.863 2973.873)" fill="#fff000" font-size="18" font-family="Poppins-Bold, Poppins" font-weight="700"><tspan x="0" y="0">02. </tspan><tspan y="0" fill="#fff">Refer and</tspan><tspan fill="#fff"><tspan x="0" y="23">earn points</tspan></tspan><tspan fill="#fff" font-family="Poppins-Bold"><tspan x="0" y="46"></tspan></tspan></text>
        <text id="Share_you_referral_code_and_referral_link_with_your_friends_and_family_members_once_they_join_the_program_you_earn_points_and_get_closer_to_the_Codeathon_Finale." data-name="Share you referral code and referral link with your friends and family members, once they join the program you earn points and get closer to the Codeathon Finale." transform="translate(296.663 3008.269)" fill="#fff" font-size="16" font-family="Roboto-Light, Roboto" font-weight="300" letter-spacing="0.025em" opacity="0.6"><tspan x="0" y="17">Share you referral code and </tspan><tspan x="0" y="37">referral link with your friends </tspan><tspan x="0" y="57">and family members, once </tspan><tspan x="0" y="77">they join the program you </tspan><tspan x="0" y="97">earn points and get closer to </tspan><tspan x="0" y="117">the Codeathon Finale.</tspan></text>
        <path id="Path_1578" data-name="Path 1578" d="M5253.176,218.017c2.475.822,5.4.519,7.966.513a80.155,80.155,0,0,0,8.833-.426,32.33,32.33,0,0,0,15.074-5.272,55.663,55.663,0,0,0,11.642-11.57c1.433-1.842,2.582-3.947,2.262-6.356-.33-2.48-1.959-4.724-3.584-6.538-3.529-3.939-7.883-5.586-12.759-7.225-3.251-1.092-5.775-3.13-8.7-4.83a14.455,14.455,0,0,0-1.31-.667,11.051,11.051,0,0,0-1.647-.353,21,21,0,0,0-9.726.9c-3.425,1.191-6.406,3.442-9.192,5.709a24.18,24.18,0,0,0-2.892,2.779,29.153,29.153,0,0,0-3.269,22.405C5246.9,210.994,5248.958,216.616,5253.176,218.017Z" transform="translate(-5031.943 2842.912)" fill="#ff9eb3"/>
        <g id="Group_67" data-name="Group 67" transform="translate(-4281.723 4600.426)">
          <ellipse id="Ellipse_2" data-name="Ellipse 2" cx="19.204" cy="21.737" rx="19.204" ry="21.737" transform="translate(4500.774 -1644.426)" fill="none" stroke="#fff" stroke-linecap="round" stroke-miterlimit="10" stroke-width="4"/>
          <path id="Path_1561" data-name="Path 1561" d="M4507.2-1590.633s29.649-5.115,42.114,8.949,8.929,42.534,8.929,42.534.336,5.594-5.223,6.073-64.856,0-64.856,0-6.233.24-6.569-8.51-.151-13.326-.151-13.326" transform="translate(-0.234 -3.227)" fill="none" stroke="#fff" stroke-linecap="round" stroke-miterlimit="10" stroke-width="4"/>
          <line id="Line_16" data-name="Line 16" y2="28.017" transform="translate(4498.71 -1564.959)" fill="none" stroke="#fff" stroke-linecap="round" stroke-miterlimit="10" stroke-width="4"/>
          <line id="Line_17" data-name="Line 17" y2="29.961" transform="translate(4541.499 -1566.05)" fill="none" stroke="#fff" stroke-linecap="round" stroke-miterlimit="10" stroke-width="4"/>
          <path id="Path_1562" data-name="Path 1562" d="M4458.723-1591.383l19.716-18.313-.776,10.9s18.784-.479,22.355,13.165-11.8,20.566-24.839,20.124c0,0,14.9-1.916,14.593-9.28s-10.867-9.279-11.954-9.133l-.156,10.458Z" transform="translate(0 -2.119)" fill="#fff"/>
          <path id="Path_1563" data-name="Path 1563" d="M4527.259-1568.4H4513.8s6.483,0,8.693,2.06c2.811,2.621,3.213,10.451-8.2,11.249l9.84,12.643" transform="translate(-0.568 -4.638)" fill="none" stroke="#fff" stroke-linecap="round" stroke-linejoin="round" stroke-width="2.5"/>
          <line id="Line_18" data-name="Line 18" x2="13.455" transform="translate(4513.235 -1566.322)" fill="none" stroke="#fff" stroke-linecap="round" stroke-miterlimit="10" stroke-width="2.5"/>
        </g>
      </g>
      <g id="Group_8-3" data-name="Group 8" transform="translate(165 3208.729)">
        <text id="_06._Become_a_Codeathon_Champion" data-name="06. Become a
Codeathon Champion" transform="translate(100.863 19)" fill="#fff000" font-size="18" font-family="Poppins-Bold, Poppins" font-weight="700"><tspan x="0" y="0">06. </tspan><tspan y="0" fill="#fff">Become a</tspan><tspan fill="#fff"><tspan x="0" y="23">Codeathon Champion</tspan></tspan></text>
        <text id="Be_among_the_top_100_points_earner_to_appear_in_the_Finale_beat_the_rest_in_the_Finale_and_become_a_Codeathon_Champion._" data-name="Be among the top 100 points earner to appear in the Finale, beat the rest in the Finale and become a Codeathon Champion.&quot;" transform="translate(100.663 53.396)" fill="#fff" font-size="16" font-family="Roboto-Light, Roboto" font-weight="300" letter-spacing="0.025em" opacity="0.6"><tspan x="0" y="17">Be among the top 100 points </tspan><tspan x="0" y="37">earner to appear in the Finale, </tspan><tspan x="0" y="57">beat the rest in the Finale and </tspan><tspan x="0" y="77">become a Codeathon </tspan><tspan x="0" y="97">Champion.&quot;</tspan></text>
        <g id="Group_65" data-name="Group 65" transform="translate(0 2.127)">
          <g id="Group_64" data-name="Group 64">
            <rect id="Rectangle_6" data-name="Rectangle 6" width="70.449" height="11.772" transform="translate(5.747)" fill="none" stroke="#fff" stroke-linecap="round" stroke-linejoin="round" stroke-miterlimit="10" stroke-width="3.3"/>
            <path id="Path_1552" data-name="Path 1552" d="M480.176,279.561h-8.006c-3.541,0-6.392,3.426-6.353,7.631.1,11.4,2.508,32.023,18.045,36.8a35.937,35.937,0,0,1-3.686-15.982Z" transform="translate(-465.817 -260.843)" fill="none" stroke="#fff" stroke-linecap="round" stroke-linejoin="round" stroke-miterlimit="10" stroke-width="3.3"/>
            <path id="Path_1553" data-name="Path 1553" d="M505.485,287.192c.038-4.205-2.812-7.631-6.353-7.631h-8v28.452a35.955,35.955,0,0,1-3.683,15.979C502.98,319.206,505.384,298.585,505.485,287.192Z" transform="translate(-423.609 -260.843)" fill="none" stroke="#fff" stroke-linecap="round" stroke-linejoin="round" stroke-miterlimit="10" stroke-width="3.3"/>
            <rect id="Rectangle_7" data-name="Rectangle 7" width="22.791" height="6.564" transform="translate(29.547 87.448)" fill="none" stroke="#fff" stroke-linecap="round" stroke-linejoin="round" stroke-miterlimit="10" stroke-width="3.3"/>
            <rect id="Rectangle_8" data-name="Rectangle 8" width="30.424" height="6.449" transform="translate(25.731 94.012)" fill="none" stroke="#fff" stroke-linecap="round" stroke-linejoin="round" stroke-miterlimit="10" stroke-width="3.3"/>
            <rect id="Rectangle_9" data-name="Rectangle 9" width="39.851" height="6.711" transform="translate(21.017 100.461)" fill="none" stroke="#fff" stroke-linecap="round" stroke-linejoin="round" stroke-miterlimit="10" stroke-width="3.3"/>
            <path id="Path_1554" data-name="Path 1554" d="M477.894,299.7V309H488.5v-9.3a29.31,29.31,0,0,1-10.608,0Z" transform="translate(-442.256 -221.55)" fill="none" stroke="#fff" stroke-linecap="round" stroke-linejoin="round" stroke-miterlimit="10" stroke-width="3.3"/>
            <path id="Path_1555" data-name="Path 1555" d="M470.683,277.207v35.4a35.937,35.937,0,0,0,3.686,15.982c3.756,7.578,10.107,13.075,17.593,14.887a20.423,20.423,0,0,0,10.608,0c7.486-1.815,13.837-7.312,17.6-14.893a35.955,35.955,0,0,0,3.683-15.979v-35.4Z" transform="translate(-456.324 -265.435)" fill="none" stroke="#fff" stroke-linecap="round" stroke-linejoin="round" stroke-miterlimit="10" stroke-width="3.3"/>
          </g>
        </g>
        <path id="Path_1582" data-name="Path 1582" d="M8.166,19.969A16.193,16.193,0,0,0,3.12,21.981C.995,23.538-.937,26.558.492,28.8c1.725,2.711,5.269,3.865,8.2,4.64a194.26,194.26,0,0,0,20.856,4,8.44,8.44,0,0,0,4.22-.142,18.225,18.225,0,0,0,1.154-5.778,89.793,89.793,0,0,0,.17-12.059q-.051-1.259-.124-2.525c-.008-.059-.018-.118-.026-.177-.224-1.687-.314-3.387-.4-5.087A62.746,62.746,0,0,0,33.477,5c-.169-.769-.348-1.684-.632-2.555a7.316,7.316,0,0,0-.974-1.114A5.607,5.607,0,0,0,29.836.112C29.813.107,29.793.1,29.77.1a6.517,6.517,0,0,0-3.925.529A4.841,4.841,0,0,0,24.46,2.117,8.509,8.509,0,0,0,23.514,7.1a19.516,19.516,0,0,1,.086,4.463,12.433,12.433,0,0,0-4.723-2.988c-2.218-.723-5.354-.8-6.837,1.332-1.4,2.016-.6,4.744.951,6.41,1.216,1.308,2.941,2.172,4.333,3.326A25.49,25.49,0,0,0,8.166,19.969Z" transform="matrix(0.819, 0.574, -0.574, 0.819, 35.079, 17.763)" fill="#ff9eb3"/>
        <path id="Path_1556" data-name="Path 1556" d="M490.472,288.586l-3.435-6.895-3.434,6.895-7.68,1.106,5.557,5.367-1.312,7.578,6.869-3.578,6.869,3.578-1.312-7.578,5.557-5.367Z" transform="translate(-446.1 -254.559)" fill="#fff"/>
      </g>
      <g id="Group_8-4" data-name="Group 8" transform="translate(681.387 3)">
        <path id="Path_1579" data-name="Path 1579" d="M5128.231,586.526c6.378,3.366,12.517,5.352,19.773,4.2a70.881,70.881,0,0,0,19.044-5.736c10.53-4.977,24.594-17.172,19.988-29.773a21.218,21.218,0,0,0-5.228-8.872c-5.057-5.062-11.878-3.627-17.639-.685-2.77,1.413-5.5,3.035-8.615,3.532-3.459.551-6.992.032-10.473.04a28.233,28.233,0,0,0-17.489,6.084c-4.976,3.944-9.135,9.706-9.361,16.248C5117.988,578.64,5122.276,583.385,5128.231,586.526Z" transform="translate(-4916.618 2482.003)" fill="#ff4313"/>
        <text id="_03._Watch_Videos_" data-name="03. Watch Videos
" transform="translate(296.863 2973.873)" fill="#fff000" font-size="18" font-family="Poppins-Bold, Poppins" font-weight="700"><tspan x="0" y="0">03. </tspan><tspan y="0" fill="#fff">Watch Videos</tspan><tspan fill="#fff" font-family="Poppins-Bold"><tspan x="0" y="23"></tspan></tspan></text>
        <text id="Watch_videos_to_learn_Website_designing_using_HTML_CSS_JS_Classes_VI-VII_and_Game_Development_with_Python_Classes_VIII-IX_._Enhance_you_knowledge_and_sharpen_your_skill_to_become_a_Codeathon_Champion." data-name="Watch videos to learn Website designing using HTML CSS &amp; JS (Classes VI-VII) and Game Development with Python (Classes VIII-IX). Enhance you knowledge and sharpen your skill to become a Codeathon Champion." transform="translate(296.663 2987.269)" fill="#fff" font-size="16" font-family="Roboto-Light, Roboto" font-weight="300" letter-spacing="0.025em" opacity="0.6"><tspan x="0" y="17">Watch videos to learn Website </tspan><tspan x="0" y="37">designing using HTML CSS &amp; </tspan><tspan x="0" y="57">JS (Classes VI-VII) and Game </tspan><tspan x="0" y="77">Development with Python </tspan><tspan x="0" y="97">(Classes VIII-IX). Enhance you </tspan><tspan x="0" y="117">knowledge and sharpen your </tspan><tspan x="0" y="137">skill to become a Codeathon </tspan></text>
        <g id="Group_70" data-name="Group 70" transform="translate(-4369.155 4610.086)">
          <path id="Path_1564" data-name="Path 1564" d="M4609.239-1632.528l7.48-5.642-7.48-5.642Z" transform="translate(-4.244)" fill="#fff" stroke="#fff" stroke-linecap="round" stroke-linejoin="round" stroke-width="2.1"/>
          <circle id="Ellipse_3" data-name="Ellipse 3" cx="7.404" cy="7.404" r="7.404" transform="translate(4584.155 -1602.648)" fill="none" stroke="#fff" stroke-linecap="round" stroke-linejoin="round" stroke-width="2.1"/>
          <circle id="Ellipse_4" data-name="Ellipse 4" cx="7.404" cy="7.404" r="7.404" transform="translate(4614.923 -1602.648)" fill="none" stroke="#fff" stroke-linecap="round" stroke-linejoin="round" stroke-width="2.1"/>
          <path id="Path_1565" data-name="Path 1565" d="M4582.268-1576.47a14.24,14.24,0,0,1,11.9-6.408,14.239,14.239,0,0,1,11.859,6.343" transform="translate(-2.46 -0.575)" fill="none" stroke="#fff" stroke-linecap="round" stroke-linejoin="round" stroke-width="2.1"/>
          <path id="Path_1566" data-name="Path 1566" d="M4616.029-1576.47a14.24,14.24,0,0,1,11.9-6.408,14.243,14.243,0,0,1,11.859,6.343" transform="translate(-5.761 -0.575)" fill="none" stroke="#fff" stroke-linecap="round" stroke-linejoin="round" stroke-width="2.1"/>
          <g id="Rectangle_11" data-name="Rectangle 11" transform="translate(4579.012 -1655.213)" fill="none" stroke="#fff" stroke-linecap="round" stroke-miterlimit="10" stroke-width="5">
            <rect width="57.191" height="34.085" rx="4.851" stroke="none"/>
            <rect x="-2.5" y="-2.5" width="62.191" height="39.085" rx="7.351" fill="none"/>
          </g>
          <g id="Group_69" data-name="Group 69" transform="translate(4557.106 -1572.639)">
            <g id="Group_68" data-name="Group 68" clip-path="url(#clip-path)">
              <g id="Rectangle_12" data-name="Rectangle 12" transform="translate(14.318 6.234)" fill="none" stroke="#fff" stroke-linecap="round" stroke-miterlimit="10" stroke-width="5">
                <rect width="71.748" height="34.085" rx="4.851" stroke="none"/>
                <rect x="-2.5" y="-2.5" width="76.748" height="39.085" rx="7.351" fill="none"/>
              </g>
            </g>
          </g>
        </g>
      </g>
      <g id="Group_8-5" data-name="Group 8" transform="translate(868.851 3200.731)">
        <text id="_04._Take_Quizzes_" data-name="04. Take Quizzes
" transform="translate(109.399 27.998)" fill="#fff000" font-size="18" font-family="Poppins-Bold, Poppins" font-weight="700"><tspan x="0" y="0">04. </tspan><tspan y="0" fill="#fff">Take Quizzes</tspan><tspan fill="#fff" font-family="Poppins-Bold"><tspan x="0" y="23"></tspan></tspan></text>
        <text id="Prepare_for_the_largest_coding_championship_in_India_test_your_coding_skills_and_earn_points_just_by_answering_questions._The_more_you_practice_higher_is_the_chance_to_become_a_champion." data-name="Prepare for the largest coding championship in India, test your coding skills and earn points just by answering questions. The more you practice higher is the chance to become a champion." transform="translate(109.199 41.394)" fill="#fff" font-size="16" font-family="Roboto-Light, Roboto" font-weight="300" letter-spacing="0.025em" opacity="0.6"><tspan x="0" y="17">Prepare for the largest coding </tspan><tspan x="0" y="37">championship in India, test </tspan><tspan x="0" y="57">your coding skills and earn </tspan><tspan x="0" y="77">points just by answering </tspan><tspan x="0" y="97">questions. The more you </tspan><tspan x="0" y="117">practice higher is the chance </tspan><tspan x="0" y="137">to become a champion.</tspan></text>
        <path id="Path_1580" data-name="Path 1580" d="M6101.784,542.582c3.45-6.454,6.251-14.2,4.212-21.759a27.967,27.967,0,0,0-13.212-17.079,23.289,23.289,0,0,0-12.176-2.7,34.856,34.856,0,0,0-8.225,1.381c-6.182,1.766-12.525,4.122-16.772,9.78-.257.342-.5.691-.742,1.045-.016.013-.032.025-.047.04-1.938,1.791-3.083,4.554-3.962,7.136a43.045,43.045,0,0,0-2,9.181,16.415,16.415,0,0,0,1.089,8.555,26.049,26.049,0,0,0,5.809,7.947,65.521,65.521,0,0,0,7.272,6.158,22.4,22.4,0,0,0,7.916,4,15.952,15.952,0,0,0,2.826.4,29.491,29.491,0,0,0,6.573-.537,68.1,68.1,0,0,0,8.469-1.737,19.143,19.143,0,0,0,7.1-3.828A27.621,27.621,0,0,0,6101.784,542.582Zm-17.085-1.163a11.393,11.393,0,0,1-5.689.9,20.373,20.373,0,0,1-2.843-.423c-3.186-.69-6.652-2.143-8.85-4.96-2.251-2.886-2.355-6.957-1.885-10.594.44-3.405,1.751-6.776,4.218-8.834,1.73-2.166,4.637-3.343,6.97-4a16.063,16.063,0,0,1,2.892-.558,9.78,9.78,0,0,1,6.089,1.3C6094.439,519.53,6094.092,537.067,6084.7,541.419Z" transform="translate(-6027.729 -449.742)" fill="#ff9eb3"/>
        <g id="Group_71" data-name="Group 71">
          <path id="Path_1567" data-name="Path 1567" d="M977.144,5649.071a7.858,7.858,0,0,0-7.859,7.858v17.936a7.859,7.859,0,0,0,7.859,7.858h1.619a.771.771,0,0,1,.77.771v5.773a.77.77,0,0,0,1.315.544l8.105-6.864a.769.769,0,0,1,.544-.226h11.356a7.859,7.859,0,0,0,7.859-7.858v-17.936a7.858,7.858,0,0,0-7.859-7.858Z" transform="translate(-921.532 -5648.153)" fill="none" stroke="#fff" stroke-linecap="round" stroke-linejoin="round" stroke-width="4"/>
          <line id="Line_19" data-name="Line 19" x2="1.3" y2="1.3" transform="translate(25.889)" fill="none" stroke="#fff" stroke-linecap="round" stroke-linejoin="round" stroke-width="4"/>
          <line id="Line_20" data-name="Line 20" x2="1.3" y2="1.3" transform="translate(32.875 7.016)" fill="none" stroke="#fff" stroke-linecap="round" stroke-linejoin="round" stroke-width="4"/>
          <line id="Line_21" data-name="Line 21" y1="1.3" x2="1.3" transform="translate(25.889 7.016)" fill="none" stroke="#fff" stroke-linecap="round" stroke-linejoin="round" stroke-width="4"/>
          <line id="Line_22" data-name="Line 22" y1="1.3" x2="1.3" transform="translate(32.875)" fill="none" stroke="#fff" stroke-linecap="round" stroke-linejoin="round" stroke-width="4"/>
          <line id="Line_23" data-name="Line 23" y1="0.357" x2="0.357" transform="translate(13.732 11.625)" fill="none" stroke="#fff" stroke-linecap="round" stroke-linejoin="round" stroke-width="4"/>
          <line id="Line_24" data-name="Line 24" y1="0.357" x2="0.357" transform="translate(8.625 16.732)" fill="none" stroke="#fff" stroke-linecap="round" stroke-linejoin="round" stroke-width="4"/>
          <line id="Line_25" data-name="Line 25" x1="0.357" y1="0.357" transform="translate(8.625 11.625)" fill="none" stroke="#fff" stroke-linecap="round" stroke-linejoin="round" stroke-width="4"/>
          <line id="Line_26" data-name="Line 26" x1="0.357" y1="0.357" transform="translate(13.732 16.732)" fill="none" stroke="#fff" stroke-linecap="round" stroke-linejoin="round" stroke-width="4"/>
          <path id="Path_1568" data-name="Path 1568" d="M965.863,5741.516a13.445,13.445,0,0,1-12.538,8.588H931.983a1.161,1.161,0,0,0-.82.339l-11.8,11.8a2.489,2.489,0,0,1-4.249-1.759v-9.221a1.159,1.159,0,0,0-1.159-1.159h-2.137a13.442,13.442,0,0,1-13.441-13.442v-36a13.441,13.441,0,0,1,13.441-13.44h26.715" transform="translate(-898.377 -5660.412)" fill="none" stroke="#fff" stroke-linecap="round" stroke-linejoin="round" stroke-width="4"/>
          <path id="Path_1569" data-name="Path 1569" d="M943.94,5736.47v-1.942a5.506,5.506,0,0,1,3.613-5.1,9.5,9.5,0,0,0,6.158-9.092,9.742,9.742,0,0,0-9.493-9.22,9.893,9.893,0,0,0-7.464,3.055,9.429,9.429,0,0,0-2.12,3.524" transform="translate(-910.16 -5668.089)" fill="none" stroke="#fff" stroke-linecap="round" stroke-linejoin="round" stroke-width="4"/>
          <line id="Line_27" data-name="Line 27" y1="0.328" transform="translate(33.769 75.233)" fill="none" stroke="#fff" stroke-linecap="round" stroke-linejoin="round" stroke-width="4"/>
          <path id="Path_1570" data-name="Path 1570" d="M995.9,5673.308v-.333a2.792,2.792,0,0,1,1.832-2.585,4.814,4.814,0,0,0,3.123-4.611,4.941,4.941,0,0,0-4.815-4.676,5.016,5.016,0,0,0-3.786,1.55,4.777,4.777,0,0,0-1.074,1.787" transform="translate(-928.499 -5652.018)" fill="none" stroke="#fff" stroke-linecap="round" stroke-linejoin="round" stroke-width="4"/>
          <line id="Line_28" data-name="Line 28" y1="0.166" transform="translate(67.419 26.077)" fill="none" stroke="#fff" stroke-linecap="round" stroke-linejoin="round" stroke-width="4"/>
        </g>
      </g>
      <g id="Group_8-6" data-name="Group 8" transform="translate(511.211 3208.729)">
        <path id="Path_1581" data-name="Path 1581" d="M4455.143,644.642a21.448,21.448,0,0,0,.023-5.568c-.231-1.563-.685-3.953-2.541-4.337-1.917-.4-3.424,1.632-4.415,2.959a18.964,18.964,0,0,0-2.567,4.843,24.843,24.843,0,0,0-1.067,11.86,45.9,45.9,0,0,0,3.736,12.372c1.617,3.642,3.839,7.132,7.25,9.329,3.624,2.334,7.716,2.184,11.78,1.272a35.3,35.3,0,0,0,10.043-4.005c13.716-8.023,21.608-23.865,21.413-39.553-.036-2.948-.091-9.046-4.531-8.67-1.887.16-3.587,1.917-4.935,3.105a37.406,37.406,0,0,0-4.394,4.595c-2.664,3.31-4.753,4.56-6.779,8.281-1.022,1.878-2.012,3.782-3.119,5.612-.412.681-.983,1.625-1.79,1.878-1.1.344-1.558-1.164-1.719-1.982-.414-2.091.24-4.293.513-6.363a15.783,15.783,0,0,0,.292-4.38c-.084-1.721.031-4.266-1.274-5.6a3.773,3.773,0,0,0-4.2-.5c-3.366,1.408-4.743,5.493-5.409,8.774-.815,4.015-1.309,5.653-1.948,9.7-.1.367-.2.73-.326,1.087-.361.527-.825-.238-1.439-.126-1.27.231-2.1,1.142-2.568-.01A24.947,24.947,0,0,1,4455.143,644.642Z" transform="translate(-4424.517 -592.73)" fill="#ff4313"/>
        <text id="_05._Qualifier_Stage" data-name="05. Qualifier Stage" transform="translate(111.038 19)" fill="#fff000" font-size="18" font-family="Poppins-Bold, Poppins" font-weight="700"><tspan x="0" y="0">05. </tspan><tspan y="0" fill="#fff">Qualifier Stage</tspan></text>
        <text id="Cross_this_hurdle_to_compete_with_the_best_in_the_country._All_participants_at_this_stage_will_get_certificate_of_achievement_and_a_chance_to_appear_in_the_Finale_and_become_Codeathon_Champion." data-name="Cross this hurdle to compete with the best in the country.
All participants at this stage will get certificate of achievement and a chance to appear in the Finale and become Codeathon Champion." transform="translate(110.838 32.396)" fill="#fff" font-size="16" font-family="Roboto-Light, Roboto" font-weight="300" letter-spacing="0.025em" opacity="0.6"><tspan x="0" y="17">Cross this hurdle to compete </tspan><tspan x="0" y="37">with the best in the country.</tspan><tspan x="0" y="57">All participants at this stage </tspan><tspan x="0" y="77">will get certificate of </tspan><tspan x="0" y="97">achievement and a chance to </tspan><tspan x="0" y="117">appear in the Finale and </tspan><tspan x="0" y="137">become Codeathon Champion.</tspan></text>
        <g id="Group_72" data-name="Group 72" transform="translate(0 6.957)">
          <path id="Path_1571" data-name="Path 1571" d="M960.445,361.111h31.628a.942.942,0,1,1,0,1.885h-2.21V403.42a.948.948,0,0,1-.953.942H900.656a.948.948,0,0,1-.952-.942V355.758h-2.21a.943.943,0,1,1,0-1.885h31.627V327.945h-2.209a.942.942,0,1,1,0-1.885h35.741a.942.942,0,1,1,0,1.885h-2.21v33.166Zm-1.9,41.367V327.945H931.027v74.533Zm-29.418-46.72H901.609v46.72h27.513v-46.72ZM987.958,363H960.445v39.483h27.514Z" transform="translate(-896.542 -326.06)" fill="#fff" stroke="#fff" stroke-miterlimit="10" stroke-width="4" fill-rule="evenodd"/>
          <path id="Path_1572" data-name="Path 1572" d="M1085.107,448.6h6.444v3.229h-5.329a.974.974,0,1,0,0,1.949h5.329v3.229h-6.444a.974.974,0,1,0,0,1.949h6.444a1.943,1.943,0,0,0,1.373-.571l0,0a1.943,1.943,0,0,0,.571-1.373V448.6a1.939,1.939,0,0,0-.5-1.3.959.959,0,0,0-.069-.077,1.944,1.944,0,0,0-1.377-.571h-6.444a.974.974,0,1,0,0,1.948Z" transform="translate(-1011.589 -400.45)" fill="#fff" fill-rule="evenodd"/>
          <rect id="Rectangle_14" data-name="Rectangle 14" width="0.001" height="0.001" transform="translate(79.965 56.503) rotate(-40.914)" fill="#fff"/>
          <path id="Path_1573" data-name="Path 1573" d="M1102.75,472.64h0v0h0l0,0Z" transform="translate(-1022.785 -416.137)" fill="#fff" fill-rule="evenodd"/>
          <path id="Path_1574" data-name="Path 1574" d="M930.356,428.335H936.8v3.228h-5.469a1.951,1.951,0,0,0-1.949,1.949v3.229a1.944,1.944,0,0,0,.571,1.377,1.013,1.013,0,0,0,.077.069,1.939,1.939,0,0,0,1.3.5h6.444a.974.974,0,0,0,0-1.949h-6.444v-3.229H936.8a1.944,1.944,0,0,0,1.373-.571l0,0a1.943,1.943,0,0,0,.571-1.373v-3.229a1.939,1.939,0,0,0-.5-1.3.966.966,0,0,0-.069-.077,1.944,1.944,0,0,0-1.377-.571h-6.444a.974.974,0,1,0,0,1.949Z" transform="translate(-916.295 -387.947)" fill="#fff" fill-rule="evenodd"/>
          <rect id="Rectangle_15" data-name="Rectangle 15" width="0.001" height="0.001" transform="translate(20.048 43.682) rotate(-42.709)" fill="#fff"/>
          <path id="Path_1575" data-name="Path 1575" d="M948,439.379h0v0h0l0,0Z" transform="translate(-927.951 -395.698)" fill="#fff" fill-rule="evenodd"/>
          <path id="Path_1576" data-name="Path 1576" d="M1019.876,380.149V366.207a.974.974,0,1,0-1.948,0v13.942a.974.974,0,1,0,1.948,0Z" transform="translate(-970.661 -350.257)" fill="#fff" stroke="#fff" stroke-miterlimit="10" stroke-width="4" fill-rule="evenodd"/>
        </g>
      </g>
      <g id="Group_73" data-name="Group 73" opacity="0.5">
        <path id="Path_1583" data-name="Path 1583" d="M3796.885,3138.015s86.126,33.525,150.974-34.033" transform="translate(-3407.1 -6)" fill="none" stroke="#fff" stroke-linecap="round" stroke-width="1" stroke-dasharray="6"/>
        <path id="Path_1588" data-name="Path 1588" d="M179.93,334.392l8.3,6.748-8.3,6.748" transform="translate(161.46 3008.832) rotate(-48)" fill="none" stroke="#fff" stroke-linecap="round" stroke-linejoin="round" stroke-width="1"/>
      </g>
      <g id="Group_74" data-name="Group 74" opacity="0.5">
        <path id="Path_1587" data-name="Path 1587" d="M4039.12,3206.731s-99.964-84.722-190.408,18.932" transform="translate(-3424 -6)" fill="none" stroke="#fff" stroke-linecap="round" stroke-width="1" stroke-dasharray="6"/>
        <path id="Path_1589" data-name="Path 1589" d="M179.93,334.392l8.3,6.748-8.3,6.748" transform="translate(800.099 3326.721) rotate(135)" fill="none" stroke="#fff" stroke-linecap="round" stroke-linejoin="round" stroke-width="1"/>
      </g>
      <g id="Group_75" data-name="Group 75" opacity="0.5">
        <path id="Path_1586" data-name="Path 1586" d="M4392,3381.5c-3.38,0-46.266-32.707-119.5,22.5s-241,48-282-86" transform="translate(-3424 -6)" fill="none" stroke="#fff" stroke-linecap="round" stroke-width="1" stroke-dasharray="6"/>
        <path id="Path_1590" data-name="Path 1590" d="M179.93,334.392l8.3,6.748-8.3,6.748" transform="translate(294.087 3587.777) rotate(-107)" fill="none" stroke="#fff" stroke-linecap="round" stroke-linejoin="round" stroke-width="1"/>
      </g>
      <g id="Group_76" data-name="Group 76" opacity="0.5">
        <path id="Path_1585" data-name="Path 1585" d="M3796.885,3157.333s83.568,52.556,146.491-53.351" transform="matrix(0.616, -0.788, 0.788, 0.616, -3661.716, 4272.868)" fill="none" stroke="#fff" stroke-linecap="round" stroke-width="1" stroke-dasharray="6"/>
        <path id="Path_1591" data-name="Path 1591" d="M179.93,334.392l8.3,6.748-8.3,6.748" transform="matrix(-0.94, 0.342, -0.342, -0.94, 1455.157, 3481.609)" fill="none" stroke="#fff" stroke-linecap="round" stroke-linejoin="round" stroke-width="1"/>
      </g>
      <g id="Group_77" data-name="Group 77" opacity="0.5">
        <path id="Path_1584" data-name="Path 1584" d="M4176.574,2963.873s131.5-108.886,270.4-11.992" transform="translate(-3394.707 -6)" fill="none" stroke="#fff" stroke-linecap="round" stroke-width="1" stroke-dasharray="6"/>
        <path id="Path_1592" data-name="Path 1592" d="M179.93,334.392l8.3,6.748-8.3,6.748" transform="translate(1075.169 2557.15) rotate(32)" fill="none" stroke="#fff" stroke-linecap="round" stroke-linejoin="round" stroke-width="1"/>
      </g>
    </g>
  </g>
</svg>
