<svg xmlns="http://www.w3.org/2000/svg" xmlns:xlink="http://www.w3.org/1999/xlink" width="1124" height="329" viewBox="0 0 1124 329">
  <defs>
    <clipPath id="clip-Artboard_12">
      <rect width="1124" height="329"/>
    </clipPath>
  </defs>
  <g id="Artboard_12" data-name="Artboard – 12" clip-path="url(#clip-Artboard_12)">
    <g id="Group_162" data-name="Group 162" transform="translate(447.803 -1790.932)">
      <path id="Path_72" data-name="Path 72" d="M135.059,14c11.331-1.135,22.664-2.229,34.008-3.161,16.275-1.34,32.571-2.345,48.9-2.651C294.2,6.763,370.489,5.932,446.732,6.836c74.458.884,148.9,7.186,223.343,6.17,68.643-.936,137.551-6.792,206.419-10.333C909.9,4.913,944.314,6.258,977.387,0q7.3.047,14.585.187a540.687,540.687,0,0,0,5.5,58.6c.507,24.6,1.211,49.179,2.9,73.691-126.817-.733-253.592,4.382-380.215,11.085-136.9,7.247-273.509,4.291-410.492,2.018C140,144.423,70.219,142.327.522,141.879-.393,101.859.426,61.793,0,21.755,45.164,23.649,90.077,18.509,135.059,14Z" transform="translate(-332.495 1822.038) rotate(-1.61)" fill="#ffcf00" opacity="0.7"/>
      <path id="Path_73" data-name="Path 73" d="M100.951,10.467c8.469-.848,16.94-1.666,25.42-2.363,12.165-1,24.345-1.753,36.549-1.981C219.9,5.055,276.924,4.434,333.913,5.109c55.654.661,111.294,5.371,166.94,4.612C552.16,9.022,603.665,4.645,655.141,2c24.972,1.675,50.693,2.681,75.413-2q5.453.035,10.9.139a404.153,404.153,0,0,0,4.114,43.8c.379,18.385.906,36.76,2.17,55.081-94.79-.548-189.549,3.275-284.194,8.286-102.324,5.417-204.436,3.207-306.825,1.509C104.641,107.95,52.486,106.383.39,106.048-.294,76.135.318,46.187,0,16.261,33.758,17.677,67.329,13.835,100.951,10.467Z" transform="translate(-291.056 1878.038) rotate(-1.61)" fill="#ffcf00" opacity="0.7"/>
      <path id="Path_74" data-name="Path 74" d="M135.059,14c11.331-1.135,22.664-2.229,34.008-3.161,16.275-1.34,32.571-2.345,48.9-2.651C294.2,6.763,370.489,5.932,446.732,6.836c74.458.884,148.9,7.186,223.343,6.17,68.643-.936,137.551-6.792,206.419-10.333C909.9,4.913,944.314,6.258,977.387,0q7.3.047,14.585.187a540.687,540.687,0,0,0,5.5,58.6c.507,24.6,1.211,49.179,2.9,73.691-126.817-.733-253.592,4.382-380.215,11.085-136.9,7.247-273.509,4.291-410.492,2.018C140,144.423,70.219,142.327.522,141.879-.393,101.859.426,61.793,0,21.755,45.164,23.649,90.077,18.509,135.059,14Z" transform="matrix(0.999, -0.052, 0.052, 0.999, -443.803, 1975.235)" fill="#ffcf00" opacity="0.7"/>
    </g>
  </g>
</svg>
