<svg xmlns="http://www.w3.org/2000/svg" xmlns:xlink="http://www.w3.org/1999/xlink" width="1360" height="16" viewBox="0 0 1360 16">
  <defs>
    <clipPath id="clip-Artboard_4">
      <rect width="1360" height="16"/>
    </clipPath>
  </defs>
  <g id="Artboard_4" data-name="Artboard – 4" clip-path="url(#clip-Artboard_4)">
    <path id="Path_1737" data-name="Path 1737" d="M753.915-711.6V-31.69c-1.655-.109-3.311-.319-4.965-.314q-140.176.392-280.353.846c-42.474.167-84.947.751-127.422.942-72.281.324-144.562.966-216.811-2.416C79.8-34.718,35.211-36.546-9.386-37.761c-36.275-.988-72.588-1.578-108.868-1.1-43.434.576-86.856,2.322-130.272,3.857-30.271,1.07-60.519,2.8-90.788,3.931q-39.186,1.458-78.4,2.182c-26.474.487-52.973,1.224-79.432.612-38.27-.886-76.514-2.888-114.769-4.413V-717.595c1.321.114,2.641.318,3.962.329q125.448,1.009,250.894,2.062c20.307.2,40.6,1.286,60.906,2.017,34.781,1.252,69.551,3.185,104.342,3.667,47.969.664,95.954.51,143.929.187,26.974-.182,53.942-1.387,80.912-2.176,9.485-.278,18.967-.686,28.449-1.043,31.61-1.191,63.211-2.7,94.83-3.49,30.977-.772,61.974-1.193,92.96-1.076,44.311.168,88.621.856,132.928,1.529,34.808.529,69.614,1.294,104.418,2.1,41.127.948,82.247,2.668,123.377,2.922C657.962-710.274,705.94-711.2,753.915-711.6Z" transform="translate(611.54 43.595)" fill="#004ba6"/>
  </g>
</svg>
