<svg xmlns="http://www.w3.org/2000/svg" xmlns:xlink="http://www.w3.org/1999/xlink" width="953" height="908" viewBox="0 0 953 908">
  <defs>
    <clipPath id="clip-Artboard_1">
      <rect width="953" height="908"/>
    </clipPath>
  </defs>
  <g id="Artboard_1" data-name="Artboard – 1" clip-path="url(#clip-Artboard_1)">
    <path id="Path_1523" data-name="Path 1523" d="M6172.2,1308.527c-56.233-105.222-101.9-231.537-68.663-354.731,32.571-120.7,115.1-224.149,215.383-278.436,63.391-34.319,130.732-46.585,198.519-44.011,44.841,1.7,89.868,9.881,134.086,22.518C6752.309,682.66,6855.714,721.06,6924.95,813.3q6.274,8.361,12.1,17.049c.255.214.519.408.771.647,31.614,29.2,50.276,74.237,64.587,116.34,16.333,48.029,27,98.65,32.536,149.673,5.3,48.863,1.689,94.708-17.751,139.466-21.919,50.464-57.577,92.862-94.7,129.573-37.048,36.641-77.3,70.062-118.566,100.395-39.624,29.115-82.439,54.13-129.036,65.191a260.772,260.772,0,0,1-46.073,6.516c-35.7,1.958-71.265-2.624-107.151-8.758-46.2-7.89-92.875-14.532-138.072-28.311-41.719-12.712-81.487-32.461-115.785-62.4C6227.661,1403.611,6198.2,1357.19,6172.2,1308.527Zm233.3,61.72c43,18.606,89.09,23.094,134.961,20a516.772,516.772,0,0,0,67.427-9.366c75.588-15.292,157.8-47.47,209.918-109.887,53.405-63.948,55.892-154.142,44.733-234.707-10.454-75.449-41.545-150.119-100.032-195.7-41.061-48-110.014-74.062-165.352-88.669a405.266,405.266,0,0,0-68.608-12.348c-49.431-4.237-98.061,2.906-144.443,28.788C6174.438,885.315,6182.692,1273.838,6405.5,1370.247Z" transform="translate(-6092.375 -630.717)" fill="#fff" opacity="0.1"/>
  </g>
</svg>
