<svg xmlns="http://www.w3.org/2000/svg" xmlns:xlink="http://www.w3.org/1999/xlink" width="478" height="108" viewBox="0 0 478 108">
  <defs>
    <clipPath id="clip-Artboard_3">
      <rect width="478" height="108"/>
    </clipPath>
  </defs>
  <g id="Artboard_3" data-name="Artboard – 3" clip-path="url(#clip-Artboard_3)">
    <g id="Group_160" data-name="Group 160" transform="translate(-449.725 -5388.327)">
      <g id="Group_51" data-name="Group 51" transform="translate(454.516 5388.996)" opacity="0.61">
        <path id="Path_72" data-name="Path 72" d="M57.254,48.061c4.8.379,9.606.744,14.414,1.051,6.9.442,13.806.765,20.729.841,32.322.355,64.671.5,97,.028,31.574-.46,63.151-2.836,94.717-2.624,29.1.2,58.312,2.131,87.508,3.248,14.171-.859,28.765-1.4,42.776.746q3.093-.031,6.185-.095a161.123,161.123,0,0,1,2.45-20.742c.264-8.7.611-17.4,1.377-26.077-53.776.51-107.522-1.049-161.2-3.171-58.034-2.293-115.968-.978-174.057.1C59.6,1.91,30.013,2.789.459,3.085-.009,17.246.26,31.419,0,45.585,19.155,44.826,38.189,46.556,57.254,48.061Z" transform="translate(424.306 63.202) rotate(-178.39)" fill="#ffcf00" opacity="0.7"/>
        <path id="Path_73" data-name="Path 73" d="M42.795,35.923c3.59.283,7.18.556,10.774.786,5.156.33,10.32.572,15.494.629,24.159.265,48.339.372,72.5.021,23.6-.344,47.2-2.12,70.8-1.961,21.755.146,43.586,1.593,65.408,2.428,10.592-.642,21.5-1.049,31.974.558q2.312-.023,4.623-.071a120.445,120.445,0,0,1,1.831-15.5c.2-6.505.457-13.007,1.029-19.491-40.2.381-80.368-.784-120.491-2.37-43.378-1.714-86.681-.731-130.1.072C44.552,1.427,22.434,2.085.343,2.306-.006,12.891.194,23.485,0,34.073,14.317,33.505,28.545,34.8,42.795,35.923Z" transform="translate(407.121 59.109) rotate(-178.39)" fill="#ffcf00" opacity="0.7"/>
        <path id="Path_74" data-name="Path 74" d="M57.222,48.641c4.8.36,9.6.706,14.4.994,6.894.414,13.8.71,20.717.758,32.309.225,64.646.239,96.968-.361,31.566-.587,63.143-3.091,94.7-3,29.094.079,58.282,1.9,87.462,2.9,14.17-.916,28.762-1.519,42.758.575q3.092-.043,6.183-.12a161.8,161.8,0,0,1,2.549-20.76c.305-8.707.694-17.41,1.5-26.092C370.7,4.254,316.982,2.91,263.332,1c-58-2.061-115.923-.513-174,.795C59.794,2.463,30.209,3.462.663,3.876.128,18.044.328,32.222,0,46.393,19.152,45.557,38.171,47.211,57.222,48.641Z" transform="translate(470.139 109.66) rotate(-177)" fill="#ffcf00" opacity="0.7"/>
      </g>
      <g id="Group_52" data-name="Group 52" transform="matrix(0.998, 0.07, -0.07, 0.998, 454.544, 5421.365)" opacity="0.61">
        <path id="Path_72-2" data-name="Path 72" d="M48.118,5.973c4.034-.448,8.07-.881,12.108-1.257,5.794-.54,11.593-.962,17.4-1.137,27.114-.815,54.246-1.419,81.352-1.409,26.471.01,52.91,1.938,79.386,1.276,24.412-.61,48.943-2.962,73.448-4.495,11.869.657,24.1.993,35.888-1.355q2.594-.013,5.185.007a189.14,189.14,0,0,0,1.673,20.711c.061,8.7.192,17.4.675,26.062-45.09.256-90.193,2.581-135.25,5.467-48.712,3.12-97.275,2.629-145.972,2.382-24.77-.126-49.571-.584-74.352-.459-.131-14.156.354-28.336.4-42.5C16.106,9.751,32.1,7.75,48.118,5.973Z" transform="translate(356.301 52.948) rotate(178.39)" fill="#ffcf00" opacity="0.7"/>
        <path id="Path_73-2" data-name="Path 73" d="M42.769,3.408c3.593-.325,7.187-.639,10.784-.911,5.161-.39,10.327-.692,15.5-.808,24.161-.545,48.339-.932,72.5-.86C165.146.9,188.721,2.4,212.315,1.972c21.755-.4,43.6-2.1,65.436-3.185,10.582.52,21.484.8,31.978-.928q2.312,0,4.622.017a119.5,119.5,0,0,0,1.616,15.487c.107,6.5.276,13,.759,19.484-40.186.084-80.372,1.715-120.512,3.765-43.4,2.217-86.683,1.734-130.087,1.433-22.078-.153-44.185-.555-66.271-.52-.2-10.583.145-21.182.1-31.771C14.26,6.156,28.5,4.7,42.769,3.408Z" transform="translate(338.625 45.103) rotate(178.39)" fill="#ffcf00" opacity="0.7"/>
        <path id="Path_74-2" data-name="Path 74" d="M48.365,7.32c4.039-.447,8.078-.879,12.121-1.254,5.8-.539,11.606-.96,17.419-1.133,27.143-.81,54.305-1.41,81.441-1.4,26.5.014,52.969,1.944,79.474,1.287,24.439-.606,49-2.953,73.529-4.481,11.882.659,24.125,1,35.928-1.349q2.6-.013,5.191.008a188.727,188.727,0,0,0,1.678,20.7c.063,8.7.2,17.386.68,26.046-45.14.249-90.293,2.566-135.4,5.444C171.662,54.3,123.046,53.8,74.295,53.548c-24.8-.129-49.626-.591-74.434-.47C-.273,38.93.211,24.759.251,10.6,16.319,11.091,32.332,9.094,48.365,7.32Z" transform="translate(403.828 49.409) rotate(177)" fill="#ffcf00" opacity="0.7"/>
      </g>
      <rect id="Rectangle_5" data-name="Rectangle 5" width="397" height="69.724" transform="translate(490 5412.175)" fill="#ffcd35"/>
    </g>
  </g>
</svg>
