<svg xmlns="http://www.w3.org/2000/svg" xmlns:xlink="http://www.w3.org/1999/xlink" width="86" height="124" viewBox="0 0 86 124">
  <defs>
    <clipPath id="clip-path">
      <rect id="Rectangle_13" data-name="Rectangle 13" width="96.923" height="32.681" fill="none"/>
    </clipPath>
    <clipPath id="clip-Artboard_2">
      <rect width="86" height="124"/>
    </clipPath>
  </defs>
  <g id="Artboard_2" data-name="Artboard – 2" clip-path="url(#clip-Artboard_2)">
    <g id="Group_147" data-name="Group 147" transform="translate(-876.338 -2950.873)">
      <path id="Path_1579" data-name="Path 1579" d="M5128.231,586.526c6.378,3.366,12.517,5.352,19.773,4.2a70.881,70.881,0,0,0,19.044-5.736c10.53-4.977,24.594-17.172,19.988-29.773a21.218,21.218,0,0,0-5.228-8.872c-5.057-5.062-11.878-3.627-17.639-.685-2.77,1.413-5.5,3.035-8.615,3.532-3.459.551-6.992.032-10.473.04a28.233,28.233,0,0,0-17.489,6.084c-4.976,3.944-9.135,9.706-9.361,16.248C5117.988,578.64,5122.276,583.385,5128.231,586.526Z" transform="translate(-4235.231 2485.003)" fill="#ff4313"/>
      <g id="Group_70" data-name="Group 70" transform="translate(-3687.769 4613.086)">
        <path id="Path_1564" data-name="Path 1564" d="M4609.239-1632.528l7.48-5.642-7.48-5.642Z" transform="translate(-4.244)" fill="#fff" stroke="#fff" stroke-linecap="round" stroke-linejoin="round" stroke-width="2.1"/>
        <circle id="Ellipse_3" data-name="Ellipse 3" cx="7.404" cy="7.404" r="7.404" transform="translate(4584.155 -1602.648)" fill="none" stroke="#fff" stroke-linecap="round" stroke-linejoin="round" stroke-width="2.1"/>
        <circle id="Ellipse_4" data-name="Ellipse 4" cx="7.404" cy="7.404" r="7.404" transform="translate(4614.923 -1602.648)" fill="none" stroke="#fff" stroke-linecap="round" stroke-linejoin="round" stroke-width="2.1"/>
        <path id="Path_1565" data-name="Path 1565" d="M4582.268-1576.47a14.24,14.24,0,0,1,11.9-6.408,14.239,14.239,0,0,1,11.859,6.343" transform="translate(-2.46 -0.575)" fill="none" stroke="#fff" stroke-linecap="round" stroke-linejoin="round" stroke-width="2.1"/>
        <path id="Path_1566" data-name="Path 1566" d="M4616.029-1576.47a14.24,14.24,0,0,1,11.9-6.408,14.243,14.243,0,0,1,11.859,6.343" transform="translate(-5.761 -0.575)" fill="none" stroke="#fff" stroke-linecap="round" stroke-linejoin="round" stroke-width="2.1"/>
        <g id="Rectangle_11" data-name="Rectangle 11" transform="translate(4579.012 -1655.213)" fill="none" stroke="#fff" stroke-linecap="round" stroke-miterlimit="10" stroke-width="5">
          <rect width="57.191" height="34.085" rx="4.851" stroke="none"/>
          <rect x="-2.5" y="-2.5" width="62.191" height="39.085" rx="7.351" fill="none"/>
        </g>
        <g id="Group_69" data-name="Group 69" transform="translate(4557.106 -1572.639)">
          <g id="Group_68" data-name="Group 68" clip-path="url(#clip-path)">
            <g id="Rectangle_12" data-name="Rectangle 12" transform="translate(14.318 6.234)" fill="none" stroke="#fff" stroke-linecap="round" stroke-miterlimit="10" stroke-width="5">
              <rect width="71.748" height="34.085" rx="4.851" stroke="none"/>
              <rect x="-2.5" y="-2.5" width="76.748" height="39.085" rx="7.351" fill="none"/>
            </g>
          </g>
        </g>
      </g>
    </g>
  </g>
</svg>
