<svg xmlns="http://www.w3.org/2000/svg" xmlns:xlink="http://www.w3.org/1999/xlink" width="144" height="48" viewBox="0 0 144 48">
  <defs>
    <clipPath id="clip-Artboard_4">
      <rect width="144" height="48"/>
    </clipPath>
  </defs>
  <g id="Artboard_4" data-name="Artboard – 4" clip-path="url(#clip-Artboard_4)">
    <path id="Union_14" data-name="Union 14" d="M-2702.764,46.19c-9.761-.808-19.528-2.144-29.258-2.357-10.552-.232-21.1,1.206-31.658,1.408-10.807.206-21.621-1.165-32.426-1.491a68.8,68.8,0,0,1-6.931-.6c-1.607-.212-17.289-.46-23.963-1.308.053-8.036-.03-16.077.037-24.11H-2827q.021-.293.041-.586.012-1.355.031-2.71h.125c.105-2.185.166-4.374.213-6.563a68.63,68.63,0,0,0,.781-7.841q1.033-.019,2.067-.025a60.18,60.18,0,0,0,14.3.357c9.76.474,19.528,1.257,29.257,1.382,10.552.136,21.1-.707,31.657-.825,10.807-.121,21.621.684,32.426.875,2.314.041,4.624.176,6.931.355,1.608.125,17.29.27,23.964.767-.051,4.555.025,9.111-.031,13.665h.03q-.024.564-.046,1.128-.011.641-.026,1.281h-.022c-.173,4.794-.256,9.6-.317,14.4-.4,4.447-.689,8.908-.78,13.369q-1.033.031-2.067.042C-2693.151,45.372-2698.028,45.679-2702.764,46.19Z" transform="translate(2828 0.6)" fill="#ffcf00" stroke="rgba(0,0,0,0)" stroke-miterlimit="10" stroke-width="1"/>
  </g>
</svg>
