<svg xmlns="http://www.w3.org/2000/svg" xmlns:xlink="http://www.w3.org/1999/xlink" width="1017" height="245" viewBox="0 0 1017 245">
  <defs>
    <clipPath id="clip-Artboard_2">
      <rect width="1017" height="245"/>
    </clipPath>
  </defs>
  <g id="Artboard_2" data-name="Artboard – 2" clip-path="url(#clip-Artboard_2)">
    <g id="Group_149" data-name="Group 149" transform="translate(-4061.615 -1171.437)">
      <path id="Path_1758" data-name="Path 1758" d="M127.295,13.2c10.679-1.07,21.361-2.1,32.053-2.979,15.34-1.263,30.7-2.21,46.086-2.5C277.284,6.374,349.19,5.591,421.05,6.442c70.178.833,140.338,6.773,210.5,5.815,64.7-.882,129.644-6.4,194.553-9.739C857.6,4.63,890.027,5.9,921.2,0q6.875.044,13.746.176A509.6,509.6,0,0,0,940.133,55.4c.478,23.183,1.142,46.352,2.737,69.455-119.526-.691-239.014,4.13-358.357,10.448-129.026,6.83-257.785,4.044-386.893,1.9C131.948,136.12,66.183,134.145.492,133.722-.371,96,.4,58.24,0,20.5,42.568,22.29,84.9,17.445,127.295,13.2Z" transform="matrix(0.998, 0.057, -0.057, 0.998, 4071.506, 1226.831)" fill="#696eb7" opacity="0.7"/>
      <path id="Path_1757" data-name="Path 1757" d="M127.295,13.2c10.679-1.07,21.361-2.1,32.053-2.979,15.34-1.263,30.7-2.21,46.086-2.5C277.284,6.374,349.19,5.591,421.05,6.442c70.178.833,140.338,6.773,210.5,5.815,64.7-.882,129.644-6.4,194.553-9.739C857.6,4.63,890.027,5.9,921.2,0q6.875.044,13.746.176A509.6,509.6,0,0,0,940.133,55.4c.478,23.183,1.142,46.352,2.737,69.455-119.526-.691-239.014,4.13-358.357,10.448-129.026,6.83-257.785,4.044-386.893,1.9C131.948,136.12,66.183,134.145.492,133.722-.371,96,.4,58.24,0,20.5,42.568,22.29,84.9,17.445,127.295,13.2Z" transform="matrix(0.998, 0.057, -0.057, 0.998, 4139.506, 1161.437)" fill="#696eb7" opacity="0.9"/>
    </g>
  </g>
</svg>
