<svg xmlns="http://www.w3.org/2000/svg" width="16" height="15" viewBox="0 0 16 15">
  <g id="Group_18847" data-name="Group 18847" transform="translate(-17665 -827)">
    <g id="Polygon_6" data-name="Polygon 6" transform="translate(17665 827)" fill="none">
      <path d="M6.235,3.309a2,2,0,0,1,3.529,0l4.667,8.75A2,2,0,0,1,12.667,15H3.333a2,2,0,0,1-1.765-2.941Z" stroke="none"/>
      <path d="M 7.999999046325684 3.25 C 7.819599151611328 3.25 7.372479438781738 3.301589965820313 7.11763858795166 3.779410362243652 L 2.450979232788086 12.52941036224365 C 2.210498809814453 12.98031044006348 2.388249397277832 13.36852073669434 2.475838661193848 13.51449966430664 C 2.563419342041016 13.6604700088501 2.822309494018555 14 3.333329200744629 14 L 12.66666889190674 14 C 13.17768859863281 14 13.43657875061035 13.6604700088501 13.5241584777832 13.51449966430664 C 13.61174869537354 13.36852073669434 13.78949928283691 12.98031044006348 13.54901885986328 12.52941036224365 L 8.882358551025391 3.779419898986816 C 8.627509117126465 3.301589965820313 8.180398941040039 3.25 7.999999046325684 3.25 M 7.999995231628418 2.25 C 8.694114685058594 2.25 9.38823413848877 2.602940559387207 9.76470947265625 3.308819770812988 L 14.43136882781982 12.0588207244873 C 15.14188861846924 13.39103984832764 14.17650890350342 15 12.66666889190674 15 L 3.333329200744629 15 C 1.823489189147949 15 0.8581094741821289 13.39103984832764 1.568629264831543 12.0588207244873 L 6.235288619995117 3.308819770812988 C 6.611759185791016 2.602940559387207 7.305876731872559 2.25 7.999995231628418 2.25 Z" stroke="none" fill="#f11"/>
    </g>
    <path id="Path_35247" data-name="Path 35247" d="M17810,663.333v4.749" transform="translate(-137.116 168.952)" fill="none" stroke="#f11" stroke-linecap="round" stroke-width="1"/>
    <g id="Ellipse_480" data-name="Ellipse 480" transform="translate(17672 838)" fill="none" stroke="#f11" stroke-width="1">
      <circle cx="1" cy="1" r="1" stroke="none"/>
      <circle cx="1" cy="1" r="0.5" fill="none"/>
    </g>
  </g>
</svg>
