<svg xmlns="http://www.w3.org/2000/svg" xmlns:xlink="http://www.w3.org/1999/xlink" width="179" height="54" viewBox="0 0 179 54">
  <defs>
    <clipPath id="clip-path">
      <path id="Path_24" data-name="Path 24" d="M356.35,13.59a16.624,16.624,0,0,1,8.306,14.472,16.7,16.7,0,1,1-31.175-8.4,16.812,16.812,0,0,1,22.87-6.075Z" transform="translate(-331.25 -11.36)"/>
    </clipPath>
    <clipPath id="clip-Artboard_1">
      <rect width="179" height="54"/>
    </clipPath>
  </defs>
  <g id="Artboard_1" data-name="Artboard – 1" clip-path="url(#clip-Artboard_1)">
    <path id="Path_1" data-name="Path 1" d="M114.914,20.54a20.223,20.223,0,0,0,2.473,1.161,34.665,34.665,0,0,1,4.35,2.079,9.92,9.92,0,0,1,3.129,2.974,8.337,8.337,0,0,1,1.356,4.878,9.155,9.155,0,0,1-5.427,8.616,13.741,13.741,0,0,1-5.948,1.225,15.924,15.924,0,0,1-5.6-1.137,31.45,31.45,0,0,1-5.6-2.755l3.149-7.566a44.956,44.956,0,0,0,4.286,2.318,8.324,8.324,0,0,0,3.149.962,3.33,3.33,0,0,0,1.817-.437,1.378,1.378,0,0,0,.68-1.225q0-.567-.763-1.026a20.4,20.4,0,0,0-2.469-1.161,29.772,29.772,0,0,1-4.286-2.056,9.97,9.97,0,0,1-3.081-3,8.419,8.419,0,0,1-1.336-4.878,9.756,9.756,0,0,1,1.376-5.181,9.1,9.1,0,0,1,3.916-3.479,13.345,13.345,0,0,1,5.861-1.225,15.6,15.6,0,0,1,5.379,1.026,24.74,24.74,0,0,1,5.073,2.517l-3.193,7.26a19.024,19.024,0,0,0-3.411-1.793,9.116,9.116,0,0,0-3.411-.743,2.736,2.736,0,0,0-1.618.437,1.372,1.372,0,0,0-.612,1.181C114.15,19.892,114.4,20.234,114.914,20.54Z" transform="translate(-62.704 -5.801)" fill="#38bbd1"/>
    <path id="Path_2" data-name="Path 2" d="M189.058,38.946a16.782,16.782,0,0,1-4.393,1.9,17.85,17.85,0,0,1-4.835.68,16.292,16.292,0,0,1-8.047-1.968A14.008,14.008,0,0,1,166.248,34a16.731,16.731,0,0,1-1.988-8.266,16.774,16.774,0,0,1,1.988-8.266,13.983,13.983,0,0,1,5.534-5.554A16.292,16.292,0,0,1,179.83,9.95a18.766,18.766,0,0,1,8.791,2.274l-3.193,7.7a7.947,7.947,0,0,0-4.155-1.181,7.71,7.71,0,0,0-3.61.875,6.91,6.91,0,0,0-2.692,2.469,6.7,6.7,0,0,0-1.006,3.654,6.672,6.672,0,0,0,1.026,3.694,6.89,6.89,0,0,0,2.688,2.449,7.661,7.661,0,0,0,3.543.855,7.559,7.559,0,0,0,4.636-1.531Z" transform="translate(-99.376 -5.994)" fill="#05d17d"/>
    <g id="Group_2" data-name="Group 2" transform="translate(0 2.875)">
      <circle id="Ellipse_1" data-name="Ellipse 1" cx="17.486" cy="17.486" r="17.486" transform="translate(0.827 0.489)" fill="#fff"/>
      <g id="qu6ZpE.tif_1_">
        <g id="Group_1" data-name="Group 1">
          <path id="Path_3" data-name="Path 3" d="M17.832,7.23h1.006a.622.622,0,0,0,.266.04,8.829,8.829,0,0,1,1.376.1,19.215,19.215,0,0,1,5.037,1.3,18.892,18.892,0,0,1,5.753,3.694,16.008,16.008,0,0,1,2.724,3.411A17.783,17.783,0,0,1,36.6,24.342a18.378,18.378,0,0,1-.656,6.012,17.589,17.589,0,0,1-4.954,8.175,18.079,18.079,0,0,1-5.511,3.455,18.608,18.608,0,0,1-5.936,1.352,19.4,19.4,0,0,1-4.775-.278,18.456,18.456,0,0,1-5.411-1.912,17.367,17.367,0,0,1-4.7-3.594,18.267,18.267,0,0,1-4.6-10.926,18.62,18.62,0,0,1,.064-3.491,18.307,18.307,0,0,1,2.032-6.461,16.522,16.522,0,0,1,3.96-4.99A18.882,18.882,0,0,1,16.75,7.31,8.246,8.246,0,0,0,17.832,7.23ZM10.369,24.1v6.851c0,.573,0,.5-.493.5a4.569,4.569,0,0,0-1.574.135c-.3.111-.612.191-.918.286s-.588.179-.883.266c-.052.016-.115.032-.147-.032s.008-.1.04-.131.083-.1.127-.139c.219-.247.489-.437.712-.676.366-.386.716-.783,1.066-1.181a2.958,2.958,0,0,0,.819-2q-.006-5.4,0-10.791c0-.254-.072-.322-.326-.314a1.83,1.83,0,0,0-.207.024,7.407,7.407,0,0,1-1.543.068,12.339,12.339,0,0,0-1.753-.123A2.116,2.116,0,0,0,3.391,20a.187.187,0,0,0,.191.131c.115-.008.115-.1.127-.183a.89.89,0,0,1,.926-.859c.489-.036.978-.036,1.467-.028a1.392,1.392,0,0,0,.751-.219c.406-.235.815-.457,1.225-.684.048-.028.107-.072.151-.012s-.024.087-.052.123c-.386.537-.775,1.074-1.157,1.614a4.6,4.6,0,0,0-.9,1.916,9.749,9.749,0,0,0-.068,1.483c0,.278-.016.294-.3.294-.39,0-.783,0-1.173,0a.373.373,0,0,0-.35.179c-.366.525-.743,1.046-1.117,1.567-.06.087-.131.179-.08.286.056.123.175.1.278.1H5.852c.274,0,.294.024.3.3,0,1.165.008,2.334,0,3.5a3.862,3.862,0,0,1-.58,1.964,17.474,17.474,0,0,1-1.292,1.8c-.064.08-.147.159-.1.278s.179.119.29.119H8.854a.467.467,0,0,0,.243-.048c.62-.362,1.193-.8,1.805-1.177a.512.512,0,0,0,.243-.493c-.008-1.578,0-3.157,0-4.735,0-.445,0-.895,0-1.34,0-.107.012-.235.155-.227.37.024.74-.056,1.109-.012a5.526,5.526,0,0,0,1.026.008c.521-.036.521-.044.521.469v5.157a.462.462,0,0,0,.111.386c.612.573,1.221,1.149,1.833,1.718.282.262.4.254.728.032.4-.278.811-.541,1.221-.811.3-.2.612-.394.907-.6.167-.119.167-.254.008-.354-.481-.3-.9-.684-1.372-.994a.419.419,0,0,1-.2-.382c0-1.244,0-2.485,0-3.729,0-1.431.008-2.863,0-4.294a21.9,21.9,0,0,1,.231-4.175c.068-.358.1-.72.139-1.081.024-.247-.083-.31-.3-.2-.175.087-.35.179-.521.27-.807.445-1.606.9-2.421,1.328a.653.653,0,0,0-.425.7c.04,1.384.016,2.767.016,4.147,0,.262-.04.3-.306.3-.712,0-1.423,0-2.139,0-.338,0-.354-.016-.354-.354V17.174c0-.091,0-.183,0-.27,0-.056-.016-.123-.076-.139a.917.917,0,0,0-.557,0c-.131.052-.08.211-.083.322C10.365,19.44,10.369,21.77,10.369,24.1Zm14.178,1.233c0,1.3,0,2.6,0,3.9a.775.775,0,0,1-.191.537,3.484,3.484,0,0,0-.262.326c-.115.167-.243.163-.386.04a5.088,5.088,0,0,1-1.189-1.475,5.985,5.985,0,0,1-.628-3.387,6.65,6.65,0,0,1,.732-2.429,5.722,5.722,0,0,1,.771-1.169c.072-.083.127-.179.056-.286s-.151-.044-.227-.012a6.831,6.831,0,0,0-2.9,2.227,5.429,5.429,0,0,0-.934,1.972,6.589,6.589,0,0,0,.632,4.827,5.05,5.05,0,0,0,.736,1.038,7.368,7.368,0,0,0,1.276,1.105,6.186,6.186,0,0,0,1.92.863,8.365,8.365,0,0,0,2.557.191A6.889,6.889,0,0,0,30.69,31.92a5.059,5.059,0,0,0,1.749-3.463c.012-.1.016-.2-.107-.243s-.171.056-.219.143a4.74,4.74,0,0,1-.5.716,4.975,4.975,0,0,1-1.885,1.392c-.227.1-.247.08-.247-.171V20.279c0-.561,0-.553.573-.6a2.189,2.189,0,0,0,1.618-.891,5.8,5.8,0,0,0,.954-2.564c.012-.064.016-.131-.056-.163a.15.15,0,0,0-.175.028,2.833,2.833,0,0,0-.211.231,1.77,1.77,0,0,1-1.209.68,10.254,10.254,0,0,1-1.944.028c-1.26-.08-2.509-.3-3.773-.378a7.586,7.586,0,0,0-3.32.362,3.531,3.531,0,0,0-1.05.6,3.039,3.039,0,0,0-1.03,1.734,3.952,3.952,0,0,0,.147,1.9.289.289,0,0,0,.171.223c.175.056.29-.02.338-.227a2.225,2.225,0,0,1,1.427-1.654A5.513,5.513,0,0,1,24,19.269a18.9,18.9,0,0,1,2.918.25c.06.008.143,0,.163.076s-.068.1-.119.123c-.64.346-1.26.728-1.924,1.018a.81.81,0,0,0-.509.895C24.555,22.863,24.543,24.1,24.547,25.336Z" transform="translate(0 -7.23)" fill="#00b1cd"/>
          <path id="Path_4" data-name="Path 4" d="M66.036,44.127v5.26c0,.326,0,.334-.322.4a6.957,6.957,0,0,1-3.236-.036c-.223-.056-.433-.151-.652-.227-.052-.02-.115-.032-.115-.1s.06-.087.107-.115c.5-.27,1.01-.541,1.511-.811.258-.139.509-.29.775-.417a.42.42,0,0,0,.25-.449c-.008-.787,0-1.578,0-2.366,0-1.865,0-3.729,0-5.594a.563.563,0,0,1,.207-.473,3.805,3.805,0,0,0,.489-.457c.258-.31.584-.195.895-.171.091,0,.1.087.1.159,0,.127,0,.25,0,.378C66.036,40.775,66.036,42.453,66.036,44.127Z" transform="translate(-37.175 -26.084)" fill="#00b1cd"/>
        </g>
      </g>
    </g>
    <g id="Group_7" data-name="Group 7" transform="translate(130.693 1.531)">
      <path id="Path_21" data-name="Path 21" d="M367.409,98.423H354.041a1.412,1.412,0,0,1-1.411-1.411h0a1.412,1.412,0,0,1,1.411-1.411h13.367a1.412,1.412,0,0,1,1.411,1.411h0A1.409,1.409,0,0,1,367.409,98.423Z" transform="translate(-344.13 -58.547)" fill="#ff6417"/>
      <path id="Path_22" data-name="Path 22" d="M368.433,108.553h-9.391a1.412,1.412,0,0,1-1.411-1.411h0a1.412,1.412,0,0,1,1.411-1.411h9.391a1.412,1.412,0,0,1,1.411,1.411h0A1.407,1.407,0,0,1,368.433,108.553Z" transform="translate(-347.142 -64.649)" fill="#ff6417"/>
      <g id="Group_5" data-name="Group 5" transform="translate(0 2.986)">
        <g id="Group_4" data-name="Group 4" clip-path="url(#clip-path)">
          <path id="Path_23" data-name="Path 23" d="M362.415,19.666a16.7,16.7,0,0,0-31.175,8.4,16.624,16.624,0,0,0,8.306,14.472c.326.191.656.366.99.533a1.234,1.234,0,0,1,1.2-1.165,1.163,1.163,0,0,1,.692.227,2.116,2.116,0,0,1,1.976-1.674,2.785,2.785,0,0,1,2.008.875l.537-7.789v-.7h2.425l.537,8.445a2.808,2.808,0,0,1,1.972-.827,2.109,2.109,0,0,1,1.964,1.614,1.183,1.183,0,0,1,.6-.171,1.231,1.231,0,0,1,1.189,1.006c.235-.123.469-.243.7-.378a16.624,16.624,0,0,0,8.306-14.472A16.336,16.336,0,0,0,362.415,19.666Z" transform="translate(-331.244 -11.36)" fill="#ff6417"/>
        </g>
      </g>
      <g id="Group_6" data-name="Group 6" transform="translate(8.25)">
        <path id="Path_25" data-name="Path 25" d="M367.137,6.824,367.054,7,365.69,9.957l.076,16.87h5.793V9.663L368.624,3.85Z" transform="translate(-360.247 -3.85)" fill="#fff"/>
        <rect id="Rectangle_1" data-name="Rectangle 1" width="1.936" height="17.144" transform="translate(7.439 5.872)" fill="#ff6417"/>
        <path id="Path_26" data-name="Path 26" d="M357.6,43.88l.06,7.093L352,50.941V49.414S357.519,43.88,357.6,43.88Z" transform="translate(-352 -27.964)" fill="#fff"/>
        <path id="Path_27" data-name="Path 27" d="M369.33,6.824h2.934L370.817,3.85Z" transform="translate(-362.44 -3.85)"/>
        <path id="Path_28" data-name="Path 28" d="M380.39,43.8l-.06,7.125,5.642-.036V49.366S380.469,43.8,380.39,43.8Z" transform="translate(-369.066 -27.916)" fill="#fff"/>
        <path id="Path_29" data-name="Path 29" d="M370.384,62.782H364.13a.658.658,0,0,1-.66-.66V61.84a.658.658,0,0,1,.66-.66h6.254a.658.658,0,0,1,.66.66v.282A.661.661,0,0,1,370.384,62.782Z" transform="translate(-358.91 -38.386)" fill="#fff"/>
      </g>
    </g>
    <g id="Group_8" data-name="Group 8" transform="translate(91.438 5.045)">
      <path id="Path_30" data-name="Path 30" d="M288.068,26.532a12.041,12.041,0,0,0,1.98,2.557V12.7H289.2a12.221,12.221,0,0,0-1.125,1.618,12.32,12.32,0,0,0,0,12.214Z" transform="translate(-264.598 -12.696)" fill="#0087ff"/>
      <path id="Path_31" data-name="Path 31" d="M253.588,27.321a13.9,13.9,0,0,1,0-13.812c.163-.282.334-.553.517-.819H246.8V22.924H241.68V12.694H231.49V43.309h10.19V33.075H246.8V43.309h10.147V31.2A13.461,13.461,0,0,1,253.588,27.321Z" transform="translate(-231.49 -12.69)" fill="#0087ff"/>
    </g>
    <path id="Path_32" data-name="Path 32" d="M415.223,29.294V8.87h-10.1v4.795a17.869,17.869,0,0,1,0,25.8v.024h18.937V29.294Z" transform="translate(-245.057 -5.343)" fill="#a463ff"/>
    <path id="Path_33" data-name="Path 33" d="M302.538,21.219a17.735,17.735,0,0,1,7.169-14.333c-.1-.191-.195-.378-.3-.565a12.711,12.711,0,0,0-23.724,6.389,12.653,12.653,0,0,0,12.711,12.711,12.73,12.73,0,0,0,4.465-.791A18.58,18.58,0,0,1,302.538,21.219Zm-1.765-4.481a4.668,4.668,0,0,1-4.692,0,4.72,4.72,0,0,1-1.718-1.7,4.483,4.483,0,0,1-.628-2.33,4.62,4.62,0,0,1,.628-2.346,4.786,4.786,0,0,1,1.718-1.734,4.57,4.57,0,0,1,4.692,0,4.774,4.774,0,0,1,1.714,1.734,4.584,4.584,0,0,1,.632,2.346,4.5,4.5,0,0,1-.632,2.33A4.678,4.678,0,0,1,300.773,16.739Z" transform="translate(-172.831)" fill="#ffc522"/>
    <g id="Group_18787" data-name="Group 18787" transform="translate(41 44.132)">
      <path id="Path_5" data-name="Path 5" d="M107.649,104.749a1.7,1.7,0,0,1,1.1.53,1.724,1.724,0,0,1,.444,1.236,1.932,1.932,0,0,1-.637,1.531,2.572,2.572,0,0,1-1.75.557H104.16V101.11h2.5a2.723,2.723,0,0,1,1.766.519,1.742,1.742,0,0,1,.642,1.429A1.569,1.569,0,0,1,107.649,104.749Zm-1.038-2.558h-1.22v2.055h1.22a1.372,1.372,0,0,0,.9-.273,1.047,1.047,0,0,0,.005-1.514A1.4,1.4,0,0,0,106.611,102.191Zm.171,5.33a1.21,1.21,0,0,0,.867-.3,1.094,1.094,0,0,0,.31-.835.99.99,0,0,0-.321-.765,1.2,1.2,0,0,0-.846-.294h-1.4v2.194Z" transform="translate(-104.16 -101.11)"/>
      <path id="Path_6" data-name="Path 6" d="M119.106,105.79h1.167V110.8a2.364,2.364,0,0,1-.653,1.777,2.411,2.411,0,0,1-1.691.578,2.586,2.586,0,0,1-1.712-.514,1.7,1.7,0,0,1-.557-1.3h1.177a.923.923,0,0,0,.284.637,1.194,1.194,0,0,0,.787.209,1.115,1.115,0,0,0,.878-.359,1.642,1.642,0,0,0,.321-1.118v-.631a1.707,1.707,0,0,1-1.605.824,1.675,1.675,0,0,1-1.365-.573,2.281,2.281,0,0,1-.476-1.5v-3.04h1.167v2.794c0,.862.359,1.3,1.081,1.3a1.039,1.039,0,0,0,.894-.417,1.807,1.807,0,0,0,.305-1.092Z" transform="translate(-109.506 -103.285)"/>
      <path id="Path_7" data-name="Path 7" d="M132.18,108.6V101.11h1.231v3.222H136.5V101.11h1.231V108.6H136.5v-3.168h-3.093V108.6Z" transform="translate(-117.185 -101.11)"/>
      <path id="Path_8" data-name="Path 8" d="M146.428,102.692a.892.892,0,1,1,.246-.615A.839.839,0,0,1,146.428,102.692Zm-1.209,5.956v-4.988h1.167v4.988Z" transform="translate(-123.116 -101.156)"/>
      <path id="Path_9" data-name="Path 9" d="M150.44,110.666v-4.988h1.167v.7a1.726,1.726,0,0,1,1.627-.824q1.822,0,1.82,1.98v3.136h-1.167v-2.6a2.09,2.09,0,0,0-.246-1.167.958.958,0,0,0-.845-.353,1.093,1.093,0,0,0-.878.359,1.506,1.506,0,0,0-.31,1.022v2.74Z" transform="translate(-125.673 -103.174)"/>
      <path id="Path_10" data-name="Path 10" d="M165.106,101.11h1.167V108.6h-1.167v-.674a1.5,1.5,0,0,1-.669.583,2.135,2.135,0,0,1-.926.219,2.271,2.271,0,0,1-1.809-.739,2.764,2.764,0,0,1-.642-1.884,2.7,2.7,0,0,1,.674-1.878,2.318,2.318,0,0,1,1.809-.744,1.96,1.96,0,0,1,.92.214,1.557,1.557,0,0,1,.642.589Zm-1.423,6.582a1.356,1.356,0,0,0,1.1-.45,1.884,1.884,0,0,0,0-2.269,1.531,1.531,0,0,0-2.162-.005,1.858,1.858,0,0,0,0,2.28A1.337,1.337,0,0,0,163.682,107.692Z" transform="translate(-130.609 -101.11)"/>
      <path id="Path_11" data-name="Path 11" d="M175.352,110.906a1.821,1.821,0,0,1-1.349-.5,2,2,0,0,1-.5-1.477V105.79h1.167v2.847a1.612,1.612,0,0,0,.235.953.9.9,0,0,0,.781.321,1.105,1.105,0,0,0,.92-.359,1.471,1.471,0,0,0,.289-.947V105.79h1.167v4.988h-1.167v-.7A1.616,1.616,0,0,1,175.352,110.906Z" transform="translate(-136.392 -103.285)"/>
      <path id="Path_12" data-name="Path 12" d="M186.239,110.795a2.34,2.34,0,0,1-1.531-.482,1.472,1.472,0,0,1-.589-1.177h1.167a.622.622,0,0,0,.284.524,1.238,1.238,0,0,0,.733.2.8.8,0,0,0,.524-.161.531.531,0,0,0,.193-.428.479.479,0,0,0-.375-.524l-1.284-.353a1.316,1.316,0,0,1-1.081-1.381,1.284,1.284,0,0,1,.535-1.044,2.157,2.157,0,0,1,1.381-.423,2.213,2.213,0,0,1,1.461.428,1.4,1.4,0,0,1,.508,1.124h-1.145a.573.573,0,0,0-.23-.487,1.023,1.023,0,0,0-.637-.177.858.858,0,0,0-.514.145.441.441,0,0,0-.2.369.526.526,0,0,0,.428.535l1.188.343a1.749,1.749,0,0,1,.835.508,1.206,1.206,0,0,1,.321.83,1.475,1.475,0,0,1-.519,1.177A2.148,2.148,0,0,1,186.239,110.795Z" transform="translate(-141.329 -103.174)"/>
      <path id="Path_13" data-name="Path 13" d="M195.6,108.482a3.542,3.542,0,0,0,.589-.043v1.027a5.032,5.032,0,0,1-.867.064,2.756,2.756,0,0,1-.5-.043,1.861,1.861,0,0,1-.5-.2,1.024,1.024,0,0,1-.45-.541,2.555,2.555,0,0,1-.161-.974v-2.323h-.846v-.974h.846V102.97h1.167v1.509h1.145v.974h-1.145v2.055a1.245,1.245,0,0,0,.171.787A.707.707,0,0,0,195.6,108.482Z" transform="translate(-145.391 -101.975)"/>
      <path id="Path_14" data-name="Path 14" d="M202.731,110.795a2.271,2.271,0,0,1-1.809-.739,2.764,2.764,0,0,1-.642-1.884,2.7,2.7,0,0,1,.674-1.878,2.318,2.318,0,0,1,1.809-.744,1.961,1.961,0,0,1,.92.214,1.557,1.557,0,0,1,.642.589v-.674h1.167v4.988h-1.167v-.674a1.5,1.5,0,0,1-.669.583A2.135,2.135,0,0,1,202.731,110.795Zm.171-1.038a1.356,1.356,0,0,0,1.1-.45,1.884,1.884,0,0,0,0-2.269,1.531,1.531,0,0,0-2.162-.005,1.858,1.858,0,0,0,0,2.28A1.337,1.337,0,0,0,202.9,109.756Z" transform="translate(-148.841 -103.174)"/>
      <path id="Path_15" data-name="Path 15" d="M212.82,110.666v-4.988h1.167v.7a1.726,1.726,0,0,1,1.627-.824q1.822,0,1.82,1.98v3.136h-1.167v-2.6a2.09,2.09,0,0,0-.246-1.167.958.958,0,0,0-.846-.353,1.093,1.093,0,0,0-.878.359,1.506,1.506,0,0,0-.31,1.022v2.74Z" transform="translate(-154.67 -103.174)"/>
      <path id="Path_16" data-name="Path 16" d="M230.013,108.6v-6.336H227.84V101.11h5.587v1.156h-2.183V108.6Z" transform="translate(-161.652 -101.11)"/>
      <path id="Path_17" data-name="Path 17" d="M240.548,102.692a.893.893,0,1,1,.246-.615A.839.839,0,0,1,240.548,102.692Zm-1.21,5.956v-4.988H240.5v4.988Z" transform="translate(-166.867 -101.156)"/>
      <path id="Path_18" data-name="Path 18" d="M244.56,110.666v-4.988h1.167v.7a1.382,1.382,0,0,1,.546-.594,1.567,1.567,0,0,1,.846-.23,1.535,1.535,0,0,1,1.573.888,1.485,1.485,0,0,1,.6-.637,1.785,1.785,0,0,1,.931-.252q1.8,0,1.8,1.959v3.157h-1.167v-2.933q0-1.188-.931-1.188a.958.958,0,0,0-.771.326,1.792,1.792,0,0,0-.278,1.151v2.644h-1.167v-2.943c0-.787-.305-1.177-.91-1.177a.977.977,0,0,0-.787.326,1.788,1.788,0,0,0-.284,1.151v2.644H244.56Z" transform="translate(-169.424 -103.174)"/>
      <path id="Path_19" data-name="Path 19" d="M265.391,107.915q0,.193-.032.642h-3.7a1.207,1.207,0,0,0,.385.9,1.491,1.491,0,0,0,1.006.316,1.125,1.125,0,0,0,1.113-.567h1.177a1.709,1.709,0,0,1-.755,1.14,2.626,2.626,0,0,1-1.536.444,2.468,2.468,0,0,1-1.862-.706,3.024,3.024,0,0,1-.005-3.826A2.4,2.4,0,0,1,263,105.55a2.34,2.34,0,0,1,1.729.658A2.315,2.315,0,0,1,265.391,107.915Zm-3.735-.246h2.59a1.19,1.19,0,0,0-.337-.888,1.284,1.284,0,0,0-.926-.31,1.358,1.358,0,0,0-.963.332A1.174,1.174,0,0,0,261.656,107.669Z" transform="translate(-176.833 -103.174)"/>
      <path id="Path_20" data-name="Path 20" d="M273.159,110.795a2.339,2.339,0,0,1-1.531-.482,1.472,1.472,0,0,1-.589-1.177h1.167a.622.622,0,0,0,.284.524,1.238,1.238,0,0,0,.733.2.8.8,0,0,0,.524-.161.531.531,0,0,0,.193-.428.479.479,0,0,0-.375-.524l-1.284-.353a1.316,1.316,0,0,1-1.081-1.381,1.284,1.284,0,0,1,.535-1.044,2.157,2.157,0,0,1,1.381-.423,2.213,2.213,0,0,1,1.461.428,1.4,1.4,0,0,1,.508,1.124h-1.145a.573.573,0,0,0-.23-.487,1.024,1.024,0,0,0-.637-.177.858.858,0,0,0-.514.145.441.441,0,0,0-.2.369.526.526,0,0,0,.428.535l1.188.343a1.749,1.749,0,0,1,.835.508,1.206,1.206,0,0,1,.321.83,1.474,1.474,0,0,1-.519,1.177A2.148,2.148,0,0,1,273.159,110.795Z" transform="translate(-181.733 -103.174)"/>
    </g>
  </g>
</svg>
