<svg xmlns="http://www.w3.org/2000/svg" xmlns:xlink="http://www.w3.org/1999/xlink" width="2023" height="22" viewBox="0 0 2023 22">
  <defs>
    <clipPath id="clip-Artboard_1">
      <rect width="2023" height="22"/>
    </clipPath>
  </defs>
  <g id="Artboard_1" data-name="Artboard – 1" clip-path="url(#clip-Artboard_1)">
    <path id="Path_1737" data-name="Path 1737" d="M5218.627,3948.939c.932,174.207,11.972,348.4,28.914,522.549h434.307c332.152,0,666.437,2.758,998.159-1.967,161.792-2.3,323.287-6,485.3-7.291q37.717-.3,75.5-.508c-3.62-10.1-8.991-20.186-10.914-29.959-4.744-24.234-8.388-48.338-7.934-72.613.9-48.119,5.908-96.174,13.363-144.256,7.527-48.541,18.592-96.834,17.6-145.432-.8-38.744-1.23-77.4,12.271-115.943q-96.168,1.62-192.541,1.959c-327.761,1.3-655.856-2.945-983.725-2.787C5798.8,3952.83,5508.417,3952.686,5218.627,3948.939Z" transform="translate(-5218.486 -4455.289)" fill="#004ba6"/>
  </g>
</svg>
