<svg xmlns="http://www.w3.org/2000/svg" width="224" height="106.07" viewBox="0 0 224 106.07">
  <defs>
    <style>
      .cls-1 {
        fill-rule: evenodd;
      }
    </style>
  </defs>
  <path id="Shape_1_copy_5" data-name="Shape 1 copy 5" class="cls-1" d="M1197.18,7599.6c-0.27,1.17-.54,2.34-0.79,3.51-0.37,1.68-.7,3.37-0.95,5.08-1.2,7.94-2.34,15.9-3.29,23.88-0.94,7.79-1.3,15.66-2.43,23.42-1.05,7.16-2.61,14.28-3.92,21.43a42.379,42.379,0,0,1-1.67,10.5l-0.18,1.53a54.757,54.757,0,0,1,6.03,1.38c2.55,0.39,5.11.8,7.64,1.31,1.67-13.26,3.94-26.43,6.39-39.57,2.64-14.21,4.21-28.52,5.86-42.87,0.84-7.29,1.58-14.61,2.49-21.9-4.16-.64-8.34-1.11-12.51-1.7A100.16,100.16,0,0,1,1197.18,7599.6Zm-101.34,42.7c4.43-1.77,24.46-12.21,29.02-13.34,5.27-1.31,11.58-5.72,16.91-6.51,2.62-.39,5.72-0.65,8.34-2.03-0.98-5.55-1.82-11.15-2.81-16.7a74.387,74.387,0,0,1-11.64,3.41c-5.32,1.2-10.55,4.67-15.77,6.44-6.02,2.05-12.05,4.07-18.1,5.91-6.05,1.82-12.13,6.13-18.22,7.69-2.97.76-5.98,2.12-9.01,2.96a209.843,209.843,0,0,1-.14,22.15c-0.1,2.44-.25,1.84-0.42,4.25,5.09,0.92,9.73,4.19,14.66,6.08,5.73,2.19,11.56,3.92,17.26,6.28,5.64,2.34,11.24,4.89,16.89,7.22,9.1,3.76,18.21,10.47,27.17,14.77l0.21-.9a138.99,138.99,0,0,0,2.78-20.28,95.872,95.872,0,0,0-9.66-2.96c-4.67-1.32-8.99-3.58-13.53-5.4-4.34-1.74-8.75-3.15-13.04-5.07-3.33-1.5-11.28-5.92-14.11-8.76m173.53-1.04c-4.43,1.77-24.46,12.21-29.02,13.34-5.27,1.31-11.58,5.72-16.91,6.51-2.62.4-5.72,0.65-8.34,2.03,0.97,5.55,1.81,11.16,2.8,16.7a74.82,74.82,0,0,1,11.65-3.41c5.32-1.2,10.55-4.67,15.77-6.44,6.02-2.05,12.04-4.07,18.1-5.91,6.05-1.82,12.13-6.13,18.22-7.69,2.96-.76,5.98-2.12,9.01-2.96a207.191,207.191,0,0,1,.14-22.15c0.1-2.44.24-1.84,0.42-4.25-5.09-.92-9.73-4.19-14.66-6.07-5.73-2.19-11.56-3.93-17.26-6.29-5.65-2.34-11.25-4.89-16.9-7.22-9.09-3.76-18.2-10.47-27.16-14.77-0.07.3-.15,0.6-0.21,0.9a138.99,138.99,0,0,0-2.78,20.28,95.872,95.872,0,0,0,9.66,2.96c4.67,1.32,8.99,3.58,13.53,5.4,4.34,1.74,8.75,3.15,13.04,5.07,3.33,1.5,11.28,5.92,14.11,8.76" transform="translate(-1074 -7585.59)"/>
</svg>
