<svg version="1.2" baseProfile="tiny-ps" xmlns="http://www.w3.org/2000/svg" viewBox="0 0 360 215" width="360" height="215">
	<title>content-white-svg</title>
	<style>
		tspan { white-space:pre }
		.shp0 { fill: #ffffff } 
	</style>
	<path id="Path_33511" class="shp0" d="M195.62 1.34C236.91 2.12 294.55 4.64 352.33 4.41C357.5 4.39 359.25 5.28 359.22 8.6C358.71 72.3 358.45 135.99 357.98 199.69C357.95 204.18 359.17 209.78 355.34 212.85C350.9 216.43 341.45 213.03 334.14 213.23C311.96 213.85 289.74 213.26 267.54 214.28C247.07 215.22 226.58 214.68 206.1 213.69C172.67 212.08 139.14 212.4 105.68 212.65C72.08 212.89 38.91 209.57 5.43 209.46C-0.76 209.44 0.14 207.27 0.14 205.06C0.14 188.82 0.14 172.59 0.14 156.35C0.16 106.22 0.32 56.08 0 5.95C-0.03 1.03 2.18 -0.3 10.08 0.06C66.39 2.58 122.81 0.7 195.62 1.34Z" />
</svg>