<svg xmlns="http://www.w3.org/2000/svg" xmlns:xlink="http://www.w3.org/1999/xlink" width="118" height="33" viewBox="0 0 118 33">
  <defs>
    <clipPath id="clip-path">
      <path id="Path_30390" data-name="Path 30390" d="M540.926-242.21a10.6,10.6,0,0,1,3.9,3.9,10.552,10.552,0,0,1,1.433,5.394,10.551,10.551,0,0,1-1.433,5.395,10.59,10.59,0,0,1-3.9,3.9,10.549,10.549,0,0,1-5.394,1.434,10.548,10.548,0,0,1-5.394-1.434,10.583,10.583,0,0,1-3.9-3.9,10.548,10.548,0,0,1-1.434-5.395,10.548,10.548,0,0,1,1.434-5.394,10.589,10.589,0,0,1,3.9-3.9,10.55,10.55,0,0,1,5.394-1.434A10.552,10.552,0,0,1,540.926-242.21Z" transform="translate(-524.802 243.644)" fill="none"/>
    </clipPath>
    <clipPath id="clip-Artboard_1">
      <rect width="118" height="33"/>
    </clipPath>
  </defs>
  <g id="Artboard_1" data-name="Artboard – 1" clip-path="url(#clip-Artboard_1)">
    <rect width="118" height="33" fill="#fff"/>
    <rect id="Rectangle_3917" data-name="Rectangle 3917" width="129" height="43" transform="translate(-10 -3)" fill="#fade3b"/>
    <g id="Group_1" data-name="Group 1" transform="translate(-192.874 255.954)">
      <path id="Path_30368" data-name="Path 30368" d="M304.76-238.329a12.714,12.714,0,0,0,1.586.744,22.664,22.664,0,0,1,2.792,1.333,6.358,6.358,0,0,1,2.007,1.908,5.349,5.349,0,0,1,.87,3.129,6.031,6.031,0,0,1-.912,3.311,6.023,6.023,0,0,1-2.568,2.217,8.806,8.806,0,0,1-3.817.786,10.251,10.251,0,0,1-3.592-.73,20.03,20.03,0,0,1-3.592-1.768l2.021-4.855a28.729,28.729,0,0,0,2.75,1.487,5.31,5.31,0,0,0,2.021.618,2.124,2.124,0,0,0,1.165-.281.886.886,0,0,0,.435-.786q0-.365-.491-.659a12.793,12.793,0,0,0-1.586-.744,18.986,18.986,0,0,1-2.75-1.319,6.417,6.417,0,0,1-1.978-1.923,5.4,5.4,0,0,1-.856-3.129,6.248,6.248,0,0,1,.884-3.325,5.839,5.839,0,0,1,2.512-2.231,8.55,8.55,0,0,1,3.76-.786,10.01,10.01,0,0,1,3.452.659,16.029,16.029,0,0,1,3.255,1.614l-2.048,4.658a12.18,12.18,0,0,0-2.189-1.15,5.871,5.871,0,0,0-2.189-.477,1.75,1.75,0,0,0-1.039.281.884.884,0,0,0-.393.757Q304.269-238.624,304.76-238.329Z" transform="translate(-77.215 -7.168)"/>
      <path id="Path_30369" data-name="Path 30369" d="M374.046-226.394a10.8,10.8,0,0,1-2.82,1.221,11.483,11.483,0,0,1-3.1.435A10.448,10.448,0,0,1,362.961-226a8.973,8.973,0,0,1-3.55-3.564,10.746,10.746,0,0,1-1.277-5.3,10.748,10.748,0,0,1,1.277-5.3,8.975,8.975,0,0,1,3.55-3.564A10.448,10.448,0,0,1,368.124-245a11.5,11.5,0,0,1,2.947.393,11.583,11.583,0,0,1,2.694,1.066l-2.049,4.939a5.1,5.1,0,0,0-2.666-.758,4.948,4.948,0,0,0-2.315.562,4.4,4.4,0,0,0-1.726,1.585,4.3,4.3,0,0,0-.645,2.344,4.28,4.28,0,0,0,.659,2.371,4.42,4.42,0,0,0,1.726,1.572,4.912,4.912,0,0,0,2.273.547,4.856,4.856,0,0,0,2.975-.982Z" transform="translate(-122.354 -7.415)"/>
      <g id="Group_15897" data-name="Group 15897" transform="translate(193.874 -253.11)">
        <circle id="Ellipse_1818" data-name="Ellipse 1818" cx="11.221" cy="11.221" r="11.221" transform="translate(0.53 0.314)" fill="#fff"/>
        <g id="qu6ZpE.tif" transform="translate(0 0)">
          <g id="Group_15896" data-name="Group 15896">
            <path id="Path_30370" data-name="Path 30370" d="M205.316-247.725h.645a.375.375,0,0,0,.172.024,5.752,5.752,0,0,1,.884.066,12.265,12.265,0,0,1,3.232.832,12.094,12.094,0,0,1,3.69,2.369,10.308,10.308,0,0,1,1.748,2.189,11.394,11.394,0,0,1,1.673,5.5,11.792,11.792,0,0,1-.421,3.859,11.285,11.285,0,0,1-3.18,5.245,11.614,11.614,0,0,1-3.535,2.217,11.93,11.93,0,0,1-3.81.868,12.349,12.349,0,0,1-3.065-.18,11.878,11.878,0,0,1-3.472-1.228,11.138,11.138,0,0,1-3.018-2.307A11.447,11.447,0,0,1,194.9-231.3a11.533,11.533,0,0,1-.993-3.983,11.84,11.84,0,0,1,.041-2.24,11.721,11.721,0,0,1,1.3-4.144,10.645,10.645,0,0,1,2.54-3.2,12.129,12.129,0,0,1,6.829-2.807A4.983,4.983,0,0,0,205.316-247.725Zm-4.79,10.828q0,2.2,0,4.4c0,.369,0,.319-.317.324a2.949,2.949,0,0,0-1.011.088c-.193.071-.393.123-.59.183s-.377.114-.566.17c-.034.01-.073.02-.1-.021s.005-.06.025-.084.054-.06.081-.09c.141-.157.313-.282.458-.434.234-.247.459-.5.684-.757a1.9,1.9,0,0,0,.526-1.287q0-3.462,0-6.925c0-.164-.045-.206-.209-.2-.045,0-.089.01-.134.014a4.844,4.844,0,0,1-.99.044,7.768,7.768,0,0,0-1.125-.08,1.377,1.377,0,0,0-1.135.567,1.387,1.387,0,0,0-.082,1.454.121.121,0,0,0,.123.085c.073-.005.075-.062.082-.117a.572.572,0,0,1,.6-.551c.314-.023.627-.024.94-.018a.9.9,0,0,0,.482-.139c.26-.15.523-.294.786-.439.03-.017.068-.045.1-.007s-.015.056-.033.08c-.248.345-.5.688-.744,1.036a2.951,2.951,0,0,0-.575,1.23,5.943,5.943,0,0,0-.042.953c0,.177-.011.189-.192.19-.251,0-.5,0-.753,0a.242.242,0,0,0-.224.115c-.236.338-.478.671-.717,1.006-.04.055-.083.114-.052.184s.113.06.177.06h1.627c.176,0,.19.016.19.195,0,.748,0,1.5,0,2.245a2.484,2.484,0,0,1-.372,1.261,11.193,11.193,0,0,1-.83,1.155c-.04.052-.1.1-.061.179s.114.076.186.076h2.81a.3.3,0,0,0,.156-.03c.4-.233.765-.513,1.158-.754a.325.325,0,0,0,.155-.315c-.005-1.013,0-2.026,0-3.039q0-.43,0-.861c0-.07.007-.15.1-.145.238.014.474-.037.712-.008a3.457,3.457,0,0,0,.658.006c.335-.023.333-.028.333.3q0,1.654,0,3.308a.3.3,0,0,0,.071.249c.393.366.783.737,1.176,1.1.181.169.256.165.466.019.257-.178.521-.347.782-.52.194-.128.392-.252.58-.388.108-.078.108-.163.006-.226-.309-.192-.578-.439-.881-.637a.264.264,0,0,1-.129-.246q0-1.2,0-2.393c0-.919,0-1.837,0-2.756a14.067,14.067,0,0,1,.148-2.679c.043-.229.066-.461.088-.693.015-.158-.053-.2-.193-.13-.112.056-.223.114-.333.174-.517.285-1.03.578-1.553.852a.415.415,0,0,0-.272.446c.026.887.011,1.775.01,2.662,0,.169-.026.193-.2.194q-.686,0-1.372,0c-.218,0-.228-.01-.228-.228q0-1.923,0-3.845,0-.088,0-.175c0-.037-.009-.08-.047-.089a.589.589,0,0,0-.356,0c-.085.033-.052.134-.052.206Q200.525-239.142,200.526-236.9Zm9.1.791c0,.834,0,1.667,0,2.5a.492.492,0,0,1-.122.345,2.458,2.458,0,0,0-.168.209c-.075.108-.156.105-.246.025a3.316,3.316,0,0,1-.763-.946,3.833,3.833,0,0,1-.4-2.175,4.289,4.289,0,0,1,.469-1.559,3.615,3.615,0,0,1,.5-.749c.047-.053.081-.114.037-.183s-.1-.027-.144-.007a4.375,4.375,0,0,0-1.861,1.43,3.494,3.494,0,0,0-.6,1.265,4.228,4.228,0,0,0,.406,3.1,3.189,3.189,0,0,0,.473.667,4.778,4.778,0,0,0,.819.709,3.959,3.959,0,0,0,1.232.553,5.35,5.35,0,0,0,1.641.121,4.428,4.428,0,0,0,2.68-1.076,3.252,3.252,0,0,0,1.123-2.221c.007-.064.009-.13-.069-.156s-.11.037-.141.091a3.1,3.1,0,0,1-.324.46,3.177,3.177,0,0,1-1.21.892c-.145.061-.157.051-.157-.111q0-3.214,0-6.428c0-.36,0-.354.366-.389a1.4,1.4,0,0,0,1.039-.572,3.747,3.747,0,0,0,.613-1.646c.007-.042.01-.084-.035-.1a.1.1,0,0,0-.113.019,1.626,1.626,0,0,0-.135.149,1.131,1.131,0,0,1-.775.437,6.522,6.522,0,0,1-1.249.017c-.809-.051-1.61-.191-2.42-.242a4.871,4.871,0,0,0-2.131.233,2.308,2.308,0,0,0-.673.384,1.938,1.938,0,0,0-.66,1.111,2.528,2.528,0,0,0,.1,1.22.183.183,0,0,0,.11.144c.112.037.185-.012.217-.145a1.426,1.426,0,0,1,.915-1.061,3.544,3.544,0,0,1,1.32-.2,12.1,12.1,0,0,1,1.872.16c.039.006.091,0,.1.047s-.043.061-.075.079c-.409.222-.809.466-1.234.653a.518.518,0,0,0-.325.575C209.63-237.692,209.624-236.9,209.624-236.106Z" transform="translate(-193.874 247.725)" fill="#00b1cd"/>
            <path id="Path_30371" data-name="Path 30371" d="M258.361-212.84v3.374c0,.21,0,.214-.206.257a4.488,4.488,0,0,1-2.076-.023c-.142-.036-.279-.1-.418-.146-.033-.012-.074-.02-.074-.066s.038-.057.07-.074l.97-.52c.166-.089.327-.187.5-.267a.269.269,0,0,0,.16-.29c-.006-.506,0-1.013,0-1.519,0-1.2,0-2.393,0-3.589a.364.364,0,0,1,.132-.3,2.566,2.566,0,0,0,.313-.294c.166-.2.374-.124.574-.111.058,0,.062.056.063.1q0,.121,0,.242Q258.362-214.453,258.361-212.84Z" transform="translate(-239.843 224.418)" fill="#00b1cd"/>
          </g>
        </g>
      </g>
      <g id="Group_15898" data-name="Group 15898" transform="translate(220.447 -229.158)">
        <path id="Path_30372" data-name="Path 30372" d="M299.7-152.107a.809.809,0,0,1,.523.253.819.819,0,0,1,.212.589.918.918,0,0,1-.3.729,1.223,1.223,0,0,1-.834.266h-1.26v-3.572h1.194a1.3,1.3,0,0,1,.842.247.828.828,0,0,1,.306.681A.748.748,0,0,1,299.7-152.107Zm-.495-1.219h-.582v.979h.582a.654.654,0,0,0,.431-.13.444.444,0,0,0,.155-.36.445.445,0,0,0-.153-.362A.661.661,0,0,0,299.2-153.327Zm.082,2.541a.57.57,0,0,0,.413-.143.527.527,0,0,0,.148-.4.472.472,0,0,0-.153-.365.573.573,0,0,0-.4-.141h-.668v1.046Z" transform="translate(-298.034 153.842)"/>
        <path id="Path_30373" data-name="Path 30373" d="M311.177-149.162h.556v2.388a1.124,1.124,0,0,1-.311.847,1.147,1.147,0,0,1-.806.276,1.23,1.23,0,0,1-.816-.245.809.809,0,0,1-.265-.617h.561a.441.441,0,0,0,.135.3.571.571,0,0,0,.375.1.533.533,0,0,0,.418-.171.783.783,0,0,0,.153-.533v-.3a.816.816,0,0,1-.765.393.8.8,0,0,1-.651-.273,1.083,1.083,0,0,1-.227-.717v-1.449h.556v1.331q0,.618.516.617a.5.5,0,0,0,.426-.2.862.862,0,0,0,.145-.52Z" transform="translate(-306.6 150.356)"/>
        <path id="Path_30374" data-name="Path 30374" d="M326.053-150.27v-3.572h.587v1.536h1.475v-1.536h.587v3.572h-.587v-1.51H326.64v1.51Z" transform="translate(-318.905 153.842)"/>
        <path id="Path_30375" data-name="Path 30375" d="M339.522-153.035a.4.4,0,0,1-.3.12.4.4,0,0,1-.3-.12.4.4,0,0,1-.117-.293.4.4,0,0,1,.117-.294.4.4,0,0,1,.3-.12.4.4,0,0,1,.3.12.4.4,0,0,1,.117.294A.4.4,0,0,1,339.522-153.035Zm-.577,2.839v-2.378h.556v2.378Z" transform="translate(-328.409 153.768)"/>
        <path id="Path_30376" data-name="Path 30376" d="M344.313-146.964v-2.378h.556v.332a.826.826,0,0,1,.776-.393q.867,0,.867.944v1.495h-.556v-1.24a1,1,0,0,0-.117-.556.457.457,0,0,0-.4-.168.522.522,0,0,0-.418.171.72.72,0,0,0-.148.487v1.306Z" transform="translate(-332.506 150.535)"/>
        <path id="Path_30377" data-name="Path 30377" d="M356.862-153.842h.556v3.572h-.556v-.321a.718.718,0,0,1-.319.278,1.007,1.007,0,0,1-.441.1,1.082,1.082,0,0,1-.862-.352,1.319,1.319,0,0,1-.306-.9,1.282,1.282,0,0,1,.321-.9,1.106,1.106,0,0,1,.862-.355.949.949,0,0,1,.439.1.744.744,0,0,1,.306.281Zm-.679,3.138a.646.646,0,0,0,.523-.214.809.809,0,0,0,.181-.541.808.808,0,0,0-.181-.541.647.647,0,0,0-.523-.215.641.641,0,0,0-.508.212.793.793,0,0,0-.186.543.792.792,0,0,0,.186.544A.641.641,0,0,0,356.183-150.7Z" transform="translate(-340.417 153.842)"/>
        <path id="Path_30378" data-name="Path 30378" d="M368.255-146.723a.868.868,0,0,1-.643-.24.953.953,0,0,1-.24-.7v-1.495h.556v1.357a.764.764,0,0,0,.112.454.43.43,0,0,0,.372.153.53.53,0,0,0,.439-.171.7.7,0,0,0,.138-.452v-1.342h.556v2.378h-.556v-.332A.774.774,0,0,1,368.255-146.723Z" transform="translate(-349.682 150.356)"/>
        <path id="Path_30379" data-name="Path 30379" d="M379-146.9a1.116,1.116,0,0,1-.73-.23.7.7,0,0,1-.28-.561h.556a.3.3,0,0,0,.135.25.588.588,0,0,0,.35.1.379.379,0,0,0,.25-.077.252.252,0,0,0,.092-.2.229.229,0,0,0-.179-.25l-.612-.168a.629.629,0,0,1-.516-.658.611.611,0,0,1,.255-.5,1.03,1.03,0,0,1,.658-.2,1.055,1.055,0,0,1,.7.2.666.666,0,0,1,.242.535h-.546a.276.276,0,0,0-.109-.232.487.487,0,0,0-.3-.084.411.411,0,0,0-.245.069.208.208,0,0,0-.1.176.251.251,0,0,0,.2.255l.567.163a.835.835,0,0,1,.4.242.575.575,0,0,1,.153.4.706.706,0,0,1-.247.561A1.022,1.022,0,0,1,379-146.9Z" transform="translate(-357.594 150.535)"/>
        <path id="Path_30380" data-name="Path 30380" d="M388.039-149.355a1.613,1.613,0,0,0,.28-.02v.49a2.409,2.409,0,0,1-.413.031,1.24,1.24,0,0,1-.24-.02.9.9,0,0,1-.24-.095.489.489,0,0,1-.214-.257,1.21,1.21,0,0,1-.076-.465V-150.8h-.4v-.464h.4v-.72h.556v.72h.546v.464h-.546v.979a.592.592,0,0,0,.082.375A.344.344,0,0,0,388.039-149.355Z" transform="translate(-364.104 152.457)"/>
        <path id="Path_30381" data-name="Path 30381" d="M395.321-146.9a1.082,1.082,0,0,1-.862-.352,1.318,1.318,0,0,1-.306-.9,1.283,1.283,0,0,1,.321-.9,1.106,1.106,0,0,1,.862-.355.951.951,0,0,1,.439.1.742.742,0,0,1,.306.281v-.321h.556v2.378h-.556v-.321a.716.716,0,0,1-.319.278A1,1,0,0,1,395.321-146.9Zm.082-.5a.646.646,0,0,0,.523-.214.809.809,0,0,0,.181-.541.809.809,0,0,0-.181-.541.647.647,0,0,0-.523-.215.641.641,0,0,0-.508.212.793.793,0,0,0-.186.543.792.792,0,0,0,.186.544A.641.641,0,0,0,395.4-147.4Z" transform="translate(-369.631 150.535)"/>
        <path id="Path_30382" data-name="Path 30382" d="M406.693-146.964v-2.378h.556v.332a.826.826,0,0,1,.776-.393q.867,0,.868.944v1.495h-.556v-1.24a1,1,0,0,0-.117-.556.457.457,0,0,0-.4-.168.524.524,0,0,0-.418.171.723.723,0,0,0-.148.487v1.306Z" transform="translate(-378.972 150.535)"/>
        <path id="Path_30383" data-name="Path 30383" d="M422.748-150.27v-3.021h-1.036v-.551h2.664v.551h-1.041v3.021Z" transform="translate(-390.159 153.842)"/>
        <path id="Path_30384" data-name="Path 30384" d="M433.641-153.035a.4.4,0,0,1-.3.12.4.4,0,0,1-.3-.12.4.4,0,0,1-.117-.293.4.4,0,0,1,.117-.294.4.4,0,0,1,.3-.12.4.4,0,0,1,.3.12.4.4,0,0,1,.117.294A.4.4,0,0,1,433.641-153.035Zm-.577,2.839v-2.378h.556v2.378Z" transform="translate(-398.517 153.768)"/>
        <path id="Path_30385" data-name="Path 30385" d="M438.432-146.964v-2.378h.556v.332a.656.656,0,0,1,.26-.283.754.754,0,0,1,.4-.11.733.733,0,0,1,.75.424.7.7,0,0,1,.286-.3.84.84,0,0,1,.444-.12q.857,0,.857.934v1.505h-.556v-1.4q0-.566-.444-.567a.457.457,0,0,0-.367.156.859.859,0,0,0-.132.549v1.26h-.556v-1.4q0-.561-.433-.562a.471.471,0,0,0-.375.156.846.846,0,0,0-.135.549v1.26Z" transform="translate(-402.614 150.535)"/>
        <path id="Path_30386" data-name="Path 30386" d="M456.7-148.275q0,.092-.016.306h-1.765a.57.57,0,0,0,.184.431.708.708,0,0,0,.48.15.538.538,0,0,0,.531-.27h.561a.813.813,0,0,1-.36.544,1.249,1.249,0,0,1-.732.212,1.179,1.179,0,0,1-.888-.337,1.255,1.255,0,0,1-.327-.913,1.263,1.263,0,0,1,.324-.911,1.147,1.147,0,0,1,.87-.34,1.115,1.115,0,0,1,.824.314A1.1,1.1,0,0,1,456.7-148.275Zm-1.781-.117h1.235a.571.571,0,0,0-.161-.423.616.616,0,0,0-.441-.148.644.644,0,0,0-.459.158A.558.558,0,0,0,454.923-148.393Z" transform="translate(-414.487 150.535)"/>
        <path id="Path_30387" data-name="Path 30387" d="M465.922-146.9a1.115,1.115,0,0,1-.73-.23.7.7,0,0,1-.281-.561h.556a.3.3,0,0,0,.135.25.586.586,0,0,0,.349.1.38.38,0,0,0,.25-.077.253.253,0,0,0,.092-.2.229.229,0,0,0-.179-.25l-.612-.168a.629.629,0,0,1-.515-.658.611.611,0,0,1,.255-.5,1.029,1.029,0,0,1,.658-.2,1.054,1.054,0,0,1,.7.2.666.666,0,0,1,.242.535h-.546a.276.276,0,0,0-.11-.232.486.486,0,0,0-.3-.084.411.411,0,0,0-.245.069.207.207,0,0,0-.1.176.251.251,0,0,0,.2.255l.566.163a.834.834,0,0,1,.4.242.575.575,0,0,1,.153.4.706.706,0,0,1-.247.561A1.023,1.023,0,0,1,465.922-146.9Z" transform="translate(-422.338 150.535)"/>
      </g>
      <g id="Group_15904" data-name="Group 15904" transform="translate(278.3 -253.627)">
        <g id="Group_15900" data-name="Group 15900" transform="translate(0 1.558)">
          <g id="Group_15899" data-name="Group 15899">
            <path id="Path_30388" data-name="Path 30388" d="M540.926-242.21a10.6,10.6,0,0,1,3.9,3.9,10.552,10.552,0,0,1,1.433,5.394,10.551,10.551,0,0,1-1.433,5.395,10.59,10.59,0,0,1-3.9,3.9,10.549,10.549,0,0,1-5.394,1.434,10.548,10.548,0,0,1-5.394-1.434,10.583,10.583,0,0,1-3.9-3.9,10.548,10.548,0,0,1-1.434-5.395,10.548,10.548,0,0,1,1.434-5.394,10.589,10.589,0,0,1,3.9-3.9,10.55,10.55,0,0,1,5.394-1.434A10.552,10.552,0,0,1,540.926-242.21Z" transform="translate(-524.802 243.644)" fill="#ff6417"/>
          </g>
        </g>
        <rect id="Rectangle_3913" data-name="Rectangle 3913" width="10.39" height="1.812" rx="0.906" transform="translate(5.536 23.061)" fill="#ff6417"/>
        <rect id="Rectangle_3914" data-name="Rectangle 3914" width="7.84" height="1.812" rx="0.906" transform="translate(6.811 25.646)" fill="#ff6417"/>
        <g id="Group_15902" data-name="Group 15902" transform="translate(0 1.558)">
          <g id="Group_15901" data-name="Group 15901" clip-path="url(#clip-path)">
            <path id="Path_30389" data-name="Path 30389" d="M557.13-183.743a.748.748,0,0,0-.384.109,1.353,1.353,0,0,0-1.261-1.038,1.8,1.8,0,0,0-1.266.531l-.346-5.425h-1.558v.453l-.344,5a1.788,1.788,0,0,0-1.29-.563,1.358,1.358,0,0,0-1.271,1.075.754.754,0,0,0-.445-.146.8.8,0,0,0-.781.816.8.8,0,0,0,.781.816.764.764,0,0,0,.588-.283,1.3,1.3,0,0,0,1.128.714,1.219,1.219,0,0,0,.778-.287l-.013.106h3.387l0-.015a1.2,1.2,0,0,0,.654.2,1.29,1.29,0,0,0,1.1-.663.761.761,0,0,0,.545.232.8.8,0,0,0,.782-.816A.8.8,0,0,0,557.13-183.743Z" transform="translate(-542.22 203.362)" fill="#fade3b"/>
          </g>
        </g>
        <g id="Group_15903" data-name="Group 15903" transform="translate(5.307 0)">
          <path id="Path_30391" data-name="Path 30391" d="M560.217-247.842l-.052.113-.877,1.9.05,10.824h3.717v-11.013l-1.884-3.73Z" transform="translate(-555.797 249.751)" fill="#fff"/>
          <rect id="Rectangle_3915" data-name="Rectangle 3915" width="1.243" height="11" transform="translate(4.772 3.767)" fill="#ff6417"/>
          <path id="Path_30392" data-name="Path 30392" d="M549.2-209.723l.04,4.552-3.631-.022v-.979S549.145-209.723,549.2-209.723Z" transform="translate(-545.604 219.935)" fill="#fff"/>
          <path id="Path_30393" data-name="Path 30393" d="M562.93-247.842h1.884l-.929-1.909Z" transform="translate(-558.51 249.751)"/>
          <path id="Path_30394" data-name="Path 30394" d="M573.964-209.8l-.039,4.572,3.62-.022v-.979S574.014-209.8,573.964-209.8Z" transform="translate(-566.699 219.993)" fill="#fff"/>
          <rect id="Rectangle_3916" data-name="Rectangle 3916" width="4.86" height="1.027" rx="0.513" transform="translate(2.926 14.626)" fill="#fff"/>
        </g>
      </g>
      <g id="Group_15905" data-name="Group 15905" transform="translate(252.929 -251.715)">
        <path id="Path_30395" data-name="Path 30395" d="M481.36-233.383a7.79,7.79,0,0,0,1.27,1.642v-10.518h-.547a7.9,7.9,0,0,0-.723,1.038,7.7,7.7,0,0,0-1.041,3.919A7.694,7.694,0,0,0,481.36-233.383Z" transform="translate(-466.296 242.259)"/>
        <path id="Path_30396" data-name="Path 30396" d="M439.535-232.871a8.7,8.7,0,0,1-1.179-4.432,8.706,8.706,0,0,1,1.179-4.432c.1-.18.215-.355.331-.525h-4.689v6.567h-3.283v-6.567h-6.539v19.644h6.539v-6.567h3.283v6.567h6.511v-7.769A8.728,8.728,0,0,1,439.535-232.871Z" transform="translate(-425.354 242.259)"/>
      </g>
      <path id="Path_30397" data-name="Path 30397" d="M604.481-232.982v-13.106H598v3.076a11.436,11.436,0,0,1,1.979,2.518,11.315,11.315,0,0,1,1.531,5.759,11.309,11.309,0,0,1-1.531,5.759A11.429,11.429,0,0,1,598-226.458v.015h12.151v-6.539Z" transform="translate(-301.024 -6.604)"/>
      <path id="Path_30398" data-name="Path 30398" d="M490.372-241.339A11.315,11.315,0,0,1,491.9-247.1a11.339,11.339,0,0,1,3.069-3.438c-.063-.121-.126-.243-.195-.362a8.054,8.054,0,0,0-2.966-2.966,8.022,8.022,0,0,0-4.1-1.09,8.022,8.022,0,0,0-4.1,1.09,8.049,8.049,0,0,0-2.966,2.966,8.017,8.017,0,0,0-1.09,4.1,8.017,8.017,0,0,0,1.09,4.1,8.043,8.043,0,0,0,2.966,2.966,8.017,8.017,0,0,0,4.1,1.09,8.124,8.124,0,0,0,2.865-.509A11.827,11.827,0,0,1,490.372-241.339Zm-1.134-2.874a2.949,2.949,0,0,1-1.506.4,2.945,2.945,0,0,1-1.505-.4,3.01,3.01,0,0,1-1.1-1.09,2.888,2.888,0,0,1-.4-1.495,2.946,2.946,0,0,1,.4-1.505,3.074,3.074,0,0,1,1.1-1.113,2.888,2.888,0,0,1,1.505-.416,2.891,2.891,0,0,1,1.506.416,3.079,3.079,0,0,1,1.1,1.113,2.944,2.944,0,0,1,.4,1.505,2.886,2.886,0,0,1-.4,1.495A3.014,3.014,0,0,1,489.238-244.213Z" transform="translate(-212.797)"/>
    </g>
  </g>
</svg>
