<svg xmlns="http://www.w3.org/2000/svg" width="100" height="100" viewBox="0 0 100 100">
  <g id="Group_15782" data-name="Group 15782" transform="translate(-633 -251)">
    <circle id="Ellipse_435" data-name="Ellipse 435" cx="50" cy="50" r="50" transform="translate(633 251)" fill="#d5ebff"/>
    <g id="Group_15772" data-name="Group 15772" transform="translate(-316.266 -170.811)">
      <path id="Path_30221" data-name="Path 30221" d="M14097.406,1440h33.817l13.557,11.964v19.3s.64,1.914-2.071,2.074-55.83,0-55.83,0a3,3,0,0,1-3.032-2.871c-.158-2.871,0-18.5,0-18.5Z" transform="translate(-13115.511 -977.524)" fill="#fff" stroke="#000" stroke-width="2"/>
      <path id="Path_30222" data-name="Path 30222" d="M14083.664,1478.5h18.612s.318,7.178,6.219,7.5,11.965,0,11.965,0a7.329,7.329,0,0,0,6.38-7.5c.318.16,17.865,0,17.865,0" transform="translate(-13115.165 -1003.742)" fill="none" stroke="#000" stroke-width="2"/>
      <g id="Group_15773" data-name="Group 15773" transform="translate(983.928 442.811)">
        <path id="Path_30223" data-name="Path 30223" d="M14136.284,1384.144l5.458,8.226" transform="translate(-14136.284 -1381.551)" fill="none" stroke="#000" stroke-width="2"/>
        <path id="Path_30224" data-name="Path 30224" d="M14180,1376.811v10.34" transform="translate(-14165.13 -1376.811)" fill="none" stroke="#000" stroke-width="2"/>
        <path id="Path_30225" data-name="Path 30225" d="M14217.473,1384.544l-5.973,7.953" transform="translate(-14186.58 -1381.519)" fill="none" stroke="#000" stroke-width="2"/>
      </g>
    </g>
  </g>
</svg>
