<svg xmlns="http://www.w3.org/2000/svg" width="100" height="100" viewBox="0 0 100 100">
  <g id="Group_15783" data-name="Group 15783" transform="translate(-775 -415)">
    <circle id="Ellipse_435" data-name="Ellipse 435" cx="50" cy="50" r="50" transform="translate(775 415)" fill="#d5ebff"/>
    <g id="Group_15628" data-name="Group 15628" transform="translate(251.445 33.802)">
      <rect id="Rectangle_3888" data-name="Rectangle 3888" width="46.348" height="60.113" transform="translate(546.555 408.688) rotate(-7.716)" fill="#ccc"/>
      <g id="Group_15625" data-name="Group 15625" transform="translate(549.982 404.906)">
        <path id="Path_30128" data-name="Path 30128" d="M658.122,575.306v53.23H611.774V568.424h20.154l-2.968,5.816,5.48,2.768-2.57,10.832,7.775-13.793-4.773-1.99,5.459-3.632H651.24Z" transform="translate(-611.375 -568.025)" fill="#fff"/>
        <path id="Path_30129" data-name="Path 30129" d="M651.72,622.533H605.372a.4.4,0,0,1-.4-.4V562.021a.4.4,0,0,1,.4-.4h20.154a.4.4,0,0,1,.355.58l-2.786,5.459,5.122,2.587a.4.4,0,0,1,.208.448l-1.917,8.081,6.166-10.939-4.358-1.817a.4.4,0,0,1-.068-.7l5.459-3.632a.4.4,0,0,1,.221-.067h10.909a.4.4,0,0,1,.282.117L652,568.621a.4.4,0,0,1,.117.282v53.23A.4.4,0,0,1,651.72,622.533Zm-45.949-.8h45.55V569.069l-6.649-6.649H634.049l-4.737,3.152,4.085,1.7a.4.4,0,0,1,.194.564l-7.775,13.793a.4.4,0,0,1-.736-.288l2.5-10.526-5.2-2.626a.4.4,0,0,1-.176-.537l2.672-5.235h-19.1Z" transform="translate(-604.973 -561.622)" fill="#afafaf"/>
      </g>
      <g id="Group_15626" data-name="Group 15626" transform="translate(589.447 404.906)">
        <path id="Path_30130" data-name="Path 30130" d="M1291.455,575.306h-6.882v-6.882Z" transform="translate(-1284.173 -568.025)" fill="#ccc"/>
        <path id="Path_30131" data-name="Path 30131" d="M1285.052,569.3h-6.882a.4.4,0,0,1-.4-.4v-6.882a.4.4,0,0,1,.681-.282l6.882,6.882a.4.4,0,0,1-.282.681Zm-6.484-.8h5.52l-5.52-5.52Z" transform="translate(-1277.771 -561.621)" fill="#afafaf"/>
      </g>
      <rect id="Rectangle_3889" data-name="Rectangle 3889" width="31.715" height="2.318" rx="1.159" transform="translate(557.697 431.185)" fill="#ccc"/>
      <rect id="Rectangle_3890" data-name="Rectangle 3890" width="31.715" height="2.318" rx="1.159" transform="translate(557.697 438.382)" fill="#ccc"/>
      <rect id="Rectangle_3891" data-name="Rectangle 3891" width="31.715" height="2.318" rx="1.159" transform="translate(557.697 445.579)" fill="#ccc"/>
      <g id="Group_15627" data-name="Group 15627" transform="translate(568.173 395.14)">
        <path id="Path_30132" data-name="Path 30132" d="M917.706,443.355l-2.619-3.322,1.928-.578Z" transform="translate(-915.088 -436.856)" fill="#ccc"/>
        <path id="Path_30133" data-name="Path 30133" d="M983.218,399.989l-1.3-4.849h2.869Z" transform="translate(-977.995 -395.14)" fill="#ccc"/>
        <path id="Path_30134" data-name="Path 30134" d="M1043.039,457.15l1.586-2.745.915,1.073Z" transform="translate(-1035.533 -450.929)" fill="#ccc"/>
      </g>
    </g>
  </g>
</svg>
