<svg xmlns="http://www.w3.org/2000/svg" width="37.488" height="28" viewBox="0 0 37.488 28">
  <g id="Group_1" data-name="Group 1" transform="translate(4656.123 -2321.011)">
    <text id="E-" transform="translate(-4656.123 2342.011)" fill="#1c2e3d" font-size="20" font-family="Poppins-SemiBold, Poppins" font-weight="600"><tspan x="0" y="0" fill="#000">e</tspan><tspan y="0" fill="#1c2e3d" font-size="15">-</tspan></text>
    <g id="noun_Paper_248434" transform="translate(-4633.718 2324.786)">
      <g id="Group_15475" data-name="Group 15475" transform="translate(0 0)">
        <g id="Group_15468" data-name="Group 15468">
          <path id="Path_29736" data-name="Path 29736" d="M31.626,5H17.457A.457.457,0,0,0,17,5.457V25.111a.457.457,0,0,0,.457.457H31.626a.457.457,0,0,0,.457-.457V5.457A.457.457,0,0,0,31.626,5Zm-.457,19.654H17.914V5.914H31.169Z" transform="translate(-17 -5)"/>
        </g>
        <g id="Group_15469" data-name="Group 15469" transform="translate(9.226 2.163)">
          <rect id="Rectangle_3855" data-name="Rectangle 3855" width="3.515" height="3.515" transform="translate(0 0)"/>
        </g>
        <g id="Group_15470" data-name="Group 15470" transform="translate(2.196 4.686)">
          <rect id="Rectangle_3856" data-name="Rectangle 3856" width="5.858" transform="translate(0 0)"/>
        </g>
        <g id="Group_15471" data-name="Group 15471" transform="translate(2.196 7.029)">
          <rect id="Rectangle_3857" data-name="Rectangle 3857" width="5.858" transform="translate(0 0)"/>
        </g>
        <g id="Group_15472" data-name="Group 15472" transform="translate(2.196 6.849)">
          <rect id="Rectangle_3858" data-name="Rectangle 3858" width="10.544" height="1.172" transform="translate(0 0)"/>
        </g>
        <g id="Group_15476" data-name="Group 15476" transform="translate(2.196 11.715)">
          <rect id="Rectangle_3858-2" data-name="Rectangle 3858" width="10.544" height="1.172" transform="translate(0 0)"/>
        </g>
        <g id="Group_15473" data-name="Group 15473" transform="translate(2.196 9.192)">
          <rect id="Rectangle_3859" data-name="Rectangle 3859" width="10.544" height="1.172" transform="translate(0 0)"/>
        </g>
        <g id="Group_15477" data-name="Group 15477" transform="translate(2.196 14.059)">
          <rect id="Rectangle_3859-2" data-name="Rectangle 3859" width="10.544" height="1.172" transform="translate(0 0)"/>
        </g>
        <g id="Group_15479" data-name="Group 15479" transform="translate(2.196 16.402)">
          <rect id="Rectangle_3859-3" data-name="Rectangle 3859" width="10.544" height="1.172" transform="translate(0 0)"/>
        </g>
        <g id="Group_15474" data-name="Group 15474" transform="translate(2.196 16.492)">
          <rect id="Rectangle_3860" data-name="Rectangle 3860" width="10.544" transform="translate(0 0)"/>
        </g>
        <g id="Group_15478" data-name="Group 15478" transform="translate(2.196 16.582)">
          <rect id="Rectangle_3860-2" data-name="Rectangle 3860" width="10.544" transform="translate(0 0)"/>
        </g>
      </g>
    </g>
  </g>
</svg>
