<svg xmlns="http://www.w3.org/2000/svg" xmlns:xlink="http://www.w3.org/1999/xlink" width="32" height="32" viewBox="0 0 32 32">
  <defs>
    <clipPath id="clip-path">
      <path id="Path_24" data-name="Path 24" d="M348.857,12.925a11.737,11.737,0,0,1,0,20.3A11.7,11.7,0,0,1,331.25,23.077a11.749,11.749,0,0,1,17.607-10.152Z" transform="translate(-331.25 -11.36)"/>
    </clipPath>
  </defs>
  <g id="Group_18629" data-name="Group 18629" transform="translate(8407 1020)">
    <rect id="Rectangle_4228" data-name="Rectangle 4228" width="32" height="32" transform="translate(-8407 -1020)" fill="none"/>
    <g id="Group_18628" data-name="Group 18628" transform="translate(-8403 -1020)">
      <path id="Path_21" data-name="Path 21" d="M363,97.58H353.62a.99.99,0,0,1-.99-.99h0a.99.99,0,0,1,.99-.99H363a.99.99,0,0,1,.99.99h0A.988.988,0,0,1,363,97.58Z" transform="translate(-346.667 -68.405)" fill="#ff6417"/>
      <path id="Path_22" data-name="Path 22" d="M365.208,107.71H358.62a.99.99,0,0,1-.99-.99h0a.99.99,0,0,1,.99-.99h6.588a.99.99,0,0,1,.99.99h0A.987.987,0,0,1,365.208,107.71Z" transform="translate(-350.273 -75.71)" fill="#ff6417"/>
      <g id="Group_5" data-name="Group 5" transform="translate(0 2.095)">
        <g id="Group_4" data-name="Group 4" clip-path="url(#clip-path)">
          <path id="Path_23" data-name="Path 23" d="M353.108,17.186a11.737,11.737,0,0,0-20.3,11.781,11.569,11.569,0,0,0,4.262,4.262c.229.134.46.257.695.374a.865.865,0,0,1,.845-.817.815.815,0,0,1,.485.159,1.484,1.484,0,0,1,1.386-1.174,1.954,1.954,0,0,1,1.408.614l.376-5.464v-.494h1.7l.376,5.924a1.97,1.97,0,0,1,1.383-.58A1.479,1.479,0,0,1,347.1,32.9a.83.83,0,0,1,.418-.12.863.863,0,0,1,.834.706c.165-.086.329-.17.491-.265a11.661,11.661,0,0,0,5.826-10.152A11.46,11.46,0,0,0,353.108,17.186Z" transform="translate(-331.243 -11.36)" fill="#ff6417"/>
        </g>
      </g>
      <g id="Group_6" data-name="Group 6" transform="translate(5.787)">
        <path id="Path_25" data-name="Path 25" d="M366.705,5.936l-.059.126-.957,2.072.053,11.834h4.064V7.927L367.748,3.85Z" transform="translate(-361.872 -3.85)" fill="#fff"/>
        <rect id="Rectangle_1" data-name="Rectangle 1" width="1.358" height="12.026" transform="translate(5.218 4.119)" fill="#ff6417"/>
        <path id="Path_26" data-name="Path 26" d="M355.927,43.88l.042,4.976L352,48.833V47.762S355.871,43.88,355.927,43.88Z" transform="translate(-352 -32.716)" fill="#fff"/>
        <path id="Path_27" data-name="Path 27" d="M369.33,5.936h2.058L370.373,3.85Z" transform="translate(-364.497 -3.85)" fill="#ff6417"/>
        <path id="Path_28" data-name="Path 28" d="M380.372,43.8l-.042,5,3.958-.025V47.7S380.428,43.8,380.372,43.8Z" transform="translate(-372.429 -32.658)" fill="#fff"/>
        <path id="Path_29" data-name="Path 29" d="M368.32,62.3h-4.387a.462.462,0,0,1-.463-.463v-.2a.462.462,0,0,1,.463-.463h4.387a.462.462,0,0,1,.463.463v.2A.464.464,0,0,1,368.32,62.3Z" transform="translate(-360.271 -45.191)" fill="#fff"/>
      </g>
    </g>
  </g>
</svg>
