<svg xmlns="http://www.w3.org/2000/svg" xmlns:xlink="http://www.w3.org/1999/xlink" width="51.606" height="88.338" viewBox="0 0 51.606 88.338">
  <defs>
    <clipPath id="clip-path">
      <circle id="Ellipse_203" data-name="Ellipse 203" cx="19.635" cy="19.635" r="19.635" fill="#fcbf75"/>
    </clipPath>
  </defs>
  <g id="Group_15621" data-name="Group 15621" transform="translate(-1161.197 -391.331)">
    <g id="Gold" transform="translate(1123.731 294.331)">
      <path id="Path_30112" data-name="Path 30112" d="M114.971,97,97.28,130.149a.611.611,0,0,0,.57.829h14.321a.611.611,0,0,0,.57-.392L130.6,97Z" transform="translate(-41.528)" fill="#1577bf"/>
      <path id="Path_30113" data-name="Path 30113" d="M104.8,229.743H82.976a1.437,1.437,0,0,0-1.437,1.437v11.767h24.7V231.18A1.437,1.437,0,0,0,104.8,229.743Zm-1.662,3.392a1.369,1.369,0,0,1-1.369,1.369H86.006a1.369,1.369,0,0,1-1.369-1.369v0a1.369,1.369,0,0,1,1.369-1.369h15.765a1.369,1.369,0,0,1,1.369,1.369Z" transform="translate(-30.62 -101.257)" fill="#fdaf1b"/>
      <path id="Path_30114" data-name="Path 30114" d="M70.944,130.564,53.095,97H37.466l17.858,33.587a.611.611,0,0,0,.57.392H70.659A.305.305,0,0,0,70.944,130.564Z" fill="#1c9eff"/>
      <circle id="Ellipse_431" data-name="Ellipse 431" cx="24.012" cy="24.012" r="24.012" transform="translate(39.257 185.338) rotate(-90)" fill="#fdc824"/>
      <path id="Path_30115" data-name="Path 30115" d="M79.272,277.359A17.246,17.246,0,1,1,62.026,294.6a17.265,17.265,0,0,1,17.246-17.246Zm0-1.526A18.772,18.772,0,1,0,98.044,294.6a18.772,18.772,0,0,0-18.772-18.772Z" transform="translate(-16.003 -133.279)" fill="#fdaf1b"/>
    </g>
    <g id="Group_15551" data-name="Group 15551" transform="translate(1028 293.999)">
      <g id="Group_601" data-name="Group 601" transform="translate(139 142.001)">
        <path id="Path_30081" data-name="Path 30081" d="M20,0A19.9,19.9,0,1,1,0,19.9,19.95,19.95,0,0,1,20,0Z" transform="translate(0 0)"/>
        <g id="Group_600" data-name="Group 600" transform="translate(0.5 0.73)" clip-path="url(#clip-path)">
          <g id="Group_599" data-name="Group 599" transform="translate(-0.421 4.371)">
            <g id="Group_585" data-name="Group 585" transform="translate(9.388 26.725)">
              <path id="Path_659" data-name="Path 659" d="M1324.351,353.138a7.515,7.515,0,0,0-4.639,1.421,7.229,7.229,0,0,0,.336.726,7.388,7.388,0,0,1,8.607,0,7.194,7.194,0,0,0,.335-.726A7.514,7.514,0,0,0,1324.351,353.138Z" transform="translate(-1313.683 -351.364)" fill="#4c62a1"/>
              <path id="Path_660" data-name="Path 660" d="M1293.141,339.165a.381.381,0,0,0-.425-.324c-.571.07-1.114.151-1.62.246-.177.033-.382.076-.606.129a.4.4,0,0,0-.294.423,26.386,26.386,0,0,0,.855,4.149c.2.775.379,1.491.551,2.531a4.727,4.727,0,0,1,3.5-1.8H1296a3.574,3.574,0,0,1-1.8-1.765,7.176,7.176,0,0,1-.336-.726A12.471,12.471,0,0,1,1293.141,339.165Z" transform="translate(-1287.827 -338.838)" fill="#4c62a1"/>
              <path id="Path_661" data-name="Path 661" d="M1382.752,339.216c-.224-.053-.429-.1-.606-.129-.506-.094-1.049-.176-1.62-.246a.381.381,0,0,0-.425.324,12.482,12.482,0,0,1-.715,2.868,7.23,7.23,0,0,1-.336.726,3.574,3.574,0,0,1-1.8,1.765h.894a4.727,4.727,0,0,1,3.5,1.8c.172-1.04.351-1.756.551-2.531a26.389,26.389,0,0,0,.856-4.149A.388.388,0,0,0,1382.752,339.216Z" transform="translate(-1364.079 -338.838)" fill="#4c62a1"/>
              <path id="Path_662" data-name="Path 662" d="M1273.371,538.956l.346-7.719-2.595,1.359v2.354c0,2.751.784,5.562,3.217,7.025A4.54,4.54,0,0,1,1273.371,538.956Z" transform="translate(-1271.122 -507.371)" fill="#4c62a1"/>
              <path id="Path_663" data-name="Path 663" d="M1273.734,521.568q.022-.474.028-.948l-2.435,1.275a.382.382,0,0,0-.2.339V523.3l2.595-1.359Z" transform="translate(-1271.122 -498.07)" fill="#4c62a1"/>
              <path id="Path_664" data-name="Path 664" d="M1418.123,538.956a4.541,4.541,0,0,1-.967,3.019c2.433-1.463,3.217-4.274,3.217-7.025V532.6l-2.6-1.359Z" transform="translate(-1399.036 -507.371)" fill="#4c62a1"/>
              <path id="Path_665" data-name="Path 665" d="M1424.242,521.895l-2.435-1.275q.007.474.028.948l.016.369,2.6,1.359v-1.063A.382.382,0,0,0,1424.242,521.895Z" transform="translate(-1403.111 -498.07)" fill="#4c62a1"/>
              <path id="Path_666" data-name="Path 666" d="M1302.639,410.572l-.346-7.719-.017-.369q-.021-.474-.028-.948a31.153,31.153,0,0,1,.2-4l.639-5.58a6.217,6.217,0,0,0-.771-3.8c-.908-1.586-2.463-3.49-4.7-3.49h-6.788c-2.238,0-3.793,1.9-4.7,3.49a6.214,6.214,0,0,0-.771,3.8l.639,5.58a31.153,31.153,0,0,1,.2,4q-.006.474-.028.948l-.017.369-.346,7.719a4.562,4.562,0,0,0,4.558,4.766h7.721a4.562,4.562,0,0,0,4.558-4.766Z" transform="translate(-1283.552 -378.986)" fill="#4c62a1"/>
            </g>
            <g id="Group_587" data-name="Group 587" transform="translate(17.047 18.24)">
              <ellipse id="Ellipse_197" data-name="Ellipse 197" cx="2.293" cy="2.292" rx="2.293" ry="2.292" transform="translate(0.716 7.043)" fill="#ff9395"/>
              <g id="Group_586" data-name="Group 586" transform="translate(0 0.001)">
                <path id="Path_667" data-name="Path 667" d="M1335.856,285.4a3.005,3.005,0,0,1-3.006-3v-8.94a3.005,3.005,0,0,1,6.011,0v8.94A3,3,0,0,1,1335.856,285.4Z" transform="translate(-1332.851 -270.447)" fill="#ff9395"/>
              </g>
              <path id="Path_668" data-name="Path 668" d="M1335.856,270.437a3.005,3.005,0,0,0-3.006,3v4.328a8.568,8.568,0,0,0,6.011,0v-4.328A3,3,0,0,0,1335.856,270.437Z" transform="translate(-1332.851 -270.437)" fill="#ff9395"/>
            </g>
            <g id="Group_588" data-name="Group 588" transform="translate(7.524 27.575)">
              <ellipse id="Ellipse_198" data-name="Ellipse 198" cx="2.293" cy="2.292" rx="2.293" ry="2.292" transform="translate(16.414 35.915)" fill="#ff9395"/>
              <ellipse id="Ellipse_199" data-name="Ellipse 199" cx="2.293" cy="2.292" rx="2.293" ry="2.292" transform="translate(4.058 35.915)" fill="#ff9395"/>
              <ellipse id="Ellipse_200" data-name="Ellipse 200" cx="1.72" cy="1.719" rx="1.72" ry="1.719" transform="translate(21.596 1.928)" fill="#ff9395"/>
              <ellipse id="Ellipse_201" data-name="Ellipse 201" cx="1.72" cy="1.719" rx="1.72" ry="1.719" transform="translate(0.03 1.928)" fill="#ff9395"/>
              <path id="Path_669" data-name="Path 669" d="M1275.951,346.246a48.834,48.834,0,0,0-14.657,0c-1.236.23-3.823.965-4.783,2a1.811,1.811,0,0,0,.1,2.425,5.022,5.022,0,0,1,1.586,2.6h0c1.009,4.18,1.975,7.822,2.731,10.759h0a21.29,21.29,0,0,1-.442,12.073c-.384,1.133-.5,1.933-.493,5.421-.055,4.306.41,5.926,8.628,5.926h0c8.218,0,8.682-1.62,8.628-5.926.01-3.222-.059-4.142-.493-5.421a21.289,21.289,0,0,1-.442-12.073h0c.756-2.937,1.723-6.578,2.731-10.758h0a5.023,5.023,0,0,1,1.586-2.6,1.811,1.811,0,0,0,.1-2.425C1279.774,347.212,1277.187,346.476,1275.951,346.246Z" transform="translate(-1256.094 -345.693)" fill="#ff9395"/>
            </g>
            <g id="Group_590" data-name="Group 590" transform="translate(28.364 28.737)">
              <path id="Path_670" data-name="Path 670" d="M1438.288,400.564a1.719,1.719,0,0,1-1.794-1.642l-.469-10.658a56.9,56.9,0,0,0-2.583-14.619l-3.213-10.173a1.72,1.72,0,0,1,3.28-1.035l3.212,10.173a60.317,60.317,0,0,1,2.739,15.5l.469,10.658A1.72,1.72,0,0,1,1438.288,400.564Z" transform="translate(-1429.394 -360.468)" fill="#ff9395"/>
              <path id="Path_671" data-name="Path 671" d="M1471.895,649.994a.6.6,0,0,1-.361-.118.107.107,0,0,0-.166.056.717.717,0,0,1-1.184.321.107.107,0,0,0-.176.048.822.822,0,0,1-1.575.015.107.107,0,0,0-.079-.073.106.106,0,0,0-.1.033A.719.719,0,0,1,1467,649.8s-.014-.718-.024-1a.113.113,0,0,0-.113-.11c-.81,0-1.034-1.048-.758-2.268.323-1.433,1.684-3.917,3.5-3.829a3.4,3.4,0,0,1,2.928,3.572c.008.365.009-.3-.013,3.221A.619.619,0,0,1,1471.895,649.994Z" transform="translate(-1460.787 -606.917)" fill="#ff9395"/>
              <g id="Group_589" data-name="Group 589">
                <path id="Path_672" data-name="Path 672" d="M1477.472,648.371a.19.19,0,0,0,.124.171A.19.19,0,0,1,1477.472,648.371Z" transform="translate(-1470.844 -611.985)" fill="#e3e8f3"/>
                <path id="Path_673" data-name="Path 673" d="M1509.847,647.609a.191.191,0,0,0,.171-.124A.191.191,0,0,1,1509.847,647.609Z" transform="translate(-1499.202 -611.209)" fill="#e3e8f3"/>
                <path id="Path_674" data-name="Path 674" d="M1465.256,490.326l.042.954-.377-8.573a60.71,60.71,0,0,0-2.129-13.463l-4.013,1.267a56.482,56.482,0,0,1,1.942,12.381l.377,8.573-.042-.954Z" transform="translate(-1454.471 -455.079)" fill="#e3e8f3"/>
                <path id="Path_675" data-name="Path 675" d="M1481.332,639.189l-4.2.185.042.954a.192.192,0,0,0,.2.183l3.818-.168a.191.191,0,0,0,.183-.2Z" transform="translate(-1470.547 -603.942)" fill="#d5d1da"/>
                <path id="Path_676" data-name="Path 676" d="M1493,467.492a.191.191,0,0,0,.133-.164A.191.191,0,0,1,1493,467.492Z" transform="translate(-1484.444 -453.4)" fill="#a6cbe0"/>
                <path id="Path_677" data-name="Path 677" d="M1455.191,476.78l-.089-.282.089.282a.191.191,0,0,0,.236.125A.191.191,0,0,1,1455.191,476.78Z" transform="translate(-1451.25 -461.433)" fill="#a6cbe0"/>
                <path id="Path_678" data-name="Path 678" d="M1462.122,468.652l-4.373,1.38h0l.127-.04,4.013-1.267Z" transform="translate(-1453.569 -454.56)" fill="#a6cbe0"/>
                <path id="Path_679" data-name="Path 679" d="M1432.449,368l.148.468-3.685-11.673a2.484,2.484,0,0,0-4.738,1.5l3.538,11.2Z" transform="translate(-1424.059 -355.055)" fill="#a6cbe0"/>
                <path id="Path_680" data-name="Path 680" d="M1458.4,460.528a.192.192,0,0,0,.133-.164.187.187,0,0,0-.008-.075l-.14-.442-.148-.468-4.737,1.5h0l.2.629.089.282a.191.191,0,0,0,.236.125h0Z" transform="translate(-1449.849 -446.436)" fill="#838ac9"/>
              </g>
            </g>
            <g id="Group_592" data-name="Group 592" transform="translate(0 28.737)">
              <path id="Path_681" data-name="Path 681" d="M1206.854,400.564a1.719,1.719,0,0,0,1.794-1.642l.469-10.658a56.871,56.871,0,0,1,2.583-14.619l3.212-10.173a1.72,1.72,0,0,0-3.28-1.035l-3.212,10.173a60.312,60.312,0,0,0-2.74,15.5l-.469,10.658A1.719,1.719,0,0,0,1206.854,400.564Z" transform="translate(-1203.999 -360.468)" fill="#ff9395"/>
              <path id="Path_682" data-name="Path 682" d="M1196.1,649.994a.6.6,0,0,0,.361-.118.107.107,0,0,1,.166.056.717.717,0,0,0,1.184.321.107.107,0,0,1,.177.048.821.821,0,0,0,1.575.015.108.108,0,0,1,.079-.073.106.106,0,0,1,.1.033A.719.719,0,0,0,1201,649.8s.014-.718.023-1a.113.113,0,0,1,.113-.11c.81,0,1.034-1.048.759-2.268-.323-1.433-1.684-3.917-3.5-3.829a3.4,3.4,0,0,0-2.928,3.572c-.008.365-.009-.3.013,3.221A.618.618,0,0,0,1196.1,649.994Z" transform="translate(-1195.457 -606.917)" fill="#ff9395"/>
              <g id="Group_591" data-name="Group 591" transform="translate(0.922)">
                <path id="Path_683" data-name="Path 683" d="M1202.979,647.485a.192.192,0,0,0,.171.124A.192.192,0,0,1,1202.979,647.485Z" transform="translate(-1202.968 -611.209)" fill="#e3e8f3"/>
                <path id="Path_684" data-name="Path 684" d="M1203.559,482.707l-.335,7.619,4.2.185-.042.954.378-8.573a56.481,56.481,0,0,1,1.941-12.381l-4.013-1.267A60.732,60.732,0,0,0,1203.559,482.707Z" transform="translate(-1203.182 -455.079)" fill="#e3e8f3"/>
                <path id="Path_685" data-name="Path 685" d="M1235.731,648.542a.191.191,0,0,0,.125-.171A.191.191,0,0,1,1235.731,648.542Z" transform="translate(-1231.655 -611.985)" fill="#e3e8f3"/>
                <path id="Path_686" data-name="Path 686" d="M1202.926,639.189h0l-.042.954a.189.189,0,0,0,.011.075.192.192,0,0,0,.171.124l3.818.168a.191.191,0,0,0,.2-.183l.042-.954Z" transform="translate(-1202.884 -603.942)" fill="#d5d1da"/>
                <path id="Path_687" data-name="Path 687" d="M1220.138,467.328a.191.191,0,0,0,.133.164A.191.191,0,0,1,1220.138,467.328Z" transform="translate(-1217.997 -453.4)" fill="#a6cbe0"/>
                <path id="Path_688" data-name="Path 688" d="M1228.131,355.171a2.484,2.484,0,0,0-3.116,1.621l-3.686,11.673.148-.468,4.737,1.5-.288.911a.191.191,0,0,1-.236.125.191.191,0,0,0,.236-.125l3.825-12.115A2.487,2.487,0,0,0,1228.131,355.171Z" transform="translate(-1219.041 -355.055)" fill="#a6cbe0"/>
                <path id="Path_689" data-name="Path 689" d="M1221.208,468.652l.233.073,4.013,1.267.127.04h0Z" transform="translate(-1218.934 -454.56)" fill="#a6cbe0"/>
                <path id="Path_690" data-name="Path 690" d="M1224.877,461.783l.288-.911-4.737-1.5-.148.468-.14.442a.191.191,0,0,0,.125.24l4.373,1.38h0A.19.19,0,0,0,1224.877,461.783Z" transform="translate(-1217.991 -446.436)" fill="#838ac9"/>
              </g>
            </g>
            <g id="Group_593" data-name="Group 593" transform="translate(11.229 58.223)">
              <path id="Path_691" data-name="Path 691" d="M1303.6,597.963c0-.07,0-.141,0-.211,0-.786,0-1.435-.015-1.984h-.018c0-.165-.008-.324-.008-.491a8.75,8.75,0,0,0-.336-2.386.194.194,0,0,0-.186-.14h-16.514a.194.194,0,0,0-.186.14,8.741,8.741,0,0,0-.336,2.386c0,.167-.005.326-.008.491h-.014c-.015.541-.02,1.188-.019,1.966q0,.115,0,.229c-.024,1.919.042,3.469,1.054,4.493,1.123,1.137,3.372,1.6,7.765,1.6h0c4.393,0,6.643-.464,7.766-1.6C1303.563,601.432,1303.628,599.881,1303.6,597.963Z" transform="translate(-1285.961 -592.751)" fill="#4c62a1"/>
              <ellipse id="Ellipse_202" data-name="Ellipse 202" cx="0.717" cy="0.716" rx="0.717" ry="0.716" transform="translate(8.298 0.792)" fill="#4c62a1"/>
              <path id="Path_692" data-name="Path 692" d="M1301.043,595.768h2.554c0-.008-.011-.573-.011-.573h-9.581v-1.719a.151.151,0,0,1,.151-.151h9.2c-.034-.146-.067-.291-.108-.435a.193.193,0,0,0-.186-.138h-16.514a.193.193,0,0,0-.186.138c-.041.144-.074.29-.108.435h7.189a.726.726,0,0,0-.016.151v1.719h-7.4s-.011.565-.011.573h2.554a2.36,2.36,0,0,1-2.587,2.211c0,.2,0,.389.012.578a2.936,2.936,0,0,0,3.152-2.789h4.279V600.3a.382.382,0,0,0,.382.382h.736a1.7,1.7,0,0,0,1.7-1.7v-3.212h4.215a2.936,2.936,0,0,0,3.153,2.789q.01-.284.011-.578A2.36,2.36,0,0,1,1301.043,595.768Zm-5.365,3.212a1.127,1.127,0,0,1-1.127,1.126h-.469a.077.077,0,0,1-.076-.076v-4.262h1.672Z" transform="translate(-1285.986 -592.751)" fill="#4c62a1"/>
            </g>
            <g id="Group_594" data-name="Group 594" transform="translate(6.765 26.9)">
              <path id="Path_693" data-name="Path 693" d="M1302.44,617.07h-17.956c0,.288-.007.579-.013.859-.011.462-.021.918-.019,1.364,0-.313.006-.636.013-.957h17.995c.006.321.015.644.013.957,0-.446-.008-.9-.019-1.364-.007-.28-.009-.571-.014-.859Z" transform="translate(-1280.174 -582.73)" fill="#e3e8f3"/>
              <path id="Path_694" data-name="Path 694" d="M1284.466,627.272c-.007.321-.015.644-.013.957a.192.192,0,0,0,.192.189h17.636a.192.192,0,0,0,.193-.189c0-.313-.006-.636-.013-.957Z" transform="translate(-1280.175 -591.666)" fill="#d5d1da"/>
              <path id="Path_695" data-name="Path 695" d="M1275.939,343.376c-1.7-1.837-6.03-2.46-8.529-2.653-.088,1.6-1.873,2.831-4.144,2.831s-4.056-1.235-4.144-2.831c-2.477.191-6.918.83-8.554,2.682a2.59,2.59,0,0,0,.156,3.465c1.38,1.332,1.21,1.653,2.256,5.8h0a32.365,32.365,0,0,1,.927,6.588h0c0,.039,0,10.414,0,14.594h18.721c-.007-15.371-.223-16.644.927-21.183h0c1.07-4.249.9-4.494,2.256-5.805A2.59,2.59,0,0,0,1275.939,343.376Z" transform="translate(-1249.979 -340.664)" fill="#a6cbe0"/>
              <path id="Path_696" data-name="Path 696" d="M1331.087,340.247a.293.293,0,0,0-.3.217c-.231.852-1.494,1.527-2.965,1.527s-2.734-.675-2.965-1.527a.294.294,0,0,0-.3-.217q-.449.025-.879.059c.088,1.6,1.873,2.831,4.144,2.831s4.056-1.235,4.144-2.831Q1331.536,340.273,1331.087,340.247Z" transform="translate(-1314.534 -340.247)" fill="#e3e8f3"/>
              <path id="Path_697" data-name="Path 697" d="M1281.63,607.83h0c0,.285,0,.543,0,.766a.381.381,0,0,0,.382.381h17.956a.38.38,0,0,0,.382-.379v-.767H1281.63Z" transform="translate(-1277.703 -574.636)" fill="#838ac9"/>
            </g>
            <g id="Group_595" data-name="Group 595" transform="translate(10.428 26.729)">
              <path id="Path_698" data-name="Path 698" d="M1400.8,361.984a1.473,1.473,0,0,0-.12-.582,22.32,22.32,0,0,1-1.527-5.911,47.647,47.647,0,0,1-.536-6.111,72.149,72.149,0,0,1,.853-9.712.383.383,0,0,0-.294-.425c-.222-.052-.425-.1-.6-.128-.413-.077-1.167-.181-1.622-.241a.384.384,0,0,0-.431.326,52.893,52.893,0,0,0-.385,11.237,36.629,36.629,0,0,0,2.15,10.938c.68,1.678,1.4,3.366,2.218,5a.155.155,0,0,0,.294-.069Z" transform="translate(-1381.548 -338.871)" fill="#4c62a1"/>
              <path id="Path_699" data-name="Path 699" d="M1279.505,361.984a1.476,1.476,0,0,1,.12-.582,22.325,22.325,0,0,0,1.527-5.911,47.691,47.691,0,0,0,.536-6.111,72.168,72.168,0,0,0-.852-9.712.384.384,0,0,1,.294-.425c.222-.052.424-.1.6-.128.413-.077,1.167-.181,1.622-.241a.385.385,0,0,1,.431.326,52.893,52.893,0,0,1,.385,11.237,36.621,36.621,0,0,1-2.151,10.938c-.68,1.678-1.4,3.366-2.217,5a.155.155,0,0,1-.294-.069Z" transform="translate(-1279.505 -338.871)" fill="#4c62a1"/>
            </g>
            <g id="Group_598" data-name="Group 598" transform="translate(9.802)">
              <g id="Group_596" data-name="Group 596" transform="translate(0.748 3.418)">
                <path id="Path_700" data-name="Path 700" d="M1413.479,228.91c-.708-.127-1.5.986-1.769,2.486s.086,2.819.793,2.946,1.5-.986,1.769-2.486S1414.186,229.037,1413.479,228.91Z" transform="translate(-1395.349 -219.231)" fill="#ff9395"/>
                <path id="Path_701" data-name="Path 701" d="M1281.366,228.91c.708-.127,1.5.986,1.769,2.486s-.086,2.819-.793,2.946-1.5-.986-1.769-2.486S1280.658,229.037,1281.366,228.91Z" transform="translate(-1280.482 -219.231)" fill="#ff9395"/>
                <path id="Path_702" data-name="Path 702" d="M1297.72,150.951c-6.767,0-8.415,4.768-8.415,10.649s3.768,10.65,8.415,10.65,8.416-4.768,8.416-10.65S1304.487,150.951,1297.72,150.951Z" transform="translate(-1288.21 -150.951)" fill="#ff9395"/>
                <path id="Path_703" data-name="Path 703" d="M1315.308,242.773a.658.658,0,0,0-.658.658v.411a.658.658,0,0,0,.658.658h0a.658.658,0,0,0,.658-.658v-.41A.658.658,0,0,0,1315.308,242.773Z" transform="translate(-1310.411 -231.382)" fill="#4c62a1"/>
                <path id="Path_704" data-name="Path 704" d="M1389.656,242.773a.658.658,0,0,0-.658.658v.41a.658.658,0,0,0,1.317,0v-.411A.658.658,0,0,0,1389.656,242.773Z" transform="translate(-1375.534 -231.382)" fill="#4c62a1"/>
                <path id="Path_705" data-name="Path 705" d="M1381.205,226.832a4.288,4.288,0,0,1,3.079.258.382.382,0,0,1-.324.692,3.487,3.487,0,0,0-2.436-.255.382.382,0,0,1-.319-.694Z" transform="translate(-1368.513 -217.235)" fill="#4c62a1"/>
                <path id="Path_706" data-name="Path 706" d="M1305.11,227.091a4.289,4.289,0,0,1,3.079-.258.382.382,0,0,1-.319.694,3.5,3.5,0,0,0-2.436.255.382.382,0,0,1-.323-.692Z" transform="translate(-1301.862 -217.236)" fill="#4c62a1"/>
                <path id="Path_707" data-name="Path 707" d="M1338.717,281.558a4.429,4.429,0,0,0,2.484-.509.3.3,0,0,0-.178-.542.3.3,0,0,0-.171.053,5.925,5.925,0,0,1-4.271,0,.3.3,0,0,0-.349.49A4.43,4.43,0,0,0,1338.717,281.558Z" transform="translate(-1329.207 -264.434)" fill="#4c62a1"/>
              </g>
              <g id="Group_597" data-name="Group 597">
                <path id="Path_708" data-name="Path 708" d="M1284.71,123.4c-6.4,0-10.736,4.684-10.211,13.087a9.465,9.465,0,0,0,1.431,4.677,8.337,8.337,0,0,1-.684-2.858c-.487-7.072,3.528-11.012,9.463-11.013s9.95,3.941,9.464,11.013a8.339,8.339,0,0,1-.683,2.858,9.468,9.468,0,0,0,1.431-4.677C1295.447,128.085,1291.115,123.4,1284.71,123.4Z" transform="translate(-1274.456 -123.401)" fill="#e3e8f3"/>
                <path id="Path_709" data-name="Path 709" d="M1294.986,123.783a9.807,9.807,0,0,1,8.8,4.674,10.183,10.183,0,0,0-17.6,0A9.807,9.807,0,0,1,1294.986,123.783Z" transform="translate(-1284.732 -123.401)" fill="#e3e8f3"/>
              </g>
              <path id="Path_710" data-name="Path 710" d="M1298.14,137.755h0c-1.606-2.744-4.51-4.208-8.127-4.209a11.655,11.655,0,0,0-2.752.314l0,0s-1.849-1.191-1.455-2.631a3.262,3.262,0,0,0-1.063,2.694c-.424-.516-1.086-2.4-.194-3.386-1.779.654-2.443,3.681-1.326,5.5a8.259,8.259,0,0,0-1.626,2.256h0l-.018.037-.027.057-.068.145-.02.042-.035.079-.025.057-.034.079-.022.053q-.031.074-.061.149l-.021.051-.031.081-.022.06-.03.082,0,.01h0a12.7,12.7,0,0,0-.647,4.94c.085-.77.372-1.335.8-1.455a16.66,16.66,0,0,1,.486,2.537c.483-.165.685-1.376.685-2.942,0-3.28,1.784-3.911,1.28-5.65h0a3.087,3.087,0,0,0,2.109.731h7.754c2.293,0,3.966,2.057,3.885,4.919-.044,1.566.2,2.778.685,2.942a16.642,16.642,0,0,1,.486-2.536c.43.124.719.706.8,1.5A11.554,11.554,0,0,0,1298.14,137.755Zm-14.7-1.4h0Zm.146.169-.008-.008Zm-.041-.045h0Zm.187.19.011.01Zm-.041-.039.008.008Z" transform="translate(-1279.758 -129.653)" fill="#4c62a1"/>
            </g>
          </g>
        </g>
      </g>
      <path id="Path_30082" data-name="Path 30082" d="M20,0A19.9,19.9,0,1,1,0,19.9,19.95,19.95,0,0,1,20,0Z" transform="translate(139 142.001)" fill="none" stroke="#fff" stroke-width="3"/>
    </g>
  </g>
</svg>
