<svg xmlns="http://www.w3.org/2000/svg" xmlns:xlink="http://www.w3.org/1999/xlink" width="1365" height="747" viewBox="0 0 1365 747">
  <defs>
    <clipPath id="clip-Artboard_8">
      <rect width="1365" height="747"/>
    </clipPath>
  </defs>
  <g id="Artboard_8" data-name="Artboard – 8" clip-path="url(#clip-Artboard_8)">
    <rect width="1365" height="747" fill="#fff"/>
    <path id="Union_11" data-name="Union 11" d="M1363.679,747.194c-41.574-.725-649.69-6.506-680.6-6.154v.007l-.233,0-.268,0v-.009c-23.826-.434-47.655-1.422-71.479-1.1-20.569.275-41.134,2.14-61.7,3.168-17.406.869-34.814,1.7-52.222,2.272-22.159.73-44.32,1.475-66.48,1.658-15.5.127-31-.329-46.491-1.166-15.813-.855-31.618-2.493-47.426-3.784-4.742-.387-9.484-.83-14.228-1.131-13.488-.855-26.976-2.162-40.466-2.359-23.993-.35-47.992-.517-71.982.2-17.4.523-34.789,2.618-52.183,3.976-10.153.792-20.3,1.966-30.461,2.186-41.826.9-83.651,1.506-125.478,2.236A12.31,12.31,0,0,0,0,747.551C0,500.046-.015,247.757-.015.252c34.16.5,38.274.96,57.414,0C70.631-.412,83.884.387,97.124.915q19.609.78,39.209,2.365c7.62.616,15.238.023,22.855-.568,7.515-.584,15.031-1.167,22.549-.591,21.713,1.664,43.43,2.473,65.152,3.1,18.145.521,36.305-.118,54.447-1.19,10.318-.609,20.634.031,30.949.671,11.983.744,23.963,1.488,35.942.274C404.362,1.308,440.51,2,476.66,2.354c21.243.207,42.484.841,63.726,1.021q70.105.6,140.211.917a10.985,10.985,0,0,0,1.983-.258V3.953l.249.039q.125-.021.251-.039v.082a10.946,10.946,0,0,0,1.983.259q70.105-.425,140.211-.917C846.516,3.2,867.758,2.562,889,2.355,925.149,2,961.3,1.308,997.431,4.974c12.15,1.232,24.3.771,36.46.311,10.142-.385,20.286-.769,30.432-.17,18.141,1.071,36.3,1.71,54.447,1.189,9.652-.278,19.3.265,28.955.807,12.067.678,24.132,1.356,36.2.432,15.14-1.16,30.267-3.039,45.4-4.262q19.6-1.581,39.21-2.366c13.24-.527,26.492-1.327,39.725-.663,19.139.96,38.321.386,57.394-.055,0,247.505,0,499.849,0,747.354A12.311,12.311,0,0,0,1363.679,747.194Z" transform="translate(1365.66 747.275) rotate(180)" fill="#004ba6" stroke="rgba(0,0,0,0)" stroke-miterlimit="10" stroke-width="1"/>
  </g>
</svg>
