<svg xmlns="http://www.w3.org/2000/svg" xmlns:xlink="http://www.w3.org/1999/xlink" width="836" height="151" viewBox="0 0 836 151">
  <defs>
    <clipPath id="clip-Artboard_2">
      <rect width="836" height="151"/>
    </clipPath>
  </defs>
  <g id="Artboard_2" data-name="Artboard – 2" clip-path="url(#clip-Artboard_2)">
    <path id="Path_78" data-name="Path 78" d="M112.324,13.857c9.4-.777,18.806-1.522,28.22-2.146,13.507-.9,27.034-1.54,40.593-1.656,63.312-.54,126.679-.629,190.021.591,61.86,1.192,123.755,6.474,185.587,6.232,57.012-.222,114.2-4.155,171.372-6.343,27.774,1.927,56.371,3.185,83.785-1.3q6.06.087,12.117.244a374.353,374.353,0,0,0,5.126,44.263c.654,18.567,1.471,37.125,3.108,55.636-105.352-1.448-210.614,1.518-315.734,5.684-113.649,4.5-227.159,1.309-340.971-1.372-57.891-1.364-115.873-3.438-173.774-4.268C.635,79.207.937,48.974.205,18.755,37.74,20.5,75,16.94,112.324,13.857Z" transform="translate(5.465 -9.36) rotate(3)" fill="#696eb7" opacity="0.9"/>
  </g>
</svg>
