<svg xmlns="http://www.w3.org/2000/svg" xmlns:xlink="http://www.w3.org/1999/xlink" width="501" height="150" viewBox="0 0 501 150">
  <defs>
    <clipPath id="clip-Artboard_1">
      <rect width="501" height="150"/>
    </clipPath>
  </defs>
  <g id="Artboard_1" data-name="Artboard – 1" clip-path="url(#clip-Artboard_1)">
    <g id="Group_144" data-name="Group 144" transform="translate(2 2)">
      <path id="Path_72" data-name="Path 72" d="M60.282,59.874c5.057.507,10.116.995,15.179,1.411,7.264.6,14.538,1.047,21.825,1.183,34.025.637,68.078,1.009,102.108.605,33.233-.394,66.459-3.207,99.686-2.754,30.638.418,61.394,3.031,92.132,4.612,14.912-1,30.271-1.6,45.032,1.192q3.256-.021,6.51-.083a241.32,241.32,0,0,1,2.457-26.154c.226-10.979.541-21.951,1.3-32.891-56.6.327-113.188-1.956-169.7-4.948C215.7-1.187,154.726.132,93.585,1.147,62.485,1.663,31.341,2.6.233,2.8-.176,20.66.19,38.544,0,56.414,20.158,55.568,40.2,57.863,60.282,59.874Z" transform="translate(446.331 78.643) rotate(-178.39)" fill="#ffcf00" opacity="0.7"/>
      <path id="Path_73" data-name="Path 73" d="M45.058,44.753c3.78.379,7.561.744,11.346,1.055,5.43.447,10.866.782,16.313.884,25.432.476,50.885.754,76.321.452,24.841-.295,49.675-2.4,74.511-2.058,22.9.312,45.889,2.266,68.865,3.447,11.146-.748,22.626-1.2,33.66.891q2.434-.016,4.866-.062a180.392,180.392,0,0,1,1.836-19.549c.169-8.206.4-16.407.969-24.585-42.308.245-84.6-1.462-126.846-3.7C161.227-.887,115.651.1,69.951.857,46.705,1.243,23.426,1.942.174,2.092-.131,15.443.142,28.81,0,42.167,15.067,41.535,30.051,43.25,45.058,44.753Z" transform="translate(428.304 86.945) rotate(-178.39)" fill="#ffcf00" opacity="0.7"/>
      <path id="Path_74" data-name="Path 74" d="M60.282,59.874c5.057.507,10.116.995,15.179,1.411,7.264.6,14.538,1.047,21.825,1.183,34.025.637,68.078,1.009,102.108.605,33.233-.394,66.459-3.207,99.686-2.754,30.638.418,61.394,3.031,92.132,4.612,14.912-1,30.271-1.6,45.032,1.192q3.256-.021,6.51-.083a241.32,241.32,0,0,1,2.457-26.154c.226-10.979.541-21.951,1.3-32.891-56.6.327-113.188-1.956-169.7-4.948C215.7-1.187,154.726.132,93.585,1.147,62.485,1.663,31.341,2.6.233,2.8-.176,20.66.19,38.544,0,56.414,20.158,55.568,40.2,57.863,60.282,59.874Z" transform="translate(494.409 146.956) rotate(-177)" fill="#ffcf00" opacity="0.7"/>
    </g>
  </g>
</svg>
