<svg xmlns="http://www.w3.org/2000/svg" xmlns:xlink="http://www.w3.org/1999/xlink" width="300" height="153" viewBox="0 0 300 153">
  <defs>
    <clipPath id="clip-Artboard_10">
      <rect width="300" height="153"/>
    </clipPath>
  </defs>
  <g id="Artboard_10" data-name="Artboard – 10" clip-path="url(#clip-Artboard_10)">
    <g id="Group_164" data-name="Group 164" transform="translate(-882.531 -2713.086)">
      <path id="Path_80" data-name="Path 80" d="M100.906,46.714c-6.689,5.971-40.032,31.23-46.021,37.864-6.913,7.659-18.867,14.834-25.179,22.952-3.1,3.99-6.5,8.858-10.88,12.149C12.6,114.177,6.194,108.862,0,103.335A178.67,178.67,0,0,0,15.959,86.77c6.817-7.809,13.659-15.425,21.133-22.68,8.613-8.36,17.2-16.748,25.574-25.323C71.022,30.211,79.092,21.41,87.14,12.6,91.061,8.3,95.813,4.347,99.9,0a354.486,354.486,0,0,0,35.14,18.872c3.249,1.548,6.509,3.011,9.792,4.426-3.847,8.945-4.212,18.8-6.663,28.155-2.853,10.887-6.391,21.6-8.981,32.551-2.567,10.849-4.826,21.764-7.407,32.612-4.155,17.463-8.4,34.919-11.715,52.543-.457-.1-.918-.187-1.372-.286a166.35,166.35,0,0,1-28.98-9.78c1.5-6.033,3.713-11.919,5.741-17.824,2.928-8.528,4.28-17.163,6.43-25.851,2.051-8.287,4.6-16.461,6.366-24.813,1.367-6.483,3.536-22.545,2.658-29.15" transform="matrix(0.574, 0.819, -0.819, 0.574, 1116.616, 2677.086)" fill="#e2e2e2"/>
      <g id="Group_162" data-name="Group 162" transform="matrix(0.995, -0.105, 0.105, 0.995, 496.769, -932.127)">
        <path id="Path_1642" data-name="Path 1642" d="M62.024,26.234C58.114,29.05,38.463,40.76,35.009,43.947c-3.988,3.679-11.1,6.906-14.7,10.845-1.77,1.936-3.69,4.314-6.273,5.839C10,57.54,5.86,54.538,1.844,51.436A83.537,83.537,0,0,0,11.09,43.52c3.923-3.76,7.868-7.419,12.216-10.867,5.011-3.973,10-7.961,14.86-12.054s9.5-8.306,14.15-12.536C54.58,6,57.367,4.15,59.73,2.069,66.916,6.14,74.436,9.775,82.069,13.222c2.058.929,4.12,1.816,6.2,2.678-2.052,4.465-1.924,9.542-3.1,14.274-1.369,5.508-3.166,10.9-4.371,16.451-1.194,5.5-2.2,11.046-3.4,16.546-1.936,8.852-3.927,17.7-5.341,26.666-.285-.068-.573-.133-.856-.2a130.662,130.662,0,0,1-18.216-6.211,87.4,87.4,0,0,1,2.9-8.975c1.5-4.287,2.024-8.692,3.039-13.093.968-4.2,2.25-8.316,3.036-12.559.611-3.293,1.372-11.5.595-14.948" transform="translate(34.062 3783.264) rotate(-122)" fill="#d5acff"/>
      </g>
    </g>
  </g>
</svg>
