<svg xmlns="http://www.w3.org/2000/svg" xmlns:xlink="http://www.w3.org/1999/xlink" width="119" height="41" viewBox="0 0 119 41">
  <defs>
    <clipPath id="clip-Artboard_3">
      <rect width="119" height="41"/>
    </clipPath>
  </defs>
  <g id="Artboard_3" data-name="Artboard – 3" clip-path="url(#clip-Artboard_3)">
    <path id="Path_1797" data-name="Path 1797" d="M4537.861,2897.631c-.517-5.515.288-11.542,0-17.063l-.048-.916a1.555,1.555,0,0,0-1.548-1.571c-1.769.11-3.527.233-5.242.284-5.438.162-13.1.285-18.549.27-10.8-.03-21.583-.2-32.374-.455-10.892-.257-21.729.219-32.636.253-8.125.025-16.233.04-24.316-.333a1.573,1.573,0,0,0-1.518,1.8q.2,2.338.255,4.676c.277,10.508-.55,20.173-.619,30.686a1.581,1.581,0,0,0,1.473,1.676H4536.4a1.577,1.577,0,0,0,1.459-1.684C4537.829,2909.141,4538.426,2903.662,4537.861,2897.631Z" transform="translate(-4419.765 -2876.579)" fill="none" stroke="#ccc" stroke-width="2"/>
  </g>
</svg>