<svg id="Group_15917" data-name="Group 15917" xmlns="http://www.w3.org/2000/svg" xmlns:xlink="http://www.w3.org/1999/xlink" width="139" height="41.933" viewBox="0 0 139 41.933">
  <defs>
    <clipPath id="clip-path">
      <path id="Path_24" data-name="Path 24" d="M350.744,13.092a13.058,13.058,0,0,1,4.718,17.762,13,13,0,0,1-22.48-13.043,13.057,13.057,0,0,1,17.762-4.718Z" transform="translate(-331.25 -11.36)"/>
    </clipPath>
  </defs>
  <path id="Path_1" data-name="Path 1" d="M112.4,18.1a15.708,15.708,0,0,0,1.921.9A26.924,26.924,0,0,1,117.7,20.62a7.705,7.705,0,0,1,2.43,2.31,6.475,6.475,0,0,1,1.053,3.789,7.11,7.11,0,0,1-4.215,6.692,10.672,10.672,0,0,1-4.62.951A12.367,12.367,0,0,1,108,33.478a24.426,24.426,0,0,1-4.348-2.14l2.446-5.876a34.914,34.914,0,0,0,3.329,1.8,6.465,6.465,0,0,0,2.446.747,2.586,2.586,0,0,0,1.411-.34,1.07,1.07,0,0,0,.528-.951q0-.44-.593-.8a15.84,15.84,0,0,0-1.918-.9,23.122,23.122,0,0,1-3.329-1.6,7.743,7.743,0,0,1-2.393-2.328,6.539,6.539,0,0,1-1.038-3.789,7.577,7.577,0,0,1,1.068-4.024,7.07,7.07,0,0,1,3.042-2.7A10.365,10.365,0,0,1,113.2,9.63a12.116,12.116,0,0,1,4.178.8,19.215,19.215,0,0,1,3.94,1.955l-2.48,5.639a14.776,14.776,0,0,0-2.649-1.393,7.08,7.08,0,0,0-2.649-.577,2.125,2.125,0,0,0-1.257.34,1.065,1.065,0,0,0-.476.917C111.805,17.6,112,17.866,112.4,18.1Z" transform="translate(-71.855 -6.656)" fill="#38bbd1"/>
  <path id="Path_2" data-name="Path 2" d="M183.52,32.47a13.034,13.034,0,0,1-3.412,1.476,13.863,13.863,0,0,1-3.755.528,12.653,12.653,0,0,1-6.25-1.529,10.88,10.88,0,0,1-4.3-4.314,12.994,12.994,0,0,1-1.544-6.42,13.027,13.027,0,0,1,1.544-6.42,10.86,10.86,0,0,1,4.3-4.314,12.653,12.653,0,0,1,6.25-1.529,14.575,14.575,0,0,1,6.827,1.766l-2.48,5.978a6.172,6.172,0,0,0-3.227-.917,5.988,5.988,0,0,0-2.8.679,5.366,5.366,0,0,0-2.091,1.918,5.554,5.554,0,0,0,.015,5.707,5.351,5.351,0,0,0,2.087,1.9,5.95,5.95,0,0,0,2.751.664,5.871,5.871,0,0,0,3.6-1.189Z" transform="translate(-113.877 -6.877)" fill="#05d17d"/>
  <g id="Group_2" data-name="Group 2" transform="translate(0 2.233)">
    <circle id="Ellipse_1" data-name="Ellipse 1" cx="13.581" cy="13.581" r="13.581" transform="translate(0.642 0.38)" fill="#fff"/>
    <g id="qu6ZpE.tif_1_">
      <g id="Group_1" data-name="Group 1">
        <path id="Path_3" data-name="Path 3" d="M13.849,7.23h.781a.483.483,0,0,0,.207.031,6.857,6.857,0,0,1,1.068.08,14.923,14.923,0,0,1,3.912,1.007,14.673,14.673,0,0,1,4.468,2.869A12.432,12.432,0,0,1,26.4,13.866a13.811,13.811,0,0,1,2.026,6.655,14.274,14.274,0,0,1-.51,4.669,13.66,13.66,0,0,1-3.848,6.349,14.041,14.041,0,0,1-4.28,2.683,14.452,14.452,0,0,1-4.61,1.05,15.069,15.069,0,0,1-3.709-.216,14.334,14.334,0,0,1-4.2-1.485,13.488,13.488,0,0,1-3.653-2.792A14.187,14.187,0,0,1,.04,22.293a14.461,14.461,0,0,1,.049-2.711,14.218,14.218,0,0,1,1.578-5.018,12.832,12.832,0,0,1,3.076-3.875,14.665,14.665,0,0,1,8.266-3.4A6.4,6.4,0,0,0,13.849,7.23Zm-5.8,13.105v5.321c0,.445,0,.386-.383.392a3.548,3.548,0,0,0-1.223.1c-.235.086-.476.148-.713.222s-.457.139-.686.207c-.04.012-.09.025-.114-.025s.006-.074.031-.1.065-.074.1-.108c.17-.191.38-.34.553-.525.284-.3.556-.608.828-.917a2.3,2.3,0,0,0,.636-1.556q0-4.192,0-8.381c0-.2-.056-.25-.253-.244a1.421,1.421,0,0,0-.161.019,5.753,5.753,0,0,1-1.2.052,9.583,9.583,0,0,0-1.362-.1,1.644,1.644,0,0,0-1.473,2.446.145.145,0,0,0,.148.1c.09-.006.09-.074.1-.142a.692.692,0,0,1,.719-.667c.38-.028.76-.028,1.139-.022a1.081,1.081,0,0,0,.584-.17c.315-.182.633-.355.951-.531.037-.022.083-.056.117-.009s-.019.068-.04.1c-.3.417-.6.834-.9,1.254a3.572,3.572,0,0,0-.7,1.488A7.572,7.572,0,0,0,4.7,19.7c0,.216-.012.229-.232.229-.3,0-.608,0-.911,0a.289.289,0,0,0-.272.139c-.284.408-.577.812-.868,1.217-.046.068-.1.139-.062.222s.136.074.216.074h1.97c.213,0,.229.019.232.235,0,.9.006,1.813,0,2.717a3,3,0,0,1-.451,1.525,13.572,13.572,0,0,1-1,1.4c-.049.062-.114.124-.074.216s.139.093.225.093h3.4a.362.362,0,0,0,.188-.037c.482-.281.926-.621,1.4-.914a.4.4,0,0,0,.188-.383c-.006-1.226,0-2.452,0-3.678,0-.346,0-.695,0-1.041,0-.083.009-.182.12-.176.287.019.574-.043.862-.009a4.292,4.292,0,0,0,.8.006c.4-.028.4-.034.4.364V25.9a.359.359,0,0,0,.086.3c.476.445.948.892,1.424,1.334.219.2.309.2.565.025.312-.216.63-.42.948-.63.235-.154.476-.306.7-.469.13-.093.13-.2.006-.275-.374-.232-.7-.531-1.065-.772a.326.326,0,0,1-.157-.3c0-.967,0-1.93,0-2.9,0-1.112.006-2.223,0-3.335a17.012,17.012,0,0,1,.179-3.242c.052-.278.08-.559.108-.84.019-.191-.065-.241-.235-.157-.136.068-.272.139-.4.21-.627.346-1.248.7-1.881,1.031a.507.507,0,0,0-.33.54c.031,1.075.012,2.149.012,3.221,0,.2-.031.235-.238.235-.553,0-1.105,0-1.661,0-.262,0-.275-.012-.275-.275V14.953c0-.071,0-.142,0-.21,0-.043-.012-.1-.059-.108a.712.712,0,0,0-.432,0c-.1.04-.062.164-.065.25C8.05,16.713,8.053,18.523,8.053,20.335Zm11.012.957c0,1.01,0,2.02,0,3.026a.6.6,0,0,1-.148.417,2.705,2.705,0,0,0-.2.253c-.09.13-.188.127-.3.031a3.952,3.952,0,0,1-.923-1.146,4.649,4.649,0,0,1-.488-2.631,5.165,5.165,0,0,1,.568-1.887,4.444,4.444,0,0,1,.6-.908c.056-.065.1-.139.043-.222s-.117-.034-.176-.009a5.305,5.305,0,0,0-2.251,1.729,4.216,4.216,0,0,0-.726,1.532,5.118,5.118,0,0,0,.491,3.749,3.922,3.922,0,0,0,.571.806,5.722,5.722,0,0,0,.991.858,4.8,4.8,0,0,0,1.491.67,6.5,6.5,0,0,0,1.986.148,5.351,5.351,0,0,0,3.242-1.3,3.929,3.929,0,0,0,1.359-2.69c.009-.077.012-.157-.083-.188s-.133.043-.17.111a3.681,3.681,0,0,1-.392.556,3.864,3.864,0,0,1-1.464,1.081c-.176.074-.191.062-.191-.133V17.365c0-.435,0-.429.445-.469A1.7,1.7,0,0,0,24.6,16.2a4.5,4.5,0,0,0,.741-1.992c.009-.049.012-.1-.043-.127a.117.117,0,0,0-.136.022,2.2,2.2,0,0,0-.164.179,1.375,1.375,0,0,1-.939.528,7.964,7.964,0,0,1-1.51.022c-.979-.062-1.948-.232-2.93-.293a5.892,5.892,0,0,0-2.578.281,2.742,2.742,0,0,0-.815.466,2.361,2.361,0,0,0-.8,1.346,3.07,3.07,0,0,0,.114,1.476.225.225,0,0,0,.133.173c.136.043.225-.015.262-.176a1.728,1.728,0,0,1,1.109-1.285,4.282,4.282,0,0,1,1.6-.244,14.678,14.678,0,0,1,2.267.195c.046.006.111,0,.127.059s-.052.074-.093.1c-.5.269-.979.565-1.495.791a.629.629,0,0,0-.4.695C19.071,19.372,19.062,20.332,19.065,21.292Z" transform="translate(0 -7.23)" fill="#00b1cd"/>
        <path id="Path_4" data-name="Path 4" d="M65.07,42.876v4.085c0,.253,0,.259-.25.312a5.4,5.4,0,0,1-2.514-.028c-.173-.043-.337-.117-.506-.176-.04-.015-.09-.025-.09-.08s.046-.068.083-.09c.392-.21.784-.42,1.173-.63.2-.108.4-.225.6-.324a.326.326,0,0,0,.195-.349c-.006-.611,0-1.226,0-1.837,0-1.448,0-2.9,0-4.345a.437.437,0,0,1,.161-.367,2.957,2.957,0,0,0,.38-.355c.2-.241.454-.151.695-.133.071,0,.074.068.077.124,0,.1,0,.195,0,.293C65.07,40.273,65.07,41.576,65.07,42.876Z" transform="translate(-42.654 -28.863)" fill="#00b1cd"/>
      </g>
    </g>
  </g>
  <g id="Group_3" data-name="Group 3" transform="translate(31.895 34.314)">
    <path id="Path_5" data-name="Path 5" d="M106.854,103.919a1.311,1.311,0,0,1,.847.409,1.331,1.331,0,0,1,.343.954,1.492,1.492,0,0,1-.492,1.182,1.985,1.985,0,0,1-1.351.43H104.16V101.11h1.934a2.1,2.1,0,0,1,1.363.4,1.345,1.345,0,0,1,.5,1.1A1.211,1.211,0,0,1,106.854,103.919Zm-.8-1.975h-.942v1.587h.942a1.059,1.059,0,0,0,.7-.211.809.809,0,0,0,0-1.169A1.078,1.078,0,0,0,106.052,101.945Zm.132,4.115a.934.934,0,0,0,.669-.231.845.845,0,0,0,.24-.645.764.764,0,0,0-.248-.591.924.924,0,0,0-.653-.227H105.11v1.694Z" transform="translate(-104.16 -101.11)"/>
    <path id="Path_6" data-name="Path 6" d="M118.321,105.79h.9v3.867a1.825,1.825,0,0,1-.5,1.372,1.861,1.861,0,0,1-1.306.446,2,2,0,0,1-1.322-.4,1.311,1.311,0,0,1-.43-1h.909a.713.713,0,0,0,.219.492.921.921,0,0,0,.607.161.861.861,0,0,0,.678-.277,1.268,1.268,0,0,0,.248-.863V109.1a1.318,1.318,0,0,1-1.239.636,1.293,1.293,0,0,1-1.054-.442,1.761,1.761,0,0,1-.368-1.161V105.79h.9v2.157c0,.665.277,1,.835,1a.8.8,0,0,0,.69-.322,1.4,1.4,0,0,0,.235-.843Z" transform="translate(-110.909 -103.856)"/>
    <path id="Path_7" data-name="Path 7" d="M132.18,106.894V101.11h.95V103.6h2.388V101.11h.95v5.784h-.95v-2.446H133.13v2.446Z" transform="translate(-120.604 -101.11)"/>
    <path id="Path_8" data-name="Path 8" d="M146.089,102.354a.689.689,0,1,1,.19-.475A.648.648,0,0,1,146.089,102.354Zm-.934,4.6V103.1h.9v3.851Z" transform="translate(-128.092 -101.169)"/>
    <path id="Path_9" data-name="Path 9" d="M150.44,109.5v-3.851h.9v.537a1.332,1.332,0,0,1,1.256-.636q1.407,0,1.4,1.529V109.5h-.9v-2.008a1.613,1.613,0,0,0-.19-.9.739.739,0,0,0-.653-.273.844.844,0,0,0-.678.277,1.163,1.163,0,0,0-.24.789V109.5Z" transform="translate(-131.319 -103.716)"/>
    <path id="Path_10" data-name="Path 10" d="M164.183,101.11h.9v5.784h-.9v-.521a1.161,1.161,0,0,1-.516.45,1.649,1.649,0,0,1-.715.169,1.754,1.754,0,0,1-1.4-.57,2.134,2.134,0,0,1-.5-1.454,2.082,2.082,0,0,1,.521-1.45,1.789,1.789,0,0,1,1.4-.574,1.513,1.513,0,0,1,.711.165,1.2,1.2,0,0,1,.5.454Zm-1.1,5.082a1.047,1.047,0,0,0,.847-.347,1.454,1.454,0,0,0,0-1.752,1.182,1.182,0,0,0-1.669,0,1.435,1.435,0,0,0,0,1.76A1.032,1.032,0,0,0,163.084,106.192Z" transform="translate(-137.552 -101.11)"/>
    <path id="Path_11" data-name="Path 11" d="M174.93,109.74a1.406,1.406,0,0,1-1.041-.388,1.544,1.544,0,0,1-.388-1.14V105.79h.9v2.2a1.245,1.245,0,0,0,.182.735.7.7,0,0,0,.6.248.853.853,0,0,0,.711-.277,1.135,1.135,0,0,0,.223-.731V105.79h.9v3.851h-.9V109.1A1.248,1.248,0,0,1,174.93,109.74Z" transform="translate(-144.852 -103.856)"/>
    <path id="Path_12" data-name="Path 12" d="M185.756,109.6a1.806,1.806,0,0,1-1.182-.372,1.136,1.136,0,0,1-.454-.909h.9a.48.48,0,0,0,.219.4.956.956,0,0,0,.566.157.616.616,0,0,0,.4-.124.41.41,0,0,0,.149-.331.369.369,0,0,0-.289-.4l-.992-.273a1.016,1.016,0,0,1-.835-1.066.991.991,0,0,1,.413-.806,1.665,1.665,0,0,1,1.066-.326,1.708,1.708,0,0,1,1.128.331,1.08,1.08,0,0,1,.393.868h-.884a.442.442,0,0,0-.178-.376.79.79,0,0,0-.492-.136.662.662,0,0,0-.4.112.34.34,0,0,0-.157.285.406.406,0,0,0,.331.413l.917.264a1.35,1.35,0,0,1,.645.392.931.931,0,0,1,.248.64,1.138,1.138,0,0,1-.4.909A1.658,1.658,0,0,1,185.756,109.6Z" transform="translate(-151.084 -103.716)"/>
    <path id="Path_13" data-name="Path 13" d="M194.975,107.225a2.735,2.735,0,0,0,.454-.033v.793a3.885,3.885,0,0,1-.669.05,2.127,2.127,0,0,1-.388-.033,1.437,1.437,0,0,1-.388-.153.791.791,0,0,1-.347-.417,1.972,1.972,0,0,1-.124-.752v-1.793h-.653v-.752h.653V102.97h.9v1.165h.884v.752h-.884v1.587a.961.961,0,0,0,.132.607A.546.546,0,0,0,194.975,107.225Z" transform="translate(-156.214 -102.202)"/>
    <path id="Path_14" data-name="Path 14" d="M202.172,109.6a1.754,1.754,0,0,1-1.4-.57,2.134,2.134,0,0,1-.5-1.454,2.082,2.082,0,0,1,.521-1.45,1.789,1.789,0,0,1,1.4-.574,1.514,1.514,0,0,1,.711.165,1.2,1.2,0,0,1,.5.454v-.521h.9V109.5h-.9v-.521a1.161,1.161,0,0,1-.516.45A1.648,1.648,0,0,1,202.172,109.6Zm.132-.8a1.047,1.047,0,0,0,.847-.347,1.454,1.454,0,0,0,0-1.752,1.182,1.182,0,0,0-1.669,0,1.435,1.435,0,0,0,0,1.76A1.032,1.032,0,0,0,202.3,108.8Z" transform="translate(-160.568 -103.716)"/>
    <path id="Path_15" data-name="Path 15" d="M212.82,109.5v-3.851h.9v.537a1.332,1.332,0,0,1,1.256-.636q1.407,0,1.4,1.529V109.5h-.9v-2.008a1.614,1.614,0,0,0-.19-.9.74.74,0,0,0-.653-.273.844.844,0,0,0-.678.277,1.163,1.163,0,0,0-.24.789V109.5Z" transform="translate(-167.927 -103.716)"/>
    <path id="Path_16" data-name="Path 16" d="M229.517,106.894V102H227.84v-.892h4.313V102h-1.686v4.892Z" transform="translate(-176.741 -101.11)"/>
    <path id="Path_17" data-name="Path 17" d="M240.209,102.354a.689.689,0,1,1,.19-.475A.648.648,0,0,1,240.209,102.354Zm-.934,4.6V103.1h.9v3.851Z" transform="translate(-183.326 -101.169)"/>
    <path id="Path_18" data-name="Path 18" d="M244.56,109.5v-3.851h.9v.537a1.067,1.067,0,0,1,.421-.459,1.21,1.21,0,0,1,.653-.178,1.185,1.185,0,0,1,1.215.686,1.146,1.146,0,0,1,.463-.492,1.378,1.378,0,0,1,.719-.194q1.388,0,1.388,1.512V109.5h-.9v-2.264q0-.917-.719-.917a.739.739,0,0,0-.595.252,1.383,1.383,0,0,0-.215.888V109.5h-.9v-2.272c0-.607-.236-.909-.7-.909a.754.754,0,0,0-.607.252,1.381,1.381,0,0,0-.219.888V109.5Z" transform="translate(-186.554 -103.716)"/>
    <path id="Path_19" data-name="Path 19" d="M264.276,107.376q0,.149-.025.5h-2.859a.932.932,0,0,0,.3.7,1.151,1.151,0,0,0,.777.244.869.869,0,0,0,.859-.438h.909a1.319,1.319,0,0,1-.583.88,2.028,2.028,0,0,1-1.186.343,1.906,1.906,0,0,1-1.438-.545,2.334,2.334,0,0,1,0-2.954,1.851,1.851,0,0,1,1.409-.549,1.807,1.807,0,0,1,1.335.508A1.787,1.787,0,0,1,264.276,107.376Zm-2.884-.19h2a.918.918,0,0,0-.26-.686.991.991,0,0,0-.715-.24,1.049,1.049,0,0,0-.744.256A.907.907,0,0,0,261.392,107.186Z" transform="translate(-195.908 -103.716)"/>
    <path id="Path_20" data-name="Path 20" d="M272.676,109.6a1.806,1.806,0,0,1-1.182-.372,1.136,1.136,0,0,1-.454-.909h.9a.48.48,0,0,0,.219.4.956.956,0,0,0,.566.157.615.615,0,0,0,.4-.124.41.41,0,0,0,.149-.331.369.369,0,0,0-.289-.4l-.992-.273a1.016,1.016,0,0,1-.835-1.066.991.991,0,0,1,.413-.806,1.665,1.665,0,0,1,1.066-.326,1.708,1.708,0,0,1,1.128.331,1.08,1.08,0,0,1,.393.868h-.884a.442.442,0,0,0-.178-.376.79.79,0,0,0-.492-.136.662.662,0,0,0-.4.112.34.34,0,0,0-.157.285.406.406,0,0,0,.331.413l.917.264a1.35,1.35,0,0,1,.645.392.931.931,0,0,1,.248.64,1.138,1.138,0,0,1-.4.909A1.658,1.658,0,0,1,272.676,109.6Z" transform="translate(-202.093 -103.716)"/>
  </g>
  <g id="Group_7" data-name="Group 7" transform="translate(101.482 1.189)">
    <path id="Path_21" data-name="Path 21" d="M364.108,97.792H353.726a1.1,1.1,0,0,1-1.1-1.1h0a1.1,1.1,0,0,1,1.1-1.1h10.382a1.1,1.1,0,0,1,1.1,1.1h0A1.1,1.1,0,0,1,364.108,97.792Z" transform="translate(-346.028 -65.49)" fill="#ff6417"/>
    <path id="Path_22" data-name="Path 22" d="M366.02,107.922h-7.294a1.1,1.1,0,0,1-1.1-1.1h0a1.1,1.1,0,0,1,1.1-1.1h7.294a1.1,1.1,0,0,1,1.1,1.1h0A1.092,1.092,0,0,1,366.02,107.922Z" transform="translate(-349.484 -72.492)" fill="#ff6417"/>
    <g id="Group_5" data-name="Group 5" transform="translate(0 2.319)">
      <g id="Group_4" data-name="Group 4" clip-path="url(#clip-path)">
        <path id="Path_23" data-name="Path 23" d="M355.453,17.811a13,13,0,0,0-22.48,13.043,12.809,12.809,0,0,0,4.718,4.718c.253.148.509.284.769.414a.958.958,0,0,1,.936-.9.9.9,0,0,1,.537.176,1.643,1.643,0,0,1,1.535-1.3,2.163,2.163,0,0,1,1.559.679l.417-6.049v-.547h1.884l.417,6.559a2.181,2.181,0,0,1,1.532-.642,1.638,1.638,0,0,1,1.525,1.254.919.919,0,0,1,.463-.133.956.956,0,0,1,.923.781c.182-.1.364-.188.543-.293a12.911,12.911,0,0,0,6.451-11.24A12.689,12.689,0,0,0,355.453,17.811Z" transform="translate(-331.243 -11.36)" fill="#ff6417"/>
      </g>
    </g>
    <g id="Group_6" data-name="Group 6" transform="translate(6.407)">
      <path id="Path_25" data-name="Path 25" d="M366.814,6.16l-.065.139L365.69,8.593l.059,13.1h4.5V8.365L367.969,3.85Z" transform="translate(-361.463 -3.85)" fill="#fff"/>
      <rect id="Rectangle_1" data-name="Rectangle 1" width="1.504" height="13.315" transform="translate(5.778 4.561)" fill="#ff6417"/>
      <path id="Path_26" data-name="Path 26" d="M356.348,43.88l.046,5.509L352,49.364V48.178S356.286,43.88,356.348,43.88Z" transform="translate(-352 -31.519)" fill="#fff"/>
      <path id="Path_27" data-name="Path 27" d="M369.33,6.16h2.279l-1.124-2.31Z" transform="translate(-363.979 -3.85)" fill="#ff6417"/>
      <path id="Path_28" data-name="Path 28" d="M380.376,43.8l-.046,5.534,4.382-.028V48.123S380.438,43.8,380.376,43.8Z" transform="translate(-371.582 -31.464)" fill="#fff"/>
      <path id="Path_29" data-name="Path 29" d="M368.84,62.424h-4.857a.511.511,0,0,1-.513-.513v-.219a.511.511,0,0,1,.513-.513h4.857a.511.511,0,0,1,.513.513v.219A.513.513,0,0,1,368.84,62.424Z" transform="translate(-359.928 -43.477)" fill="#fff"/>
    </g>
  </g>
  <g id="Group_8" data-name="Group 8" transform="translate(71.002 3.919)">
    <path id="Path_30" data-name="Path 30" d="M287.707,23.443a9.347,9.347,0,0,0,1.538,1.986V12.7h-.661a9.492,9.492,0,0,0-.874,1.257,9.568,9.568,0,0,0,0,9.486Z" transform="translate(-269.479 -12.697)" fill="#0087ff"/>
    <path id="Path_31" data-name="Path 31" d="M248.653,24.054a10.8,10.8,0,0,1,0-10.728c.127-.219.259-.429.4-.636h-5.676v7.948H239.4V12.693H231.49V36.47H239.4V28.522h3.974V36.47h7.88V27.064A10.455,10.455,0,0,1,248.653,24.054Z" transform="translate(-231.49 -12.69)" fill="#0087ff"/>
  </g>
  <path id="Path_32" data-name="Path 32" d="M412.966,24.733V8.87H405.12v3.724a13.878,13.878,0,0,1,0,20.035v.019h14.708V24.733Z" transform="translate(-280.828 -6.131)" fill="#a463ff"/>
  <path id="Path_33" data-name="Path 33" d="M298.773,16.48A13.774,13.774,0,0,1,304.34,5.348c-.077-.148-.151-.293-.235-.438A9.872,9.872,0,0,0,285.68,9.872a9.827,9.827,0,0,0,9.872,9.872,9.887,9.887,0,0,0,3.468-.614A14.435,14.435,0,0,1,298.773,16.48ZM297.4,13a3.626,3.626,0,0,1-3.644,0,3.666,3.666,0,0,1-1.334-1.319,3.482,3.482,0,0,1-.488-1.81,3.588,3.588,0,0,1,.488-1.822A3.717,3.717,0,0,1,293.758,6.7a3.549,3.549,0,0,1,3.644,0,3.708,3.708,0,0,1,1.331,1.346,3.56,3.56,0,0,1,.491,1.822,3.492,3.492,0,0,1-.491,1.81A3.634,3.634,0,0,1,297.4,13Z" transform="translate(-198.051)" fill="#ffc522"/>
</svg>
