<svg id="Group_18644" data-name="Group 18644" xmlns="http://www.w3.org/2000/svg" xmlns:xlink="http://www.w3.org/1999/xlink" width="195" height="59" viewBox="0 0 195 59">
  <defs>
    <clipPath id="clip-path">
      <path id="Path_24" data-name="Path 24" d="M358.6,13.79a18.112,18.112,0,0,1,9.05,15.769A18.2,18.2,0,1,1,333.68,20.41,18.318,18.318,0,0,1,358.6,13.79Z" transform="translate(-331.25 -11.36)"/>
    </clipPath>
  </defs>
  <path id="Path_1" data-name="Path 1" d="M115.923,21.517a22.035,22.035,0,0,0,2.695,1.265,37.77,37.77,0,0,1,4.739,2.266,10.809,10.809,0,0,1,3.409,3.24,9.084,9.084,0,0,1,1.477,5.315,9.975,9.975,0,0,1-5.913,9.387,14.971,14.971,0,0,1-6.481,1.334,17.35,17.35,0,0,1-6.1-1.239,34.266,34.266,0,0,1-6.1-3l3.431-8.244a48.983,48.983,0,0,0,4.67,2.526,9.069,9.069,0,0,0,3.431,1.048,3.628,3.628,0,0,0,1.98-.477A1.5,1.5,0,0,0,117.9,33.6q0-.617-.832-1.118a22.222,22.222,0,0,0-2.69-1.265,32.438,32.438,0,0,1-4.67-2.24,10.862,10.862,0,0,1-3.357-3.266A9.173,9.173,0,0,1,104.9,20.4a10.629,10.629,0,0,1,1.5-5.645,9.919,9.919,0,0,1,4.267-3.791,14.541,14.541,0,0,1,6.385-1.334,17,17,0,0,1,5.861,1.118,26.956,26.956,0,0,1,5.528,2.742l-3.479,7.91a20.729,20.729,0,0,0-3.717-1.954,9.932,9.932,0,0,0-3.717-.81,2.981,2.981,0,0,0-1.763.477A1.5,1.5,0,0,0,115.1,20.4C115.091,20.811,115.368,21.183,115.923,21.517Z" transform="translate(-59.045 -5.458)" fill="#38bbd1"/>
  <path id="Path_2" data-name="Path 2" d="M191.279,41.543a18.284,18.284,0,0,1-4.787,2.071,19.448,19.448,0,0,1-5.268.741,17.751,17.751,0,0,1-8.768-2.144,15.263,15.263,0,0,1-6.03-6.052,18.229,18.229,0,0,1-2.166-9.006,18.276,18.276,0,0,1,2.166-9.006,15.235,15.235,0,0,1,6.03-6.052,17.751,17.751,0,0,1,8.768-2.144,20.446,20.446,0,0,1,9.578,2.478l-3.479,8.387a8.659,8.659,0,0,0-4.527-1.287,8.4,8.4,0,0,0-3.933.953,7.528,7.528,0,0,0-2.933,2.69,7.3,7.3,0,0,0-1.1,3.981,7.27,7.27,0,0,0,1.118,4.024,7.507,7.507,0,0,0,2.928,2.669,8.347,8.347,0,0,0,3.86.931,8.236,8.236,0,0,0,5.051-1.668Z" transform="translate(-93.579 -5.64)" fill="#05d17d"/>
  <g id="Group_2" data-name="Group 2" transform="translate(0 3.132)">
    <circle id="Ellipse_1" data-name="Ellipse 1" cx="19.052" cy="19.052" r="19.052" transform="translate(0.901 0.533)" fill="#fff"/>
    <g id="qu6ZpE.tif_1_">
      <g id="Group_1" data-name="Group 1">
        <path id="Path_3" data-name="Path 3" d="M19.429,7.23h1.1a.678.678,0,0,0,.29.043,9.62,9.62,0,0,1,1.5.113A20.935,20.935,0,0,1,27.8,8.8a20.584,20.584,0,0,1,6.268,4.024,17.441,17.441,0,0,1,2.967,3.717,19.375,19.375,0,0,1,2.842,9.335,20.024,20.024,0,0,1-.715,6.55,19.164,19.164,0,0,1-5.4,8.907,19.7,19.7,0,0,1-6,3.765A20.275,20.275,0,0,1,21.3,46.569a21.14,21.14,0,0,1-5.2-.3,20.108,20.108,0,0,1-5.9-2.084,18.922,18.922,0,0,1-5.125-3.916,19.9,19.9,0,0,1-5.016-11.9,20.287,20.287,0,0,1,.069-3.8,19.947,19.947,0,0,1,2.214-7.04,18,18,0,0,1,4.315-5.437,20.573,20.573,0,0,1,11.6-4.765A8.985,8.985,0,0,0,19.429,7.23ZM11.3,25.615v7.464c0,.624,0,.542-.537.55a4.978,4.978,0,0,0-1.715.147c-.329.121-.667.208-1,.312s-.641.195-.962.29c-.056.017-.126.035-.16-.035s.009-.1.043-.143.091-.1.139-.152c.238-.269.533-.477.775-.736.4-.42.78-.853,1.161-1.287a3.223,3.223,0,0,0,.892-2.183q-.006-5.881,0-11.757c0-.277-.078-.351-.355-.342a1.993,1.993,0,0,0-.225.026,8.07,8.07,0,0,1-1.681.074,13.445,13.445,0,0,0-1.91-.134A2.306,2.306,0,0,0,3.7,21.14a.2.2,0,0,0,.208.143c.126-.009.126-.1.139-.2a.97.97,0,0,1,1.009-.936c.533-.039,1.066-.039,1.6-.03a1.517,1.517,0,0,0,.819-.238c.442-.256.888-.5,1.334-.745.052-.03.117-.078.165-.013s-.026.1-.056.134c-.42.585-.845,1.17-1.261,1.759A5.012,5.012,0,0,0,6.671,23.1,10.622,10.622,0,0,0,6.6,24.718c0,.3-.017.321-.325.321-.425,0-.853,0-1.278,0a.406.406,0,0,0-.381.195c-.4.572-.81,1.139-1.217,1.707-.065.1-.143.195-.087.312.061.134.191.1.3.1H6.377c.3,0,.321.026.325.329,0,1.269.009,2.543,0,3.812a4.208,4.208,0,0,1-.632,2.14A19.04,19.04,0,0,1,4.661,35.6c-.069.087-.16.173-.1.3s.195.13.316.13H9.647a.508.508,0,0,0,.264-.052c.676-.394,1.3-.871,1.967-1.282a.557.557,0,0,0,.264-.537c-.009-1.72,0-3.44,0-5.159,0-.485,0-.975,0-1.46,0-.117.013-.256.169-.247.4.026.806-.061,1.209-.013a6.021,6.021,0,0,0,1.118.009c.567-.039.567-.048.567.511v5.619a.5.5,0,0,0,.121.42c.667.624,1.33,1.252,2,1.871.308.286.433.277.793.035.438-.3.884-.589,1.33-.884.329-.217.667-.429.988-.658.182-.13.182-.277.009-.386-.524-.325-.979-.745-1.495-1.083a.457.457,0,0,1-.221-.416c0-1.356,0-2.708,0-4.063,0-1.56.009-3.119,0-4.679a23.866,23.866,0,0,1,.251-4.549c.074-.39.113-.784.152-1.178.026-.269-.091-.338-.329-.221-.191.1-.381.195-.567.295-.879.485-1.75.983-2.638,1.447a.712.712,0,0,0-.464.758c.043,1.508.017,3.015.017,4.518,0,.286-.043.329-.334.329-.775,0-1.551,0-2.331,0-.368,0-.386-.017-.386-.386V18.064c0-.1,0-.2,0-.295,0-.061-.017-.134-.082-.152a1,1,0,0,0-.606,0c-.143.056-.087.23-.091.351C11.293,20.534,11.3,23.072,11.3,25.615Zm15.448,1.343c0,1.417,0,2.833,0,4.245a.844.844,0,0,1-.208.585,3.794,3.794,0,0,0-.286.355c-.126.182-.264.178-.42.043a5.544,5.544,0,0,1-1.3-1.607,6.521,6.521,0,0,1-.684-3.691,7.246,7.246,0,0,1,.8-2.647,6.235,6.235,0,0,1,.84-1.274c.078-.091.139-.195.061-.312s-.165-.048-.247-.013a7.442,7.442,0,0,0-3.158,2.426,5.915,5.915,0,0,0-1.018,2.149,7.179,7.179,0,0,0,.689,5.259,5.5,5.5,0,0,0,.8,1.131,8.028,8.028,0,0,0,1.391,1.2,6.74,6.74,0,0,0,2.092.94,9.114,9.114,0,0,0,2.785.208,7.506,7.506,0,0,0,4.549-1.828,5.512,5.512,0,0,0,1.906-3.773c.013-.108.017-.221-.117-.264s-.186.061-.238.156a5.164,5.164,0,0,1-.55.78,5.42,5.42,0,0,1-2.053,1.516c-.247.1-.269.087-.269-.186V21.448c0-.611,0-.6.624-.658a2.385,2.385,0,0,0,1.763-.97,6.319,6.319,0,0,0,1.04-2.794c.013-.069.017-.143-.061-.178a.164.164,0,0,0-.191.03,3.086,3.086,0,0,0-.23.251,1.928,1.928,0,0,1-1.317.741,11.172,11.172,0,0,1-2.118.03c-1.373-.087-2.733-.325-4.111-.412a8.265,8.265,0,0,0-3.617.394,3.847,3.847,0,0,0-1.144.654,3.311,3.311,0,0,0-1.122,1.889,4.306,4.306,0,0,0,.16,2.071.315.315,0,0,0,.186.243c.191.061.316-.022.368-.247a2.425,2.425,0,0,1,1.555-1.8,6.007,6.007,0,0,1,2.244-.342,20.591,20.591,0,0,1,3.18.273c.065.009.156,0,.178.082s-.074.1-.13.134c-.7.377-1.373.793-2.1,1.109a.883.883,0,0,0-.555.975C26.754,24.263,26.741,25.611,26.746,26.958Z" transform="translate(0 -7.23)" fill="#00b1cd"/>
        <path id="Path_4" data-name="Path 4" d="M66.423,44.628v5.731c0,.355,0,.364-.351.438a7.58,7.58,0,0,1-3.526-.039c-.243-.061-.472-.165-.71-.247-.056-.022-.126-.035-.126-.113s.065-.1.117-.126c.55-.295,1.1-.589,1.646-.884.282-.152.555-.316.845-.455a.457.457,0,0,0,.273-.49c-.009-.858,0-1.72,0-2.578,0-2.032,0-4.063,0-6.1a.614.614,0,0,1,.225-.516,4.147,4.147,0,0,0,.533-.5c.282-.338.637-.212.975-.186.1,0,.1.1.108.173,0,.139,0,.273,0,.412C66.423,40.976,66.423,42.8,66.423,44.628Z" transform="translate(-34.977 -24.97)" fill="#00b1cd"/>
      </g>
    </g>
  </g>
  <g id="Group_3" data-name="Group 3" transform="translate(44.745 48.312)">
    <path id="Path_5" data-name="Path 5" d="M107.939,105.051a1.839,1.839,0,0,1,1.188.574,1.867,1.867,0,0,1,.481,1.339,2.093,2.093,0,0,1-.69,1.658,2.785,2.785,0,0,1-1.9.6H104.16V101.11h2.713a2.949,2.949,0,0,1,1.913.562,1.886,1.886,0,0,1,.7,1.548A1.7,1.7,0,0,1,107.939,105.051Zm-1.124-2.77h-1.321v2.226h1.321a1.486,1.486,0,0,0,.98-.3,1.134,1.134,0,0,0,.006-1.64A1.513,1.513,0,0,0,106.815,102.281Zm.185,5.773a1.311,1.311,0,0,0,.939-.325,1.185,1.185,0,0,0,.336-.9,1.072,1.072,0,0,0-.348-.829,1.3,1.3,0,0,0-.916-.319h-1.519v2.376Z" transform="translate(-104.16 -101.11)"/>
    <path id="Path_6" data-name="Path 6" d="M119.393,105.79h1.264v5.425a2.56,2.56,0,0,1-.707,1.924,2.611,2.611,0,0,1-1.832.626,2.8,2.8,0,0,1-1.855-.556,1.84,1.84,0,0,1-.6-1.4h1.275a1,1,0,0,0,.307.69,1.293,1.293,0,0,0,.852.226,1.208,1.208,0,0,0,.951-.388,1.779,1.779,0,0,0,.348-1.211v-.684a1.849,1.849,0,0,1-1.739.893,1.815,1.815,0,0,1-1.478-.62,2.47,2.47,0,0,1-.516-1.629V105.79h1.264v3.026c0,.933.388,1.4,1.171,1.4a1.126,1.126,0,0,0,.968-.452,1.957,1.957,0,0,0,.33-1.182Z" transform="translate(-108.995 -103.077)"/>
    <path id="Path_7" data-name="Path 7" d="M132.18,109.224V101.11h1.333V104.6h3.35V101.11H138.2v8.114h-1.333v-3.431h-3.35v3.431Z" transform="translate(-115.94 -101.11)"/>
    <path id="Path_8" data-name="Path 8" d="M146.551,102.816a.967.967,0,1,1,.267-.667A.909.909,0,0,1,146.551,102.816Zm-1.31,6.451v-5.4H146.5v5.4Z" transform="translate(-121.304 -101.152)"/>
    <path id="Path_9" data-name="Path 9" d="M150.44,111.091v-5.4H151.7v.754a1.869,1.869,0,0,1,1.762-.893q1.974,0,1.971,2.145v3.4h-1.264v-2.817a2.263,2.263,0,0,0-.267-1.264,1.037,1.037,0,0,0-.916-.383,1.184,1.184,0,0,0-.951.388,1.631,1.631,0,0,0-.336,1.107v2.968Z" transform="translate(-123.616 -102.977)"/>
    <path id="Path_10" data-name="Path 10" d="M165.442,101.11h1.264v8.114h-1.264v-.73a1.629,1.629,0,0,1-.725.632,2.313,2.313,0,0,1-1,.238,2.46,2.46,0,0,1-1.959-.8,2.993,2.993,0,0,1-.7-2.04,2.92,2.92,0,0,1,.73-2.034,2.51,2.51,0,0,1,1.959-.806,2.124,2.124,0,0,1,1,.232,1.687,1.687,0,0,1,.7.638Zm-1.542,7.129a1.469,1.469,0,0,0,1.188-.487,2.04,2.04,0,0,0,0-2.458,1.658,1.658,0,0,0-2.342-.006,2.013,2.013,0,0,0,0,2.469A1.448,1.448,0,0,0,163.9,108.239Z" transform="translate(-128.081 -101.11)"/>
    <path id="Path_11" data-name="Path 11" d="M175.505,111.331a1.972,1.972,0,0,1-1.461-.545,2.167,2.167,0,0,1-.545-1.6v-3.4h1.264v3.083a1.746,1.746,0,0,0,.255,1.032.977.977,0,0,0,.846.348,1.2,1.2,0,0,0,1-.388,1.593,1.593,0,0,0,.313-1.026V105.79h1.263v5.4h-1.263v-.753A1.751,1.751,0,0,1,175.505,111.331Z" transform="translate(-133.31 -103.077)"/>
    <path id="Path_12" data-name="Path 12" d="M186.415,111.23a2.534,2.534,0,0,1-1.658-.522,1.594,1.594,0,0,1-.638-1.275h1.264a.673.673,0,0,0,.307.568,1.34,1.34,0,0,0,.794.22.864.864,0,0,0,.568-.174.576.576,0,0,0,.209-.464.518.518,0,0,0-.406-.568l-1.391-.383a1.425,1.425,0,0,1-1.171-1.5,1.39,1.39,0,0,1,.58-1.13,2.336,2.336,0,0,1,1.5-.458,2.4,2.4,0,0,1,1.582.464,1.515,1.515,0,0,1,.551,1.217h-1.24a.621.621,0,0,0-.249-.527,1.108,1.108,0,0,0-.69-.191.929.929,0,0,0-.556.157.477.477,0,0,0-.22.4.569.569,0,0,0,.464.58l1.287.371a1.894,1.894,0,0,1,.9.551,1.306,1.306,0,0,1,.348.9,1.6,1.6,0,0,1-.562,1.275A2.327,2.327,0,0,1,186.415,111.23Z" transform="translate(-137.775 -102.977)"/>
    <path id="Path_13" data-name="Path 13" d="M195.828,108.94a3.838,3.838,0,0,0,.638-.046v1.113a5.452,5.452,0,0,1-.939.07,2.984,2.984,0,0,1-.545-.046,2.017,2.017,0,0,1-.545-.214,1.109,1.109,0,0,1-.487-.585,2.766,2.766,0,0,1-.174-1.055v-2.515h-.916V104.6h.916V102.97h1.264V104.6h1.24v1.055h-1.24v2.226a1.349,1.349,0,0,0,.185.852A.766.766,0,0,0,195.828,108.94Z" transform="translate(-141.449 -101.892)"/>
    <path id="Path_14" data-name="Path 14" d="M202.935,111.23a2.46,2.46,0,0,1-1.959-.8,2.993,2.993,0,0,1-.7-2.04,2.921,2.921,0,0,1,.73-2.034,2.51,2.51,0,0,1,1.959-.806,2.123,2.123,0,0,1,1,.232,1.687,1.687,0,0,1,.7.638v-.73h1.264v5.4h-1.264v-.73a1.629,1.629,0,0,1-.725.632A2.312,2.312,0,0,1,202.935,111.23Zm.185-1.124a1.469,1.469,0,0,0,1.188-.487,2.04,2.04,0,0,0,0-2.458,1.658,1.658,0,0,0-2.342-.006,2.013,2.013,0,0,0,0,2.469A1.448,1.448,0,0,0,203.12,110.106Z" transform="translate(-144.569 -102.977)"/>
    <path id="Path_15" data-name="Path 15" d="M212.82,111.091v-5.4h1.264v.754a1.869,1.869,0,0,1,1.762-.893q1.973,0,1.971,2.145v3.4h-1.263v-2.817a2.264,2.264,0,0,0-.267-1.264,1.038,1.038,0,0,0-.916-.383,1.183,1.183,0,0,0-.951.388,1.631,1.631,0,0,0-.336,1.107v2.968Z" transform="translate(-149.841 -102.977)"/>
    <path id="Path_16" data-name="Path 16" d="M230.193,109.224v-6.862H227.84V101.11h6.051v1.252h-2.365v6.862Z" transform="translate(-156.155 -101.11)"/>
    <path id="Path_17" data-name="Path 17" d="M240.671,102.816a.967.967,0,1,1,.267-.667A.909.909,0,0,1,240.671,102.816Zm-1.31,6.451v-5.4h1.264v5.4Z" transform="translate(-160.872 -101.152)"/>
    <path id="Path_18" data-name="Path 18" d="M244.56,111.091v-5.4h1.264v.754a1.5,1.5,0,0,1,.591-.643,1.7,1.7,0,0,1,.916-.249,1.662,1.662,0,0,1,1.7.962,1.608,1.608,0,0,1,.649-.69,1.933,1.933,0,0,1,1.008-.272q1.947,0,1.947,2.121v3.42h-1.264v-3.176q0-1.287-1.009-1.287a1.037,1.037,0,0,0-.835.354,1.94,1.94,0,0,0-.3,1.246v2.863h-1.264V107.9c0-.852-.33-1.275-.985-1.275a1.058,1.058,0,0,0-.852.354,1.937,1.937,0,0,0-.307,1.246v2.863H244.56Z" transform="translate(-163.184 -102.977)"/>
    <path id="Path_19" data-name="Path 19" d="M265.8,108.112q0,.209-.035.7h-4.011a1.307,1.307,0,0,0,.417.98,1.615,1.615,0,0,0,1.09.342,1.219,1.219,0,0,0,1.206-.614h1.275a1.851,1.851,0,0,1-.817,1.235,2.844,2.844,0,0,1-1.663.481,2.673,2.673,0,0,1-2.017-.765,3.275,3.275,0,0,1-.006-4.144,2.6,2.6,0,0,1,1.976-.771,2.534,2.534,0,0,1,1.872.713A2.508,2.508,0,0,1,265.8,108.112Zm-4.046-.267h2.805a1.289,1.289,0,0,0-.365-.962,1.39,1.39,0,0,0-1-.336,1.471,1.471,0,0,0-1.043.359A1.272,1.272,0,0,0,261.752,107.845Z" transform="translate(-169.885 -102.977)"/>
    <path id="Path_20" data-name="Path 20" d="M273.335,111.23a2.534,2.534,0,0,1-1.658-.522,1.594,1.594,0,0,1-.638-1.275H272.3a.674.674,0,0,0,.307.568,1.341,1.341,0,0,0,.794.22.863.863,0,0,0,.568-.174.575.575,0,0,0,.209-.464.518.518,0,0,0-.406-.568l-1.391-.383a1.425,1.425,0,0,1-1.171-1.5,1.39,1.39,0,0,1,.58-1.13,2.336,2.336,0,0,1,1.5-.458,2.4,2.4,0,0,1,1.582.464,1.514,1.514,0,0,1,.551,1.217h-1.24a.621.621,0,0,0-.249-.527,1.108,1.108,0,0,0-.69-.191.929.929,0,0,0-.557.157.477.477,0,0,0-.22.4.569.569,0,0,0,.464.58l1.287.371a1.9,1.9,0,0,1,.9.551,1.306,1.306,0,0,1,.348.9,1.6,1.6,0,0,1-.562,1.275A2.326,2.326,0,0,1,273.335,111.23Z" transform="translate(-174.316 -102.977)"/>
  </g>
  <g id="Group_7" data-name="Group 7" transform="translate(142.366 1.668)">
    <path id="Path_21" data-name="Path 21" d="M368.732,98.676H354.168a1.538,1.538,0,0,1-1.538-1.538h0a1.538,1.538,0,0,1,1.538-1.538h14.564a1.538,1.538,0,0,1,1.538,1.538h0A1.535,1.535,0,0,1,368.732,98.676Z" transform="translate(-343.368 -53.187)" fill="#ff6417"/>
    <path id="Path_22" data-name="Path 22" d="M369.4,108.806H359.168a1.538,1.538,0,0,1-1.538-1.538h0a1.538,1.538,0,0,1,1.538-1.538H369.4a1.538,1.538,0,0,1,1.538,1.538h0A1.533,1.533,0,0,1,369.4,108.806Z" transform="translate(-346.202 -58.928)" fill="#ff6417"/>
    <g id="Group_5" data-name="Group 5" transform="translate(0 3.253)">
      <g id="Group_4" data-name="Group 4" clip-path="url(#clip-path)">
        <path id="Path_23" data-name="Path 23" d="M365.207,20.41a18.2,18.2,0,0,0-33.967,9.149,18.113,18.113,0,0,0,9.05,15.768c.355.208.715.4,1.079.58a1.344,1.344,0,0,1,1.312-1.269,1.267,1.267,0,0,1,.754.247,2.305,2.305,0,0,1,2.153-1.824,3.035,3.035,0,0,1,2.188.953l.585-8.486v-.767H351l.585,9.2a3.059,3.059,0,0,1,2.149-.9,2.3,2.3,0,0,1,2.14,1.759,1.289,1.289,0,0,1,.65-.186,1.341,1.341,0,0,1,1.3,1.1c.256-.134.511-.264.762-.412a18.113,18.113,0,0,0,9.05-15.768A17.8,17.8,0,0,0,365.207,20.41Z" transform="translate(-331.244 -11.36)" fill="#ff6417"/>
      </g>
    </g>
    <g id="Group_6" data-name="Group 6" transform="translate(8.989)">
      <path id="Path_25" data-name="Path 25" d="M367.267,7.09l-.091.195L365.69,10.5l.082,18.381h6.312v-18.7l-3.2-6.333Z" transform="translate(-359.76 -3.85)" fill="#fff"/>
      <rect id="Rectangle_1" data-name="Rectangle 1" width="2.11" height="18.68" transform="translate(8.105 6.398)" fill="#ff6417"/>
      <path id="Path_26" data-name="Path 26" d="M358.1,43.88l.065,7.728L352,51.574V49.91S358.013,43.88,358.1,43.88Z" transform="translate(-352 -26.539)" fill="#fff"/>
      <path id="Path_27" data-name="Path 27" d="M369.33,7.09h3.2L370.95,3.85Z" transform="translate(-361.823 -3.85)" fill="#ff6417"/>
      <path id="Path_28" data-name="Path 28" d="M380.4,43.8l-.065,7.763,6.147-.039V49.865S380.482,43.8,380.4,43.8Z" transform="translate(-368.057 -26.494)" fill="#fff"/>
      <path id="Path_29" data-name="Path 29" d="M371,62.926h-6.814a.717.717,0,0,1-.719-.719V61.9a.717.717,0,0,1,.719-.719H371a.717.717,0,0,1,.719.719v.308A.72.72,0,0,1,371,62.926Z" transform="translate(-358.501 -36.345)" fill="#fff"/>
    </g>
  </g>
  <g id="Group_8" data-name="Group 8" transform="translate(99.608 5.497)">
    <path id="Path_30" data-name="Path 30" d="M288.213,27.771a13.113,13.113,0,0,0,2.157,2.785V12.7h-.927a13.32,13.32,0,0,0-1.226,1.763,13.423,13.423,0,0,0,0,13.308Z" transform="translate(-262.641 -12.696)" fill="#0087ff"/>
    <path id="Path_31" data-name="Path 31" d="M255.567,28.632a15.146,15.146,0,0,1,0-15.049c.178-.308.364-.6.563-.892h-7.962V23.841h-5.575V12.694h-11.1V46.051h11.1V34.9h5.575V46.051h11.055v-13.2A14.667,14.667,0,0,1,255.567,28.632Z" transform="translate(-231.49 -12.69)" fill="#0087ff"/>
  </g>
  <path id="Path_32" data-name="Path 32" d="M416.128,31.124V8.87H405.12v5.224a19.469,19.469,0,0,1,0,28.106v.026h20.633v-11.1Z" transform="translate(-230.753 -5.028)" fill="#a463ff"/>
  <path id="Path_33" data-name="Path 33" d="M304.048,23.12A19.324,19.324,0,0,1,311.858,7.5c-.108-.208-.212-.412-.329-.615a13.849,13.849,0,0,0-25.849,6.962A13.786,13.786,0,0,0,299.529,27.7a13.87,13.87,0,0,0,4.865-.862A20.246,20.246,0,0,1,304.048,23.12Zm-1.923-4.882a5.086,5.086,0,0,1-5.112,0,5.143,5.143,0,0,1-1.871-1.85,4.885,4.885,0,0,1-.684-2.539,5.034,5.034,0,0,1,.684-2.556A5.214,5.214,0,0,1,297.013,9.4a4.979,4.979,0,0,1,5.112,0,5.2,5.2,0,0,1,1.867,1.889,5,5,0,0,1,.689,2.556,4.9,4.9,0,0,1-.689,2.539A5.1,5.1,0,0,1,302.124,18.238Z" transform="translate(-162.747)" fill="#ffc522"/>
</svg>
