<svg xmlns="http://www.w3.org/2000/svg" xmlns:xlink="http://www.w3.org/1999/xlink" width="1633" height="39" viewBox="0 0 1633 39">
  <defs>
    <clipPath id="clip-Artboard_1">
      <rect width="1633" height="39"/>
    </clipPath>
  </defs>
  <g id="Artboard_1" data-name="Artboard – 1" clip-path="url(#clip-Artboard_1)">
    <path id="Path_1523" data-name="Path 1523" d="M5757.2,2636.478q61.734,2.638,123.531,4.9c59.117,2.076,118.313,3.634,177.613,4.107,276.91,2.212,554.039,3.5,830.984,2.1,270.461-1.37,540.855-11.135,811.273-9.561,249.34,1.45,499.645,10.523,749.8,16.012,121.359-3.473,246.352-5.557,366.488,4.14q26.5-.072,52.98-.289c2.332-30.3,9.879-60.6,19.988-90.8,1.844-38.114,4.406-76.205,10.547-114.187-460.648,1.136-921.152-6.79-1381.1-17.177-497.262-11.229-993.5-6.649-1491.082-3.128-253.1,1.791-506.555,5.039-759.727,5.733-3.32,62.012-.348,124.1-1.891,186.136C5430.664,2621.53,5593.813,2629.5,5757.2,2636.478Z" transform="translate(-5794.614 -2613.615)" fill="#fff"/>
  </g>
</svg>
