<svg xmlns="http://www.w3.org/2000/svg" viewBox="0 0 22 25" width="22" height="25">
	<style>
		tspan { white-space:pre }
		.shp0 { fill: none;stroke: #000000;stroke-linecap:round;stroke-linejoin:round;stroke-width: 0.671 } 
		.shp1 { fill: #000000 } 
	</style>
	<g id="Group_583">
		<path id="Union_2" class="shp0" d="M6.33 20.61L2.33 20.61C2.07 20.61 1.81 20.56 1.57 20.45C1.33 20.35 1.1 20.2 0.92 20.01C0.73 19.83 0.59 19.6 0.49 19.36C0.39 19.11 0.33 18.85 0.33 18.58L0.33 2.36C0.33 2.1 0.39 1.84 0.49 1.59C0.59 1.34 0.73 1.12 0.92 0.93C1.1 0.74 1.33 0.59 1.57 0.49C1.81 0.39 2.07 0.34 2.33 0.34L19.67 0.34C19.93 0.34 20.19 0.39 20.43 0.49C20.67 0.59 20.9 0.74 21.08 0.93C21.27 1.12 21.41 1.34 21.51 1.59C21.61 1.84 21.67 2.1 21.67 2.36L21.67 18.58C21.67 18.85 21.61 19.11 21.51 19.36C21.41 19.6 21.27 19.83 21.08 20.01C20.9 20.2 20.67 20.35 20.43 20.45C20.19 20.56 19.93 20.61 19.67 20.61L9.59 20.61L6.33 24.32L6.33 20.61Z" />
		<path id="Ellipse_193" class="shp1" d="M7 11.82C6.26 11.82 5.67 11.22 5.67 10.47C5.67 9.73 6.26 9.12 7 9.12C7.74 9.12 8.33 9.73 8.33 10.47C8.33 11.22 7.74 11.82 7 11.82Z" />
		<path id="Ellipse_194" class="shp1" d="M11 11.82C10.26 11.82 9.67 11.22 9.67 10.47C9.67 9.73 10.26 9.12 11 9.12C11.74 9.12 12.33 9.73 12.33 10.47C12.33 11.22 11.74 11.82 11 11.82Z" />
		<path id="Ellipse_195" class="shp1" d="M15 11.82C14.26 11.82 13.67 11.22 13.67 10.47C13.67 9.73 14.26 9.12 15 9.12C15.74 9.12 16.33 9.73 16.33 10.47C16.33 11.22 15.74 11.82 15 11.82Z" />
	</g>
</svg>