<svg xmlns="http://www.w3.org/2000/svg" xmlns:xlink="http://www.w3.org/1999/xlink" width="736" height="579" viewBox="0 0 736 579">
  <defs>
    <clipPath id="clip-Artboard_1">
      <rect width="736" height="579"/>
    </clipPath>
  </defs>
  <g id="Artboard_1" data-name="Artboard – 1" clip-path="url(#clip-Artboard_1)">
    <rect width="736" height="579" fill="#fff"/>
    <path id="Path_1738" data-name="Path 1738" d="M5218.626,3948.939c.335,192.852,4.3,385.689,10.395,578.476h156.133c119.409,0,239.584,3.053,358.837-2.177,58.165-2.545,116.222-6.643,174.465-8.072,9.04-.218,18.092-.434,27.144-.562-1.3-11.183-3.232-22.346-3.923-33.165-1.706-26.828-3.016-53.512-2.852-80.385.324-53.27,2.124-106.468,4.8-159.7,2.706-53.737,6.683-107.2,6.327-161-.289-42.891-.442-85.687,4.411-128.353q-34.573,1.794-69.219,2.168c-117.83,1.444-235.78-3.26-353.648-3.085C5427.2,3953.246,5322.806,3953.085,5218.626,3948.939Z" transform="translate(-5218.626 -3949.133)" fill="#004ba6"/>
    <path id="Path_1737" data-name="Path 1737" d="M6129.1,943.139c-25.906-48.474-46.946-106.667-31.632-163.421,15-55.606,53.023-103.263,99.225-128.272,29.2-15.81,60.227-21.461,91.455-20.275,20.658.784,41.4,4.552,61.772,10.374,46.43,13.265,94.068,30.955,125.964,73.45q2.891,3.852,5.575,7.854c.118.1.239.188.355.3,14.564,13.451,23.162,34.2,29.754,53.6a322.924,322.924,0,0,1,14.989,68.953c2.441,22.511.778,43.631-8.178,64.25-10.1,23.248-26.525,42.781-43.628,59.693a492.108,492.108,0,0,1-54.621,46.251c-18.255,13.413-37.979,24.937-59.446,30.033a120.126,120.126,0,0,1-21.225,3c-16.445.9-32.832-1.209-49.363-4.035-21.286-3.635-42.787-6.695-63.609-13.043-19.219-5.856-37.54-14.954-53.34-28.749C6154.653,986.943,6141.081,965.557,6129.1,943.139Zm107.481,28.434c19.81,8.572,41.043,10.639,62.175,9.214a238.075,238.075,0,0,0,31.063-4.315c34.823-7.045,72.7-21.869,96.707-50.624,24.6-29.46,25.749-71.012,20.608-108.127-4.816-34.758-19.139-69.158-46.083-90.156-18.917-22.112-50.682-34.119-76.176-40.849a186.694,186.694,0,0,0-31.607-5.688c-22.772-1.952-45.175,1.339-66.543,13.262C6130.134,748.17,6133.936,927.158,6236.583,971.573Z" transform="translate(6727.396 322.604) rotate(173)" fill="#fff" opacity="0.1"/>
  </g>
</svg>
