<svg xmlns="http://www.w3.org/2000/svg" xmlns:xlink="http://www.w3.org/1999/xlink" width="298" height="205" viewBox="0 0 298 205">
  <defs>
    <clipPath id="clip-path">
      <rect id="Rectangle_30" data-name="Rectangle 30" width="298" height="205"/>
    </clipPath>
  </defs>
  <g id="Artboard_12" data-name="Artboard – 12" clip-path="url(#clip-path)">
    <g id="Artboard_12-2" data-name="Artboard – 12" clip-path="url(#clip-path)">
      <path id="Subtraction_1" data-name="Subtraction 1" d="M-344-5203H-642v-205h298Zm-3.522-201.751-290.415,1.563v71.05c.248,10.074.575,19.437,1,28.624.471,10.161,1.057,20.485,1.625,30.469v.008c.979,17.245,1.99,35.077,2.446,52.652.051,1.986.184,4.407.325,6.971v0c.138,2.506.28,5.1.339,7.245h283.236c-.488-9.662-.805-19.786-.938-30.089-.39-29.931.65-60.825,1.657-90.7.244-7.242.5-14.73.725-22.107Z" transform="translate(642 5408)" fill="#fff"/>
    </g>
  </g>
</svg>
