<svg xmlns="http://www.w3.org/2000/svg" xmlns:xlink="http://www.w3.org/1999/xlink" viewBox="0 0 550 347">
  <defs>
    <clipPath id="clip-Artboard_12">
      <rect width="550" height="347"/>
    </clipPath>
  </defs>
  <g id="Artboard_12" data-name="Artboard – 12" clip-path="url(#clip-Artboard_12)">
    <path id="Subtraction_1" data-name="Subtraction 1" d="M-92-5061H-642v-347H-92v347Zm-6.5-341.5-536,2.644v120.266c.457,17.052,1.061,32.9,1.847,48.45.87,17.2,1.951,34.675,3,51.574v.013c1.806,29.19,3.673,59.374,4.515,89.123.094,3.362.339,7.46.6,11.8v.007c.254,4.241.516,8.626.625,12.263h522.752c-.9-16.354-1.486-33.49-1.732-50.931-.72-50.664,1.2-102.958,3.059-153.529.45-12.259.916-24.935,1.338-37.421Z" transform="translate(642 5408)" fill="#fff"/>
  </g>
</svg>
