<svg xmlns="http://www.w3.org/2000/svg" xmlns:xlink="http://www.w3.org/1999/xlink" width="558" height="361" viewBox="0 0 558 361">
  <defs>
    <clipPath id="clip-Artboard_9">
      <rect width="558" height="361"/>
    </clipPath>
  </defs>
  <g id="Artboard_9" data-name="Artboard – 9" clip-path="url(#clip-Artboard_9)">
    <path id="Path_1517" data-name="Path 1517" d="M2188.44,1162.111c-8.493.27-16.987.716-25.482.784-73.657.588-147.32.812-220.974,1.732-75.322.941-150.634,2.7-225.954,3.765-22.871.322-45.759-.486-68.639-.772-1.622-.02-3.245,0-4.965,0,0,6.161-.108,11.929.018,17.692.625,28.476,1.536,56.947,1.933,85.425q1.452,104.2,2.531,208.4c.163,13.969.193,27.94.284,41.909h12.028c7.309-.3,14.618-.863,21.927-.868q59.25-.036,118.5.186c2.305.006,4.609.445,6.914.682h389.9q.706-130.036,1.435-260.073a43.186,43.186,0,0,1,.57-4.877v-93.982Z" transform="translate(-1641.382 -1161.111)" fill="#fff"/>
  </g>
</svg>
