<svg xmlns="http://www.w3.org/2000/svg" width="181.078" height="42.746" viewBox="0 0 181.078 42.746">
  <path id="Path_1761" data-name="Path 1761" d="M4601.964,2899.585c-.8-6.066.447-12.7,0-18.769l-.074-1.007a2.158,2.158,0,0,0-2.4-1.728c-2.741.121-5.466.256-8.124.313-8.429.178-20.3.314-28.748.3q-25.1-.051-50.172-.5c-16.881-.283-33.675.241-50.578.279-12.593.028-25.159.044-37.686-.367-1.37-.045-2.484.883-2.354,1.981.2,1.715.333,3.43.4,5.144.429,11.559-.853,22.19-.959,33.754a2.093,2.093,0,0,0,2.283,1.843H4599.7a2.077,2.077,0,0,0,2.261-1.852C4601.916,2912.247,4602.841,2906.22,4601.964,2899.585Z" transform="translate(-4421.266 -2878.079)" fill="#004ba6"/>
</svg>
