<svg xmlns="http://www.w3.org/2000/svg" width="235.907" height="57.222" viewBox="0 0 235.907 57.222">
  <g id="Group_11" data-name="Group 11" transform="translate(-511.06 -919.707)">
    <g id="Group_10" data-name="Group 10" transform="translate(512.06 920)">
      <path id="Path_37" data-name="Path 37" d="M4654.73,2905.86c-1.035-7.836.577-16.4,0-24.246l-.1-1.3a2.787,2.787,0,0,0-3.1-2.232c-3.541.156-7.061.331-10.5.4-10.888.23-26.233.406-37.141.384q-32.437-.064-64.824-.647c-21.81-.365-43.51.311-65.349.36-16.27.036-32.5.056-48.689-.474-1.771-.059-3.209,1.14-3.04,2.56.262,2.214.428,4.43.511,6.644.553,14.932-1.1,28.665-1.24,43.6a2.706,2.706,0,0,0,2.949,2.381H4651.8a2.685,2.685,0,0,0,2.923-2.393C4654.667,2922.216,4655.863,2914.431,4654.73,2905.86Z" transform="translate(-4421.264 -2877.368)" fill="none" stroke="#ccc" stroke-width="2"/>
    </g>
  </g>
</svg>
