<svg xmlns="http://www.w3.org/2000/svg" width="1365.205" height="666.368" viewBox="0 0 1365.205 666.368">
  <path id="Path_33510" data-name="Path 33510" d="M-533.661-56.663c20.343-3.351,41.282.077,61.95-.967,24.278-1.228,48.644.044,72.989-1.169,23.669-1.18,47.418.33,71.151-1.08,18.953-1.125,38-.228,57.03-1.057,23.48-1.019,47.038-.1,70.562-.792,19.206-.563-.02-.056,19.206-.446l4.874-.1-.014,4.768q.019,330.8.013,661.6c-3.941-.465-9.3-.932-19.3-1.455-34.486-1.8-69-2.968-103.51-4.38-23.681-.969-47.4-1.767-71.093-2.142-25.969-.407-51.943-.814-77.906-1.419-17.005-.4-33.924,1.313-50.9,1.135a514.112,514.112,0,0,0-53.875,2.632c-32.783,3.107-65.688,3.847-98.555,4.91-39.264,1.27-78.565-.107-117.824-1.186-11.428-.313-22.9-.351-34.32-1.041-18.432-1.114-36.879-1.933-55.323-2.8-18.444.872-36.892,1.691-55.323,2.8-11.421.69-22.891.728-34.32,1.041-39.259,1.079-78.56,2.456-117.824,1.186-32.867-1.063-65.771-1.8-98.555-4.91a514.137,514.137,0,0,0-53.875-2.632c-16.974.178-33.894-1.532-50.9-1.135-25.964.606-51.938,1.013-77.906,1.419-23.694.375-47.412,1.173-71.093,2.142-34.505,1.412-69.025,2.577-103.51,4.38-10,.523-15.356.99-19.3,1.455q-.006-330.8.013-661.6l-.014-4.768,4.875.1c19.227.389,0-.118,19.206.446,23.523.691,47.081-.227,70.562.792,19.034.828,38.078-.068,57.03,1.057,23.732,1.409,47.481-.1,71.151,1.08,24.244,1.208,48.51-.049,72.687,1.153,4.051.2,8.1.365,12.161.428a568.172,568.172,0,0,1,65.51,4.741C-1086.779-41.775-712.12-27.271-533.661-56.663Z" transform="translate(1541.102 62.273)" fill="#06e88b"/>
</svg>
