<svg xmlns="http://www.w3.org/2000/svg" width="353.201" height="534.382" viewBox="0 0 353.201 534.382">
  <g id="Group_15330" data-name="Group 15330" transform="translate(-91.148 -238.326)">
    <path id="Rectangle_3562" data-name="Rectangle 3562" d="M6.047,0h0a6.047,6.047,0,0,1,6.047,6.047V37.929a6.047,6.047,0,0,1-6.047,6.047h0A6.047,6.047,0,0,1,0,37.929V6.047A6.047,6.047,0,0,1,6.047,0Z" transform="translate(111.689 563.186) rotate(-123.649)" fill="#cc2733"/>
    <rect id="Rectangle_3563" data-name="Rectangle 3563" width="12.094" height="43.979" rx="6.047" transform="matrix(0.728, -0.686, 0.686, 0.728, 405.381, 433.53)" fill="#fbd738"/>
    <rect id="Rectangle_3564" data-name="Rectangle 3564" width="12.094" height="43.979" rx="6.047" transform="matrix(0.909, 0.417, -0.417, 0.909, 197.396, 238.326)" fill="#fbd738"/>
    <path id="Rectangle_3565" data-name="Rectangle 3565" d="M6.046,0h0a6.047,6.047,0,0,1,6.047,6.047V37.932a6.046,6.046,0,0,1-6.046,6.046h0A6.047,6.047,0,0,1,0,37.931V6.046A6.046,6.046,0,0,1,6.046,0Z" transform="translate(432.585 256.642) rotate(96.014)" fill="#5ab8ff"/>
    <rect id="Rectangle_3566" data-name="Rectangle 3566" width="12.094" height="43.978" rx="6.047" transform="translate(386.885 593.462) rotate(-162.046)" fill="#5ab8ff"/>
    <circle id="Ellipse_398" data-name="Ellipse 398" cx="8.526" cy="8.526" r="8.526" transform="translate(91.148 319.139) rotate(-76.239)" fill="#cc2733"/>
    <circle id="Ellipse_399" data-name="Ellipse 399" cx="8.526" cy="8.526" r="8.526" transform="translate(121.492 658.816)" fill="#ffebd0"/>
    <circle id="Ellipse_400" data-name="Ellipse 400" cx="8.526" cy="8.526" r="8.526" transform="translate(303.157 268.91)" fill="#ffebd0"/>
    <g id="Group_15331" data-name="Group 15331" transform="translate(153.473 334.447)">
      <circle id="Ellipse_397" data-name="Ellipse 397" cx="8.526" cy="8.526" r="8.526" transform="translate(200.911 411.651) rotate(-76.659)" fill="#cc2733"/>
      <path id="Path_29818" data-name="Path 29818" d="M300.344,406.928s15.781,86.214,65.419,82.991l-19.352-28.7s20.6,23.974,26.673,24.1c-8.541-12.572-17-25.056-20.244-32.055a152.853,152.853,0,0,1-10.186-26.474C327.388,410.322,312.458,399.714,300.344,406.928Z" transform="translate(-171.076 -385.749)"/>
      <path id="Path_29819" data-name="Path 29819" d="M223,413.748s1.129,87.639-48.2,94.042L188.262,475.9s-15.592,27.493-21.53,28.783c5.958-13.982,11.854-27.862,13.688-35.354a152.907,152.907,0,0,0,4.894-27.941C197.121,422.29,209.726,409,223,413.748Z" transform="translate(-151.702 -386.932)"/>
      <path id="Path_29820" data-name="Path 29820" d="M249.794,843.19l-17.625,1.462,4.721-162.469,27.444-6.339C259.365,718.483,251.553,809.817,249.794,843.19Z" transform="translate(-161.191 -425.078)" fill="#bdc5c6"/>
      <ellipse id="Ellipse_401" data-name="Ellipse 401" cx="31.008" cy="23.712" rx="31.008" ry="23.712" transform="translate(78.742 229.009)" fill="#003054"/>
      <path id="Path_29821" data-name="Path 29821" d="M302.1,846.809l18.1.37L310.144,683.223l-26.228-.514C289.8,725.877,299.624,813.022,302.1,846.809Z" transform="translate(-168.694 -426.074)" fill="#bdc5c6"/>
      <path id="Path_29822" data-name="Path 29822" d="M303.992,542.36h-68.65l2.025,44.793-.205.931,1.866,66.268c28.8,21.6,60.658,9.7,60.658,9.7l3.336-17.287.439-71.379-.119-.081Z" transform="translate(-161.651 -405.722)" fill="#003054"/>
      <path id="Path_29823" data-name="Path 29823" d="M277.781,516.672c-2.495-1.684-9.211-3.17-10.067-2.788-.856-.382-7.572,1.1-10.067,2.788-15.184,10.249-38.623,16.792-38.64,32.385,0,0,.31,11.173,8.289,11.173h80.834c7.979,0,8.289-11.172,8.289-11.172C316.4,533.464,292.965,526.921,277.781,516.672Z" transform="translate(-159.282 -401.583)" fill="#003054"/>
      <path id="Path_29824" data-name="Path 29824" d="M282.226,516.672c-2.495-1.684-9.211-3.17-10.067-2.788-.856-.382-7.572,1.1-10.067,2.788a122.6,122.6,0,0,1-10.651,6.238c-13.548,7.251,55.085,7.3,41.578.077A123.651,123.651,0,0,1,282.226,516.672Z" transform="translate(-163.727 -401.583)" fill="#c9d2d3"/>
      <path id="Path_29825" data-name="Path 29825" d="M282.72,523.217c0,4.246-18.349,4.246-18.349,0V492.433H282.72Z" transform="translate(-165.86 -398.482)" fill="#cb8c7e"/>
      <ellipse id="Ellipse_402" data-name="Ellipse 402" cx="13.101" cy="8.83" rx="13.101" ry="8.83" transform="translate(131.306 87.451) rotate(-87.594)" fill="#cb8c7e"/>
      <ellipse id="Ellipse_403" data-name="Ellipse 403" cx="8.831" cy="13.101" rx="8.831" ry="13.101" transform="translate(56.284 71.152) rotate(-14.807)" fill="#cb8c7e"/>
      <path id="Path_29826" data-name="Path 29826" d="M268.315,499.117h0a36.532,36.532,0,0,1-39.9-32.824l-2.926-30.08a36.533,36.533,0,0,1,32.824-39.9h0a36.533,36.533,0,0,1,39.9,32.825l2.926,30.079A36.532,36.532,0,0,1,268.315,499.117Z" transform="translate(-160.197 -384.519)" fill="#df9987"/>
      <path id="Path_29827" data-name="Path 29827" d="M243.861,467.915c.327,3.191,2.21,5.612,4.207,5.409s3.352-2.957,3.027-6.147-2.209-5.612-4.207-5.409S243.535,464.725,243.861,467.915Z" transform="translate(-162.879 -394.034)" fill="#242d22"/>
      <path id="Path_29828" data-name="Path 29828" d="M287.42,463.679c.326,3.191,2.209,5.612,4.207,5.408s3.353-2.956,3.027-6.147-2.209-5.612-4.207-5.408S287.094,460.489,287.42,463.679Z" transform="translate(-169.195 -393.419)" fill="#242d22"/>
      <path id="Path_29829" data-name="Path 29829" d="M282.3,483.666,258.341,485.7a1.7,1.7,0,0,0-1.466,2.249c1.338,3.858,5.223,11.678,14.567,10.887,9.328-.791,11.95-9.137,12.674-13.176A1.7,1.7,0,0,0,282.3,483.666Z" transform="translate(-164.759 -397.21)" fill="#fff"/>
      <path id="Path_29830" data-name="Path 29830" d="M257.8,517.974l-11.525,6.976,14.52,19.259,10.956-13.724Z" transform="translate(-163.237 -402.185)" fill="#e4eeef"/>
      <path id="Path_29831" data-name="Path 29831" d="M287.171,517.53l13.193,8.037L286.223,543.8l-10.5-13.534Z" transform="translate(-167.506 -402.122)" fill="#e4eeef"/>
      <path id="Path_29832" data-name="Path 29832" d="M287.977,396.841s1.7-19.855,25.925-12.762c16.185,4.738,27.091,39.646,27.091,39.646Z" transform="translate(-169.283 -382.548)"/>
      <path id="Path_29833" data-name="Path 29833" d="M235.186,401.715s-5.489-19.157-27.9-7.527c-14.969,7.769-18.945,44.124-18.945,44.124Z" transform="translate(-154.836 -383.692)"/>
      <path id="Path_29834" data-name="Path 29834" d="M301.082,404.566l-15.132-6.328a4.022,4.022,0,0,1-2.168-5.363l.673-1.487a4.311,4.311,0,0,1,5.559-2.132l15.133,6.329a4.02,4.02,0,0,1,2.167,5.363l-.673,1.488A4.31,4.31,0,0,1,301.082,404.566Z" transform="translate(-168.624 -383.472)" fill="#fbd738"/>
      <path id="Path_29835" data-name="Path 29835" d="M224.733,411.779l13.629-9.126a4.021,4.021,0,0,0,1.094-5.681l-.946-1.329a4.311,4.311,0,0,0-5.865-1.021l-13.629,9.126a4.02,4.02,0,0,0-1.094,5.68l.946,1.33A4.311,4.311,0,0,0,224.733,411.779Z" transform="translate(-159.018 -384.193)" fill="#fbd738"/>
      <path id="Path_29836" data-name="Path 29836" d="M249.811,394.949s-57.758,7.746-20.572,73.971l1.235-2.226c1.925-9.987-4.625-30.607,3.42-50.039C236.939,409.3,240.222,402.033,249.811,394.949Z" transform="translate(-158.956 -384.346)" fill="#1a1a1a"/>
      <path id="Path_29837" data-name="Path 29837" d="M270.487,393.474s58.792-4.366,35.065,67.783l-.443.235C297.667,456.172,309.736,412.069,270.487,393.474Z" transform="translate(-166.747 -384.125)" fill="#1a1a1a"/>
      <path id="Path_29838" data-name="Path 29838" d="M244.532,427.808,251.093,448l7.537-.856,24.985-3.126-.959-13.59,6.192,13.3,7.542-.842c-3.894-41.9-31.178-49.4-31.178-49.4l-12.885,1.253c-24.63,7.975-17.158,56.212-17.158,56.212l10.041-2.5Z" transform="translate(-161.471 -384.133)" fill="#1a1a1a"/>
      <path id="Path_29839" data-name="Path 29839" d="M315.279,745.606c-24.8,5.643-68.782,3.567-93.717-2.047L235.816,640.43l65.208-.606Z" transform="translate(-159.652 -419.855)" fill="#003054"/>
      <rect id="Rectangle_3567" data-name="Rectangle 3567" width="66.421" height="6.369" transform="translate(75.557 218.15)" fill="#e4eeef"/>
      <rect id="Rectangle_3568" data-name="Rectangle 3568" width="20.321" height="13.365" transform="translate(98.001 214.651)" fill="#003054"/>
      <g id="Group_15327" data-name="Group 15327" transform="translate(41.56 413.849)">
        <path id="Path_29840" data-name="Path 29840" d="M246.65,889.783l-48.764.175h0c-.852-7.905,4.195-14.313,11.271-14.313h37.751Z" transform="translate(-197.766 -867.899)" fill="#003054"/>
        <path id="Path_29841" data-name="Path 29841" d="M225.686,877.169l5.693-5.651,17.86.08a1.724,1.724,0,0,1,1.717,1.725l0,3.845Z" transform="translate(-201.811 -867.3)" fill="#003054"/>
        <path id="Path_29842" data-name="Path 29842" d="M211.675,874.4s16.3.834,21.761-7.81l13.989,3.583s.114,12.8-28.548,12.34Z" transform="translate(-199.779 -866.585)" fill="#bdc5c6"/>
        <path id="Path_29843" data-name="Path 29843" d="M220.567,889.783l-22.685.175h0c-.811-7.905,3.989-14.313,10.722-14.313h2.156c5.416,0,9.806,5.418,9.806,12.1Z" transform="translate(-197.766 -867.899)" fill="#094a72"/>
        <path id="Path_29844" data-name="Path 29844" d="M197.761,894.618h48.726l.055-3.063H197.816Z" transform="translate(-197.761 -870.206)" fill="#bdc5c6"/>
        <path id="Path_29845" data-name="Path 29845" d="M226.618,873.48s10.577,3.184,10.8,12.056l4.777.227s-1.478-13.535-11.373-13.989Z" transform="translate(-201.946 -867.337)" fill="#003054"/>
      </g>
      <g id="Group_15328" data-name="Group 15328" transform="translate(131.054 413.849)">
        <path id="Path_29846" data-name="Path 29846" d="M302.7,889.783l48.764.175h0c.852-7.905-4.194-14.313-11.271-14.313H302.436Z" transform="translate(-302.434 -867.899)" fill="#003054"/>
        <path id="Path_29847" data-name="Path 29847" d="M327.7,877.169l-5.694-5.651-17.859.08a1.724,1.724,0,0,0-1.718,1.725l0,3.845Z" transform="translate(-302.433 -867.3)" fill="#003054"/>
        <path id="Path_29848" data-name="Path 29848" d="M339.937,874.4s-16.3.834-21.76-7.81l-13.989,3.583s-.114,12.8,28.547,12.34Z" transform="translate(-302.687 -866.585)" fill="#bdc5c6"/>
        <path id="Path_29849" data-name="Path 29849" d="M333.246,889.783l22.685.175h0c.811-7.905-3.989-14.313-10.722-14.313h-2.156c-5.416,0-9.806,5.418-9.806,12.1Z" transform="translate(-306.901 -867.899)" fill="#094a72"/>
        <path id="Path_29850" data-name="Path 29850" d="M351.641,894.618H302.915l-.055-3.063h48.726Z" transform="translate(-302.495 -870.206)" fill="#bdc5c6"/>
        <path id="Path_29851" data-name="Path 29851" d="M328.414,873.48s-10.577,3.184-10.8,12.056l-4.777.227s1.478-13.535,11.374-13.989Z" transform="translate(-303.941 -867.337)" fill="#003054"/>
      </g>
      <path id="Path_29852" data-name="Path 29852" d="M276.752,474.573s-.657,5.713-5.864,6.219c-4.667.454-7.091-4.643-7.091-4.643a22.1,22.1,0,0,0,6.772.788A18.383,18.383,0,0,0,276.752,474.573Z" transform="translate(-165.777 -395.892)" fill="#cb8c7e"/>
      <path id="Path_29853" data-name="Path 29853" d="M389.975,454.116s-.512,79.861-56.813,89.142l.721-22.64s38.246-.251,41.418-65.893Z" transform="translate(-175.835 -392.926)" fill="#cb8c7e"/>
      <path id="Path_29854" data-name="Path 29854" d="M323.282,562.586a185.2,185.2,0,0,0,32.3-18.845l-11.954-19.972-33.835,16.713a11.561,11.561,0,0,0-5.133,15.707h0A14.29,14.29,0,0,0,323.282,562.586Z" transform="translate(-171.513 -403.026)" fill="#003054"/>
      <path id="Path_29855" data-name="Path 29855" d="M353.822,549.63,342.1,530.709l2.87-1.693,11.268,19Z" transform="translate(-177.131 -403.787)" fill="#e4eeef"/>
      <path id="Path_29856" data-name="Path 29856" d="M379.524,460.769,369.4,448.75,368.368,431c0-3.762,4.746.531,5.07,2.485l1.275,7.684,1.1-8.926.065-.724a3.773,3.773,0,0,1,4.179-3.382l13.948.842a5.39,5.39,0,0,1,5.081,5.6c-.905,8.629-2.594,24.891-2.5,25.4C396.708,460.663,379.524,460.769,379.524,460.769Z" transform="translate(-180.941 -389.157)" fill="#cb8c7e"/>
      <path id="Path_29857" data-name="Path 29857" d="M153.87,454.116s.512,79.861,56.813,89.142l-.721-22.64s-38.246-.251-41.418-65.893Z" transform="translate(-149.837 -392.926)" fill="#cb8c7e"/>
      <path id="Path_29858" data-name="Path 29858" d="M221.341,562.586a185.159,185.159,0,0,1-32.3-18.845l11.953-19.972,33.835,16.713a11.561,11.561,0,0,1,5.133,15.707h0A14.29,14.29,0,0,1,221.341,562.586Z" transform="translate(-154.937 -403.026)" fill="#003054"/>
      <path id="Path_29859" data-name="Path 29859" d="M197.262,549.63l11.727-18.921-2.87-1.693-11.268,19Z" transform="translate(-155.779 -403.787)" fill="#e4eeef"/>
      <path id="Path_29860" data-name="Path 29860" d="M168.743,460.769,178.87,448.75,179.9,431c0-3.762-4.746.531-5.07,2.485l-1.275,7.684-1.1-8.926-.065-.724a3.774,3.774,0,0,0-4.179-3.382l-13.948.842a5.39,5.39,0,0,0-5.081,5.6c.905,8.629,2.594,24.891,2.5,25.4C151.559,460.663,168.743,460.769,168.743,460.769Z" transform="translate(-149.153 -389.157)" fill="#cb8c7e"/>
      <g id="Group_15329" data-name="Group 15329" transform="translate(69.792 123.351)">
        <path id="Path_29861" data-name="Path 29861" d="M301.386,526.819l-29.92,40.622,9.879,5.639L313.42,533.72C311.135,530.456,306.8,528.484,301.386,526.819Z" transform="translate(-236.681 -526.819)" fill="#4cb0ed"/>
        <path id="Path_29862" data-name="Path 29862" d="M263.449,578.929v7.8h1.47v-6.581h15.445v6.581h1.6v-7.8Z" transform="translate(-235.518 -534.375)" fill="#95a4a5"/>
        <path id="Path_29863" data-name="Path 29863" d="M240.914,527.711l34.532,45.5H260.9L230.781,533.54C231.91,529.372,238.725,527.711,240.914,527.711Z" transform="translate(-230.781 -526.948)" fill="#5ab8ff"/>
      </g>
      <g id="Group_15332" data-name="Group 15332" transform="translate(27.253 115.813)">
        <circle id="Ellipse_404" data-name="Ellipse 404" cx="48.052" cy="48.052" r="48.052" transform="translate(17.31 132.254) rotate(-67.759)" fill="#fac73b"/>
        <g id="Group_15333" data-name="Group 15333" transform="translate(7.102 7.102)">
          <circle id="Ellipse_405" data-name="Ellipse 405" cx="31.945" cy="31.945" r="31.945" transform="translate(34.408 76.425) rotate(-13.365)" fill="#fab13b"/>
          <circle id="Ellipse_406" data-name="Ellipse 406" cx="27.469" cy="27.469" r="27.469" transform="translate(45.58 72.65)" fill="#fade3b"/>
        </g>
        <text id="_100" data-name="100" transform="translate(80.022 118.138)" font-size="30" font-family="SegoeUI, Segoe UI"><tspan x="-24.258" y="0">100</tspan></text>
        <g id="Group_15339" data-name="Group 15339" transform="translate(-225.251 -291.388)">
          <g id="Group_15336" data-name="Group 15336">
            <g id="Group_15335" data-name="Group 15335">
              <g id="Group_15334" data-name="Group 15334">
                <path id="Path_29864" data-name="Path 29864" d="M293.178,431.776a2.479,2.479,0,0,1,1.474,1.357A2.87,2.87,0,0,1,293.3,436.7a2.475,2.475,0,0,1-2,.042l-1.646-.622-.844,2.233-.936-.353,2.721-7.2Zm-1.611,4.107a1.537,1.537,0,0,0,1.276-.047,1.762,1.762,0,0,0,.876-1.01,1.786,1.786,0,0,0,.015-1.347,1.547,1.547,0,0,0-.926-.878l-1.6-.6-1.241,3.282Z"/>
                <path id="Path_29865" data-name="Path 29865" d="M301.256,440.593a4.159,4.159,0,0,1-5.688-1,4.317,4.317,0,0,1,.987-5.635,4.158,4.158,0,0,1,5.688,1,4.315,4.315,0,0,1-.987,5.634ZM296.42,439.1a2.976,2.976,0,0,0,4.2.736,3.55,3.55,0,0,0,.767-4.377,2.974,2.974,0,0,0-4.2-.736,3.511,3.511,0,0,0-.767,4.377Z"/>
                <path id="Path_29866" data-name="Path 29866" d="M304.124,441.707l.233-7.7,1,.03-.232,7.7Z"/>
                <path id="Path_29867" data-name="Path 29867" d="M307.455,441.8l-.72-7.667,1.062-.1,4.014,5.679-.563-6,.953-.09.719,7.667-1.051.1-4.014-5.678.563,6Z"/>
                <path id="Path_29868" data-name="Path 29868" d="M316.813,440.425l-1.693-6.538-2.225.576-.238-.916,5.421-1.4.236.916-2.225.576,1.692,6.538Z"/>
                <path id="Path_29869" data-name="Path 29869" d="M323.412,438.436a2.867,2.867,0,0,1-2.156.139,2.523,2.523,0,0,1-1.419-1.508l.925-.381a1.712,1.712,0,0,0,.928,1,1.759,1.759,0,0,0,1.376-.056,1.7,1.7,0,0,0,.91-.738,1.32,1.32,0,0,0-.563-1.666,2.3,2.3,0,0,0-1.085-.136l-1.351.07a1.981,1.981,0,0,1-2.206-1.279,1.871,1.871,0,0,1,.049-1.64,2.611,2.611,0,0,1,1.4-1.2,2.556,2.556,0,0,1,1.922-.1,2.24,2.24,0,0,1,1.284,1.327l-.925.381a1.487,1.487,0,0,0-.788-.871,1.547,1.547,0,0,0-1.2.072,1.5,1.5,0,0,0-.811.673,1.047,1.047,0,0,0-.019.918,1.091,1.091,0,0,0,.6.622,2.686,2.686,0,0,0,1.17.124l1.258-.067a2.051,2.051,0,0,1,2.2,1.343,2,2,0,0,1-.034,1.722A2.686,2.686,0,0,1,323.412,438.436Z"/>
              </g>
            </g>
          </g>
          <g id="Group_15338" data-name="Group 15338" transform="translate(-1 2)">
            <g id="Group_15337" data-name="Group 15337">
              <path id="Path_29870" data-name="Path 29870" d="M273.41,367.83l.676-.868,3.689,7.789-.683.876-1.457-3.1-5.453-.557.717-.919,4.232.442Z"/>
              <path id="Path_29871" data-name="Path 29871" d="M284.307,366.712a4.16,4.16,0,0,1-4.347,3.8,4.315,4.315,0,0,1-3.766-4.305,4.158,4.158,0,0,1,4.346-3.8,4.317,4.317,0,0,1,3.767,4.3Zm-4.2,2.827a2.976,2.976,0,0,0,3.212-2.811,3.553,3.553,0,0,0-2.926-3.345,2.976,2.976,0,0,0-3.212,2.811,3.513,3.513,0,0,0,2.926,3.345Z"/>
              <path id="Path_29872" data-name="Path 29872" d="M290.44,363.611a3.341,3.341,0,0,1-3.59,1.987,2.607,2.607,0,0,1-1.629-1.388l-2.5-4.523.876-.485,2.476,4.476a1.852,1.852,0,0,0,1.092.973,1.8,1.8,0,0,0,1.387-.22,1.772,1.772,0,0,0,.918-1.055,1.866,1.866,0,0,0-.249-1.439l-2.476-4.476.885-.49,2.5,4.524A2.606,2.606,0,0,1,290.44,363.611Z"/>
              <path id="Path_29873" data-name="Path 29873" d="M298.932,356.132a2.749,2.749,0,0,1-.049,1.636,2.354,2.354,0,0,1-.952,1.208l2.138,2.066-1.109.282-2.028-1.947-1.556.4.589,2.313-.97.247-1.9-7.461,2.676-.682a2.479,2.479,0,0,1,1.986.266A2.635,2.635,0,0,1,298.932,356.132Zm-4.645-.632.866,3.4,1.653-.421a1.544,1.544,0,0,0,1.018-.77,1.947,1.947,0,0,0-.622-2.441,1.538,1.538,0,0,0-1.263-.189Z"/>
              <path id="Path_29874" data-name="Path 29874" d="M301.193,360.92l-.6-7.677,4.364-.34.071.9-3.367.262.2,2.511,3.367-.262.07.9-3.366.263.192,2.467,3.366-.262.071.9Z"/>
              <path id="Path_29875" data-name="Path 29875" d="M310.2,361.076a3.814,3.814,0,0,1-2.76-1.461,4.438,4.438,0,0,1,.666-5.747,3.818,3.818,0,0,1,3.021-.791,3.974,3.974,0,0,1,2.389,1.03,3.092,3.092,0,0,1,.961,2.082l-1.093-.126a2.314,2.314,0,0,0-.723-1.413,3.152,3.152,0,0,0-3.868-.061,3.605,3.605,0,0,0-.52,4.48,2.771,2.771,0,0,0,2.041,1.112,2.8,2.8,0,0,0,1.74-.286,2.315,2.315,0,0,0,1.025-1.21l1.093.127a3.087,3.087,0,0,1-1.411,1.808A3.98,3.98,0,0,1,310.2,361.076Z"/>
              <path id="Path_29876" data-name="Path 29876" d="M314.762,361.689l2.357-7.33,4.168,1.341-.276.858-3.215-1.034-.772,2.4,3.215,1.034-.276.859-3.214-1.034-.759,2.356,3.215,1.034-.275.859Z"/>
              <path id="Path_29877" data-name="Path 29877" d="M320.229,363.647l3.209-7,.909.417-3.208,7Z"/>
              <path id="Path_29878" data-name="Path 29878" d="M324.035,365.61l1.792-7.933.929.57-1.491,6.284,4.914-4.186.928.569-6.247,5.2Z"/>
              <path id="Path_29879" data-name="Path 29879" d="M327.518,367.895l5.039-5.823,3.31,2.865-.59.682-2.553-2.21-1.649,1.9,2.554,2.21-.591.682L330.484,366l-1.619,1.872,2.554,2.21-.591.682Z"/>
              <path id="Path_29880" data-name="Path 29880" d="M331.775,371.656l6.017-4.8,1.531,1.917a3.709,3.709,0,0,1,.906,2.95,4.053,4.053,0,0,1-4.246,3.391,3.71,3.71,0,0,1-2.676-1.536Zm1.33.219.858,1.075a2.771,2.771,0,0,0,2.046,1.168,3.2,3.2,0,0,0,3.253-2.6,2.778,2.778,0,0,0-.692-2.249l-.858-1.075Z"/>
            </g>
          </g>
        </g>
      </g>
    </g>
  </g>
</svg>
