<svg xmlns="http://www.w3.org/2000/svg" width="35" height="34" viewBox="0 0 35 34">
  <g id="Group_15785" data-name="Group 15785" transform="translate(-0.016 -0.333)">
    <ellipse id="Ellipse_436" data-name="Ellipse 436" cx="17.5" cy="17" rx="17.5" ry="17" transform="translate(0.016 0.333)" fill="#25d366"/>
    <g id="Group_15638" data-name="Group 15638" transform="translate(5.835 5.379)">
      <path id="Path_30157" data-name="Path 30157" d="M43.772,27.187a11.527,11.527,0,0,0-18.138,13.9L24,47.062l6.109-1.6a11.525,11.525,0,0,0,5.507,1.4h0a11.529,11.529,0,0,0,8.152-19.676M35.621,44.916h0a9.565,9.565,0,0,1-4.876-1.335l-.35-.208-3.625.951.967-3.534-.228-.363a9.578,9.578,0,1,1,8.115,4.489m5.254-7.173c-.288-.144-1.7-.84-1.968-.937s-.455-.144-.647.144-.744.937-.912,1.129-.336.216-.624.072a7.854,7.854,0,0,1-2.315-1.429,8.656,8.656,0,0,1-1.6-1.995c-.168-.288-.018-.443.126-.587s.288-.336.432-.5a1.982,1.982,0,0,0,.288-.48.529.529,0,0,0-.024-.5c-.072-.144-.648-1.562-.888-2.138-.234-.562-.471-.485-.648-.494s-.36-.01-.552-.01a1.057,1.057,0,0,0-.768.36,3.23,3.23,0,0,0-1.008,2.4,5.6,5.6,0,0,0,1.176,2.978A12.839,12.839,0,0,0,35.86,40.1,16.761,16.761,0,0,0,37.5,40.7a3.943,3.943,0,0,0,1.814.114,2.966,2.966,0,0,0,1.944-1.369,2.4,2.4,0,0,0,.167-1.369c-.073-.121-.265-.193-.552-.337" transform="translate(-24 -23.807)" fill="#fff"/>
    </g>
  </g>
</svg>
