<svg xmlns="http://www.w3.org/2000/svg" xmlns:xlink="http://www.w3.org/1999/xlink" width="600" height="800" viewBox="0 0 600 800">
  <defs>
    <clipPath id="clip-path">
      <rect id="Rectangle_3879" data-name="Rectangle 3879" width="781" height="109" transform="translate(0.03 72.552)" fill="#fff" stroke="#707070" stroke-width="1"/>
    </clipPath>
    <clipPath id="clip-Invoice_Template_-_HTML_Emaler">
      <rect width="600" height="800"/>
    </clipPath>
  </defs>
  <g id="Invoice_Template_-_HTML_Emaler" data-name="Invoice Template - HTML Emaler" clip-path="url(#clip-Invoice_Template_-_HTML_Emaler)">
    <rect width="600" height="800" fill="#fff"/>
    <g id="Mask_Group_3" data-name="Mask Group 3" transform="translate(-232.03 626.448)" clip-path="url(#clip-path)">
      <g id="Group_15486" data-name="Group 15486" transform="translate(-33.411 76.401)">
        <path id="Path_45" data-name="Path 45" d="M590.542,479.993a75.545,75.545,0,1,1,95.971,116.7l-20.488-24.913a43.29,43.29,0,1,0-54.995-66.87Z" transform="translate(-367.31 -458.661)" fill="#a4d8ff" opacity="0.34"/>
        <path id="Path_30105" data-name="Path 30105" d="M590.542,496.925c63.909-52.56,158.661-43.325,211.22,20.583s43.325,158.661-20.583,211.22l-40.7-49.487A85.99,85.99,0,1,0,631.24,546.412Z" transform="translate(-64.031 -453.159)" fill="#00cbff" opacity="0.13"/>
        <circle id="Ellipse_428" data-name="Ellipse 428" cx="21.815" cy="21.815" r="21.815" transform="translate(349.589 85.916)" fill="#ffcd8a"/>
        <circle id="Ellipse_430" data-name="Ellipse 430" cx="33.411" cy="33.411" r="33.411" fill="#58c8f9"/>
        <circle id="Ellipse_429" data-name="Ellipse 429" cx="6.918" cy="6.918" r="6.918" transform="translate(503.142 18.122)" fill="#58c8f9"/>
        <rect id="Rectangle_61" data-name="Rectangle 61" width="11.62" height="35.054" transform="translate(794.249 24.483) rotate(-33.193)" fill="#ffb26b"/>
        <rect id="Rectangle_3878" data-name="Rectangle 3878" width="7.618" height="23.047" transform="translate(47.829 78.358) rotate(-33.193)" fill="#ffb26b"/>
        <path id="Polygon_6" data-name="Polygon 6" d="M22.5,0,45,38H0Z" transform="translate(762.441 36.151)" fill="#58c8f9"/>
      </g>
    </g>
    <g id="Group_15487" data-name="Group 15487">
      <rect id="Rectangle_2" data-name="Rectangle 2" width="51" height="640" transform="translate(0 160)"/>
      <rect id="Rectangle_1" data-name="Rectangle 1" width="91" height="460" fill="#fade3b"/>
      <text id="LEARNING_FOR_EVERYONE" data-name="LEARNING FOR EVERYONE" transform="translate(29 735) rotate(-90)" fill="#fff" font-size="16" font-family="ArialMT, Arial"><tspan x="0" y="0">LEARNING FOR EVERYONE</tspan></text>
      <text id="I_N_V_O_I_C_E" data-name="I N V O I C E" transform="translate(68 418) rotate(-90)" font-size="60" font-family="ArialMT, Arial" letter-spacing="-0.05em"><tspan x="0" y="0">I N V O I C E</tspan></text>
    </g>
    <g id="Group_15488" data-name="Group 15488" transform="translate(310.503 560)">
      <rect id="Rectangle_3" data-name="Rectangle 3" width="39" height="292" transform="translate(250.497 -560)" fill="#d5ebff"/>
      <rect id="Rectangle_4" data-name="Rectangle 4" width="60" height="568" transform="translate(229.497 -328)" fill="#78a1c6"/>
    </g>
  </g>
</svg>
