<svg xmlns="http://www.w3.org/2000/svg" xmlns:xlink="http://www.w3.org/1999/xlink" width="1365" height="517" viewBox="0 0 1365 517">
  <defs>
    <clipPath id="clip-Artboard_8">
      <rect width="1365" height="517"/>
    </clipPath>
  </defs>
  <g id="Artboard_8" data-name="Artboard – 8" clip-path="url(#clip-Artboard_8)">
    <rect width="1365" height="517" fill="#fff"/>
    <path id="Union_20" data-name="Union 20" d="M1338.612,516.882c-10.264-.216-19.79-.432-30.351-.065-13.233.458-26.485-.094-39.725-.459q-19.609-.54-39.21-1.636c-15.138-.846-30.265-2.145-45.4-2.948-12.065-.64-24.132-.17-36.2.3-9.65.375-19.3.75-28.952.559-18.145-.361-36.306.081-54.447.822-10.147.414-20.291.148-30.434-.118-12.155-.319-24.307-.638-36.457.215C961.3,516.086,925.149,515.6,889,515.362c-21.243-.143-42.484-.581-63.726-.706q-70.105-.414-140.211-.635a15.641,15.641,0,0,0-1.983.179v.057l-.25-.027-.25.027V514.2a15.64,15.64,0,0,0-1.983-.179q-70.105.294-140.211.635c-21.242.125-42.484.563-63.726.706-36.149.243-72.3.725-108.431-1.812-11.979-.841-23.961-.327-35.943.188-10.315.443-20.632.887-30.948.465-18.142-.741-36.3-1.184-54.447-.823-21.722.432-43.438.991-65.152,2.142a211.7,211.7,0,0,1-22.553-.409,208.866,208.866,0,0,0-22.852-.392q-19.6,1.093-39.209,1.636c-13.24.365-26.492.918-39.725.459-11.378-.4-22.558-.182-33.887.031-7.728.146-15.527.292-23.5.245C.007,345.924,0,171.169,0,0,.722-.013,1.345-.008,2.005,0q62.74.757,125.454,1.793c10.156.152,20.308.964,30.461,1.512,17.394.939,34.783,2.389,52.183,2.75,23.99.5,47.989.382,71.982.14,13.49-.137,26.977-1.04,40.466-1.632,4.744-.208,9.486-.514,14.228-.782,15.809-.893,31.613-2.026,47.426-2.616C399.7.586,415.2.27,430.7.358,452.857.484,475.017,1,497.176,1.5c17.408.4,34.816.97,52.222,1.571,20.569.711,41.134,2,61.7,2.191,23.824.221,47.653-.462,71.479-.762V4.5l.269,0,.231,0v0c30.908.243,639.025-3.755,680.6-4.257A17.309,17.309,0,0,0,1365.66,0c0,171.169.373,345.927.373,517.1-2.565.034-5.04.049-7.44.049C1351.391,517.144,1344.865,517.013,1338.612,516.882Z" transform="translate(0.003)" fill="#004ba6" stroke="rgba(0,0,0,0)" stroke-miterlimit="10" stroke-width="1"/>
  </g>
</svg>
