<svg xmlns="http://www.w3.org/2000/svg" xmlns:xlink="http://www.w3.org/1999/xlink" width="103" height="89" viewBox="0 0 103 89">
  <defs>
    <clipPath id="clip-Artboard_2">
      <rect width="103" height="89"/>
    </clipPath>
  </defs>
  <g id="Artboard_2" data-name="Artboard – 2" clip-path="url(#clip-Artboard_2)">
    <g id="Group_150" data-name="Group 150" transform="translate(-508.211 -3211.337)">
      <path id="Path_1581" data-name="Path 1581" d="M4455.143,644.642a21.448,21.448,0,0,0,.023-5.568c-.231-1.563-.685-3.953-2.541-4.337-1.917-.4-3.424,1.632-4.415,2.959a18.964,18.964,0,0,0-2.567,4.843,24.843,24.843,0,0,0-1.067,11.86,45.9,45.9,0,0,0,3.736,12.372c1.617,3.642,3.839,7.132,7.25,9.329,3.624,2.334,7.716,2.184,11.78,1.272a35.3,35.3,0,0,0,10.043-4.005c13.716-8.023,21.608-23.865,21.413-39.553-.036-2.948-.091-9.046-4.531-8.67-1.887.16-3.587,1.917-4.935,3.105a37.406,37.406,0,0,0-4.394,4.595c-2.664,3.31-4.753,4.56-6.779,8.281-1.022,1.878-2.012,3.782-3.119,5.612-.412.681-.983,1.625-1.79,1.878-1.1.344-1.558-1.164-1.719-1.982-.414-2.091.24-4.293.513-6.363a15.783,15.783,0,0,0,.292-4.38c-.084-1.721.031-4.266-1.274-5.6a3.773,3.773,0,0,0-4.2-.5c-3.366,1.408-4.743,5.493-5.409,8.774-.815,4.015-1.309,5.653-1.948,9.7-.1.367-.2.73-.326,1.087-.361.527-.825-.238-1.439-.126-1.27.231-2.1,1.142-2.568-.01A24.947,24.947,0,0,1,4455.143,644.642Z" transform="translate(-3913.305 2615.998)" fill="#ff4313"/>
      <g id="Group_72" data-name="Group 72" transform="translate(511.211 3215.686)">
        <path id="Path_1571" data-name="Path 1571" d="M960.445,361.111h31.628a.942.942,0,1,1,0,1.885h-2.21V403.42a.948.948,0,0,1-.953.942H900.656a.948.948,0,0,1-.952-.942V355.758h-2.21a.943.943,0,1,1,0-1.885h31.627V327.945h-2.209a.942.942,0,1,1,0-1.885h35.741a.942.942,0,1,1,0,1.885h-2.21v33.166Zm-1.9,41.367V327.945H931.027v74.533Zm-29.418-46.72H901.609v46.72h27.513v-46.72ZM987.958,363H960.445v39.483h27.514Z" transform="translate(-896.542 -326.06)" fill="#fff" stroke="#fff" stroke-miterlimit="10" stroke-width="4" fill-rule="evenodd"/>
        <path id="Path_1572" data-name="Path 1572" d="M1085.107,448.6h6.444v3.229h-5.329a.974.974,0,1,0,0,1.949h5.329v3.229h-6.444a.974.974,0,1,0,0,1.949h6.444a1.943,1.943,0,0,0,1.373-.571l0,0a1.943,1.943,0,0,0,.571-1.373V448.6a1.939,1.939,0,0,0-.5-1.3.959.959,0,0,0-.069-.077,1.944,1.944,0,0,0-1.377-.571h-6.444a.974.974,0,1,0,0,1.948Z" transform="translate(-1011.589 -400.45)" fill="#fff" fill-rule="evenodd"/>
        <rect id="Rectangle_14" data-name="Rectangle 14" width="0.001" height="0.001" transform="translate(79.965 56.503) rotate(-40.914)" fill="#fff"/>
        <path id="Path_1573" data-name="Path 1573" d="M1102.75,472.64h0v0h0l0,0Z" transform="translate(-1022.785 -416.137)" fill="#fff" fill-rule="evenodd"/>
        <path id="Path_1574" data-name="Path 1574" d="M930.356,428.335H936.8v3.228h-5.469a1.951,1.951,0,0,0-1.949,1.949v3.229a1.944,1.944,0,0,0,.571,1.377,1.013,1.013,0,0,0,.077.069,1.939,1.939,0,0,0,1.3.5h6.444a.974.974,0,0,0,0-1.949h-6.444v-3.229H936.8a1.944,1.944,0,0,0,1.373-.571l0,0a1.943,1.943,0,0,0,.571-1.373v-3.229a1.939,1.939,0,0,0-.5-1.3.966.966,0,0,0-.069-.077,1.944,1.944,0,0,0-1.377-.571h-6.444a.974.974,0,1,0,0,1.949Z" transform="translate(-916.295 -387.947)" fill="#fff" fill-rule="evenodd"/>
        <rect id="Rectangle_15" data-name="Rectangle 15" width="0.001" height="0.001" transform="translate(20.048 43.682) rotate(-42.709)" fill="#fff"/>
        <path id="Path_1575" data-name="Path 1575" d="M948,439.379h0v0h0l0,0Z" transform="translate(-927.951 -395.698)" fill="#fff" fill-rule="evenodd"/>
        <path id="Path_1576" data-name="Path 1576" d="M1019.876,380.149V366.207a.974.974,0,1,0-1.948,0v13.942a.974.974,0,1,0,1.948,0Z" transform="translate(-970.661 -350.257)" fill="#fff" stroke="#fff" stroke-miterlimit="10" stroke-width="4" fill-rule="evenodd"/>
      </g>
    </g>
  </g>
</svg>
