<svg xmlns="http://www.w3.org/2000/svg" xmlns:xlink="http://www.w3.org/1999/xlink" width="108" height="134" viewBox="0 0 108 134">
  <defs>
    <clipPath id="clip-Artboard_2">
      <rect width="108" height="134"/>
    </clipPath>
  </defs>
  <g id="Artboard_2" data-name="Artboard – 2" clip-path="url(#clip-Artboard_2)">
    <g id="Group_146" data-name="Group 146" transform="translate(-164 -2949)">
      <g id="Group_144" data-name="Group 144">
        <path id="Path_1577" data-name="Path 1577" d="M4900.8,851.634a4.719,4.719,0,0,0-.747-2.813c-1.75-2.849-5.426-3.509-8.448-4.109-7.561-1.5-15.575-2.977-23.283-1.778-1.326.206-2.624.618-3.939.894-2.391.152-4.784.236-7.2.159-9.011-.288-18.086-1.286-27.058.091a77.341,77.341,0,0,0-12.869,3.19c-3.893,1.307-7.635,2.964-11.42,4.545a13.784,13.784,0,0,0-3.822,2.15,7.908,7.908,0,0,0-2.27,3.48q-.039.111-.075.223c-.392,1.23-1.048,2.735-.392,3.983a5.975,5.975,0,0,0,3.542,2.583,9.009,9.009,0,0,0,4.87.2c1.709-.442,2.861-1.784,4.3-2.705,1.753-1.123,3.948-.9,5.935-1.058,2.26-.184,4.51-.58,6.771-.793,2.2-.207,4.438-.318,6.612-.721a33.8,33.8,0,0,0,5.993-1.86,34.179,34.179,0,0,1,6.019-1.937,54.61,54.61,0,0,1,6.3-.646c2.063-.139,4.127-.447,6.2-.469a34.485,34.485,0,0,1,6.062.554c3.843.646,7.631,1.628,11.533,1.879,4.506.29,8.962-.643,13.441-.966,3.6-.26,7.655,1.087,11.076-.493a4.737,4.737,0,0,0,2.759-2.929A3.648,3.648,0,0,0,4900.8,851.634Z" transform="translate(-4634.998 2217.306)" fill="#ff4313"/>
        <g id="Group_66" data-name="Group 66" transform="translate(-4159.404 4607.319)">
          <path id="Path_1557" data-name="Path 1557" d="M4349.116-1632.447H4337.39a7.052,7.052,0,0,0-6.987,7.115v79.174a7.052,7.052,0,0,0,6.987,7.115h63.828a7.052,7.052,0,0,0,6.986-7.115v-10.792" transform="translate(0 -0.427)" fill="none" stroke="#fff" stroke-linecap="round" stroke-miterlimit="10" stroke-width="4"/>
          <path id="Path_1558" data-name="Path 1558" d="M4392.191-1632.447h11.151a7.135,7.135,0,0,1,7.068,7.2v28.032" transform="translate(-2.206 -0.427)" fill="none" stroke="#fff" stroke-linecap="round" stroke-miterlimit="10" stroke-width="4"/>
          <line id="Line_11" data-name="Line 11" x2="49.856" transform="translate(4344.314 -1611.937)" fill="none" stroke="#fff" stroke-linecap="round" stroke-miterlimit="10" stroke-width="4"/>
          <line id="Line_12" data-name="Line 12" x2="49.856" transform="translate(4344.314 -1597.644)" fill="none" stroke="#fff" stroke-linecap="round" stroke-miterlimit="10" stroke-width="4"/>
          <line id="Line_13" data-name="Line 13" x1="49.856" transform="translate(4344.314 -1583.1)" fill="none" stroke="#fff" stroke-linecap="round" stroke-miterlimit="10" stroke-width="4"/>
          <line id="Line_14" data-name="Line 14" x2="25.236" transform="translate(4344.314 -1569.058)" fill="none" stroke="#fff" stroke-linecap="round" stroke-miterlimit="10" stroke-width="4"/>
          <line id="Line_15" data-name="Line 15" x1="18.958" transform="translate(4344.314 -1556.019)" fill="none" stroke="#fff" stroke-linecap="round" stroke-miterlimit="10" stroke-width="4"/>
          <path id="Path_1559" data-name="Path 1559" d="M4433.536-1602.2l-38.876,48.759-16.128-18.248,17.38,5.762Z" transform="translate(-1.718 -0.969)" fill="#fff"/>
          <path id="Path_1560" data-name="Path 1560" d="M4350.679-1640.772l-.615,13.038h40.377l-1.354-13.038h-8s3.57-15.547-9.971-15.547-9.972,15.8-9.972,15.8Z" transform="translate(-0.702)" fill="none" stroke="#fff" stroke-linecap="round" stroke-miterlimit="10" stroke-width="3"/>
          <rect id="Rectangle_10" data-name="Rectangle 10" width="3.201" height="3.26" rx="1.6" transform="translate(4367.95 -1647.543)" fill="none" stroke="#fff" stroke-linecap="round" stroke-miterlimit="10" stroke-width="6"/>
        </g>
      </g>
    </g>
  </g>
</svg>
