<svg xmlns="http://www.w3.org/2000/svg" xmlns:xlink="http://www.w3.org/1999/xlink" width="86" height="113" viewBox="0 0 86 113">
  <defs>
    <clipPath id="clip-Artboard_2">
      <rect width="86" height="113"/>
    </clipPath>
  </defs>
  <g id="Artboard_2" data-name="Artboard – 2" clip-path="url(#clip-Artboard_2)">
    <g id="Group_149" data-name="Group 149" transform="translate(-163 -3207.941)">
      <g id="Group_65" data-name="Group 65" transform="translate(165 3210.855)">
        <g id="Group_64" data-name="Group 64">
          <rect id="Rectangle_6" data-name="Rectangle 6" width="70.449" height="11.772" transform="translate(5.747)" fill="none" stroke="#fff" stroke-linecap="round" stroke-linejoin="round" stroke-miterlimit="10" stroke-width="3.3"/>
          <path id="Path_1552" data-name="Path 1552" d="M480.176,279.561h-8.006c-3.541,0-6.392,3.426-6.353,7.631.1,11.4,2.508,32.023,18.045,36.8a35.937,35.937,0,0,1-3.686-15.982Z" transform="translate(-465.817 -260.843)" fill="none" stroke="#fff" stroke-linecap="round" stroke-linejoin="round" stroke-miterlimit="10" stroke-width="3.3"/>
          <path id="Path_1553" data-name="Path 1553" d="M505.485,287.192c.038-4.205-2.812-7.631-6.353-7.631h-8v28.452a35.955,35.955,0,0,1-3.683,15.979C502.98,319.206,505.384,298.585,505.485,287.192Z" transform="translate(-423.609 -260.843)" fill="none" stroke="#fff" stroke-linecap="round" stroke-linejoin="round" stroke-miterlimit="10" stroke-width="3.3"/>
          <rect id="Rectangle_7" data-name="Rectangle 7" width="22.791" height="6.564" transform="translate(29.547 87.448)" fill="none" stroke="#fff" stroke-linecap="round" stroke-linejoin="round" stroke-miterlimit="10" stroke-width="3.3"/>
          <rect id="Rectangle_8" data-name="Rectangle 8" width="30.424" height="6.449" transform="translate(25.731 94.012)" fill="none" stroke="#fff" stroke-linecap="round" stroke-linejoin="round" stroke-miterlimit="10" stroke-width="3.3"/>
          <rect id="Rectangle_9" data-name="Rectangle 9" width="39.851" height="6.711" transform="translate(21.017 100.461)" fill="none" stroke="#fff" stroke-linecap="round" stroke-linejoin="round" stroke-miterlimit="10" stroke-width="3.3"/>
          <path id="Path_1554" data-name="Path 1554" d="M477.894,299.7V309H488.5v-9.3a29.31,29.31,0,0,1-10.608,0Z" transform="translate(-442.256 -221.55)" fill="none" stroke="#fff" stroke-linecap="round" stroke-linejoin="round" stroke-miterlimit="10" stroke-width="3.3"/>
          <path id="Path_1555" data-name="Path 1555" d="M470.683,277.207v35.4a35.937,35.937,0,0,0,3.686,15.982c3.756,7.578,10.107,13.075,17.593,14.887a20.423,20.423,0,0,0,10.608,0c7.486-1.815,13.837-7.312,17.6-14.893a35.955,35.955,0,0,0,3.683-15.979v-35.4Z" transform="translate(-456.324 -265.435)" fill="none" stroke="#fff" stroke-linecap="round" stroke-linejoin="round" stroke-miterlimit="10" stroke-width="3.3"/>
        </g>
      </g>
      <path id="Path_1582" data-name="Path 1582" d="M8.166,19.969A16.193,16.193,0,0,0,3.12,21.981C.995,23.538-.937,26.558.492,28.8c1.725,2.711,5.269,3.865,8.2,4.64a194.26,194.26,0,0,0,20.856,4,8.44,8.44,0,0,0,4.22-.142,18.225,18.225,0,0,0,1.154-5.778,89.793,89.793,0,0,0,.17-12.059q-.051-1.259-.124-2.525c-.008-.059-.018-.118-.026-.177-.224-1.687-.314-3.387-.4-5.087A62.746,62.746,0,0,0,33.477,5c-.169-.769-.348-1.684-.632-2.555a7.316,7.316,0,0,0-.974-1.114A5.607,5.607,0,0,0,29.836.112C29.813.107,29.793.1,29.77.1a6.517,6.517,0,0,0-3.925.529A4.841,4.841,0,0,0,24.46,2.117,8.509,8.509,0,0,0,23.514,7.1a19.516,19.516,0,0,1,.086,4.463,12.433,12.433,0,0,0-4.723-2.988c-2.218-.723-5.354-.8-6.837,1.332-1.4,2.016-.6,4.744.951,6.41,1.216,1.308,2.941,2.172,4.333,3.326A25.49,25.49,0,0,0,8.166,19.969Z" transform="matrix(0.819, 0.574, -0.574, 0.819, 200.079, 3226.491)" fill="#ff9eb3"/>
      <path id="Path_1556" data-name="Path 1556" d="M490.472,288.586l-3.435-6.895-3.434,6.895-7.68,1.106,5.557,5.367-1.312,7.578,6.869-3.578,6.869,3.578-1.312-7.578,5.557-5.367Z" transform="translate(-281.1 2954.169)" fill="#fff"/>
    </g>
  </g>
</svg>
