<svg xmlns="http://www.w3.org/2000/svg" width="154.823" height="42.437" viewBox="0 0 154.823 42.437">
  <g id="Vector_Smart_Object" data-name="Vector Smart Object" transform="translate(-57.044 -178.781)">
    <path id="Path_20" data-name="Path 20" d="M241.1,196.31h2.979l6.881,9.108V196.31h3.189V211.1H251.4l-7.11-9.4v9.4H241.1Z" transform="translate(-42.285 -4.027)" fill="#494a4a"/>
    <path id="Path_21" data-name="Path 21" d="M140.256,204.788h6.391v1.85h-6.391Z" transform="translate(-19.117 -5.975)" fill="#494a4a"/>
    <path id="Path_22" data-name="Path 22" d="M169.624,204.788h6.391v1.85h-6.391Z" transform="translate(-25.864 -5.975)" fill="#494a4a"/>
    <path id="Path_23" data-name="Path 23" d="M57.044,203.672v-.042a7.9,7.9,0,0,1,13.446-5.369l-2.056,2.389a5.4,5.4,0,0,0-3.755-1.67,4.371,4.371,0,0,0-4.258,4.608v.041a4.38,4.38,0,0,0,4.258,4.649,5.282,5.282,0,0,0,3.86-1.732l2.055,2.093a7.73,7.73,0,0,1-13.551-4.967Z" transform="translate(0 -3.951)" fill="#494a4a"/>
    <path id="Path_24" data-name="Path 24" d="M121.91,196.31h11.074V199.2h-7.865v3h6.922v2.9h-6.922v3.105h7.971v2.9H121.91Z" transform="translate(-14.902 -4.027)" fill="#494a4a"/>
    <path id="Path_25" data-name="Path 25" d="M182.389,199.311h-4.467v-3h12.166v3H185.62V211.1h-3.23Z" transform="translate(-27.77 -4.027)" fill="#494a4a"/>
    <path id="Path_26" data-name="Path 26" d="M196.936,196.31h3.23v5.853h5.957V196.31h3.231V211.1h-3.231v-5.94h-5.957v5.94h-3.23Z" transform="translate(-32.138 -4.027)" fill="#494a4a"/>
    <path id="Path_27" data-name="Path 27" d="M157.825,196.171h-2.979l-6.293,14.9h3.294l1.341-3.318h0l1.16-2.868-.007-.007,1.952-4.8,3.1,7.672h0l1.344,3.318h3.376Z" transform="translate(-21.023 -3.995)" fill="#494a4a"/>
    <g id="Group_2" data-name="Group 2" transform="translate(133.652 200.863)">
      <g id="Group_1" data-name="Group 1" transform="translate(0)">
        <path id="Path_28" data-name="Path 28" d="M158.174,207.449h-.015l-1.658,4.078h3.322Z" transform="translate(-156.5 -207.449)" fill="#494a4a"/>
      </g>
    </g>
    <g id="Group_3" data-name="Group 3" transform="translate(90.599 192.283)">
      <path id="Path_29" data-name="Path 29" d="M100.607,196.31h5.725c4.616,0,7.8,3.19,7.8,7.355v.041c0,4.163-3.189,7.4-7.8,7.4h-5.725Zm3.229,2.938v8.918h2.5a4.2,4.2,0,0,0,4.427-4.418v-.042a4.232,4.232,0,0,0-4.427-4.458Z" transform="translate(-100.607 -196.31)" fill="#494a4a"/>
    </g>
    <g id="Group_4" data-name="Group 4" transform="translate(72.495 192.176)">
      <path id="Path_30" data-name="Path 30" d="M83.119,211.658H81.382a2.494,2.494,0,0,1-2.69-2.742v-3.128c0-.581-.085-1.055-.826-1.143a.819.819,0,0,1,0-1.635c.741-.088.826-.562.826-1.143v-2.953a2.478,2.478,0,0,1,2.69-2.742h1.737a.813.813,0,0,1,.8.791.992.992,0,0,1-.763.949c-.7.141-.826.088-.826.668v2.953c0,1.125-.148,1.88-1.5,2.215-.169.052-.148.1.021.158,1.313.282,1.483,1.09,1.483,2.18v3.164c0,.58.127.528.826.668a.993.993,0,0,1,.763.949A.814.814,0,0,1,83.119,211.658Z" transform="translate(-77.103 -196.171)" fill="#1b8d77"/>
      <path id="Path_31" data-name="Path 31" d="M94.208,204.838c-.741.087-.826.562-.826,1.142v2.935a2.5,2.5,0,0,1-2.712,2.742H88.933a.828.828,0,0,1-.8-.809.993.993,0,0,1,.784-.932c.678-.14.826-.088.826-.668V206.3c0-1.055.148-1.916,1.483-2.2.063-.017.106-.053.106-.07,0-.035-.043-.07-.127-.088-1.313-.334-1.462-1.107-1.462-2.2v-3.164c0-.58-.149-.527-.826-.668a1.033,1.033,0,0,1-.784-.967.811.811,0,0,1,.8-.774H90.67a2.485,2.485,0,0,1,2.712,2.742v3.129c0,.58.084,1.072.826,1.161a.782.782,0,0,1,.741.809A.8.8,0,0,1,94.208,204.838Z" transform="translate(-79.636 -196.171)" fill="#1b8d77"/>
    </g>
    <g id="Group_5" data-name="Group 5" transform="translate(180.244 192.176)">
      <path id="Path_32" data-name="Path 32" d="M223,211.658h-1.737a2.494,2.494,0,0,1-2.69-2.742v-3.128c0-.581-.085-1.055-.826-1.143a.819.819,0,0,1,0-1.635c.741-.088.826-.562.826-1.143v-2.953a2.478,2.478,0,0,1,2.69-2.742H223a.813.813,0,0,1,.8.791.992.992,0,0,1-.763.949c-.7.141-.826.088-.826.668v2.953c0,1.125-.148,1.88-1.5,2.215-.169.052-.148.1.021.158,1.313.282,1.483,1.09,1.483,2.18v3.164c0,.58.127.528.826.668a.993.993,0,0,1,.763.949A.814.814,0,0,1,223,211.658Z" transform="translate(-216.989 -196.171)" fill="#1b8d77"/>
      <path id="Path_33" data-name="Path 33" d="M234.093,204.838c-.741.087-.825.562-.825,1.142v2.935a2.5,2.5,0,0,1-2.712,2.742h-1.737a.828.828,0,0,1-.8-.809.993.993,0,0,1,.784-.932c.678-.14.826-.088.826-.668V206.3c0-1.055.149-1.916,1.483-2.2.063-.017.106-.053.106-.07,0-.035-.043-.07-.127-.088-1.313-.334-1.462-1.107-1.462-2.2v-3.164c0-.58-.148-.527-.826-.668a1.032,1.032,0,0,1-.784-.967.811.811,0,0,1,.8-.774h1.737a2.485,2.485,0,0,1,2.712,2.742v3.129c0,.58.084,1.072.825,1.161a.782.782,0,0,1,.741.809A.8.8,0,0,1,234.093,204.838Z" transform="translate(-219.522 -196.171)" fill="#1b8d77"/>
    </g>
    <text id="Learn._Participate._Win." data-name="Learn. Participate. Win." transform="translate(73.353 219.218)" fill="#1b8d77" font-size="10" font-family="AgencyFB-Bold, Agency FB" font-weight="700" letter-spacing="0.12em"><tspan x="0" y="0">Learn. Participate. Win.</tspan></text>
    <g id="Group_6" data-name="Group 6" transform="translate(86.147 178.781)">
      <path id="Path_34" data-name="Path 34" d="M104.263,188.377l-1.568,1.048h-.121l-1.145-1.078V184.6H99.7v3.963l-1.477.866H95.491l-.09-.122c.935-1.23,1.176-1.64,1.176-2.718V184.6h-1.7l-.045-.091.663-1.215h1.085v-.471c0-1.093.045-1.336,1.387-2.779l-.06-.061-1.025.486h-.814a.9.9,0,0,0-.738.228.791.791,0,0,0-.2.44h-.121a2.07,2.07,0,0,1-.106-.592,1.252,1.252,0,0,1,.332-.926,1.413,1.413,0,0,1,1.161-.38l1.085.091.935-.091.09.045V185.8c0,.987-.076,1.169-1.643,2.551l.076.106.98-.258h1.341v-8.959H99.7v4.054h1.733v-2.673l2.155-1.442.121.076-.256,1.807v6.62l.814.577Zm2.517,1.048h-.12l-1.507-1.169v-.122l.452-.349v-4.1l-.738-.684v-.137l1.432-.911h.121l1.085,1.169v4.844l.693.38v.122Zm-1.763-9.187v-.122l1.552-1.017.121.015.8,1.078v.121l-1.538,1-.121-.015Zm6.873,8.26-1.432.927h-.121l-1.4-1.093v-.122l.452-.349v-4.176L108.65,183v-.137l1.432-.911h.121l1.07,1.154,1.884-1.154h.121l1.281,1.215v4.692l.754.471v.121l-1.4.972h-.121l-1.13-1v-4.707l-.694-.577-.678.365v4.525l.6.349Zm4.371-3.523-.06-1.382,1.99-1.154-1.869-1.139v-2.1l.15-.015,4.974,3.447-.06,1.5v3.72l.753.471v.121l-1.4.972h-.12l-1.146-1.078v-.03l-1.809,1.109h-.121l-1.281-1.215Zm1.9,2.688.693.577.633-.334v-4.692l-1.055-.637-.271.729Zm4.266-4.737,1.4-.972h.121l1.131,1v4.707l.678.562.693-.364v-4.51l-.6-.349v-.122l1.432-.926h.121l1.4,1.093v.122l-.452.349v4.176l.739.684v.137l-1.432.911h-.12l-1.07-1.154-1.884,1.154h-.121l-1.281-1.215v-4.692l-.754-.471Zm9.435,6.529h-.121a2.423,2.423,0,0,0-1.341-.425,1.459,1.459,0,0,0-.709.2l-.105-.091a6.447,6.447,0,0,1,1.01-1.61,3.066,3.066,0,0,1,2.306.881v-2.156l-.543-.364-.919.8H131.3l-1.341-.9v-1.67l-.075-1.017,2.909-1.2h.12a2.171,2.171,0,0,0,1.146.425,1.171,1.171,0,0,0,.648-.167l.106.061a6.058,6.058,0,0,1-1,1.564,2.813,2.813,0,0,1-2.065-.744v1.959l.512.334.814-.714h.136l1.477.987v1.807l.075.835Zm7.521-.987-1.507,1.032h-.121l-1.945-1.367v-.122l.452-.334V183.4h-.588l-.076-.091.724-1.094-.091-.957,1.96-1.519.105.076-.136,2.277h1.975l.075.076-.995,1.23h-1.055v4.3l1.221.653Zm.814-1.427-.075-1.154,1.748-.714a3.037,3.037,0,0,1-1.583-1.124l.015-.152,2.563-1.989h.211l2.185,1.018-.045,1.4v3.386l.724.668v.137l-1.432.911h-.121l-1.01-1.109-1.809,1.109h-.121l-1.251-1.169Zm3.12-1.913v-1.321l-1.462-.607-1.04.82A4.323,4.323,0,0,0,143.317,185.128Zm-1.251,2.536.678.562.573-.288v-2.429a5.236,5.236,0,0,1-1.161-.243l-.09.592Zm7.567.835-1.432.927h-.121l-1.4-1.093v-.122l.452-.349v-4.176l-.739-.684v-.137l1.432-.911h.121l1.07,1.154,1.884-1.154h.121l1.281,1.215v4.692l.754.471v.121l-1.4.972h-.121l-1.131-1v-4.707l-.693-.577-.678.365v4.525l.6.349Zm11.244-9.247c.859,0,2.2.228,3.376.228a1.58,1.58,0,0,0,1.583-.7l.166.03c-.286,1.853-1.04,2.308-2.02,2.308h-.075V187.6a3.607,3.607,0,0,0,1.794-1.64l.165.015a3.548,3.548,0,0,1-1.025,2.369,4.194,4.194,0,0,1-3.1,1.154,4.381,4.381,0,0,1-3.211-1.245,3.744,3.744,0,0,1-1.1-2.718,3.354,3.354,0,0,1,.95-2.353,4.181,4.181,0,0,1,1.719-1.063l.09.122a3.534,3.534,0,0,0-1.116,2.506,3.341,3.341,0,0,0,.95,2.384,2.367,2.367,0,0,0,.482.364l.181-.258v-5.345l1.824-.85c-.678-.061-1.311-.137-1.854-.137a3.03,3.03,0,0,0-2.14.547,1.735,1.735,0,0,0-.437.972h-.136a2.82,2.82,0,0,1-.2-1,1.918,1.918,0,0,1,.543-1.367A3.633,3.633,0,0,1,160.876,179.251Zm1.613,7.486-1.733.9a4.232,4.232,0,0,0,2.713.122V181.1c-.226,0-.452-.015-.663-.03l-.317.349Zm5.682,2.688h-.12l-1.507-1.169v-.122l.452-.349v-4.1l-.738-.684v-.137l1.432-.911h.121l1.085,1.169v4.844l.693.38v.122Zm-1.612-9.187v-.122l1.552-1.017.12.015.8,1.078v.121l-1.538,1-.121-.015Zm6.722,8.26-1.432.927h-.121l-1.4-1.093v-.122l.452-.349v-4.176L170.04,183v-.137l1.432-.911h.121l1.07,1.154,1.884-1.154h.121l1.236,1.169,1.914-1.169h.121l1.281,1.215v4.692l.754.471v.121l-1.4.972h-.121l-1.131-1v-4.707l-.693-.577-.678.365v4.358l.754.471v.121l-1.4.972h-.12l-1.131-1v-4.707l-.693-.577-.678.365v4.525l.6.349Zm9.5.927h-.03a11.9,11.9,0,0,1-2.05-1.959v-3.325l-.09-1.078,3.211-1.139h.075c.588,1,1.206,1.989,1.869,2.931v.046l-3.2,1.64a8.565,8.565,0,0,0,1.6,1.549l1.341-.729.241.349Zm-.211-3.447,1.342-.668c-.467-.744-.89-1.518-1.326-2.323l-.105.045.09,1.837Zm5.924,3.478h-.121a2.728,2.728,0,0,0-1.492-.425,1.459,1.459,0,0,0-.709.2l-.105-.091a6.448,6.448,0,0,1,1.01-1.61,3.342,3.342,0,0,1,2.457.881v-2.156l-.543-.364-.92.8h-.136l-1.341-.9v-1.67l-.076-1.017,2.909-1.2h.121a2.171,2.171,0,0,0,1.145.425,1.173,1.173,0,0,0,.648-.167l.105.061a6.059,6.059,0,0,1-.995,1.564,2.814,2.814,0,0,1-2.065-.744v1.959l.513.334.814-.714h.136l1.477.987v1.807l.076.835Z" transform="translate(-94.828 -178.781)" fill="#1a1818"/>
    </g>
  </g>
</svg>
