<svg xmlns="http://www.w3.org/2000/svg" width="27.028" height="27.028" viewBox="0 0 27.028 27.028">
  <g id="Group_15746" data-name="Group 15746" transform="translate(1.514 1.514)">
    <path id="Path_30219" data-name="Path 30219" d="M4.5,0,0,4.419l4.542,4.46" transform="translate(6.295 0) rotate(45)" fill="none" stroke="#000" stroke-width="2"/>
    <path id="Path_30220" data-name="Path 30220" d="M0,0H9.862" transform="translate(3.159 3.137) rotate(45)" fill="none" stroke="#000" stroke-width="2"/>
    <path id="Path_30219-2" data-name="Path 30219" d="M4.5,8.879,0,4.46,4.542,0" transform="translate(24 6.278) rotate(135)" fill="none" stroke="#000" stroke-width="2"/>
    <path id="Path_30220-2" data-name="Path 30220" d="M0,0H9.862" transform="translate(20.859 3.137) rotate(135)" fill="none" stroke="#000" stroke-width="2"/>
    <path id="Path_30219-3" data-name="Path 30219" d="M4.5,8.879,0,4.46,4.542,0" transform="translate(0 17.722) rotate(-45)" fill="none" stroke="#000" stroke-width="2"/>
    <path id="Path_30220-3" data-name="Path 30220" d="M0,0H9.862" transform="translate(3.141 20.863) rotate(-45)" fill="none" stroke="#000" stroke-width="2"/>
    <path id="Path_30219-4" data-name="Path 30219" d="M4.5,0,0,4.419l4.542,4.46" transform="translate(17.705 24) rotate(-135)" fill="none" stroke="#000" stroke-width="2"/>
    <path id="Path_30220-4" data-name="Path 30220" d="M0,0H9.862" transform="translate(20.841 20.863) rotate(-135)" fill="none" stroke="#000" stroke-width="2"/>
  </g>
</svg>
