<svg xmlns="http://www.w3.org/2000/svg" width="183.579" height="174.154" viewBox="0 0 183.579 174.154">
  <g id="Group_18947" data-name="Group 18947" transform="translate(-1136.389 -206.473)">
    <g id="Group_18881" data-name="Group 18881" transform="translate(1131.415 213.643)">
      <g id="Group_18879" data-name="Group 18879" transform="translate(2.765 0)">
        <path id="Path_30450" data-name="Path 30450" d="M.174,62.953c.48-6.275-7.69-34.272,47.582-31.859,30.279-.965,49.025-19.308,56.715-25.584s52.87-17.377,65.847,34.755c10.888,43.739,1.062,73.479-79.738,74.323-7.9.408-17.143,5.358-24.745,2.165C20.175,103.238-.306,69.228.174,62.953Z" transform="matrix(0.996, 0.087, -0.087, 0.996, 12.478, 34.448)" fill="#d5ebff"/>
      </g>
      <g id="Group_18880" data-name="Group 18880" transform="translate(24.073 32.403)">
        <path id="Path_30462" data-name="Path 30462" d="M109.9,198.061l-19.4,7.657,4.785,4.552Z" transform="translate(-82.481 -103.446)" fill="#e51d36"/>
        <path id="Path_30463" data-name="Path 30463" d="M104.41,197.052c-.516.136-21.983,5.584-21.983,5.584l-1.552-6.314Z" transform="translate(-80.875 -103.156)" fill="#e51d36"/>
        <path id="Path_30467" data-name="Path 30467" d="M227.917,185.372l11.39,11.561,4.532-5.78Z" transform="translate(-105.419 -101.328)" fill="#f74035"/>
        <path id="Path_30468" data-name="Path 30468" d="M225.488,181.18,238.9,184.25l2.463-5.6Z" transform="translate(-105.013 -100.206)" fill="#f74035"/>
      </g>
    </g>
    <g id="Group_18943" data-name="Group 18943" transform="translate(848.827 90.97)">
      <path id="smoke" d="M513.547,346.7l2.812-7.491c.125.017.251.033.379.039a4.52,4.52,0,0,0,4.737-5.1A4.884,4.884,0,1,0,526.832,326a6.026,6.026,0,0,0,.389-12.025,3.74,3.74,0,1,0-6.571-3.5,5.282,5.282,0,0,0-6.355,8.435,6.7,6.7,0,0,0,.515,11.825,4.53,4.53,0,0,0-.131,7.89Z" transform="translate(-99.518 -88.616)" fill="#fff"/>
      <g id="rocket" transform="translate(297.801 115.503)">
        <g id="rocket-2" data-name="rocket" transform="translate(0 39.52)">
          <g id="Group_18926" data-name="Group 18926" transform="translate(68.028)">
            <path id="Path_34873" data-name="Path 34873" d="M426.467,224.6l2.437-7.028,13.616,3.7Z" transform="translate(-426.467 -201.97)" fill="#c5a4cf"/>
            <path id="Path_34874" data-name="Path 34874" d="M430.979,204.283l4.539-15.6,4.262,1.94,4.975,17.328-.159.034Z" transform="translate(-428.542 -188.683)" fill="#9e69af"/>
          </g>
          <g id="Group_18927" data-name="Group 18927" transform="translate(0 37.468)">
            <path id="Path_34875" data-name="Path 34875" d="M324.446,283.715l-5.63-4.861-9.929,10.025Z" transform="translate(-304.356 -267.626)" fill="#c5a4cf"/>
            <path id="Path_34876" data-name="Path 34876" d="M314.957,269.291l-11.744-11.227-2.716,3.814,4.376,17.488.155-.05Z" transform="translate(-300.497 -258.064)" fill="#9e69af"/>
          </g>
          <g id="Group_18928" data-name="Group 18928" transform="translate(9.831 10.275)">
            <path id="Path_34877" data-name="Path 34877" d="M417.446,234.778a216.741,216.741,0,0,0-17.738-24.509,7.2,7.2,0,0,0-9.321-1.463l-22.929,14.3,62.9,100.86h15.774C446.574,298.307,436.824,265.849,417.446,234.778Z" transform="translate(-341.128 -207.71)" fill="#c1d7ff"/>
            <path id="Path_34878" data-name="Path 34878" d="M388.615,269.078a.22.22,0,0,0-.349.264l51.649,82.816h2.907C418.59,304.524,394.973,276.283,388.615,269.078Z" transform="translate(-350.682 -235.902)" fill="#e4eeff"/>
            <path id="Path_34879" data-name="Path 34879" d="M345.032,236.218l-22.929,14.3a7.2,7.2,0,0,0-2.786,9.014,216.721,216.721,0,0,0,14.207,26.712c13.137,21.065,28.794,38.434,44.756,50.833h29.655Z" transform="translate(-318.702 -220.823)" fill="#77a7fb"/>
            <path id="Path_34880" data-name="Path 34880" d="M367.966,249.2l-8.1-12.982-6.295,3.926-2.615,15.522,11.4,7.576Z" transform="translate(-333.539 -220.823)" fill="#b0bcdb" opacity="0.4" style="mix-blend-mode: multiply;isolation: isolate"/>
            <path id="Path_34881" data-name="Path 34881" d="M359.733,285.908l-10.257-8.965-.809,4.8,10.328,6.012Z" transform="translate(-332.485 -239.555)" fill="#b0bcdb" opacity="0.4" style="mix-blend-mode: multiply;isolation: isolate"/>
            <path id="Path_34882" data-name="Path 34882" d="M355.859,300.495l-9.013-6.873-.6,3.551,8.653,5.721Z" transform="translate(-331.372 -247.226)" fill="#b0bcdb" opacity="0.4" style="mix-blend-mode: multiply;isolation: isolate"/>
            <path id="Path_34883" data-name="Path 34883" d="M353.264,309.625l-7.834-7.02-.484,2.87,7.749,5.574Z" transform="translate(-330.773 -251.358)" fill="#b0bcdb" opacity="0.4" style="mix-blend-mode: multiply;isolation: isolate"/>
            <path id="Path_34884" data-name="Path 34884" d="M351.1,317.913l-7.015-6.242-.267,1.588,6.66,6.212Z" transform="translate(-330.255 -255.528)" fill="#b0bcdb" opacity="0.4" style="mix-blend-mode: multiply;isolation: isolate"/>
            <path id="Path_34885" data-name="Path 34885" d="M348.982,325.094l-5.952-6.853-.208,1.232,6.142,5.665Z" transform="translate(-329.797 -258.551)" fill="#b0bcdb" opacity="0.4" style="mix-blend-mode: multiply;isolation: isolate"/>
          </g>
          <path id="Path_34928" data-name="Path 34928" d="M21.416,0A21.416,21.416,0,1,1,0,21.416,21.416,21.416,0,0,1,21.416,0Z" transform="translate(40.386 80.884) rotate(-45)" fill="#e51d36"/>
          <g id="Group_18929" data-name="Group 18929" transform="translate(47.986 58.255)">
            <path id="Path_34886" data-name="Path 34886" d="M392.808,334.338a22.78,22.78,0,0,1,7.274-31.385h0l1.189,1.906h0a20.446,20.446,0,0,0,21.639,34.7h0l1.283,2.056h0A22.781,22.781,0,0,1,392.808,334.338Z" transform="translate(-389.354 -299.499)" fill="#4385f5"/>
            <path id="Path_34887" data-name="Path 34887" d="M438.577,308.446a20.446,20.446,0,0,0-28.168-6.528l-1.189-1.906a22.781,22.781,0,1,1,24.111,38.659l-1.283-2.056A20.445,20.445,0,0,0,438.577,308.446Z" transform="translate(-398.491 -296.557)" fill="#77a7fb"/>
          </g>
          <g id="Group_18933" data-name="Group 18933" transform="translate(27.844 21.483)">
            <g id="Group_18932" data-name="Group 18932">
              <g id="Group_18930" data-name="Group 18930" transform="translate(0 2.303)">
                <path id="Path_34888" data-name="Path 34888" d="M381.451,251.976l-11.5,4.03,3.314-9.379Z" transform="translate(-360.289 -239.122)" fill="#9e69af"/>
                <path id="Path_34889" data-name="Path 34889" d="M361.724,249.611l-.006,0-9.662-14.578,1.507-2.305,11.475,7.5Z" transform="translate(-352.056 -232.729)" fill="#7e3795"/>
              </g>
              <g id="Group_18931" data-name="Group 18931" transform="translate(1.506)">
                <path id="Path_34890" data-name="Path 34890" d="M384.274,246.186l-.919-12.146-7.263,6.8Z" transform="translate(-364.618 -231.029)" fill="#e8dbec"/>
                <path id="Path_34891" data-name="Path 34891" d="M373.582,231.475v-.006l-17.23-3-1.507,2.305,11.475,7.5Z" transform="translate(-354.845 -228.464)" fill="#c5a4cf"/>
              </g>
            </g>
            <path id="Path_34892" data-name="Path 34892" d="M384.274,246.186s-7.032-5.366-7.016-5.391,6.1-6.756,6.1-6.756l-7.262,6.8Z" transform="translate(-363.112 -231.029)" fill="#fff"/>
          </g>
          <g id="Group_18934" data-name="Group 18934" transform="translate(51.704 63.331)">
            <path id="Path_34893" data-name="Path 34893" d="M444.846,330.789l-21.312,22.629a18.91,18.91,0,0,0,5.253.449l16.35-21.965C445.051,331.526,444.953,331.155,444.846,330.789Z" transform="translate(-408.794 -317.378)" fill="#e51d36"/>
            <path id="Path_34894" data-name="Path 34894" d="M449.935,356.776a18.975,18.975,0,0,0,1.965-1.411,18.686,18.686,0,0,0,5.792-12.094Z" transform="translate(-420.937 -323.12)" fill="#ff919f"/>
            <path id="Path_34895" data-name="Path 34895" d="M432.274,312.448l-20.8,29.667a18.99,18.99,0,0,0,6.151,2.784L438.6,320.391a18.5,18.5,0,0,0-1.7-3.166l-9.154,10.8,7.88-12.495A18.743,18.743,0,0,0,432.274,312.448Z" transform="translate(-403.244 -308.942)" fill="#ff919f"/>
            <path id="Path_34896" data-name="Path 34896" d="M406.757,339.087l17.97-31.011c-.375-.15-.757-.285-1.142-.411l-19.914,28.294A19,19,0,0,0,406.757,339.087Z" transform="translate(-399.658 -306.742)" fill="#ff919f"/>
            <path id="Path_34897" data-name="Path 34897" d="M397.289,329.864,411.82,306.3c-.137.019-.274.033-.411.056A18.643,18.643,0,0,0,397.6,316.616a18.879,18.879,0,0,0-.311,13.248Z" transform="translate(-396.239 -306.114)" fill="#ff919f"/>
            <path id="Path_34898" data-name="Path 34898" d="M427.025,306.347a18.544,18.544,0,0,0-3.928-.39l-7.617,13.508Z" transform="translate(-405.089 -305.956)" fill="#ff919f"/>
          </g>
        </g>
        <g id="Group_18936" data-name="Group 18936" transform="translate(83.516 134.304)">
          <rect id="Rectangle_4196" data-name="Rectangle 4196" width="0.434" height="11.668" transform="matrix(0.849, 0.529, -0.529, 0.849, 47.402, 2.891)" fill="#3f5ca8"/>
          <path id="Path_34899" data-name="Path 34899" d="M525.835,405.527H510.061l12.782-20.5A74.645,74.645,0,0,1,525.835,405.527Z" transform="translate(-480.406 -373.781)" fill="#c1d7ff"/>
          <path id="Path_34900" data-name="Path 34900" d="M512.967,407.946h-2.906l10.946-17.551a.221.221,0,0,1,.386.212Q517.194,399.666,512.967,407.946Z" transform="translate(-480.406 -376.199)" fill="#e4eeff"/>
          <path id="Path_34901" data-name="Path 34901" d="M484.8,405.527H455.147c14.443-11.219,29.135-18.369,42.437-20.5Z" transform="translate(-455.147 -373.781)" fill="#77a7fb"/>
          <path id="Path_34902" data-name="Path 34902" d="M525.693,385.032l-9.435,15.129a33.852,33.852,0,0,0,12.417,4.765A74.1,74.1,0,0,0,525.693,385.032Z" transform="translate(-483.256 -373.781)" fill="#6f85bf"/>
          <path id="Path_34903" data-name="Path 34903" d="M524.244,390.606a.221.221,0,0,0-.386-.212l-7.6,12.185c.578.36,1.16.7,1.746,1.021Q521.128,397.316,524.244,390.606Z" transform="translate(-483.256 -376.199)" fill="#9ba7d3"/>
          <path id="Path_34904" data-name="Path 34904" d="M517.4,385.032a74.123,74.123,0,0,0-19.178,6.074,33.863,33.863,0,0,0,9.742,9.055Z" transform="translate(-474.958 -373.781)" fill="#3f5ca8"/>
          <g id="Group_18935" data-name="Group 18935" transform="translate(46.615)">
            <path id="Path_34905" data-name="Path 34905" d="M544.786,366.944a1.8,1.8,0,1,1-.574-2.474A1.8,1.8,0,0,1,544.786,366.944Z" transform="translate(-541.467 -364.198)" fill="#cb052f"/>
            <path id="Path_34906" data-name="Path 34906" d="M546.17,366.425a.7.7,0,1,0-.524.841A.7.7,0,0,0,546.17,366.425Z" transform="translate(-542.993 -364.973)" fill="#f86a6a"/>
          </g>
        </g>
        <path id="Path_34907" data-name="Path 34907" d="M417.4,406.784c2.421-1.615,22.848-8.419,21.917-7.78s-11.814,6.482-9.539,7.564,14.126-3.291,14.126-3.291l1.932.835-2.228,3.477s9.058,1.986,9.728.993,2.7-4.868,2.907-4.669S459,409.886,459,409.886s6.013-.931,6.571-.931,7.543,2.98,7.543,2.98h-49.44Z" transform="translate(-354.266 -245.885)" fill="#3f5ca8" opacity="0.4" style="mix-blend-mode: multiply;isolation: isolate"/>
        <g id="Group_18938" data-name="Group 18938" transform="translate(45.203 48.278)">
          <path id="Path_34908" data-name="Path 34908" d="M391.97,204.957l-7.6,4.812a.36.36,0,0,0-.069.552L385.89,212l7.448-4.716-.84-2.156A.36.36,0,0,0,391.97,204.957Z" transform="translate(-384.201 -204.901)" fill="#77a7fb"/>
          <path id="Path_34909" data-name="Path 34909" d="M387.718,214.015l1.866,2.015,6.185-3.916-1.024-2.548Z" transform="translate(-385.819 -207.047)" fill="#3f5ca8"/>
          <g id="Group_18937" data-name="Group 18937" transform="translate(0.26 0.512)">
            <path id="Path_34910" data-name="Path 34910" d="M399.2,205.945a.664.664,0,1,0,.711,1.123.214.214,0,0,0,.017-.013l-.469-1.2A.663.663,0,0,0,399.2,205.945Z" transform="translate(-391.219 -205.849)" fill="#3f5ca8"/>
            <path id="Path_34911" data-name="Path 34911" d="M394.182,209.9a.664.664,0,1,0,.206-.917A.665.665,0,0,0,394.182,209.9Z" transform="translate(-389.004 -207.245)" fill="#3f5ca8"/>
            <path id="Path_34912" data-name="Path 34912" d="M385.578,216.2a.665.665,0,1,0-.9-.948Z" transform="translate(-384.682 -210.049)" fill="#3f5ca8"/>
            <path id="Path_34913" data-name="Path 34913" d="M389.367,212.952a.665.665,0,1,0,.206-.917A.664.664,0,0,0,389.367,212.952Z" transform="translate(-386.789 -208.647)" fill="#3f5ca8"/>
          </g>
        </g>
        <g id="Group_18940" data-name="Group 18940" transform="translate(14.038 67.71)">
          <path id="Path_34914" data-name="Path 34914" d="M334.259,240.939l-7.6,4.813a.36.36,0,0,0-.069.552l1.59,1.681,7.448-4.716-.84-2.156A.36.36,0,0,0,334.259,240.939Z" transform="translate(-326.491 -240.884)" fill="#77a7fb"/>
          <path id="Path_34915" data-name="Path 34915" d="M330.008,250l1.865,2.015,6.185-3.916-1.024-2.548Z" transform="translate(-328.109 -243.029)" fill="#3f5ca8"/>
          <g id="Group_18939" data-name="Group 18939" transform="translate(0.259 0.512)">
            <path id="Path_34916" data-name="Path 34916" d="M341.492,241.927a.665.665,0,0,0,.711,1.123l.017-.013-.469-1.2A.66.66,0,0,0,341.492,241.927Z" transform="translate(-333.508 -241.832)" fill="#3f5ca8"/>
            <path id="Path_34917" data-name="Path 34917" d="M336.471,245.886a.665.665,0,1,0,.206-.917A.664.664,0,0,0,336.471,245.886Z" transform="translate(-331.293 -243.227)" fill="#3f5ca8"/>
            <path id="Path_34918" data-name="Path 34918" d="M327.867,252.188a.665.665,0,0,0-.713-1.122.672.672,0,0,0-.184.174Z" transform="translate(-326.971 -246.032)" fill="#3f5ca8"/>
            <path id="Path_34919" data-name="Path 34919" d="M331.657,248.934a.664.664,0,1,0,.206-.917A.665.665,0,0,0,331.657,248.934Z" transform="translate(-329.079 -244.63)" fill="#3f5ca8"/>
          </g>
        </g>
        <g id="Group_18941" data-name="Group 18941" transform="translate(24.666)">
          <path id="Path_34920" data-name="Path 34920" d="M392.3,164.523a10.946,10.946,0,0,0-.937-7.706,8.349,8.349,0,0,0-1.4-1.9l.2-.285a9.377,9.377,0,0,1,3.8,5.067,11.712,11.712,0,0,1-.393,8.66s-.037.071-.023.044c-2.616,5.057-5.251,7.385-3.374,10.068l.185.232-.106.342a2.57,2.57,0,0,1-2.388-1.456,5.174,5.174,0,0,1-.74-2.282c0,.009,0-.106,0-.062-.084-3.924,1.92-5.453,4.212-8.4A8.47,8.47,0,0,0,392.3,164.523Z" transform="translate(-365.007 -133.501)" fill="#b9b9b9"/>
          <path id="Path_34921" data-name="Path 34921" d="M379.071,128.99l.192.293c-5.152,4.345-5.464,8.981-3.91,11.567l.066.117c.97,1.814,5.307,3.5,6.23,7.724.555,2.425-.441,4.236-1.336,4.713-.211.134-.322.19-.322.19l-.258-.237s.03-.112.086-.321c.983-3.866-4.361-5.614-6.808-10.566l-.055-.116-.04-.079-.076-.193C371.19,138.24,372.5,132.466,379.071,128.99Z" transform="translate(-358.14 -121.707)" fill="#b9b9b9"/>
          <path id="Path_34922" data-name="Path 34922" d="M392.153,167.122a1.171,1.171,0,0,0,.078-.415c0-.945-1.676-1.6-3.192-.646.56-1.386-1.014-2.4-2.329-2.4a3.5,3.5,0,0,0-2.912,1.278,4.126,4.126,0,0,0-1.381-.232,3.216,3.216,0,0,0-2.666,1.148,4.823,4.823,0,0,0-1.852-.355,3.53,3.53,0,0,0-3.354,1.711c-.074,0-.149-.007-.224-.007-1.21,0-2.2.656-2.2,1.462,0,.777.914,1.415,2.064,1.46a1.94,1.94,0,0,0,1.913,1.03,2.708,2.708,0,0,0,1.079-.214,3.366,3.366,0,0,0,2.457.92,3.331,3.331,0,0,0,2.492-.964,4.829,4.829,0,0,0,2.475.638,4.718,4.718,0,0,0,2.655-.755,5.083,5.083,0,0,0,1.778.313,4.55,4.55,0,0,0,2.666-.787c1.118-.183,1.934-.861,1.934-1.641C393.638,167.983,393.036,167.39,392.153,167.122Zm-9.218,3.213c-3.6,0-6.691-.634-8.017-1.539,1.325-.9,4.416-1.539,8.017-1.539s6.691.634,8.017,1.539C389.625,169.7,386.535,170.335,382.934,170.335Z" transform="translate(-358.109 -137.652)" fill="#b9b9b9"/>
          <path id="Path_34923" data-name="Path 34923" d="M387.945,125.722a2.446,2.446,0,0,0,.162-.867c0-1.969-3.5-3.327-6.657-1.347-4.636-2.969-15.228-3.128-19.376-.442a10.052,10.052,0,0,0-3.862-.741c-3.341,0-6.163,1.5-7,3.571q-.232-.015-.468-.016c-2.525,0-4.578,1.368-4.578,3.051,0,1.621,1.907,2.95,4.3,3.045.394,1.227,2.033,2.15,3.99,2.15a5.647,5.647,0,0,0,2.251-.447,7.02,7.02,0,0,0,5.124,1.919,6.945,6.945,0,0,0,5.2-2.011,10.072,10.072,0,0,0,5.163,1.331,9.844,9.844,0,0,0,5.539-1.576,10.589,10.589,0,0,0,3.709.653,9.5,9.5,0,0,0,5.561-1.642c2.332-.381,4.034-1.8,4.034-3.422C391.045,127.518,389.788,126.281,387.945,125.722ZM368.5,133.183c-8.058,0-14.974-1.752-17.94-4.25,2.966-2.5,9.882-4.25,17.94-4.25s14.974,1.752,17.94,4.25C383.472,131.431,376.557,133.183,368.5,133.183Z" transform="translate(-346.171 -118.105)" fill="#b9b9b9"/>
          <path id="Path_34924" data-name="Path 34924" d="M393.526,125.069a3.905,3.905,0,0,1-.478.075s.092-.182.258-.459c2.25-4.064,2.091-4.406,1.42-9.183a4.3,4.3,0,0,1,1.807,2C398,120.052,396.874,124.217,393.526,125.069Z" transform="translate(-367.733 -115.503)" fill="#b9b9b9"/>
        </g>
        <g id="Group_18942" data-name="Group 18942" transform="translate(4.095 39.274)">
          <path id="Path_34925" data-name="Path 34925" d="M332.332,211.445a9.105,9.105,0,0,0-.78-6.41,6.941,6.941,0,0,0-1.167-1.581l.167-.237a7.8,7.8,0,0,1,3.159,4.214,9.746,9.746,0,0,1-.326,7.2s-.031.059-.019.036c-2.177,4.207-4.368,6.143-2.807,8.375l.154.194-.089.284a2.137,2.137,0,0,1-1.987-1.211,4.293,4.293,0,0,1-.615-1.9c0,.008,0-.087,0-.051-.07-3.264,1.6-4.536,3.5-6.991A7.024,7.024,0,0,0,332.332,211.445Z" transform="translate(-317.252 -195.123)" fill="#b9b9b9"/>
          <path id="Path_34926" data-name="Path 34926" d="M321.712,188.229l.132.2c-3.545,2.991-3.76,6.181-2.69,7.961l.045.08c.667,1.249,3.652,2.409,4.288,5.315a2.984,2.984,0,0,1-.92,3.243c-.145.092-.222.131-.222.131l-.177-.163.059-.221c.677-2.66-3-3.864-4.685-7.272l-.038-.079-.027-.055-.053-.133C316.289,194.595,317.188,190.621,321.712,188.229Z" transform="translate(-312.173 -188.229)" fill="#b9b9b9"/>
          <path id="Path_34927" data-name="Path 34927" d="M330.933,203.121a.75.75,0,0,0,.089-.346c0-.786-1.912-1.327-3.642-.537.639-1.153-1.157-2-2.657-2A4.723,4.723,0,0,0,321.4,201.3a6.313,6.313,0,0,0-1.576-.193,4.354,4.354,0,0,0-3.043.955,7.31,7.31,0,0,0-2.113-.3c-1.828,0-3.372.6-3.827,1.424-.084,0-.17-.006-.256-.006-1.381,0-2.5.545-2.5,1.217,0,.646,1.043,1.176,2.355,1.214a2.449,2.449,0,0,0,2.183.858,4.094,4.094,0,0,0,1.231-.179,4.711,4.711,0,0,0,2.8.766,4.631,4.631,0,0,0,2.844-.8,7.165,7.165,0,0,0,2.824.531,6.919,6.919,0,0,0,3.03-.629,7.747,7.747,0,0,0,2.029.261,6.639,6.639,0,0,0,3.042-.655c1.276-.152,2.207-.716,2.207-1.364C332.628,203.838,331.941,203.344,330.933,203.121Zm-10.519,2.672c-4.109,0-7.635-.527-9.148-1.279,1.513-.753,5.039-1.28,9.148-1.28s7.636.527,9.148,1.28C328.049,205.266,324.523,205.793,320.414,205.793Z" transform="translate(-308.08 -193.753)" fill="#b9b9b9"/>
        </g>
      </g>
    </g>
  </g>
</svg>
