<svg id="icons8-whatsapp" xmlns="http://www.w3.org/2000/svg" width="47.685" height="47.888" viewBox="0 0 47.685 47.888">
  <path id="Path_83" data-name="Path 83" d="M4.868,50.51l3.2-11.686A22.56,22.56,0,1,1,27.617,50.119h-.01a22.534,22.534,0,0,1-10.78-2.746Z" transform="translate(-3.679 -3.812)" fill="#fff"/>
  <path id="Path_84" data-name="Path 84" d="M4.962,51.2a.594.594,0,0,1-.573-.75L7.525,39a23.15,23.15,0,1,1,9.321,9.1L5.113,51.178A.543.543,0,0,1,4.962,51.2Z" transform="translate(-3.773 -3.906)" fill="#fff"/>
  <path id="Path_85" data-name="Path 85" d="M27.8,5.188a22.56,22.56,0,0,1,0,45.119H27.8a22.534,22.534,0,0,1-10.78-2.746L5.056,50.7l3.2-11.686A22.562,22.562,0,0,1,27.8,5.188m0,45.119h0m0,0h0M27.8,4h0A23.753,23.753,0,0,0,6.981,39.171L3.91,50.386a1.188,1.188,0,0,0,1.448,1.463l11.51-3.018A23.749,23.749,0,1,0,27.8,4Z" transform="translate(-3.868 -4)" fill="#cfd8dc"/>
  <path id="Path_86" data-name="Path 86" d="M40.246,13.7A18.752,18.752,0,0,0,11.1,36.924l.447.709-1.9,6.916,7.1-1.861.686.406a18.714,18.714,0,0,0,9.543,2.613h.007A18.751,18.751,0,0,0,40.246,13.7Z" transform="translate(-3.046 -3.209)" fill="#40c351"/>
  <path id="Path_87" data-name="Path 87" d="M20.191,16.2c-.422-.939-.866-.958-1.269-.974-.329-.014-.7-.013-1.08-.013a2.072,2.072,0,0,0-1.5.706,6.318,6.318,0,0,0-1.974,4.7c0,2.773,2.02,5.454,2.3,5.829s3.9,6.249,9.629,8.508c4.761,1.877,5.731,1.5,6.764,1.41s3.335-1.363,3.8-2.679a4.72,4.72,0,0,0,.329-2.679c-.141-.235-.517-.375-1.08-.658s-3.335-1.646-3.852-1.833-.892-.282-1.269.283-1.455,1.833-1.785,2.209-.658.424-1.221.141a15.429,15.429,0,0,1-4.533-2.8,16.982,16.982,0,0,1-3.136-3.9c-.329-.563-.036-.869.247-1.15.253-.253.563-.658.846-.987a3.855,3.855,0,0,0,.563-.94,1.037,1.037,0,0,0-.048-.987C21.787,20.1,20.692,17.316,20.191,16.2Z" transform="translate(-1.892 -1.89)" fill="#fff" fill-rule="evenodd"/>
</svg>
