<svg id="icons8-twitter-circled" xmlns="http://www.w3.org/2000/svg" width="47.685" height="47.685" viewBox="0 0 47.685 47.685">
  <path id="Path_88" data-name="Path 88" d="M27.842,4A23.842,23.842,0,1,0,51.685,27.842,23.842,23.842,0,0,0,27.842,4Z" transform="translate(-4 -4)" fill="#03a9f4"/>
  <path id="Path_89" data-name="Path 89" d="M40.611,17.527a13.383,13.383,0,0,1-3.576,1.049c1.214-.72,3.139-2.22,3.576-3.576a17.065,17.065,0,0,1-4.522,1.636,5.761,5.761,0,0,0-9.784,4.325v2.384c-4.768,0-9.418-3.632-12.311-7.153a5.738,5.738,0,0,0-.8,2.929c0,2.168,1.992,4.369,3.569,5.416a11.065,11.065,0,0,1-3.576-1.192v.068a5.345,5.345,0,0,0,4.664,5.272,7.465,7.465,0,0,1-3.386.621c.746,2.307,4.5,3.526,7.067,3.576-2.01,1.558-5.593,2.384-8.345,2.384A8.785,8.785,0,0,1,12,35.239a18.539,18.539,0,0,0,9.537,2.412c10.8,0,16.69-8.247,16.69-15.939,0-.253-.008-1.1-.021-1.347a9.057,9.057,0,0,0,2.406-2.837" transform="translate(-2.463 -1.887)" fill="#fff"/>
</svg>
