<svg id="icons8-facebook" xmlns="http://www.w3.org/2000/svg" width="47.685" height="47.685" viewBox="0 0 47.685 47.685">
  <path id="Path_90" data-name="Path 90" d="M28.842,5A23.842,23.842,0,1,0,52.685,28.842,23.842,23.842,0,0,0,28.842,5Z" transform="translate(-5 -5)" fill="#1976d3"/>
  <path id="Path_91" data-name="Path 91" d="M29.15,33.174h6.17l.969-6.268h-7.14V23.48c0-2.6.851-4.913,3.286-4.913h3.914V13.1a33.247,33.247,0,0,0-4.89-.3c-5.739,0-9.1,3.031-9.1,9.935v4.17h-5.9v6.268h5.9V50.4a23.891,23.891,0,0,0,3.566.295,24,24,0,0,0,3.228-.243Z" transform="translate(-2.08 -3.012)" fill="#fff"/>
</svg>
