<svg xmlns="http://www.w3.org/2000/svg" width="27.333" height="25.974" viewBox="0 0 27.333 25.974">
  <path id="Path_30365" data-name="Path 30365" d="M37.169,27.077a2.841,2.841,0,0,1,.5,1.374,2.721,2.721,0,0,1-.68,2.12,2.865,2.865,0,0,1,.68,1.614,2.762,2.762,0,0,1-.69,2.14,2.861,2.861,0,0,1-1.021.7,2.368,2.368,0,0,1,.209.767,2.314,2.314,0,0,1-.746,1.921,3.55,3.55,0,0,1-2.053.823,10.2,10.2,0,0,1-1.865-.056c-2.172.153-3.908.241-5.17.241a6.53,6.53,0,0,1-2.458-.265c-.383-.23-2.611-1.053-4.434-1.712a2.209,2.209,0,0,1-2.172,1.813H13a2.194,2.194,0,0,1-2.2-2.2V22.674A2.2,2.2,0,0,1,13,20.467h4.26a2.2,2.2,0,0,1,2.2,2.043,8.467,8.467,0,0,0,.858-.307,5.4,5.4,0,0,0,2.7-2.381c.6-1.185,1.032-2.109,1.394-3a9.464,9.464,0,0,0,.286-1.011,5.441,5.441,0,0,1,1-2.458,2.127,2.127,0,0,1,2.13-.516,3.9,3.9,0,0,1,2.569,2.36,12.93,12.93,0,0,1-.275,6.564l1.063.031c.275.01.561.01.844.01,2.1.021,4.95.045,5.94,2.611a2.113,2.113,0,0,1-.795,2.66Zm-19.352-4.4a.563.563,0,0,0-.561-.561H13a.551.551,0,0,0-.547.561V36.364a.542.542,0,0,0,.547.547h4.26a.554.554,0,0,0,.561-.547Zm17.706,5.017a14.487,14.487,0,0,1-2.391.188h-.01a.87.87,0,0,1-.879-.812A.771.771,0,0,1,33,26.237c2.074-.021,3.193-.265,3.448-.7a.7.7,0,0,0-.021-.516c-.547-1.415-2.172-1.537-4.413-1.558-.307,0-.6,0-.889-.01-1.722-.056-3.479-.056-5.379,0a.823.823,0,0,1-.052-1.645c.9-.031,1.767-.045,2.625-.045a.628.628,0,0,1,.087-.174,10.769,10.769,0,0,0,.408-5.926,2.305,2.305,0,0,0-1.4-1.22c-.363-.1-.5.031-.547.1a5.96,5.96,0,0,0-.572,1.68,9.492,9.492,0,0,1-.352,1.241c-.373.92-.844,1.91-1.461,3.117a7.525,7.525,0,0,1-5.006,3.643V35c1.426.505,4.588,1.656,5.215,2.018a48.679,48.679,0,0,0,6.774-.2.612.612,0,0,1,.143.01,8.938,8.938,0,0,0,1.6.066,1.987,1.987,0,0,0,1.109-.408.677.677,0,0,0,.22-.547.865.865,0,0,0-.373-.6c-.429-.01-.844-.066-1.231-.112a.835.835,0,0,1-.715-.92.815.815,0,0,1,.91-.715,6.982,6.982,0,0,0,1.569.077,1.748,1.748,0,0,0,1.077-.471,1.1,1.1,0,0,0,.265-.868,1.258,1.258,0,0,0-.485-.889,4.321,4.321,0,0,1-.659.132,5.624,5.624,0,0,1-.593.031,13.729,13.729,0,0,1-1.374-.108.836.836,0,0,1-.715-.924.825.825,0,0,1,.91-.715,6.981,6.981,0,0,0,1.579.077,1.779,1.779,0,0,0,1.063-.46,1.123,1.123,0,0,0,.265-.868,1.273,1.273,0,0,0-.485-.9C35.534,27.7,35.524,27.7,35.524,27.694Z" transform="translate(-10.8 -12.75)" fill="#fff"/>
</svg>
