<svg xmlns="http://www.w3.org/2000/svg" xmlns:xlink="http://www.w3.org/1999/xlink" width="133" height="36" viewBox="0 0 133 36">
  <defs>
    <clipPath id="clip-path">
      <path id="Path_24" data-name="Path 24" d="M350.033,13.029a12.581,12.581,0,0,1,4.546,17.114,12.521,12.521,0,0,1-21.661-12.568,12.581,12.581,0,0,1,17.114-4.546Z" transform="translate(-331.25 -11.36)"/>
    </clipPath>
  </defs>
  <g id="Group_15960" data-name="Group 15960" transform="translate(0)">
    <path id="Path_1" data-name="Path 1" d="M112.079,17.794a15.134,15.134,0,0,0,1.851.869,25.941,25.941,0,0,1,3.255,1.556,7.424,7.424,0,0,1,2.342,2.226,6.239,6.239,0,0,1,1.015,3.651,6.851,6.851,0,0,1-4.061,6.448,10.283,10.283,0,0,1-4.451.916,11.917,11.917,0,0,1-4.189-.851,23.536,23.536,0,0,1-4.189-2.062l2.356-5.662a33.642,33.642,0,0,0,3.207,1.735,6.229,6.229,0,0,0,2.356.72,2.492,2.492,0,0,0,1.36-.327,1.031,1.031,0,0,0,.509-.916q0-.424-.571-.768a15.263,15.263,0,0,0-1.848-.869,22.28,22.28,0,0,1-3.207-1.538,7.461,7.461,0,0,1-2.306-2.243,6.3,6.3,0,0,1-1-3.651,7.3,7.3,0,0,1,1.029-3.877,6.812,6.812,0,0,1,2.931-2.6,9.987,9.987,0,0,1,4.386-.916,11.674,11.674,0,0,1,4.026.768,18.514,18.514,0,0,1,3.8,1.883l-2.389,5.433a14.236,14.236,0,0,0-2.553-1.342,6.822,6.822,0,0,0-2.553-.556,2.047,2.047,0,0,0-1.211.327,1.026,1.026,0,0,0-.458.884C111.508,17.309,111.7,17.565,112.079,17.794Z" transform="translate(-73.258 -6.765)" fill="#38bbd1"/>
    <path id="Path_2" data-name="Path 2" d="M182.817,31.649a12.559,12.559,0,0,1-3.288,1.422,13.358,13.358,0,0,1-3.618.509,12.192,12.192,0,0,1-6.022-1.473,10.483,10.483,0,0,1-4.142-4.157,12.521,12.521,0,0,1-1.488-6.186,12.552,12.552,0,0,1,1.488-6.186,10.464,10.464,0,0,1,4.142-4.157,12.192,12.192,0,0,1,6.022-1.473,14.043,14.043,0,0,1,6.578,1.7l-2.389,5.76a5.947,5.947,0,0,0-3.109-.884,5.77,5.77,0,0,0-2.7.655,5.171,5.171,0,0,0-2.014,1.848,5.351,5.351,0,0,0,.015,5.5,5.156,5.156,0,0,0,2.011,1.833,5.733,5.733,0,0,0,2.651.64,5.657,5.657,0,0,0,3.469-1.146Z" transform="translate(-116.106 -6.99)" fill="#05d17d"/>
    <g id="Group_2" data-name="Group 2" transform="translate(0 2.151)">
      <circle id="Ellipse_1" data-name="Ellipse 1" cx="13.086" cy="13.086" r="13.086" transform="translate(0.619 0.366)" fill="#fff"/>
      <g id="qu6ZpE.tif_1_">
        <g id="Group_1" data-name="Group 1">
          <path id="Path_3" data-name="Path 3" d="M13.344,7.23H14.1a.466.466,0,0,0,.2.03,6.607,6.607,0,0,1,1.029.077,14.379,14.379,0,0,1,3.77.97A14.138,14.138,0,0,1,23.4,11.071a11.979,11.979,0,0,1,2.038,2.553,13.308,13.308,0,0,1,1.952,6.412,13.753,13.753,0,0,1-.491,4.5,13.162,13.162,0,0,1-3.707,6.117,13.529,13.529,0,0,1-4.124,2.586,13.925,13.925,0,0,1-4.442,1.012,14.52,14.52,0,0,1-3.573-.208A13.811,13.811,0,0,1,7,32.61a13,13,0,0,1-3.52-2.69A13.67,13.67,0,0,1,.039,21.744a13.934,13.934,0,0,1,.048-2.612A13.7,13.7,0,0,1,1.607,14.3,12.364,12.364,0,0,1,4.57,10.562,14.13,14.13,0,0,1,12.535,7.29,6.171,6.171,0,0,0,13.344,7.23ZM7.76,19.857v5.127c0,.428,0,.372-.369.378a3.419,3.419,0,0,0-1.178.1c-.226.083-.458.143-.687.214l-.661.2c-.039.012-.086.024-.11-.024s.006-.071.03-.1.062-.071.1-.1c.164-.184.366-.327.533-.506.274-.289.536-.586.8-.884a2.213,2.213,0,0,0,.613-1.5q0-4.039,0-8.075c0-.19-.054-.241-.244-.235a1.369,1.369,0,0,0-.155.018,5.543,5.543,0,0,1-1.154.051,9.234,9.234,0,0,0-1.312-.092,1.584,1.584,0,0,0-1.419,2.356.14.14,0,0,0,.143.1c.086-.006.086-.071.1-.137a.666.666,0,0,1,.693-.643c.366-.027.732-.027,1.1-.021a1.042,1.042,0,0,0,.562-.164c.3-.176.61-.342.916-.512.036-.021.08-.054.113-.009s-.018.065-.039.092c-.289.4-.58.8-.866,1.208a3.442,3.442,0,0,0-.672,1.434,7.3,7.3,0,0,0-.051,1.11c0,.208-.012.22-.223.22-.292,0-.586,0-.878,0a.279.279,0,0,0-.262.134c-.274.393-.556.783-.836,1.172-.045.065-.1.134-.06.214s.131.071.208.071h1.9c.205,0,.22.018.223.226,0,.872.006,1.747,0,2.618a2.89,2.89,0,0,1-.434,1.47A13.077,13.077,0,0,1,3.2,26.716c-.048.06-.11.119-.071.208s.134.089.217.089H6.626a.349.349,0,0,0,.181-.036c.464-.271.893-.6,1.351-.881a.383.383,0,0,0,.181-.369c-.006-1.181,0-2.362,0-3.544,0-.333,0-.669,0-1,0-.08.009-.176.116-.17.277.018.553-.042.83-.009a4.136,4.136,0,0,0,.768.006c.39-.027.39-.033.39.351v3.859a.346.346,0,0,0,.083.289c.458.428.913.86,1.372,1.285.211.2.3.19.544.024.3-.208.607-.4.913-.607.226-.149.458-.295.678-.452.125-.089.125-.19.006-.265-.36-.223-.672-.512-1.026-.744a.314.314,0,0,1-.152-.286c0-.931,0-1.86,0-2.791,0-1.071.006-2.142,0-3.213a16.392,16.392,0,0,1,.173-3.124c.051-.268.077-.539.1-.809.018-.184-.062-.232-.226-.152-.131.065-.262.134-.39.2-.6.333-1.2.675-1.812.994a.489.489,0,0,0-.318.521c.03,1.035.012,2.071.012,3.1,0,.2-.03.226-.229.226-.533,0-1.065,0-1.6,0-.253,0-.265-.012-.265-.265V14.671c0-.068,0-.137,0-.2,0-.042-.012-.092-.057-.1a.686.686,0,0,0-.417,0c-.1.039-.06.158-.062.241C7.757,16.367,7.76,18.111,7.76,19.857Zm10.61.922c0,.973,0,1.946,0,2.916a.58.58,0,0,1-.143.4,2.607,2.607,0,0,0-.2.244c-.086.125-.181.122-.289.03a3.808,3.808,0,0,1-.89-1.1,4.479,4.479,0,0,1-.47-2.535,4.977,4.977,0,0,1,.547-1.818,4.282,4.282,0,0,1,.577-.875c.054-.062.1-.134.042-.214s-.113-.033-.17-.009a5.112,5.112,0,0,0-2.169,1.666,4.063,4.063,0,0,0-.7,1.476,4.931,4.931,0,0,0,.473,3.612,3.78,3.78,0,0,0,.55.777,5.514,5.514,0,0,0,.955.827,4.629,4.629,0,0,0,1.437.646,6.26,6.26,0,0,0,1.913.143,5.156,5.156,0,0,0,3.124-1.256,3.786,3.786,0,0,0,1.309-2.592c.009-.074.012-.152-.08-.181s-.128.042-.164.107a3.547,3.547,0,0,1-.378.536,3.723,3.723,0,0,1-1.41,1.041c-.17.071-.184.06-.184-.128V17c0-.42,0-.414.428-.452a1.638,1.638,0,0,0,1.211-.666,4.34,4.34,0,0,0,.714-1.919c.009-.048.012-.1-.042-.122a.112.112,0,0,0-.131.021,2.12,2.12,0,0,0-.158.173,1.324,1.324,0,0,1-.9.509,7.673,7.673,0,0,1-1.455.021c-.943-.06-1.877-.223-2.824-.283a5.677,5.677,0,0,0-2.484.271,2.642,2.642,0,0,0-.785.449,2.274,2.274,0,0,0-.771,1.3,2.958,2.958,0,0,0,.11,1.422.216.216,0,0,0,.128.167c.131.042.217-.015.253-.17a1.665,1.665,0,0,1,1.068-1.238,4.126,4.126,0,0,1,1.541-.235,14.142,14.142,0,0,1,2.184.187c.045.006.107,0,.122.057s-.051.071-.089.092c-.479.259-.943.544-1.44.762a.606.606,0,0,0-.381.669C18.376,18.929,18.367,19.854,18.37,20.78Z" transform="translate(0 -7.23)" fill="#00b1cd"/>
          <path id="Path_4" data-name="Path 4" d="M64.947,42.718v3.936c0,.244,0,.25-.241.3a5.206,5.206,0,0,1-2.422-.027c-.167-.042-.324-.113-.488-.17-.039-.015-.086-.024-.086-.077s.045-.065.08-.086c.378-.2.756-.4,1.131-.607.193-.1.381-.217.58-.312a.314.314,0,0,0,.187-.336c-.006-.589,0-1.181,0-1.77,0-1.4,0-2.791,0-4.186a.421.421,0,0,1,.155-.354,2.848,2.848,0,0,0,.366-.342c.193-.232.437-.146.669-.128.068,0,.071.065.074.119,0,.1,0,.187,0,.283C64.947,40.209,64.947,41.465,64.947,42.718Z" transform="translate(-43.349 -29.216)" fill="#00b1cd"/>
        </g>
      </g>
    </g>
    <g id="Group_3" data-name="Group 3" transform="translate(30.351 30.513)">
      <path id="Path_5" data-name="Path 5" d="M106.1,103.133a.944.944,0,0,1,.61.295.959.959,0,0,1,.247.687,1.074,1.074,0,0,1-.354.851,1.43,1.43,0,0,1-.973.309h-1.47V101.11h1.392a1.514,1.514,0,0,1,.982.289.968.968,0,0,1,.357.794A.872.872,0,0,1,106.1,103.133Zm-.577-1.422h-.678v1.143h.678a.763.763,0,0,0,.5-.152.582.582,0,0,0,0-.842A.777.777,0,0,0,105.523,101.711Zm.1,2.963a.673.673,0,0,0,.482-.167.608.608,0,0,0,.173-.464.55.55,0,0,0-.179-.425.666.666,0,0,0-.47-.164h-.78v1.22Z" transform="translate(-104.16 -101.11)" fill="#fff"/>
      <path id="Path_6" data-name="Path 6" d="M117.576,105.79h.649v2.785a1.314,1.314,0,0,1-.363.988,1.34,1.34,0,0,1-.94.321,1.438,1.438,0,0,1-.952-.286.944.944,0,0,1-.309-.72h.655a.513.513,0,0,0,.158.354.664.664,0,0,0,.437.116.62.62,0,0,0,.488-.2.913.913,0,0,0,.179-.622v-.351a.949.949,0,0,1-.893.458.931.931,0,0,1-.759-.318,1.268,1.268,0,0,1-.265-.836v-1.69h.649v1.553c0,.479.2.72.6.72a.578.578,0,0,0,.5-.232,1,1,0,0,0,.17-.607Z" transform="translate(-112.238 -104.398)" fill="#fff"/>
      <path id="Path_7" data-name="Path 7" d="M132.18,105.275V101.11h.684V102.9h1.72V101.11h.684v4.165h-.684v-1.761h-1.72v1.761Z" transform="translate(-123.843 -101.11)" fill="#fff"/>
      <path id="Path_8" data-name="Path 8" d="M145.767,102.034a.5.5,0,1,1,.137-.342A.466.466,0,0,1,145.767,102.034Zm-.672,3.312v-2.773h.649v2.773Z" transform="translate(-132.807 -101.18)" fill="#fff"/>
      <path id="Path_9" data-name="Path 9" d="M150.44,108.394v-2.773h.649v.387a.96.96,0,0,1,.9-.458q1.013,0,1.012,1.1v1.744h-.649v-1.446a1.162,1.162,0,0,0-.137-.649.533.533,0,0,0-.47-.2.608.608,0,0,0-.488.2.837.837,0,0,0-.173.568v1.523Z" transform="translate(-136.67 -104.229)" fill="#fff"/>
      <path id="Path_10" data-name="Path 10" d="M163.309,101.11h.649v4.165h-.649V104.9a.836.836,0,0,1-.372.324,1.187,1.187,0,0,1-.515.122,1.263,1.263,0,0,1-1.006-.411,1.537,1.537,0,0,1-.357-1.047,1.5,1.5,0,0,1,.375-1.044,1.289,1.289,0,0,1,1.006-.414,1.09,1.09,0,0,1,.512.119.866.866,0,0,1,.357.327Zm-.791,3.66a.754.754,0,0,0,.61-.25,1.047,1.047,0,0,0,0-1.262.851.851,0,0,0-1.2,0,1.033,1.033,0,0,0,0,1.267A.743.743,0,0,0,162.518,104.77Z" transform="translate(-144.13 -101.11)" fill="#fff"/>
      <path id="Path_11" data-name="Path 11" d="M174.529,108.634a1.012,1.012,0,0,1-.75-.28,1.112,1.112,0,0,1-.28-.821V105.79h.649v1.583a.9.9,0,0,0,.131.53.5.5,0,0,0,.434.179.615.615,0,0,0,.512-.2.818.818,0,0,0,.161-.527V105.79h.649v2.773h-.649v-.387A.9.9,0,0,1,174.529,108.634Z" transform="translate(-152.869 -104.398)" fill="#fff"/>
      <path id="Path_12" data-name="Path 12" d="M185.3,108.466a1.3,1.3,0,0,1-.851-.268.818.818,0,0,1-.327-.655h.649a.346.346,0,0,0,.158.292.688.688,0,0,0,.408.113.443.443,0,0,0,.292-.089.3.3,0,0,0,.107-.238.266.266,0,0,0-.208-.292l-.714-.2a.732.732,0,0,1-.6-.768.714.714,0,0,1,.3-.58,1.2,1.2,0,0,1,.768-.235,1.23,1.23,0,0,1,.812.238.778.778,0,0,1,.283.625h-.637a.319.319,0,0,0-.128-.271.569.569,0,0,0-.354-.1.477.477,0,0,0-.286.08.245.245,0,0,0-.113.205.292.292,0,0,0,.238.3l.661.19a.972.972,0,0,1,.464.283.67.67,0,0,1,.179.461.82.82,0,0,1-.289.655A1.194,1.194,0,0,1,185.3,108.466Z" transform="translate(-160.329 -104.229)" fill="#fff"/>
      <path id="Path_13" data-name="Path 13" d="M194.383,106.035a1.97,1.97,0,0,0,.327-.024v.571a2.8,2.8,0,0,1-.482.036,1.532,1.532,0,0,1-.28-.024,1.035,1.035,0,0,1-.28-.11.57.57,0,0,1-.25-.3,1.42,1.42,0,0,1-.089-.542v-1.291h-.47v-.542h.47v-.839h.649v.839h.637v.542h-.637v1.143a.692.692,0,0,0,.1.437A.393.393,0,0,0,194.383,106.035Z" transform="translate(-166.469 -102.417)" fill="#fff"/>
      <path id="Path_14" data-name="Path 14" d="M201.643,108.466a1.263,1.263,0,0,1-1.006-.411,1.537,1.537,0,0,1-.357-1.047,1.5,1.5,0,0,1,.375-1.044,1.289,1.289,0,0,1,1.006-.414,1.09,1.09,0,0,1,.512.119.866.866,0,0,1,.357.327v-.375h.649v2.773h-.649v-.375a.836.836,0,0,1-.372.324A1.187,1.187,0,0,1,201.643,108.466Zm.1-.577a.754.754,0,0,0,.61-.25,1.047,1.047,0,0,0,0-1.262.851.851,0,0,0-1.2,0,1.033,1.033,0,0,0,0,1.268A.743.743,0,0,0,201.738,107.889Z" transform="translate(-171.681 -104.229)" fill="#fff"/>
      <path id="Path_15" data-name="Path 15" d="M212.82,108.394v-2.773h.649v.387a.96.96,0,0,1,.9-.458q1.013,0,1.012,1.1v1.744h-.649v-1.446a1.162,1.162,0,0,0-.137-.649.533.533,0,0,0-.47-.2.608.608,0,0,0-.488.2.837.837,0,0,0-.173.568v1.523Z" transform="translate(-180.49 -104.229)" fill="#fff"/>
      <path id="Path_16" data-name="Path 16" d="M229.048,105.275v-3.523H227.84v-.643h3.106v.643h-1.214v3.523Z" transform="translate(-191.041 -101.11)" fill="#fff"/>
      <path id="Path_17" data-name="Path 17" d="M239.887,102.034a.5.5,0,1,1,.137-.342A.466.466,0,0,1,239.887,102.034Zm-.672,3.312v-2.773h.649v2.773Z" transform="translate(-198.922 -101.18)" fill="#fff"/>
      <path id="Path_18" data-name="Path 18" d="M244.56,108.394v-2.773h.649v.387a.768.768,0,0,1,.3-.33.871.871,0,0,1,.47-.128.853.853,0,0,1,.875.494.826.826,0,0,1,.333-.354.993.993,0,0,1,.518-.14q1,0,1,1.089v1.755h-.649v-1.63q0-.661-.518-.661a.533.533,0,0,0-.428.181,1,1,0,0,0-.155.64v1.47h-.649v-1.636c0-.437-.17-.655-.506-.655a.543.543,0,0,0-.437.181.994.994,0,0,0-.158.64v1.47Z" transform="translate(-202.786 -104.229)" fill="#fff"/>
      <path id="Path_19" data-name="Path 19" d="M263.219,106.865q0,.107-.018.357h-2.059a.671.671,0,0,0,.214.5.829.829,0,0,0,.559.176.626.626,0,0,0,.619-.315h.655a.95.95,0,0,1-.42.634,1.46,1.46,0,0,1-.854.247,1.372,1.372,0,0,1-1.035-.393,1.681,1.681,0,0,1,0-2.127,1.333,1.333,0,0,1,1.015-.4,1.3,1.3,0,0,1,.961.366A1.287,1.287,0,0,1,263.219,106.865Zm-2.077-.137h1.44a.661.661,0,0,0-.187-.494.713.713,0,0,0-.515-.173.755.755,0,0,0-.536.184A.652.652,0,0,0,261.143,106.728Z" transform="translate(-213.983 -104.229)" fill="#fff"/>
      <path id="Path_20" data-name="Path 20" d="M272.218,108.466a1.3,1.3,0,0,1-.851-.268.818.818,0,0,1-.327-.655h.649a.346.346,0,0,0,.158.292.688.688,0,0,0,.408.113.443.443,0,0,0,.292-.089.3.3,0,0,0,.107-.238.266.266,0,0,0-.208-.292l-.714-.2a.732.732,0,0,1-.6-.768.714.714,0,0,1,.3-.58,1.2,1.2,0,0,1,.768-.235,1.23,1.23,0,0,1,.812.238.777.777,0,0,1,.283.625h-.637a.319.319,0,0,0-.128-.271.569.569,0,0,0-.354-.1.477.477,0,0,0-.286.08.245.245,0,0,0-.113.205.292.292,0,0,0,.238.3l.66.19a.973.973,0,0,1,.464.283.671.671,0,0,1,.178.461.82.82,0,0,1-.289.655A1.194,1.194,0,0,1,272.218,108.466Z" transform="translate(-221.387 -104.229)" fill="#fff"/>
    </g>
    <g id="Group_7" data-name="Group 7" transform="translate(96.849 1.146)">
      <path id="Path_21" data-name="Path 21" d="M363.689,97.712h-10a1.056,1.056,0,0,1-1.056-1.056h0a1.056,1.056,0,0,1,1.056-1.056h10a1.056,1.056,0,0,1,1.056,1.056h0A1.055,1.055,0,0,1,363.689,97.712Z" transform="translate(-346.269 -67.871)" fill="#ff6417"/>
      <path id="Path_22" data-name="Path 22" d="M365.714,107.842h-7.028a1.056,1.056,0,0,1-1.056-1.056h0a1.056,1.056,0,0,1,1.056-1.056h7.028a1.056,1.056,0,0,1,1.056,1.056h0A1.053,1.053,0,0,1,365.714,107.842Z" transform="translate(-349.781 -74.987)" fill="#ff6417"/>
      <g id="Group_5" data-name="Group 5" transform="translate(0 2.234)">
        <g id="Group_4" data-name="Group 4" clip-path="url(#clip-path)">
          <path id="Path_23" data-name="Path 23" d="M354.57,17.576a12.521,12.521,0,0,0-21.661,12.568,12.342,12.342,0,0,0,4.546,4.546c.244.143.491.274.741.4a.923.923,0,0,1,.9-.872.87.87,0,0,1,.518.17,1.583,1.583,0,0,1,1.479-1.253,2.084,2.084,0,0,1,1.5.655l.4-5.829v-.527h1.815l.4,6.32a2.1,2.1,0,0,1,1.476-.619,1.578,1.578,0,0,1,1.47,1.208.886.886,0,0,1,.446-.128.921.921,0,0,1,.89.753c.176-.092.351-.181.524-.283a12.44,12.44,0,0,0,6.216-10.83A12.225,12.225,0,0,0,354.57,17.576Z" transform="translate(-331.243 -11.36)" fill="#ff6417"/>
        </g>
      </g>
      <g id="Group_6" data-name="Group 6" transform="translate(6.174)">
        <path id="Path_25" data-name="Path 25" d="M366.773,6.076l-.062.134L365.69,8.42l.057,12.624h4.335V8.2l-2.2-4.35Z" transform="translate(-361.617 -3.85)" fill="#fff"/>
        <rect id="Rectangle_1" data-name="Rectangle 1" width="1.449" height="12.83" transform="translate(5.567 4.395)" fill="#ff6417"/>
        <path id="Path_26" data-name="Path 26" d="M356.189,43.88l.045,5.308L352,49.164V48.022S356.13,43.88,356.189,43.88Z" transform="translate(-352 -31.97)" fill="#fff"/>
        <path id="Path_27" data-name="Path 27" d="M369.33,6.076h2.2L370.443,3.85Z" transform="translate(-364.174 -3.85)" fill="#ff6417"/>
        <path id="Path_28" data-name="Path 28" d="M380.375,43.8l-.045,5.332,4.222-.027v-1.14S380.434,43.8,380.375,43.8Z" transform="translate(-371.901 -31.913)" fill="#fff"/>
        <path id="Path_29" data-name="Path 29" d="M368.644,62.379h-4.68a.493.493,0,0,1-.494-.494v-.211a.493.493,0,0,1,.494-.494h4.68a.493.493,0,0,1,.494.494v.211A.5.5,0,0,1,368.644,62.379Z" transform="translate(-360.057 -44.122)" fill="#fff"/>
      </g>
    </g>
    <g id="Group_8" data-name="Group 8" transform="translate(67.859 3.776)">
      <path id="Path_30" data-name="Path 30" d="M287.661,23.051a9.01,9.01,0,0,0,1.482,1.913V12.7h-.637a9.147,9.147,0,0,0-.842,1.211,9.219,9.219,0,0,0,0,9.14Z" transform="translate(-270.097 -12.697)" fill="#0087ff"/>
      <path id="Path_31" data-name="Path 31" d="M248.027,23.639a10.4,10.4,0,0,1,0-10.336c.122-.211.25-.414.387-.613h-5.469v7.659h-3.829V12.693H231.49V35.6h7.626V27.945h3.829V35.6h7.593V26.54A10.073,10.073,0,0,1,248.027,23.639Z" transform="translate(-231.49 -12.69)" fill="#0087ff"/>
    </g>
    <path id="Path_32" data-name="Path 32" d="M412.68,24.154V8.87h-7.56v3.588a13.372,13.372,0,0,1,0,19.3v.018h14.172V24.154Z" transform="translate(-286.292 -6.231)" fill="#a463ff"/>
    <path id="Path_33" data-name="Path 33" d="M298.3,15.879A13.272,13.272,0,0,1,303.66,5.153c-.074-.143-.146-.283-.226-.423A9.512,9.512,0,0,0,285.68,9.512a9.469,9.469,0,0,0,9.512,9.512,9.526,9.526,0,0,0,3.341-.592A13.9,13.9,0,0,1,298.3,15.879Zm-1.321-3.353a3.494,3.494,0,0,1-3.511,0,3.532,3.532,0,0,1-1.285-1.27,3.355,3.355,0,0,1-.47-1.744,3.458,3.458,0,0,1,.47-1.755,3.581,3.581,0,0,1,1.285-1.3,3.42,3.42,0,0,1,3.511,0,3.573,3.573,0,0,1,1.282,1.3,3.431,3.431,0,0,1,.473,1.755,3.365,3.365,0,0,1-.473,1.744A3.5,3.5,0,0,1,296.974,12.526Z" transform="translate(-201.925)" fill="#ffc522"/>
  </g>
</svg>
