<svg id="Group_15625" data-name="Group 15625" xmlns="http://www.w3.org/2000/svg" width="19" height="19" viewBox="0 0 19 19">
  <path id="Path_30129" data-name="Path 30129" d="M13.579,5.791c2.537,0,2.837.01,3.839.055a5.258,5.258,0,0,1,1.764.327,3.146,3.146,0,0,1,1.8,1.8,5.258,5.258,0,0,1,.327,1.764c.046,1,.055,1.3.055,3.839s-.01,2.837-.055,3.839a5.258,5.258,0,0,1-.327,1.764,3.146,3.146,0,0,1-1.8,1.8,5.258,5.258,0,0,1-1.764.327c-1,.046-1.3.055-3.839.055s-2.837-.01-3.839-.055a5.258,5.258,0,0,1-1.764-.327,3.146,3.146,0,0,1-1.8-1.8,5.258,5.258,0,0,1-.327-1.764c-.046-1-.055-1.3-.055-3.839s.01-2.837.055-3.839a5.258,5.258,0,0,1,.327-1.764,3.146,3.146,0,0,1,1.8-1.8A5.258,5.258,0,0,1,9.74,5.846c1-.046,1.3-.055,3.839-.055m0-1.712c-2.58,0-2.9.011-3.917.057a6.973,6.973,0,0,0-2.306.442A4.858,4.858,0,0,0,4.578,7.356a6.973,6.973,0,0,0-.442,2.306C4.09,10.675,4.079,11,4.079,13.579s.011,2.9.057,3.917A6.973,6.973,0,0,0,4.578,19.8,4.858,4.858,0,0,0,7.356,22.58a6.973,6.973,0,0,0,2.306.442c1.013.046,1.337.057,3.917.057s2.9-.011,3.917-.057A6.973,6.973,0,0,0,19.8,22.58,4.858,4.858,0,0,0,22.58,19.8a6.973,6.973,0,0,0,.442-2.306c.046-1.013.057-1.337.057-3.917s-.011-2.9-.057-3.917a6.973,6.973,0,0,0-.442-2.306A4.858,4.858,0,0,0,19.8,4.578,6.973,6.973,0,0,0,17.5,4.136c-1.013-.046-1.337-.057-3.917-.057Z" transform="translate(-4.079 -4.079)" fill="#f8f8f8"/>
  <path id="Path_30130" data-name="Path 30130" d="M131.513,126.635a4.878,4.878,0,1,0,4.878,4.878A4.878,4.878,0,0,0,131.513,126.635Zm0,8.045a3.167,3.167,0,1,1,3.167-3.167A3.167,3.167,0,0,1,131.513,134.68Z" transform="translate(-122.013 -122.013)" fill="#f8f8f8"/>
  <circle id="Ellipse_435" data-name="Ellipse 435" cx="1.14" cy="1.14" r="1.14" transform="translate(13.431 3.289)" fill="#f8f8f8"/>
</svg>
