<svg xmlns="http://www.w3.org/2000/svg" width="19" height="15.439" viewBox="0 0 19 15.439">
  <path id="Logo" d="M18.064,5.343c.011.167.011.335.011.5A11.016,11.016,0,0,1,6.984,16.939v0a11.036,11.036,0,0,1-5.975-1.748,7.932,7.932,0,0,0,.928.056,7.822,7.822,0,0,0,4.841-1.672,3.9,3.9,0,0,1-3.642-2.707A3.891,3.891,0,0,0,4.9,10.8,3.9,3.9,0,0,1,1.769,6.977V6.927a3.869,3.869,0,0,0,1.769.488,3.9,3.9,0,0,1-1.207-5.2,11.067,11.067,0,0,0,8.034,4.073,3.9,3.9,0,0,1,6.643-3.555,7.813,7.813,0,0,0,2.475-.946A3.912,3.912,0,0,1,17.77,3.939a7.78,7.78,0,0,0,2.239-.613A7.931,7.931,0,0,1,18.064,5.343Z" transform="translate(-1.009 -1.5)" fill="#efefef"/>
</svg>
