<svg xmlns="http://www.w3.org/2000/svg" xmlns:xlink="http://www.w3.org/1999/xlink" width="105" height="115" viewBox="0 0 105 115">
  <defs>
    <clipPath id="clip-Artboard_2">
      <rect width="105" height="115"/>
    </clipPath>
  </defs>
  <g id="Artboard_2" data-name="Artboard – 2" clip-path="url(#clip-Artboard_2)">
    <g id="Group_146" data-name="Group 146" transform="translate(6)">
      <path id="Path_1578" data-name="Path 1578" d="M5253.176,218.017c2.475.822,5.4.519,7.966.513a80.155,80.155,0,0,0,8.833-.426,32.33,32.33,0,0,0,15.074-5.272,55.663,55.663,0,0,0,11.642-11.57c1.433-1.842,2.582-3.947,2.262-6.356-.33-2.48-1.959-4.724-3.584-6.538-3.529-3.939-7.883-5.586-12.759-7.225-3.251-1.092-5.775-3.13-8.7-4.83a14.455,14.455,0,0,0-1.31-.667,11.051,11.051,0,0,0-1.647-.353,21,21,0,0,0-9.726.9c-3.425,1.191-6.406,3.442-9.192,5.709a24.18,24.18,0,0,0-2.892,2.779,29.153,29.153,0,0,0-3.269,22.405C5246.9,210.994,5248.958,216.616,5253.176,218.017Z" transform="translate(-5213.943 -110.088)" fill="#ff9eb3"/>
      <g id="Group_67" data-name="Group 67" transform="translate(-4463.723 1647.426)">
        <ellipse id="Ellipse_2" data-name="Ellipse 2" cx="19.204" cy="21.737" rx="19.204" ry="21.737" transform="translate(4500.774 -1644.426)" fill="none" stroke="#fff" stroke-linecap="round" stroke-miterlimit="10" stroke-width="4"/>
        <path id="Path_1561" data-name="Path 1561" d="M4507.2-1590.633s29.649-5.115,42.114,8.949,8.929,42.534,8.929,42.534.336,5.594-5.223,6.073-64.856,0-64.856,0-6.233.24-6.569-8.51-.151-13.326-.151-13.326" transform="translate(-0.234 -3.227)" fill="none" stroke="#fff" stroke-linecap="round" stroke-miterlimit="10" stroke-width="4"/>
        <line id="Line_16" data-name="Line 16" y2="28.017" transform="translate(4498.71 -1564.959)" fill="none" stroke="#fff" stroke-linecap="round" stroke-miterlimit="10" stroke-width="4"/>
        <line id="Line_17" data-name="Line 17" y2="29.961" transform="translate(4541.499 -1566.05)" fill="none" stroke="#fff" stroke-linecap="round" stroke-miterlimit="10" stroke-width="4"/>
        <path id="Path_1562" data-name="Path 1562" d="M4458.723-1591.383l19.716-18.313-.776,10.9s18.784-.479,22.355,13.165-11.8,20.566-24.839,20.124c0,0,14.9-1.916,14.593-9.28s-10.867-9.279-11.954-9.133l-.156,10.458Z" transform="translate(0 -2.119)" fill="#fff"/>
        <path id="Path_1563" data-name="Path 1563" d="M4527.259-1568.4H4513.8s6.483,0,8.693,2.06c2.811,2.621,3.213,10.451-8.2,11.249l9.84,12.643" transform="translate(-0.568 -4.638)" fill="none" stroke="#fff" stroke-linecap="round" stroke-linejoin="round" stroke-width="2.5"/>
        <line id="Line_18" data-name="Line 18" x2="13.455" transform="translate(4513.235 -1566.322)" fill="none" stroke="#fff" stroke-linecap="round" stroke-miterlimit="10" stroke-width="2.5"/>
      </g>
    </g>
  </g>
</svg>
