<svg xmlns="http://www.w3.org/2000/svg" xmlns:xlink="http://www.w3.org/1999/xlink" width="319" height="335" viewBox="0 0 319 335">
  <defs>
    <clipPath id="clip-Artboard_5">
      <rect width="319" height="335"/>
    </clipPath>
  </defs>
  <g id="Artboard_5" data-name="Artboard – 5" clip-path="url(#clip-Artboard_5)">
    <path id="Path_32051" data-name="Path 32051" d="M6389.08,863.491c19.3-36.1,34.965-79.447,23.56-121.719-11.178-41.417-39.494-76.912-73.905-95.539-21.75-11.776-44.857-15.984-68.117-15.1a194.887,194.887,0,0,0-46.009,7.726c-34.582,9.88-70.063,23.056-93.821,54.707q-2.152,2.869-4.151,5.85c-.088.073-.179.14-.266.222-10.847,10.018-17.25,25.473-22.161,39.92a240.566,240.566,0,0,0-11.165,51.357c-1.818,16.766-.579,32.5,6.091,47.855,7.522,17.316,19.756,31.864,32.5,44.46a366.482,366.482,0,0,0,40.684,34.448c13.6,9.99,28.287,18.574,44.275,22.369a89.52,89.52,0,0,0,15.81,2.236c12.247.672,24.452-.9,36.767-3,15.853-2.708,31.868-4.987,47.376-9.715,14.315-4.362,27.96-11.138,39.728-21.413C6370.05,896.117,6380.158,880.189,6389.08,863.491Zm-80.055,21.178c-14.754,6.384-30.568,7.924-46.307,6.862a177.281,177.281,0,0,1-23.136-3.214c-25.937-5.247-54.146-16.288-72.029-37.705-18.326-21.942-19.179-52.891-15.35-80.535,3.586-25.888,14.255-51.51,34.323-67.15,14.09-16.469,37.749-25.413,56.737-30.425a139.071,139.071,0,0,1,23.542-4.237c16.961-1.454,33.647,1,49.563,9.878C6388.311,718.275,6385.479,851.588,6309.025,884.669Z" transform="translate(-3652.624 5190.342) rotate(-60)" fill="#e5d0fc" opacity="0.7"/>
  </g>
</svg>
