<svg xmlns="http://www.w3.org/2000/svg" xmlns:xlink="http://www.w3.org/1999/xlink" width="253" height="127" viewBox="0 0 253 127">
  <defs>
    <clipPath id="clip-Artboard_5">
      <rect width="253" height="127"/>
    </clipPath>
  </defs>
  <g id="Artboard_5" data-name="Artboard – 5" clip-path="url(#clip-Artboard_5)">
    <path id="Union_15" data-name="Union 15" d="M-2741.08,103.207a52.93,52.93,0,0,0-6.045-1.507q.086-.834.182-1.668a50.193,50.193,0,0,0,1.672-11.481c1.32-7.811,2.883-15.592,3.928-23.417,1.133-8.486,1.5-17.081,2.438-25.6.958-8.72,2.1-17.419,3.3-26.1.257-1.86.587-3.705.951-5.544.254-1.281.525-2.559.8-3.836a119.116,119.116,0,0,0,2.674-15.307c4.176.649,8.373,1.156,12.541,1.862-.915,7.965-1.659,15.965-2.5,23.939-1.653,15.677-3.23,31.322-5.876,46.845-2.448,14.359-4.731,28.759-6.405,43.252C-2735.959,104.083-2738.518,103.634-2741.08,103.207Zm-77.187-20.8c-7.51-3.383-14.954-7.071-22.46-10.465-7.576-3.427-15.323-5.936-22.948-9.11-6.55-2.726-12.713-7.467-19.48-8.809.23-3.487.423-2.623.56-6.15.509-13.077.716-19.049.178-32.1,4.028-1.211,8.039-3.184,11.981-4.285,8.09-2.259,16.181-8.5,24.215-11.153,8.053-2.656,16.063-5.587,24.064-8.554,6.943-2.575,13.9-7.6,20.96-9.338a91.887,91.887,0,0,0,15.484-4.947c1.317,8.042,2.432,16.157,3.724,24.21-3.48,2-7.6,2.367-11.08,2.935-7.083,1.156-15.475,7.541-22.478,9.436-6.067,1.642-32.687,16.766-38.581,19.337l9.032,7.547c3.754,4.121,14.321,10.52,18.751,12.69,5.707,2.794,11.569,4.83,17.333,7.348,6.042,2.639,11.786,5.923,17.99,7.826a119.308,119.308,0,0,1,12.841,4.3,219.8,219.8,0,0,1-3.691,29.393c-.09.433-.189.868-.283,1.3C-2794.062,97.578-2806.177,87.855-2818.267,82.409Zm109.18-3.224c2.625-1.509,5.73-1.785,8.356-2.213,5.341-.872,11.67-5.687,16.951-7.116,4.575-1.238,24.651-12.644,29.1-14.583l-6.812-5.692c-2.831-3.108-10.8-7.933-14.14-9.57-4.3-2.107-8.724-3.643-13.071-5.541-4.556-1.99-8.888-4.468-13.567-5.9a89.9,89.9,0,0,1-9.684-3.24,165.741,165.741,0,0,1,2.784-22.166c.068-.327.142-.654.213-.981,8.98,4.7,18.116,12.033,27.233,16.14,5.664,2.551,11.277,5.332,16.938,7.893,5.714,2.584,11.556,4.476,17.306,6.87,4.939,2.056,9.587,5.631,14.69,6.643-.173,2.63-.319,1.978-.422,4.638-.384,9.862-.54,14.365-.135,24.211-3.038.913-6.062,2.4-9.036,3.232-6.1,1.7-12.2,6.412-18.261,8.411s-12.114,4.213-18.147,6.451c-5.236,1.942-10.48,5.732-15.807,7.042a69.371,69.371,0,0,0-11.677,3.731C-2707.271,91.378-2708.112,85.258-2709.087,79.184Z" transform="translate(2884.155 22.2)" fill="#f4f4f4" stroke="rgba(0,0,0,0)" stroke-miterlimit="10" stroke-width="1"/>
  </g>
</svg>
