<svg xmlns="http://www.w3.org/2000/svg" xmlns:xlink="http://www.w3.org/1999/xlink" width="288" height="65" viewBox="0 0 288 65">
  <defs>
    <clipPath id="clip-Artboard_2">
      <rect width="288" height="65"/>
    </clipPath>
  </defs>
  <g id="Artboard_2" data-name="Artboard – 2" clip-path="url(#clip-Artboard_2)">
    <path id="Path_32047" data-name="Path 32047" d="M4705.669,2908.45c-1.261-8.567.7-17.928,0-26.506l-.117-1.422c-.117-1.424-1.8-2.518-3.775-2.439-4.313.17-8.6.362-12.786.441-13.265.252-31.957.444-45.245.42q-39.514-.071-78.968-.707c-26.567-.4-53,.34-79.6.394-19.82.039-39.6.062-59.314-.518-2.157-.064-3.908,1.246-3.7,2.8.32,2.421.521,4.843.622,7.263.676,16.323-1.342,31.336-1.51,47.667-.015,1.434,1.608,2.6,3.594,2.6H4702.1c1.989,0,3.57-1.177,3.561-2.615C4705.592,2926.33,4707.048,2917.819,4705.669,2908.45Z" transform="translate(-4419.266 -2876.079)" fill="#004ba6"/>
  </g>
</svg>
