<svg xmlns="http://www.w3.org/2000/svg" xmlns:xlink="http://www.w3.org/1999/xlink" width="1366" height="25" viewBox="0 0 1366 25">
  <defs>
    <clipPath id="clip-Artboard_1">
      <rect width="1366" height="25"/>
    </clipPath>
  </defs>
  <g id="Artboard_1" data-name="Artboard – 1" clip-path="url(#clip-Artboard_1)">
    <rect width="1366" height="25" fill="#fff"/>
    <rect id="Rectangle_4209" data-name="Rectangle 4209" width="1371" height="108" transform="translate(0 -94)" fill="#23e88b"/>
    <path id="Path_32048" data-name="Path 32048" d="M-533.076,601.6c20.355-3.506,41.306.081,61.986-1.012,24.292-1.285,48.673.046,73.032-1.223,23.683-1.235,47.445.345,71.192-1.13,18.964-1.177,38.018-.239,57.063-1.106,23.493-1.066,47.065-.1,70.6-.828,19.218-.59-.02-.059,19.218-.466l4.877-.1-.014,4.99.013,33.01c-3.944-.486-9.3-.976-19.308-1.523-34.506-1.886-69.045-3.105-103.57-4.583-23.694-1.014-47.426-1.849-71.134-2.242-25.984-.426-51.973-.852-77.952-1.485-17.015-.415-33.944,1.374-50.928,1.188a492.051,492.051,0,0,0-53.906,2.754c-32.8,3.251-65.726,4.025-98.612,5.138-39.287,1.329-78.611-.112-117.892-1.241-11.435-.328-22.912-.367-34.339-1.089-18.442-1.166-36.9-2.023-55.355-2.935-18.455.912-36.914,1.769-55.355,2.935-11.427.722-22.9.762-34.339,1.089-39.282,1.129-78.606,2.57-117.893,1.241-32.886-1.112-65.809-1.887-98.612-5.138a492.076,492.076,0,0,0-53.906-2.754c-16.984.186-33.913-1.6-50.928-1.188-25.979.634-51.968,1.06-77.952,1.485-23.708.392-47.44,1.227-71.134,2.242-34.525,1.478-69.065,2.7-103.57,4.583-10,.547-15.365,1.036-19.309,1.523l.013-33.01-.014-4.99,4.878.1c19.238.407,0-.123,19.218.466,23.537.723,47.109-.238,70.6.828,19.046.867,38.1-.071,57.063,1.106,23.746,1.475,47.509-.1,71.193,1.13,24.258,1.264,48.538-.051,72.729,1.207,4.053.211,8.11.381,12.168.448a544.025,544.025,0,0,1,65.548,4.961C-1086.515,617.176-711.639,632.354-533.076,601.6Z" transform="translate(1541.105 -610.727)" fill="#06e88b"/>
  </g>
</svg>
