<svg xmlns="http://www.w3.org/2000/svg" xmlns:xlink="http://www.w3.org/1999/xlink" width="144" height="41" viewBox="0 0 144 41">
  <defs>
    <clipPath id="clip-Artboard_4">
      <rect width="144" height="41"/>
    </clipPath>
  </defs>
  <g id="Artboard_4" data-name="Artboard – 4" clip-path="url(#clip-Artboard_4)">
    <rect width="144" height="41" fill="#fff"/>
    <path id="Path_92" data-name="Path 92" d="M4564.964,2898.2c-.637-5.677.354-11.88,0-17.563l-.06-.942a1.781,1.781,0,0,0-1.907-1.616c-2.18.113-4.347.24-6.46.292-6.7.167-16.147.294-22.861.278q-19.964-.047-39.9-.469c-13.424-.265-26.781.226-40.222.261-10.014.026-20.006.041-29.969-.343a1.745,1.745,0,0,0-1.871,1.854q.243,2.406.314,4.813c.342,10.816-.678,20.764-.763,31.585a1.769,1.769,0,0,0,1.816,1.725H4563.16a1.759,1.759,0,0,0,1.8-1.733C4564.924,2910.052,4565.66,2904.412,4564.964,2898.2Z" transform="translate(-4421.266 -2877.579)" fill="#06ea8c"/>
  </g>
</svg>
