<svg xmlns="http://www.w3.org/2000/svg" xmlns:xlink="http://www.w3.org/1999/xlink" width="432" height="43" viewBox="0 0 432 43">
  <defs>
    <clipPath id="clip-Artboard_3">
      <rect width="432" height="43"/>
    </clipPath>
  </defs>
  <g id="Artboard_3" data-name="Artboard – 3" clip-path="url(#clip-Artboard_3)">
    <rect width="432" height="43" fill="#fff"/>
    <path id="Path_32050" data-name="Path 32050" d="M4850.555,2898.571c-1.9-5.78,1.059-12.1-.006-17.884l-.179-.959c-.175-.961-2.721-1.7-5.7-1.646-6.513.115-12.986.244-19.3.3-20.021.17-48.237.3-68.295.283q-59.64-.048-119.194-.477c-40.1-.27-80,.229-120.161.266-29.915.026-59.766.042-89.528-.35-3.256-.043-5.9.841-5.59,1.888a25.477,25.477,0,0,1,.94,4.9c1.02,11.014-2.026,21.144-2.28,32.162-.021.968,2.429,1.756,5.425,1.756h418.475c3,0,5.39-.794,5.375-1.765C4850.436,2910.635,4852.634,2904.893,4850.555,2898.571Z" transform="translate(-4420.266 -2877.079)" fill="#e0e2e3"/>
  </g>
</svg>
